<svg width="1206" height="1215" viewBox="0 0 1206 1215" fill="none" xmlns="http://www.w3.org/2000/svg">
<path d="M811.879 767.105C849.48 674.748 805.091 569.397 712.735 531.796L648.565 505.67C556.141 468.042 450.712 512.463 413.084 604.887C378.916 688.813 412.195 785.067 490.905 829.966L517.527 845.152C533.023 853.992 549.611 860.76 566.868 865.285L598.86 873.673C686.551 896.665 777.695 851.068 811.879 767.105Z" fill="#EDEDED"/>
<path fill-rule="evenodd" clip-rule="evenodd" d="M797.985 863.226L743.653 817.229C716.576 794.306 713.209 753.773 736.131 726.696C759.054 699.619 799.587 696.252 826.664 719.175L868.597 754.674C853.491 766.616 818.221 805.046 797.985 863.226ZM893.196 775.499L910.529 790.173C937.606 813.096 940.974 853.629 918.051 880.706C895.128 907.783 854.595 911.151 827.518 888.228L820.796 882.537C848.159 827.407 880.464 788.208 893.196 775.499Z" fill="#E4E4E4"/>
<path d="M797.985 863.226C818.221 805.046 853.491 766.616 868.597 754.674L893.196 775.499C880.464 788.208 848.159 827.407 820.796 882.537L797.985 863.226Z" fill="#39568D"/>
<path d="M889.306 844.957C881.058 868.079 862.462 883.781 869.731 886.374C877.001 888.967 904.564 883.349 912.811 860.228C921.058 837.106 905.087 803.069 897.817 800.476C890.548 797.883 897.553 821.836 889.306 844.957Z" fill="#F7F7F7"/>
<path fill-rule="evenodd" clip-rule="evenodd" d="M343.641 687.47L419.891 692.096C455.303 694.244 485.752 667.278 487.9 631.866C490.048 596.454 463.082 566.005 427.67 563.857L368.26 560.253C371.069 579.333 370.078 631.489 343.641 687.47ZM334.852 558.227L308.85 556.649C273.438 554.501 242.989 581.467 240.841 616.879C238.693 652.291 265.659 682.74 301.071 684.888L312.663 685.591C331.556 626.87 335.328 576.215 334.852 558.227Z" fill="#E4E4E4"/>
<path d="M343.641 687.47C370.078 631.489 371.069 579.333 368.26 560.253L334.852 558.227C335.328 576.215 331.556 626.87 312.663 685.591L343.641 687.47Z" fill="#39568D"/>
<path d="M286.324 610.911C276.303 633.321 278.89 657.523 271.844 654.372C264.799 651.222 248.761 628.111 258.782 605.701C268.802 583.291 303.87 569.731 310.916 572.881C317.962 576.031 296.344 588.501 286.324 610.911Z" fill="#F7F7F7"/>
<circle r="211.589" transform="matrix(-0.926183 -0.377074 -0.377074 0.926183 699.951 473.112)" fill="#EDEDED"/>
<path d="M575.045 434.92L578.329 437.21C588.471 444.279 595.342 455.132 597.392 467.323L603.083 501.15C603.926 506.163 605.245 511.083 607.022 515.845L618.586 546.839C621.221 553.901 624.841 560.555 629.338 566.604L656.679 603.38C657.463 604.435 658.35 605.408 659.327 606.286C671.331 617.076 666.033 636.928 650.248 640.301L648.973 640.574C644.968 641.43 640.797 641.062 637.004 639.517L609.779 628.433C600.647 624.716 592.281 619.342 585.103 612.582L554.612 583.872C547.146 576.842 541.101 568.442 536.807 559.13L522.064 527.159C518.088 518.538 515.679 509.278 514.948 499.812L512.693 470.583C511.521 455.4 519.129 440.882 532.28 433.204C545.652 425.396 562.341 426.066 575.045 434.92Z" fill="#DFDFDF"/>
<path d="M803.679 316.411C841.089 344.43 886.015 403.172 880.725 496.004C879.669 514.522 860.268 525.138 843.089 518.144C839.767 516.791 836.722 514.838 834.106 512.383L806.923 486.865L726.873 404.699C713.477 390.949 708.09 371.278 712.611 352.622C717.173 333.797 731.172 318.685 749.593 312.698L755.642 310.732C771.932 305.438 789.969 306.143 803.679 316.411Z" fill="white"/>
<path d="M546.655 491.818C543.759 451.775 554.847 416.466 576.395 383.078C585.746 368.588 599.548 348.525 613.933 338.765" stroke="white" stroke-width="40" stroke-linecap="round"/>
<path d="M681.082 299.884L666.252 303.78" stroke="white" stroke-width="20" stroke-linecap="round"/>
<path d="M545.97 528.337C538.916 536.826 542.278 577.239 558.734 590.914C575.19 604.589 594.249 608.792 601.303 600.303C608.358 591.814 596.413 579.049 579.957 565.374C563.501 551.699 553.025 519.848 545.97 528.337Z" fill="white"/>
<circle r="212.356" transform="matrix(-0.926183 -0.377074 -0.377074 0.926183 700.372 474.111)" stroke="#090909" stroke-width="3"/>
<ellipse rx="135.693" ry="136.46" transform="matrix(-0.926183 -0.377074 -0.377074 0.926183 700.661 473.401)" fill="#5162FF"/>
<path d="M576.374 422.8C548.265 491.842 581.136 570.455 649.771 598.398C718.406 626.341 796.84 593.043 824.948 524.001C853.057 454.96 820.185 376.346 751.551 348.403C682.916 320.46 604.482 353.759 576.374 422.8Z" stroke="black" stroke-opacity="0.8" stroke-width="3"/>
<path fill-rule="evenodd" clip-rule="evenodd" d="M744.484 360.664C745.087 359.757 746.501 360.332 746.299 361.403L734.37 424.692C733.631 428.61 737.55 431.773 741.224 430.226L801.151 404.992C802.146 404.573 803.007 405.81 802.269 406.597L753.151 459.012C750.585 461.75 751.838 466.235 755.452 467.246L823.95 486.411C825 486.704 824.889 488.227 823.808 488.365L759.931 496.577C755.977 497.086 754.179 501.79 756.785 504.806L799.303 554.002C800.009 554.819 799.099 556.02 798.122 555.561L733.094 525.044C729.697 523.45 725.819 526.028 725.974 529.777L728.915 600.846C728.96 601.934 727.478 602.3 727.012 601.315L699.462 543.101C697.757 539.498 692.727 539.241 690.665 542.652L657.015 598.291C656.456 599.215 655.033 598.721 655.167 597.65L664.096 526.375C664.562 522.651 660.913 519.76 657.394 521.066L590.713 545.824C589.692 546.203 588.886 544.907 589.679 544.159L636.53 499.969C639.43 497.234 638.12 492.371 634.238 491.463L570.924 476.654C569.873 476.408 569.903 474.901 570.963 474.698L641.509 461.164C645.194 460.457 646.816 456.093 644.487 453.15L600.335 397.384C599.659 396.529 600.643 395.363 601.599 395.886L658.104 426.788C661.602 428.701 665.822 425.952 665.486 421.98L660.005 357.188C659.914 356.112 661.356 355.676 661.877 356.621L696.548 419.532C698.359 422.819 703.011 423.012 705.09 419.887L744.484 360.664Z" fill="white" fill-opacity="0.15"/>
<circle r="86.6289" transform="matrix(-0.926183 -0.377074 -0.377074 0.926183 698.638 478.371)" fill="#090909"/>
<path fill-rule="evenodd" clip-rule="evenodd" d="M713.687 960.734C737.993 914.016 757.479 864.612 747.461 843.022C717.831 833.172 639.8 820.437 564.718 848.297C558.275 853.507 546.984 869.734 536.926 900.721C558.615 917.961 624.331 954.1 713.687 960.734ZM691.429 1000.8C688.131 1006.4 684.877 1011.8 681.723 1016.92C673.144 1030.85 657.882 1039.57 641.579 1038.18C588.581 1033.66 552.399 1011.81 532.908 993.157C524.238 984.858 521.418 972.546 523.226 960.682C524.668 951.219 526.286 942.429 528.03 934.28C584.271 979.487 660.396 997.466 691.429 1000.8Z" fill="#D8D8D8"/>
<path d="M536.926 900.721C558.615 917.961 624.331 954.1 713.687 960.734C706.477 974.593 698.843 988.215 691.429 1000.8C660.396 997.466 584.271 979.487 528.03 934.28C530.75 921.571 533.778 910.423 536.926 900.721Z" fill="#3258A2"/>
<path fill-rule="evenodd" clip-rule="evenodd" d="M713.687 960.734C737.993 914.016 757.479 864.612 747.461 843.022C717.831 833.172 639.8 820.437 564.718 848.297C558.275 853.507 546.984 869.734 536.926 900.721C558.615 917.961 624.331 954.1 713.687 960.734ZM691.429 1000.8C686.238 1009.62 681.156 1017.93 676.403 1025.45C671.031 1033.96 661.681 1039.23 651.628 1038.81C587.999 1036.16 546.82 1008.7 527.896 988.044C522.911 982.602 521.187 975.082 522.197 967.771C523.882 955.573 525.858 944.429 528.03 934.28C584.271 979.487 660.396 997.466 691.429 1000.8Z" fill="#D8D8D8"/>
<path fill-rule="evenodd" clip-rule="evenodd" d="M349.964 811.325C365.202 760.915 385.764 711.949 408.014 703.496C436.098 717.143 500.835 762.532 535.106 834.913C536.078 843.142 532.824 862.641 518.377 891.841C490.814 889.03 418.544 868.99 349.964 811.325ZM337.904 855.547C336.353 861.858 334.913 867.992 333.593 873.86C330.002 889.823 334.837 906.718 347.475 917.11C388.56 950.894 429.71 960.534 456.689 960.798C468.69 960.915 479.307 954.074 486.301 944.32C491.878 936.541 496.86 929.121 501.304 922.072C429.48 915.139 362.444 874.834 337.904 855.547Z" fill="#D8D8D8"/>
<path d="M518.377 891.841C490.814 889.03 418.544 868.99 349.964 811.325C345.444 826.279 341.392 841.359 337.904 855.547C362.444 874.834 429.48 915.139 501.304 922.072C508.234 911.076 513.854 900.983 518.377 891.841Z" fill="#3258A2"/>
<path fill-rule="evenodd" clip-rule="evenodd" d="M349.964 811.325C365.202 760.915 385.764 711.949 408.014 703.496C436.098 717.143 500.835 762.532 535.106 834.913C536.078 843.142 532.824 862.641 518.377 891.841C490.814 889.03 418.544 868.99 349.964 811.325ZM337.904 855.547C335.463 865.48 333.297 874.976 331.44 883.683C329.342 893.524 332.354 903.824 339.84 910.546C387.226 953.093 435.876 962.204 463.847 960.639C471.216 960.227 477.702 956.05 482.085 950.113C489.4 940.207 495.77 930.851 501.304 922.072C429.48 915.139 362.444 874.834 337.904 855.547Z" fill="#D8D8D8"/>
<path fill-rule="evenodd" clip-rule="evenodd" d="M806.721 212.49C926.835 261.392 995.049 383.598 980.74 506.426C1010.17 518.407 1006.74 555.08 993.138 576.541L970.414 632.357C952.364 655.816 934.802 647.515 928.277 640.432C853.66 742.758 716.437 785.242 593.856 735.336C471.276 685.43 402.749 559.18 420.823 433.834C419.626 433.347 418.341 433.016 417.003 432.672C409.745 430.806 400.947 428.545 396.309 398.623L413.236 357.046L432.482 309.774C433.884 308.873 435.305 307.926 436.742 306.968C449.136 298.71 462.796 289.608 476.879 301.291C552.432 203.397 686.607 163.589 806.721 212.49ZM620.648 667.897C513.071 624.1 461.368 501.386 505.165 393.809C548.963 286.232 671.676 234.529 779.253 278.326C886.83 322.124 938.534 444.837 894.736 552.414C850.939 659.991 728.226 711.695 620.648 667.897Z" fill="#D1D1D1"/>
<path fill-rule="evenodd" clip-rule="evenodd" d="M608.928 698.315C484.68 647.731 424.964 506 475.549 381.752C526.133 257.503 667.864 197.787 792.112 248.372C916.361 298.957 976.077 440.687 925.492 564.936C874.907 689.184 733.177 748.9 608.928 698.315ZM618.526 675.541C506.455 629.914 452.592 502.076 498.219 390.005C543.846 277.935 671.685 224.072 783.755 269.699C895.825 315.326 949.688 443.164 904.061 555.235C858.435 667.305 730.596 721.168 618.526 675.541Z" fill="#20345A"/>
<path d="M788.447 222.313C783.094 226.754 852.609 264.126 893.155 313.008C933.701 361.89 960.036 441.209 965.389 436.769C970.742 432.329 953.086 345.811 912.54 296.929C871.994 248.047 793.8 217.873 788.447 222.313Z" fill="white" fill-opacity="0.5"/>
<path fill-rule="evenodd" clip-rule="evenodd" d="M641.727 768.769C650.975 772.534 655.42 783.083 651.655 792.331L648.617 799.792C643.174 813.16 627.925 819.585 614.556 814.143L511.024 771.992L641.727 768.769Z" fill="#11122F" fill-opacity="0.5"/>
<path d="M511.024 771.992C502.304 768.442 498.114 758.496 501.664 749.776L505.091 741.358C510.533 727.99 525.783 721.565 539.151 727.007L641.727 768.769L511.024 771.992Z" fill="#11122F" fill-opacity="0.5"/>
<path fill-rule="evenodd" clip-rule="evenodd" d="M643.078 771.974C652.326 775.739 656.77 786.288 653.005 795.536L649.968 802.997C644.525 816.366 629.276 822.791 615.907 817.348L512.374 775.197L643.078 771.974Z" fill="#E2E2E2"/>
<path d="M512.374 775.197C503.655 771.648 499.464 761.701 503.014 752.982L506.441 744.564C511.884 731.195 527.134 724.77 540.502 730.213L643.078 771.974L512.374 775.197Z" fill="#EDEDED"/>
<path d="M565.816 875.965C555.379 901.601 600.284 921.203 633.312 934.65C666.34 948.097 708.586 946.042 727.75 878.817C738.187 853.181 675.941 905.529 642.913 892.082C609.885 878.636 576.254 850.329 565.816 875.965Z" fill="#EDEDED"/>
</svg>
