<svg width="986" height="971" viewBox="0 0 986 971" fill="none" xmlns="http://www.w3.org/2000/svg">
<path fill-rule="evenodd" clip-rule="evenodd" d="M371.524 525.482C346.337 532.214 336.666 540.263 323.296 565.221C314.295 582.023 299.573 588.926 285.289 590.858C264.852 593.622 250.548 575.185 239.232 557.943C226.858 539.088 210.721 528.227 197.864 523.217C186.408 518.754 173.232 516.877 160.967 517.741C158.014 517.949 155.113 518.395 152.359 519.028C142.147 521.375 145.592 531.136 154.506 536.644C158.137 538.887 161.558 541.577 164.716 544.525V544.525C164.716 540.114 169.026 536.97 172.998 538.889C187.288 545.79 193.759 556.253 195.818 562.751C196.331 564.371 196.703 566.035 197.286 567.631C204.898 588.485 214.308 597.821 221.1 602.575C240.834 612.724 254.46 624.424 259.159 629.358V629.358C266.577 638.167 271.907 648.718 274.664 659.899V659.899C282.6 661.074 288.858 661.074 292.284 661.074C383.661 661.074 398.236 598.695 406.131 564.906C406.262 564.347 406.39 563.797 406.518 563.254C408.152 556.281 407.71 548.922 404.855 542.354C399.219 529.391 385.179 521.831 371.524 525.482ZM184.989 573.785C185.089 574.05 185.185 574.312 185.277 574.571C185.183 574.308 185.088 574.046 184.989 573.785Z" fill="#A559BF"/>
<path d="M172.998 538.889C169.026 536.97 164.716 540.114 164.716 544.525V544.525C174.516 553.674 181.789 565.304 184.978 573.756L184.989 573.785C185.089 574.05 185.185 574.312 185.277 574.571C186.47 577.928 187.304 581.418 188.618 584.729L188.622 584.74C211.406 642.09 250.691 656.352 274.664 659.899V659.899C271.907 648.718 266.577 638.167 259.159 629.358V629.358C254.46 624.424 240.834 612.724 221.1 602.575C214.308 597.821 204.898 588.485 197.286 567.631C196.703 566.035 196.331 564.371 195.818 562.751C193.759 556.253 187.288 545.79 172.998 538.889Z" fill="#EE8DBC"/>
<path d="M323.296 565.221L321.533 564.276L321.533 564.276L323.296 565.221ZM221.1 602.575L219.953 604.214L220.064 604.292L220.185 604.354L221.1 602.575ZM274.664 659.899L274.372 661.878L274.372 661.878L274.664 659.899ZM406.518 563.254L404.57 562.797L404.57 562.797L406.518 563.254ZM188.622 584.74L186.763 585.478L186.763 585.479L188.622 584.74ZM184.978 573.756L186.85 573.05L186.85 573.05L184.978 573.756ZM154.506 536.644L153.455 538.345L153.455 538.345L154.506 536.644ZM239.232 557.943L237.56 559.04L237.56 559.04L239.232 557.943ZM285.289 590.858L285.021 588.876L285.021 588.876L285.289 590.858ZM406.131 564.906L408.079 565.361L408.079 565.361L406.131 564.906ZM184.989 573.785L186.861 573.08L186.861 573.08L184.989 573.785ZM197.286 567.631L195.407 568.317L197.286 567.631ZM172.998 538.889L172.128 540.69L172.998 538.889ZM188.3 583.924L186.438 584.653L188.3 583.924ZM274.372 661.878C282.458 663.074 288.836 663.074 292.284 663.074V659.074C288.88 659.074 282.742 659.073 274.957 657.921L274.372 661.878ZM172.128 540.69C185.903 547.343 192.012 557.361 193.912 563.355L197.725 562.147C195.506 555.145 188.673 544.238 173.868 537.088L172.128 540.69ZM195.407 568.317C203.149 589.526 212.8 599.207 219.953 604.214L222.247 600.937C215.816 596.435 206.648 587.445 199.164 566.945L195.407 568.317ZM220.185 604.354C239.726 614.404 253.171 625.97 257.711 630.737L260.607 627.978C255.75 622.878 241.942 611.045 222.014 600.797L220.185 604.354ZM325.059 566.165C331.705 553.759 337.317 545.783 344.252 540.059C351.169 534.35 359.566 530.748 372.04 527.414L371.007 523.549C358.295 526.947 349.263 530.736 341.706 536.974C334.165 543.198 328.257 551.725 321.533 564.276L325.059 566.165ZM372.04 527.414C384.651 524.043 397.742 531.01 403.021 543.151L406.689 541.556C400.696 527.773 385.708 519.62 371.007 523.549L372.04 527.414ZM403.021 543.151C405.687 549.285 406.117 556.2 404.57 562.797L408.465 563.71C410.187 556.362 409.733 548.559 406.689 541.556L403.021 543.151ZM274.957 657.921C251.531 654.455 212.947 640.551 190.481 584.002L186.763 585.479C209.865 643.628 249.851 658.25 274.372 661.878L274.957 657.921ZM186.85 573.05C183.55 564.304 176.1 552.417 166.081 543.063L163.351 545.987C172.932 554.931 180.029 566.305 183.107 574.462L186.85 573.05ZM166.081 543.063C162.841 540.04 159.317 537.265 155.557 534.942L153.455 538.345C156.957 540.509 160.274 543.115 163.351 545.987L166.081 543.063ZM155.557 534.942C151.36 532.349 148.767 528.931 148.22 526.251C147.96 524.978 148.168 523.968 148.747 523.177C149.349 522.354 150.553 521.495 152.807 520.977L151.911 517.079C149.059 517.734 146.864 518.976 145.518 520.815C144.149 522.687 143.861 524.901 144.301 527.051C145.151 531.215 148.738 535.431 153.455 538.345L155.557 534.942ZM152.807 520.977C155.464 520.367 158.261 519.936 161.108 519.736L160.827 515.746C157.766 515.961 154.762 516.424 151.911 517.079L152.807 520.977ZM161.108 519.736C173.091 518.892 185.969 520.73 197.138 525.081L198.59 521.354C186.846 516.778 173.373 514.862 160.827 515.746L161.108 519.736ZM197.138 525.081C209.635 529.95 225.429 540.557 237.56 559.04L240.904 556.846C228.286 537.619 211.806 526.503 198.59 521.354L197.138 525.081ZM237.56 559.04C243.228 567.676 249.764 576.807 257.544 583.426C265.364 590.079 274.599 594.322 285.557 592.84L285.021 588.876C275.542 590.158 267.406 586.565 260.136 580.379C252.826 574.16 246.552 565.452 240.904 556.846L237.56 559.04ZM285.557 592.84C300.309 590.845 315.682 583.667 325.059 566.165L321.533 564.276C312.907 580.378 298.837 587.007 285.021 588.876L285.557 592.84ZM292.284 663.074C338.495 663.074 365.587 647.266 382.067 626.92C398.447 606.698 404.14 582.217 408.079 565.361L404.184 564.451C400.227 581.384 394.685 604.987 378.959 624.402C363.334 643.692 337.45 659.074 292.284 659.074V663.074ZM408.079 565.361C408.209 564.802 408.338 564.252 408.465 563.71L404.57 562.797C404.443 563.341 404.314 563.893 404.184 564.451L408.079 565.361ZM186.759 585.467C186.76 585.469 186.76 585.47 186.761 585.472C186.762 585.474 186.763 585.476 186.763 585.478L190.481 584.002C190.48 584 190.48 583.999 190.479 583.997C190.478 583.995 190.477 583.993 190.477 583.991L186.759 585.467ZM183.117 574.489C183.213 574.743 183.305 574.993 183.392 575.24L187.162 573.903C187.066 573.631 186.965 573.357 186.861 573.08L183.117 574.489ZM187.161 573.901C187.064 573.628 186.964 573.354 186.861 573.08L183.117 574.489C183.211 574.738 183.303 574.989 183.393 575.241L187.161 573.901ZM183.107 574.462C183.111 574.471 183.114 574.48 183.117 574.489L186.861 573.08C186.857 573.07 186.853 573.06 186.85 573.05L183.107 574.462ZM186.438 584.653C186.545 584.926 186.652 585.197 186.759 585.467L190.476 583.991C190.371 583.726 190.267 583.461 190.162 583.194L186.438 584.653ZM190.477 583.991C189.852 582.417 189.335 580.785 188.815 579.082C188.301 577.402 187.777 575.634 187.161 573.901L183.393 575.241C183.97 576.866 184.46 578.521 184.99 580.252C185.512 581.962 186.069 583.73 186.759 585.467L190.477 583.991ZM183.107 574.461L183.118 574.49L186.861 573.079L186.85 573.05L183.107 574.461ZM186.759 585.467L186.763 585.478L190.481 584.002L190.477 583.991L186.759 585.467ZM193.912 563.355C194.155 564.124 194.363 564.895 194.601 565.741C194.833 566.567 195.088 567.443 195.407 568.317L199.164 566.945C198.901 566.223 198.679 565.469 198.451 564.659C198.229 563.869 197.994 562.998 197.725 562.147L193.912 563.355ZM166.716 544.525C166.716 541.342 169.7 539.517 172.128 540.69L173.868 537.088C168.352 534.424 162.716 538.886 162.716 544.525H166.716ZM408.465 563.71C410.183 556.38 409.726 548.541 406.689 541.556L403.021 543.151C405.68 549.268 406.113 556.218 404.57 562.797L408.465 563.71ZM151.911 517.079C149.059 517.734 146.864 518.976 145.518 520.815C144.149 522.687 143.862 524.901 144.301 527.051C145.151 531.215 148.738 535.431 153.455 538.345L155.557 534.942C151.36 532.349 148.767 528.931 148.22 526.251C147.96 524.978 148.168 523.968 148.747 523.177C149.349 522.354 150.553 521.495 152.807 520.977L151.911 517.079ZM198.59 521.354C186.854 516.781 173.365 514.863 160.827 515.746L161.108 519.736C173.082 518.893 185.977 520.733 197.138 525.081L198.59 521.354ZM257.629 630.646C264.847 639.217 270.038 649.49 272.723 660.378L276.606 659.421C273.777 647.945 268.307 637.117 260.689 628.069L257.629 630.646ZM285.021 588.876C275.542 590.158 267.406 586.565 260.136 580.38C252.826 574.16 246.553 565.452 240.904 556.846L237.56 559.04C243.228 567.676 249.764 576.807 257.544 583.426C265.364 590.079 274.599 594.322 285.557 592.84L285.021 588.876ZM183.392 575.24C183.918 576.724 184.358 578.239 184.835 579.835C185.305 581.407 185.807 583.044 186.438 584.653L190.162 583.194C189.598 581.754 189.136 580.258 188.667 578.689C188.205 577.142 187.73 575.506 187.162 573.903L183.392 575.24ZM406.689 541.556C400.696 527.773 385.708 519.62 371.007 523.549L372.04 527.414C384.651 524.043 397.742 531.01 403.021 543.151L406.689 541.556Z" fill="#080808"/>
<path fill-rule="evenodd" clip-rule="evenodd" d="M430.428 546.011C369.724 588.226 385.949 669.124 389.089 682.365C389.136 682.565 389.184 682.764 389.231 682.963C389.486 684.026 389.735 685.07 389.928 686.156C390.885 691.538 390.99 696.285 390.451 700.522C387.334 725.056 351.482 729.041 335.777 709.937C328.717 701.349 324.685 692.287 322.602 684.218C309.771 651.958 326.422 620.09 339.281 606.122C341.252 603.981 340.399 600.256 337.512 599.895C322.479 598.015 310.184 604.188 300.65 614.557V614.557C306.374 613.061 311.47 618.604 309.714 624.254C298.726 659.618 298.294 683.11 299.969 693.374C300.313 695.483 300.786 697.572 301.138 699.68C305.921 728.327 319.017 743.411 333.163 747.764C341.84 750.434 349.631 756.857 355.421 763.117C361.575 769.768 362.083 779.481 358.535 787.819V787.819C360.588 788.178 362.482 788.445 364.182 788.642C421.266 788.642 437.475 757.929 441.704 727.216C445.083 702.671 442.418 667.367 441.817 660.185C441.743 659.299 441.64 658.42 441.529 657.538C437.135 622.703 446.679 602.269 457.631 584.937C467.155 569.864 472.587 546.254 455.782 540.296C446.37 536.959 436.244 541.485 430.428 546.011Z" fill="#A559BF"/>
<path d="M300.65 614.557C281.517 635.365 273.502 673.072 276.793 696.504C286.551 765.956 333.933 783.514 358.535 787.819V787.819C362.083 779.481 361.575 769.768 355.421 763.117C349.631 756.857 341.84 750.434 333.163 747.764C319.017 743.411 305.921 728.327 301.138 699.68C300.786 697.572 300.313 695.483 299.969 693.374C298.294 683.11 298.726 659.618 309.714 624.254C311.47 618.604 306.374 613.061 300.65 614.557V614.557Z" fill="#EE8DBC"/>
<path d="M430.428 546.011L431.57 547.653L431.614 547.622L431.656 547.589L430.428 546.011ZM322.602 684.218L324.538 683.719L324.507 683.596L324.46 683.479L322.602 684.218ZM276.793 696.504L274.813 696.782L274.813 696.782L276.793 696.504ZM364.182 788.642L363.952 790.629L364.066 790.642H364.182V788.642ZM441.704 727.216L439.723 726.944L441.704 727.216ZM300.65 614.557L299.178 613.203L299.178 613.203L300.65 614.557ZM333.163 747.764L332.575 749.675L333.163 747.764ZM358.535 787.819L358.191 789.789L358.535 787.819ZM389.089 682.365L387.142 682.826L387.143 682.826L389.089 682.365ZM455.782 540.296L455.114 542.181L455.114 542.181L455.782 540.296ZM457.631 584.937L455.94 583.869L455.94 583.869L457.631 584.937ZM441.529 657.538L443.513 657.288L443.513 657.288L441.529 657.538ZM441.817 660.185L439.824 660.351L439.824 660.351L441.817 660.185ZM339.281 606.122L337.81 604.768L337.81 604.768L339.281 606.122ZM335.777 709.937L334.232 711.207L335.777 709.937ZM389.928 686.156L387.959 686.506L387.959 686.506L389.928 686.156ZM389.231 682.963L391.176 682.497L391.176 682.497L389.231 682.963ZM355.421 763.117L353.953 764.475L355.421 763.117ZM309.714 624.254L307.804 623.661L309.714 624.254ZM441.534 657.582L439.55 657.833L441.534 657.582ZM301.138 699.68L303.111 699.351L301.138 699.68ZM389.917 686.094L387.949 686.446L389.917 686.094ZM364.182 790.642C393.089 790.642 411.975 782.856 424.166 770.873C436.323 758.922 441.54 743.069 443.685 727.489L439.723 726.944C437.639 742.077 432.637 756.936 421.362 768.02C410.12 779.071 392.36 786.642 364.182 786.642V790.642ZM299.178 613.203C289.322 623.922 282.416 638.88 278.38 654.032C274.343 669.188 273.122 684.746 274.813 696.782L278.774 696.225C277.173 684.83 278.314 669.819 282.245 655.062C286.177 640.3 292.844 626.001 302.122 615.91L299.178 613.203ZM307.804 623.661C296.759 659.208 296.254 683.028 297.995 693.696L301.942 693.052C300.334 683.192 300.693 660.028 311.624 624.848L307.804 623.661ZM299.166 700.01C304.018 729.074 317.434 745.016 332.575 749.675L333.751 745.852C320.6 741.806 307.824 727.579 303.111 699.351L299.166 700.01ZM332.575 749.675C340.763 752.195 348.264 758.325 353.953 764.475L356.889 761.759C350.998 755.39 342.918 748.673 333.751 745.852L332.575 749.675ZM274.813 696.782C279.756 731.968 294.27 754.176 310.808 768.121C327.305 782.03 345.671 787.598 358.191 789.789L358.88 785.849C346.797 783.735 329.171 778.372 313.387 765.063C297.644 751.789 283.588 730.492 278.774 696.225L274.813 696.782ZM358.191 789.789C360.283 790.155 362.215 790.427 363.952 790.629L364.412 786.655C362.748 786.462 360.893 786.201 358.88 785.849L358.191 789.789ZM391.035 681.903C389.49 675.388 384.702 652.111 387.804 625.283C390.902 598.479 401.843 568.326 431.57 547.653L429.286 544.369C398.309 565.911 387.01 597.314 383.83 624.824C380.653 652.309 385.548 676.101 387.142 682.826L391.035 681.903ZM431.656 547.589C437.255 543.233 446.651 539.181 455.114 542.181L456.45 538.411C446.088 534.737 435.233 539.737 429.2 544.433L431.656 547.589ZM455.114 542.181C458.848 543.505 461.258 545.759 462.725 548.586C464.216 551.462 464.795 555.059 464.583 559.094C464.158 567.19 460.576 576.532 455.94 583.869L459.322 586.005C464.21 578.269 468.107 568.269 468.577 559.303C468.813 554.807 468.194 550.442 466.275 546.744C464.332 542.998 461.119 540.066 456.45 538.411L455.114 542.181ZM455.94 583.869C444.821 601.465 435.076 622.362 439.544 657.788L443.513 657.288C439.194 623.043 448.537 603.073 459.322 586.005L455.94 583.869ZM439.544 657.788C439.654 658.661 439.753 659.507 439.824 660.351L443.81 660.018C443.733 659.09 443.625 658.179 443.513 657.288L439.544 657.788ZM439.824 660.351C440.427 667.558 443.068 702.649 439.723 726.944L443.685 727.489C447.099 702.693 444.409 667.177 443.81 660.018L439.824 660.351ZM302.122 615.91C311.324 605.903 323.013 600.097 337.264 601.879L337.76 597.91C321.946 595.932 309.045 602.472 299.178 613.203L302.122 615.91ZM337.264 601.879C337.767 601.942 338.129 602.261 338.284 602.851C338.451 603.481 338.302 604.233 337.81 604.768L340.753 607.477C342.232 605.87 342.642 603.689 342.152 601.831C341.652 599.933 340.145 598.208 337.76 597.91L337.264 601.879ZM337.81 604.768C324.689 619.02 307.51 651.686 320.743 684.958L324.46 683.479C312.031 652.23 328.156 621.16 340.753 607.477L337.81 604.768ZM320.665 684.718C322.813 693.039 326.968 702.372 334.232 711.207L337.322 708.666C330.465 700.327 326.556 691.534 324.538 683.719L320.665 684.718ZM334.232 711.207C342.6 721.386 356.233 725.333 368.127 723.572C380.056 721.807 390.732 714.179 392.435 700.774L388.467 700.27C387.053 711.4 378.245 718.031 367.542 719.615C356.804 721.205 344.659 717.592 337.322 708.666L334.232 711.207ZM392.435 700.774C393.002 696.315 392.886 691.365 391.898 685.806L387.959 686.506C388.884 691.711 388.977 696.254 388.467 700.27L392.435 700.774ZM387.143 682.826C387.191 683.029 387.239 683.23 387.286 683.428L391.176 682.497C391.129 682.298 391.082 682.101 391.035 681.903L387.143 682.826ZM387.286 683.428C387.543 684.5 387.778 685.487 387.959 686.506L391.898 685.806C391.693 684.652 391.429 683.552 391.176 682.497L387.286 683.428ZM387.949 686.446C387.952 686.466 387.956 686.486 387.959 686.506L391.898 685.806C391.894 685.785 391.89 685.763 391.886 685.742L387.949 686.446ZM443.519 657.332C443.517 657.317 443.515 657.302 443.513 657.288L439.544 657.788C439.546 657.803 439.548 657.818 439.55 657.833L443.519 657.332ZM353.953 764.475C359.434 770.4 360.022 779.216 356.695 787.036L360.376 788.602C364.143 779.746 363.715 769.137 356.889 761.759L353.953 764.475ZM301.156 616.492C305.288 615.412 309.117 619.436 307.804 623.661L311.624 624.848C313.822 617.773 307.461 610.709 300.144 612.622L301.156 616.492ZM439.55 657.833C439.658 658.687 439.755 659.522 439.824 660.351L443.81 660.018C443.734 659.108 443.629 658.209 443.519 657.332L439.55 657.833ZM459.322 586.005C464.21 578.269 468.106 568.27 468.577 559.304C468.813 554.807 468.193 550.442 466.275 546.744C464.331 542.998 461.119 540.066 456.45 538.411L455.114 542.181C458.847 543.505 461.258 545.759 462.724 548.586C464.216 551.462 464.794 555.059 464.582 559.094C464.157 567.191 460.576 576.532 455.94 583.869L459.322 586.005ZM340.753 607.477C342.232 605.87 342.642 603.689 342.152 601.831C341.652 599.933 340.145 598.208 337.76 597.91L337.264 601.879C337.766 601.942 338.129 602.261 338.284 602.851C338.451 603.481 338.302 604.233 337.81 604.768L340.753 607.477ZM388.467 700.27C387.053 711.398 378.245 718.029 367.541 719.613C356.803 721.202 344.658 717.59 337.322 708.666L334.232 711.207C342.599 721.385 356.232 725.33 368.127 723.57C380.055 721.804 390.732 714.177 392.435 700.774L388.467 700.27ZM297.995 693.696C298.173 694.787 298.383 695.866 298.588 696.912C298.794 697.968 298.995 698.988 299.166 700.01L303.111 699.351C302.929 698.264 302.717 697.186 302.513 696.143C302.307 695.091 302.109 694.071 301.942 693.052L297.995 693.696ZM391.886 685.742C391.649 684.418 391.32 683.105 391.035 681.903L387.143 682.826C387.445 684.103 387.737 685.263 387.949 686.446L391.886 685.742Z" fill="#080808"/>
<path fill-rule="evenodd" clip-rule="evenodd" d="M502.159 661.709V661.709C501.784 665.951 501.888 670.251 502.287 674.491V674.491C501.887 670.24 501.783 665.962 502.159 661.709ZM412.966 739.864V739.864C412.474 743.114 412.488 746.501 413.829 749.503V749.503C412.488 746.501 412.474 743.115 412.966 739.864ZM417.356 754.617V754.617C423.459 760.116 433.445 753.806 435.752 745.922V745.922C433.445 753.808 423.46 760.117 417.356 754.617Z" fill="#A559BF"/>
<path d="M393.116 734.372V734.372C396.325 734.372 399.023 736.739 399.708 739.874C401.745 749.188 405.333 757.92 408.412 764.124C410.689 768.712 417.57 773.123 421.923 775.82V775.82C428.474 779.879 427.791 786.035 425.553 793.409L424.787 795.937C424.843 795.949 424.899 795.962 424.955 795.974L425.096 796.004L426.662 796.346C431.104 797.315 435.638 797.804 440.185 797.804H446.542C455.788 797.804 464.874 795.396 472.907 790.818C483.301 784.892 491.397 775.639 495.888 764.549L498.86 757.213C500.694 752.683 502.043 747.963 502.593 743.107C505.587 716.632 503.479 687.171 502.287 674.491V674.491C501.888 670.251 501.784 665.951 502.159 661.709V661.709C505.492 623.973 510.503 601.379 517.669 582.782C523.863 566.706 527.798 544.965 511.579 539.155C502.395 535.864 492.326 537.823 486.84 542.299C433.788 588.592 433.147 677.835 433.315 690.052C433.328 691.015 433.385 691.952 433.465 692.912C434.089 700.447 434.723 706.96 435.275 712.64C436.9 729.346 437.823 738.844 435.752 745.922V745.922C433.445 753.806 423.459 760.116 417.356 754.617V754.617C415.782 753.2 414.655 751.353 413.829 749.503V749.503C412.488 746.501 412.474 743.114 412.966 739.864V739.864C415.166 725.359 404.378 717.259 396.154 729.408C395.029 731.071 394.005 732.744 393.116 734.372Z" fill="#A559BF"/>
<path d="M393.116 734.372C390.914 738.41 389.547 742.17 389.547 744.792C389.547 764.014 396.004 776.452 402.568 784.274L402.579 784.287C408.099 790.857 416.403 794.074 424.787 795.937L425.553 793.409C427.791 786.035 428.474 779.879 421.923 775.82V775.82C417.57 773.123 410.689 768.712 408.412 764.124C405.333 757.92 401.745 749.188 399.708 739.874C399.023 736.739 396.325 734.372 393.116 734.372V734.372Z" fill="#EE8DBC"/>
<path d="M486.84 542.299L485.575 540.749L485.55 540.77L485.525 540.792L486.84 542.299ZM393.116 734.372L391.361 733.415L391.361 733.415L393.116 734.372ZM433.315 690.052L431.315 690.08L431.315 690.08L433.315 690.052ZM511.579 539.155L510.904 541.038L510.904 541.038L511.579 539.155ZM517.669 582.782L515.802 582.063L515.802 582.063L517.669 582.782ZM502.593 743.107L500.605 742.882L500.605 742.882L502.593 743.107ZM495.888 764.549L494.035 763.799L494.035 763.799L495.888 764.549ZM412.966 739.864L410.989 739.564L410.989 739.564L412.966 739.864ZM413.829 749.503L412.003 750.319L412.003 750.319L413.829 749.503ZM417.356 754.617L416.017 756.103L416.017 756.103L417.356 754.617ZM435.752 745.922L433.833 745.36L433.833 745.36L435.752 745.922ZM433.465 692.912L435.458 692.747L435.458 692.747L433.465 692.912ZM435.275 712.64L437.266 712.447L437.266 712.447L435.275 712.64ZM402.579 784.287L401.047 785.573L401.047 785.574L402.579 784.287ZM425.553 793.409L423.639 792.829L425.553 793.409ZM408.412 764.124L406.621 765.013L408.412 764.124ZM433.459 692.844L431.466 693.009L433.459 692.844ZM391.361 733.415C389.129 737.506 387.547 741.64 387.547 744.792H391.547C391.547 742.7 392.698 739.314 394.872 735.33L391.361 733.415ZM397.754 740.302C399.836 749.821 403.493 758.711 406.621 765.013L410.204 763.235C407.173 757.129 403.653 748.555 401.662 739.447L397.754 740.302ZM423.639 792.829L422.873 795.356L426.7 796.517L427.467 793.99L423.639 792.829ZM435.315 690.024C435.232 683.999 435.348 658.809 442.07 629.399C448.799 599.954 462.089 566.55 488.154 543.806L485.525 540.792C458.539 564.34 444.982 598.704 438.17 628.508C431.35 658.348 431.23 683.888 431.315 690.08L435.315 690.024ZM488.104 543.849C492.99 539.863 502.308 537.958 510.904 541.038L512.253 537.272C502.482 533.771 491.662 535.784 485.575 540.749L488.104 543.849ZM510.904 541.038C514.525 542.335 516.944 544.478 518.517 547.171C520.114 549.904 520.902 553.313 521.03 557.185C521.286 564.961 518.863 574.121 515.802 582.063L519.535 583.501C522.669 575.367 525.31 565.618 525.028 557.053C524.886 552.753 524.004 548.634 521.971 545.153C519.914 541.633 516.742 538.88 512.253 537.272L510.904 541.038ZM515.802 582.063C508.545 600.898 503.509 623.695 500.167 661.533L504.151 661.885C507.475 624.251 512.461 601.859 519.535 583.501L515.802 582.063ZM500.167 661.533C499.778 665.934 499.887 670.337 500.295 674.678L504.278 674.304C503.887 670.143 503.789 665.991 504.151 661.885L500.167 661.533ZM500.295 674.678C501.485 687.327 503.576 716.619 500.605 742.882L504.58 743.331C507.599 716.644 505.473 687.015 504.278 674.304L500.295 674.678ZM500.605 742.882C500.081 747.519 498.788 752.061 497.006 756.462L500.713 757.963C502.6 753.305 504.006 748.406 504.58 743.331L500.605 742.882ZM497.006 756.462L494.035 763.799L497.742 765.3L500.713 757.963L497.006 756.462ZM494.035 763.799C489.712 774.472 481.921 783.378 471.917 789.08L473.897 792.555C484.682 786.407 493.082 776.806 497.742 765.3L494.035 763.799ZM471.917 789.08C464.186 793.487 455.44 795.804 446.542 795.804V799.804C456.135 799.804 465.563 797.306 473.897 792.555L471.917 789.08ZM446.542 795.804H440.185V799.804H446.542V795.804ZM440.185 795.804C435.781 795.804 431.391 795.331 427.088 794.392L426.236 798.3C430.818 799.3 435.495 799.804 440.185 799.804V795.804ZM427.088 794.392L425.522 794.05L424.669 797.958L426.236 798.3L427.088 794.392ZM404.1 782.988C397.82 775.505 391.547 763.516 391.547 744.792H387.547C387.547 764.512 394.188 777.399 401.035 785.56L404.1 782.988ZM394.872 735.33C395.727 733.762 396.718 732.143 397.81 730.529L394.498 728.287C393.34 729.998 392.282 731.726 391.361 733.415L394.872 735.33ZM397.81 730.529C399.709 727.724 401.608 726.31 403.201 725.771C404.735 725.252 406.137 725.483 407.353 726.3C409.907 728.017 412.027 732.718 410.989 739.564L414.944 740.164C416.106 732.504 413.931 725.903 409.585 722.981C407.351 721.479 404.652 721.057 401.918 721.982C399.244 722.888 396.711 725.018 394.498 728.287L397.81 730.529ZM410.989 739.564C410.47 742.987 410.438 746.815 412.003 750.319L415.655 748.687C414.538 746.187 414.477 743.243 414.944 740.164L410.989 739.564ZM412.003 750.319C412.895 752.316 414.164 754.433 416.017 756.103L418.694 753.131C417.401 751.966 416.415 750.389 415.655 748.687L412.003 750.319ZM416.017 756.103C419.899 759.601 424.903 759.177 428.913 757.057C432.902 754.948 436.355 750.983 437.672 746.483L433.833 745.36C432.842 748.746 430.149 751.879 427.043 753.521C423.957 755.152 420.917 755.134 418.694 753.131L416.017 756.103ZM435.458 692.747C435.381 691.815 435.327 690.926 435.315 690.024L431.315 690.08C431.329 691.103 431.39 692.089 431.472 693.077L435.458 692.747ZM431.472 693.077C432.097 700.628 432.732 707.154 433.284 712.834L437.266 712.447C436.713 706.766 436.081 700.266 435.458 692.747L431.472 693.077ZM433.284 712.834C434.099 721.211 434.728 727.688 434.901 732.957C435.073 738.223 434.781 742.12 433.833 745.36L437.672 746.483C438.795 742.645 439.076 738.255 438.899 732.826C438.721 727.4 438.076 720.775 437.266 712.447L433.284 712.834ZM424.353 797.889C424.414 797.903 424.474 797.916 424.531 797.928L425.379 794.019C425.324 794.007 425.272 793.996 425.221 793.984L424.353 797.889ZM424.531 797.928C424.58 797.939 424.624 797.948 424.669 797.958L425.522 794.05C425.474 794.04 425.424 794.029 425.379 794.019L424.531 797.928ZM401.035 785.559C401.038 785.562 401.04 785.565 401.042 785.567C401.044 785.57 401.045 785.571 401.046 785.572L404.111 783.002C404.109 782.999 404.106 782.996 404.104 782.994C404.102 782.991 404.101 782.99 404.1 782.989L401.035 785.559ZM431.466 693.009C431.468 693.032 431.47 693.054 431.472 693.077L435.458 692.747C435.456 692.724 435.454 692.702 435.452 692.679L431.466 693.009ZM425.22 793.984C416.979 792.153 409.204 789.063 404.11 783.001L401.047 785.574C406.994 792.651 415.827 795.995 424.353 797.889L425.22 793.984ZM424.53 797.928L424.671 797.959L425.52 794.05L425.38 794.019L424.53 797.928ZM401.036 785.56L401.047 785.573L404.11 783.001L404.099 782.988L401.036 785.56ZM420.87 777.52C423.649 779.242 424.758 781.271 425.049 783.618C425.362 786.137 424.75 789.169 423.639 792.829L427.467 793.99C428.594 790.275 429.443 786.542 429.019 783.125C428.573 779.535 426.748 776.457 422.977 774.12L420.87 777.52ZM406.621 765.013C407.964 767.72 410.548 770.196 413.149 772.25C415.795 774.34 418.689 776.169 420.87 777.52L422.977 774.12C420.804 772.774 418.081 771.048 415.629 769.111C413.132 767.139 411.137 765.116 410.204 763.235L406.621 765.013ZM393.116 736.372C395.301 736.372 397.251 738 397.754 740.302L401.662 739.447C400.794 735.479 397.35 732.372 393.116 732.372V736.372ZM473.897 792.555C484.682 786.407 493.082 776.806 497.742 765.3L494.035 763.799C489.712 774.472 481.921 783.378 471.917 789.08L473.897 792.555ZM471.917 789.08C464.186 793.487 455.44 795.804 446.542 795.804V799.804C456.135 799.804 465.563 797.306 473.897 792.555L471.917 789.08ZM401.047 785.573C407.005 792.668 415.982 796.063 424.529 797.928L425.381 794.02C417.126 792.218 409.212 789.076 404.11 783.001L401.047 785.573ZM414.944 740.164C416.106 732.504 413.931 725.903 409.585 722.981C407.351 721.479 404.652 721.057 401.918 721.982C399.244 722.888 396.711 725.018 394.498 728.287L397.81 730.529C399.709 727.724 401.608 726.31 403.201 725.771C404.735 725.252 406.137 725.483 407.353 726.3C409.907 728.017 412.027 732.718 410.989 739.564L414.944 740.164ZM415.655 748.687C414.538 746.187 414.477 743.242 414.944 740.164L410.989 739.564C410.47 742.986 410.438 746.816 412.003 750.319L415.655 748.687ZM519.535 583.501C522.669 575.368 525.309 565.619 525.027 557.053C524.885 552.754 524.003 548.634 521.97 545.153C519.913 541.633 516.742 538.88 512.253 537.272L510.904 541.038C514.524 542.335 516.943 544.478 518.516 547.171C520.113 549.904 520.901 553.314 521.029 557.185C521.285 564.962 518.862 574.122 515.802 582.063L519.535 583.501ZM504.278 674.304C503.888 670.154 503.79 665.98 504.151 661.885L500.167 661.533C499.779 665.923 499.888 670.348 500.295 674.678L504.278 674.304ZM500.605 742.882C500.081 747.519 498.788 752.062 497.006 756.462L500.713 757.963C502.6 753.305 504.006 748.405 504.58 743.331L500.605 742.882ZM433.833 745.36C432.842 748.745 430.15 751.878 427.043 753.52C423.957 755.152 420.916 755.133 418.694 753.131L416.017 756.103C419.899 759.6 424.903 759.176 428.912 757.056C432.901 754.948 436.355 750.983 437.672 746.483L433.833 745.36ZM426.236 798.3C430.818 799.3 435.495 799.804 440.185 799.804V795.804C435.781 795.804 431.391 795.331 427.088 794.392L426.236 798.3ZM435.452 692.679C435.378 691.781 435.327 690.898 435.315 690.024L431.315 690.08C431.329 691.07 431.386 692.049 431.466 693.009L435.452 692.679Z" fill="#080808"/>
<path fill-rule="evenodd" clip-rule="evenodd" d="M647.411 538.026C637.823 529.731 625.463 521.682 611.936 515.361C597.297 508.52 581.215 517.902 576.69 533.413C575.515 537.442 575.167 541.746 575.857 545.886C595.397 663.247 714.12 678.95 761.673 643.319C765.623 640.359 769.617 637.325 772.715 633.482C786.574 616.288 804.388 563.197 784.9 483.817V483.817C778.31 481.992 772.537 477.977 768.534 472.433L768.184 471.95C766.441 469.536 765.046 466.889 764.039 464.087L757.451 445.757L751.461 418.27L750.383 405.801C749.463 395.153 750.256 384.427 752.731 374.029L754.28 367.525L758.055 357.143C759.288 353.753 761.105 350.606 763.424 347.845V347.845C765.996 344.784 769.138 342.252 772.676 340.39L775.415 338.948C778.923 337.101 782.697 335.811 786.602 335.121V335.121C790.635 334.41 794.757 334.349 798.809 334.942L807.14 336.161V336.161C810.328 336.568 810.522 341.115 807.38 341.791L800.796 343.209C804.641 343.131 809.322 343.231 814.364 343.593C828.06 344.578 841.941 339.063 832.861 328.763C826.381 321.413 812.109 314.858 802.756 311.941C801.948 311.689 801.123 311.43 800.283 311.167C788.319 307.411 773.299 302.695 761.47 303.946C753.107 304.831 745.241 309.076 738.137 313.578C722.507 323.483 704.591 347.659 704.591 405.611C702.921 421.759 706.2 448.664 712.668 473.07C713.949 477.901 715.588 483.164 717.3 488.664C725.001 513.39 734.189 542.895 718.971 559.433C714.269 564.544 706.8 567.773 694.804 567.209C678.953 566.464 666.261 554.986 654.138 544.022C651.881 541.981 649.645 539.959 647.411 538.026ZM784.935 345.124V345.124C779.16 346.627 773.747 349.915 770.806 355.108V355.108C773.751 349.908 779.152 346.631 784.935 345.124Z" fill="#A559BF"/>
<path d="M800.796 343.209L807.38 341.791C810.522 341.115 810.328 336.568 807.14 336.161V336.161L798.809 334.942C794.757 334.349 790.635 334.41 786.602 335.121V335.121C782.697 335.811 778.923 337.101 775.415 338.948L772.676 340.39C769.138 342.252 765.996 344.784 763.424 347.845V347.845C761.105 350.606 759.288 353.753 758.055 357.143L754.28 367.525L752.731 374.029C750.256 384.427 749.463 395.153 750.383 405.801L751.461 418.27L757.451 445.757L764.039 464.087C765.046 466.889 766.441 469.536 768.184 471.95L768.534 472.433C772.537 477.977 778.31 481.992 784.9 483.817V483.817C782.624 474.547 779.84 464.918 776.481 454.947C768.492 429.717 757.643 378.354 770.806 355.108V355.108C773.747 349.915 779.16 346.627 784.935 345.124V345.124L784.956 345.118C788.825 344.113 793.797 343.352 800.796 343.209Z" fill="#EE8DBC"/>
<path d="M704.591 405.611L706.581 405.817L706.591 405.714V405.611H704.591ZM776.481 454.947L774.574 455.55L774.58 455.568L774.586 455.585L776.481 454.947ZM754.28 367.525L752.4 366.841L752.361 366.95L752.334 367.062L754.28 367.525ZM751.461 418.27L749.468 418.443L749.479 418.571L749.506 418.696L751.461 418.27ZM757.451 445.757L755.497 446.183L755.525 446.311L755.569 446.434L757.451 445.757ZM694.804 567.209L694.71 569.207L694.71 569.207L694.804 567.209ZM718.971 559.433L717.5 558.079L717.5 558.079L718.971 559.433ZM738.137 313.578L737.067 311.889L737.067 311.889L738.137 313.578ZM761.47 303.946L761.26 301.957L761.26 301.957L761.47 303.946ZM802.756 311.941L802.16 313.85L802.16 313.85L802.756 311.941ZM814.364 343.593L814.507 341.598L814.507 341.598L814.364 343.593ZM784.956 345.118L784.453 343.183L784.453 343.183L784.956 345.118ZM770.806 355.108L769.066 354.123L769.066 354.123L770.806 355.108ZM761.673 643.319L760.473 641.719L760.473 641.719L761.673 643.319ZM575.857 545.886L577.829 545.557L577.829 545.557L575.857 545.886ZM576.69 533.413L574.77 532.853L574.77 532.853L576.69 533.413ZM800.283 311.167L799.684 313.075L799.684 313.075L800.283 311.167ZM717.3 488.664L719.21 488.069L719.21 488.069L717.3 488.664ZM654.138 544.022L652.796 545.505L652.796 545.505L654.138 544.022ZM768.534 472.433L770.155 471.262L768.534 472.433ZM764.039 464.087L765.921 463.411L764.039 464.087ZM768.184 471.95L769.806 470.779L768.184 471.95ZM750.383 405.801L748.39 405.974L750.383 405.801ZM772.676 340.39L771.745 338.62L772.676 340.39ZM819.797 344.077L819.585 346.066L819.797 344.077ZM798.809 334.942L799.099 332.963L798.809 334.942ZM807.38 341.791L806.958 339.836L807.38 341.791ZM829.062 324.838L830.44 323.388L829.062 324.838ZM775.415 338.948L774.483 337.178L775.415 338.948ZM801.218 345.164L807.801 343.747L806.958 339.836L800.375 341.254L801.218 345.164ZM756.176 356.459L752.4 366.841L756.159 368.208L759.935 357.826L756.176 356.459ZM752.334 367.062L750.785 373.566L754.677 374.493L756.225 367.988L752.334 367.062ZM748.39 405.974L749.468 418.443L753.453 418.098L752.376 405.629L748.39 405.974ZM749.506 418.696L755.497 446.183L759.405 445.332L753.415 417.844L749.506 418.696ZM755.569 446.434L762.156 464.764L765.921 463.411L759.333 445.081L755.569 446.434ZM766.563 473.121L766.912 473.604L770.155 471.262L769.806 470.779L766.563 473.121ZM774.586 455.585C777.927 465.504 780.695 475.079 782.958 484.293L786.842 483.34C784.553 474.014 781.753 464.332 778.376 454.308L774.586 455.585ZM774.483 337.178L771.745 338.62L773.607 342.159L776.346 340.718L774.483 337.178ZM807.429 334.182L799.099 332.963L798.52 336.921L806.85 338.14L807.429 334.182ZM611.089 517.173C624.46 523.421 636.663 531.372 646.103 539.539L648.72 536.514C638.983 528.09 626.466 519.943 612.783 513.549L611.089 517.173ZM694.71 569.207C707.125 569.79 715.236 566.446 720.443 560.787L717.5 558.079C713.301 562.641 706.474 565.755 694.898 565.211L694.71 569.207ZM714.602 472.557C708.163 448.264 704.946 421.624 706.581 405.817L702.602 405.405C700.896 421.894 704.237 449.064 710.735 473.582L714.602 472.557ZM706.591 405.611C706.591 348.062 724.36 324.677 739.208 315.267L737.067 311.889C720.654 322.29 702.591 347.256 702.591 405.611H706.591ZM739.208 315.267C746.278 310.786 753.81 306.768 761.681 305.935L761.26 301.957C752.405 302.894 744.203 307.366 737.067 311.889L739.208 315.267ZM802.16 313.85C806.724 315.274 812.517 317.595 817.954 320.459C823.425 323.342 828.36 326.682 831.36 330.085L834.361 327.44C830.882 323.494 825.441 319.882 819.818 316.92C814.16 313.94 808.141 311.525 803.351 310.032L802.16 313.85ZM831.36 330.085C833.436 332.44 833.884 334.166 833.742 335.321C833.603 336.457 832.823 337.627 831.09 338.717C827.554 340.938 821.153 342.076 814.507 341.598L814.22 345.588C821.271 346.095 828.659 344.968 833.218 342.103C835.531 340.65 837.375 338.572 837.713 335.807C838.048 333.062 836.825 330.235 834.361 327.44L831.36 330.085ZM814.507 341.598C809.406 341.231 804.664 341.13 800.756 341.21L800.837 345.209C804.618 345.132 809.238 345.23 814.22 345.588L814.507 341.598ZM800.756 341.21C793.628 341.355 788.498 342.132 784.453 343.183L785.459 347.054C789.153 346.094 793.967 345.349 800.837 345.209L800.756 341.21ZM769.066 354.123C765.576 360.286 763.744 368.176 763.023 376.8C762.3 385.447 762.682 394.971 763.723 404.501C765.806 423.559 770.549 442.838 774.574 455.55L778.388 454.343C774.424 441.826 769.748 422.809 767.699 404.067C766.675 394.697 766.314 385.445 767.009 377.134C767.706 368.801 769.455 361.554 772.547 356.094L769.066 354.123ZM782.958 484.293C792.643 523.745 793.044 556.602 789.334 581.676C785.616 606.805 777.79 623.998 771.158 632.226L774.272 634.737C781.499 625.771 789.509 607.822 793.291 582.262C797.081 556.647 796.645 523.268 786.842 483.34L782.958 484.293ZM771.158 632.226C768.241 635.845 764.449 638.74 760.473 641.719L762.872 644.92C766.796 641.979 770.993 638.805 774.272 634.737L771.158 632.226ZM760.473 641.719C737.357 659.04 696.535 664.06 658.956 650.1C621.537 636.198 587.478 603.506 577.829 545.557L573.884 546.214C583.776 605.626 618.848 639.466 657.563 653.849C696.12 668.173 738.436 663.23 762.872 644.92L760.473 641.719ZM577.829 545.557C577.194 541.743 577.511 537.743 578.61 533.973L574.77 532.853C573.52 537.141 573.14 541.75 573.884 546.214L577.829 545.557ZM578.61 533.973C582.869 519.372 597.799 510.963 611.089 517.173L612.783 513.549C596.795 506.078 579.56 516.431 574.77 532.853L578.61 533.973ZM803.351 310.032C802.545 309.781 801.722 309.522 800.882 309.258L799.684 313.075C800.524 313.338 801.35 313.598 802.16 313.85L803.351 310.032ZM800.882 309.258C794.913 307.384 788.086 305.24 781.259 303.726C774.447 302.216 767.489 301.298 761.26 301.957L761.681 305.935C767.28 305.343 773.747 306.158 780.393 307.631C787.025 309.101 793.689 311.193 799.684 313.075L800.882 309.258ZM710.735 473.582C712.029 478.463 713.682 483.769 715.391 489.258L719.21 488.069C717.494 482.559 715.869 477.339 714.602 472.557L710.735 473.582ZM715.391 489.258C719.255 501.666 723.409 515.03 724.742 527.334C726.076 539.652 724.527 550.441 717.5 558.079L720.443 560.787C728.633 551.887 730.099 539.654 728.719 526.904C727.336 514.14 723.047 500.388 719.21 488.069L715.391 489.258ZM694.898 565.211C687.445 564.861 680.653 561.987 674.162 557.771C667.65 553.539 661.564 548.042 655.479 542.538L652.796 545.505C658.834 550.965 665.156 556.689 671.983 561.125C678.832 565.575 686.312 568.812 694.71 569.207L694.898 565.211ZM655.479 542.538C653.226 540.501 650.973 538.463 648.72 536.514L646.103 539.539C648.317 541.454 650.537 543.462 652.796 545.505L655.479 542.538ZM772.547 356.094C775.147 351.502 780.004 348.476 785.44 347.059L784.431 343.188C778.3 344.786 772.355 348.314 769.066 354.123L772.547 356.094ZM784.453 343.183C784.446 343.185 784.438 343.187 784.431 343.188L785.44 347.059C785.446 347.058 785.452 347.056 785.459 347.054L784.453 343.183ZM573.872 546.144C573.876 546.168 573.88 546.191 573.884 546.214L577.829 545.557C577.826 545.535 577.822 545.512 577.818 545.489L573.872 546.144ZM820.009 342.088C818.143 341.889 816.302 341.727 814.507 341.598L814.22 345.588C815.972 345.714 817.767 345.872 819.585 346.066L820.009 342.088ZM827.684 326.287C829.057 327.592 830.278 328.858 831.36 330.085L834.361 327.44C833.194 326.116 831.89 324.767 830.44 323.388L827.684 326.287ZM785.439 347.059L785.46 347.054L784.452 343.183L784.432 343.188L785.439 347.059ZM766.912 473.604C771.182 479.516 777.338 483.798 784.366 485.744L785.434 481.889C779.281 480.186 773.893 476.437 770.155 471.262L766.912 473.604ZM762.156 464.764C763.227 467.742 764.71 470.555 766.563 473.121L769.806 470.779C768.172 468.517 766.864 466.037 765.921 463.411L762.156 464.764ZM750.785 373.566C748.26 384.171 747.452 395.113 748.39 405.974L752.376 405.629C751.474 395.194 752.251 384.682 754.677 374.493L750.785 373.566ZM761.893 346.559C759.423 349.499 757.488 352.85 756.176 356.459L759.935 357.826C761.087 354.657 762.787 351.714 764.956 349.131L761.893 346.559ZM764.956 349.131C767.361 346.269 770.299 343.901 773.607 342.159L771.745 338.62C767.977 340.603 764.631 343.299 761.893 346.559L764.956 349.131ZM574.77 532.853C573.521 537.136 573.13 541.675 573.872 546.144L577.818 545.489C577.185 541.678 577.51 537.748 578.61 533.973L574.77 532.853ZM762.872 644.92C766.789 641.985 771 638.797 774.272 634.737L771.158 632.226C768.247 635.838 764.442 638.745 760.473 641.719L762.872 644.92ZM784.431 343.188C778.308 344.783 772.351 348.322 769.066 354.123L772.547 356.094C775.143 351.509 780.012 348.472 785.439 347.059L784.431 343.188ZM819.585 346.066C825.527 346.699 831.264 344.799 834.583 341.32C836.265 339.555 837.367 337.328 837.411 334.823C837.454 332.311 836.429 329.787 834.361 327.44L831.36 330.085C832.917 331.851 833.434 333.442 833.411 334.754C833.388 336.072 832.815 337.377 831.688 338.559C829.388 340.971 824.968 342.617 820.009 342.088L819.585 346.066ZM761.26 301.957C752.41 302.894 744.198 307.369 737.067 311.889L739.208 315.267C746.274 310.789 753.815 306.767 761.681 305.935L761.26 301.957ZM786.95 337.091C790.772 336.416 794.679 336.359 798.52 336.921L799.099 332.963C794.835 332.339 790.498 332.403 786.254 333.152L786.95 337.091ZM710.735 473.582C712.508 480.27 714.969 487.802 717.326 495.509C719.696 503.258 721.982 511.244 723.471 519.006C726.476 534.663 726.103 548.729 717.5 558.079L720.443 560.787C730.442 549.921 730.437 534.083 727.399 518.252C725.868 510.269 723.529 502.115 721.151 494.339C718.76 486.523 716.348 479.148 714.602 472.557L710.735 473.582ZM807.801 343.747C813.141 342.596 812.812 334.869 807.393 334.177L806.886 338.145C807.193 338.184 807.346 338.302 807.436 338.408C807.544 338.536 807.626 338.729 807.635 338.96C807.645 339.192 807.58 339.391 807.484 339.527C807.403 339.641 807.261 339.771 806.958 339.836L807.801 343.747ZM694.898 565.211C686.059 564.796 678.148 560.828 670.576 555.289C662.939 549.703 655.982 542.796 648.72 536.514L646.103 539.539C653.072 545.569 660.413 552.811 668.215 558.518C676.082 564.272 684.753 568.739 694.71 569.207L694.898 565.211ZM830.44 323.388C822.953 316.27 812.631 312.926 803.351 310.032L802.16 313.85C811.577 316.787 820.977 319.912 827.684 326.287L830.44 323.388ZM786.254 333.152C782.146 333.877 778.175 335.235 774.483 337.178L776.346 340.718C779.672 338.968 783.249 337.744 786.95 337.091L786.254 333.152ZM578.61 533.973C582.869 519.372 597.799 510.963 611.089 517.173L612.783 513.549C596.795 506.078 579.56 516.431 574.77 532.853L578.61 533.973Z" fill="#080808"/>
<path fill-rule="evenodd" clip-rule="evenodd" d="M620.07 669.809C620.063 669.892 620.056 669.973 620.049 670.053C620.034 670.232 620.019 670.407 620.004 670.594C620.015 670.456 620.026 670.317 620.038 670.178C620.038 670.178 620.049 670.053 620.07 669.809Z" fill="#EE8DBC"/>
<path d="M728.907 706.885C723.973 771.022 673.58 779.414 645.417 779.414C638.34 779.414 629.287 777.751 624.597 777.013C619.257 772.358 617.606 768.625 617.762 765.731C618.151 758.497 628.237 757.543 635.417 756.582C668.365 752.172 676.262 749.218 695.781 732.258C706.196 721.028 709.011 704.182 709.716 693.94C710.123 688.039 708.98 682.177 706.901 676.64C705.561 673.073 703.911 668.95 702.252 665.494C699.937 660.672 696.072 652.77 701.42 652.77V652.77H707.965C722.996 664.434 730.602 684.85 728.907 706.885Z" fill="#EE8DBC"/>
<path d="M579.149 525.602C627.41 571.22 620.62 663.254 620.07 669.809C620.049 670.053 620.038 670.178 620.038 670.178C620.026 670.317 620.015 670.456 620.004 670.594C619.332 679.118 619.471 686.048 620.216 691.77C623.708 718.572 674.639 730.516 682.15 704.552C682.753 702.464 683.206 700.062 683.497 697.277C685.978 673.502 674.691 657.442 667.412 649.74C665.327 647.532 666.334 643.488 669.348 643.126C685.06 641.237 698.109 645.122 707.965 652.77H701.42V652.77C696.072 652.77 699.937 660.672 702.252 665.494C703.911 668.95 705.561 673.073 706.901 676.64C708.98 682.177 710.123 688.039 709.716 693.94C709.011 704.182 706.196 721.028 695.781 732.258C676.262 749.218 668.365 752.172 635.417 756.582C628.237 757.543 618.151 758.497 617.762 765.731C617.606 768.625 619.257 772.358 624.597 777.013C587.507 771.172 578.263 744.804 568.457 716.836L568.457 716.834C568.261 716.276 568.065 715.717 567.869 715.158C560.948 695.445 554.344 666.759 551.296 652.77C550.095 647.259 549.779 641.611 549.944 635.973C550.774 607.579 545.899 587.809 541.863 571.442C540.11 564.333 538.516 557.866 537.616 551.614C536.674 545.07 537.43 538.162 541.171 532.713L541.183 532.696C551.436 517.797 570.707 518.732 579.149 525.602Z" fill="#A559BF"/>
<path d="M579.149 525.602L580.411 524.051L580.469 524.098L580.522 524.148L579.149 525.602ZM620.038 670.178L618.044 670.016L618.045 670.003L618.046 669.991L620.038 670.178ZM683.497 697.277L685.486 697.485L685.486 697.485L683.497 697.277ZM728.907 706.885L726.913 706.732L728.907 706.885ZM567.869 715.158L565.982 715.82L565.982 715.82L567.869 715.158ZM624.597 777.013L624.286 778.988L624.286 778.988L624.597 777.013ZM541.183 532.696L539.535 531.563L539.536 531.562L541.183 532.696ZM537.616 551.614L539.595 551.329L539.595 551.329L537.616 551.614ZM549.944 635.973L551.943 636.031L551.943 636.031L549.944 635.973ZM551.296 652.77L553.25 652.344L553.25 652.344L551.296 652.77ZM669.348 643.126L669.587 645.112L669.587 645.112L669.348 643.126ZM667.412 649.74L668.866 648.366L668.866 648.366L667.412 649.74ZM682.15 704.552L680.229 703.996L680.229 703.996L682.15 704.552ZM620.216 691.77L618.233 692.028L618.233 692.028L620.216 691.77ZM620.004 670.594L621.998 670.751L621.998 670.751L620.004 670.594ZM695.781 732.258L697.248 733.618L697.175 733.697L697.093 733.768L695.781 732.258ZM707.965 652.77L709.191 651.19L709.191 651.19L707.965 652.77ZM568.457 716.836L570.343 716.17L570.345 716.174L568.457 716.836ZM541.863 571.442L543.805 570.963L543.805 570.963L541.863 571.442ZM568.457 716.834L566.571 717.499L566.569 717.495L568.457 716.834ZM706.901 676.64L708.773 675.937L706.901 676.64ZM617.762 765.731L619.759 765.838L617.762 765.731ZM635.417 756.582L635.152 754.6L635.417 756.582ZM702.252 665.494L704.055 664.628L702.252 665.494ZM730.901 707.039C728.388 739.71 714.23 758.443 696.908 768.913C679.714 779.304 659.644 781.414 645.417 781.414V777.414C659.353 777.414 678.561 775.328 694.839 765.489C710.987 755.729 724.492 738.197 726.913 706.732L730.901 707.039ZM645.417 781.414C638.139 781.414 628.873 779.711 624.286 778.988L624.908 775.037C629.701 775.792 638.542 777.414 645.417 777.414V781.414ZM618.077 669.641C618.346 666.438 620.17 641.959 615.934 612.64C611.69 583.261 601.412 549.398 577.775 527.055L580.522 524.148C605.147 547.424 615.605 582.387 619.893 612.068C624.19 641.809 622.344 666.625 622.063 669.976L618.077 669.641ZM577.886 527.153C574.151 524.114 567.782 522.251 561.059 522.974C554.408 523.69 547.585 526.92 542.831 533.83L539.536 531.562C545.034 523.572 552.974 519.821 560.631 518.997C568.217 518.181 575.705 520.221 580.411 524.051L577.886 527.153ZM551.943 636.031C551.781 641.56 552.093 647.037 553.25 652.344L549.342 653.196C548.096 647.481 547.777 641.662 547.945 635.914L551.943 636.031ZM553.25 652.344C556.3 666.339 562.881 694.913 569.756 714.495L565.982 715.82C559.015 695.977 552.389 667.18 549.342 653.196L553.25 652.344ZM669.587 645.112C669.047 645.177 668.594 645.554 668.395 646.273C668.19 647.018 668.363 647.834 668.866 648.366L665.958 651.113C664.376 649.438 664.01 647.128 664.54 645.209C665.077 643.263 666.636 641.438 669.11 641.14L669.587 645.112ZM668.866 648.366C676.37 656.308 688.05 672.918 685.486 697.485L681.507 697.069C683.906 674.087 673.011 658.577 665.958 651.113L668.866 648.366ZM685.486 697.485C685.185 700.362 684.714 702.884 684.071 705.107L680.229 703.996C680.793 702.044 681.226 699.761 681.507 697.069L685.486 697.485ZM684.071 705.107C681.987 712.311 676.86 716.866 670.471 719.16C664.143 721.431 656.565 721.505 649.248 719.902C641.919 718.296 634.688 714.974 629.03 710.262C623.37 705.548 619.187 699.354 618.233 692.028L622.199 691.511C622.991 697.587 626.484 702.937 631.59 707.189C636.698 711.443 643.325 714.51 650.104 715.995C656.895 717.482 663.676 717.349 669.119 715.395C674.501 713.463 678.557 709.775 680.229 703.996L684.071 705.107ZM618.233 692.028C617.465 686.137 617.33 679.063 618.01 670.436L621.998 670.751C621.334 679.174 621.476 685.96 622.199 691.511L618.233 692.028ZM622.063 669.976C622.056 670.06 622.049 670.143 622.042 670.223L618.056 669.883C618.063 669.802 618.07 669.723 618.077 669.641L622.063 669.976ZM622.042 670.223C622.027 670.403 622.012 670.572 621.998 670.751L618.01 670.436C618.026 670.243 618.041 670.061 618.056 669.883L622.042 670.223ZM618.01 670.436C618.021 670.297 618.033 670.157 618.044 670.016L622.031 670.341C622.02 670.478 622.009 670.615 621.998 670.751L618.01 670.436ZM620.038 670.178C618.046 669.991 618.046 669.991 618.046 669.991C618.046 669.991 618.046 669.991 618.046 669.991C618.046 669.991 618.046 669.991 618.046 669.991C618.046 669.991 618.046 669.991 618.046 669.991C618.046 669.991 618.046 669.991 618.046 669.991C618.046 669.991 618.046 669.991 618.046 669.99C618.046 669.99 618.047 669.989 618.047 669.987C618.047 669.984 618.047 669.979 618.048 669.972C618.049 669.958 618.051 669.937 618.054 669.907C618.059 669.849 618.067 669.76 618.077 669.641L622.063 669.976C622.052 670.102 622.044 670.198 622.038 670.263C622.035 670.296 622.033 670.321 622.031 670.338C622.031 670.346 622.03 670.353 622.029 670.358C622.029 670.36 622.029 670.362 622.029 670.364C622.029 670.364 622.029 670.365 622.029 670.365C622.029 670.365 622.029 670.366 622.029 670.366C622.029 670.366 622.029 670.366 622.029 670.366C622.029 670.366 622.029 670.366 622.029 670.366C622.029 670.366 622.029 670.366 622.029 670.366C622.029 670.366 622.029 670.366 620.038 670.178ZM542.831 533.829C542.827 533.835 542.823 533.84 542.819 533.846L539.523 531.58C539.527 531.575 539.531 531.569 539.535 531.563L542.831 533.829ZM542.82 533.845C539.458 538.742 538.697 545.087 539.595 551.329L535.636 551.899C534.651 545.054 535.402 537.583 539.522 531.581L542.82 533.845ZM622.063 669.976C622.055 670.075 622.047 670.163 622.041 670.229L618.057 669.877C618.062 669.822 618.068 669.747 618.077 669.641L622.063 669.976ZM622.041 670.229C622.037 670.275 622.034 670.31 622.032 670.335C622.03 670.348 622.03 670.358 622.029 670.365C622.028 670.369 622.028 670.372 622.028 670.374C622.028 670.375 622.028 670.376 622.028 670.377C622.028 670.378 622.028 670.378 622.027 670.378C622.027 670.379 622.027 670.379 622.027 670.379C622.027 670.379 622.027 670.379 622.027 670.379C622.027 670.379 622.027 670.379 622.027 670.379C622.027 670.379 622.027 670.379 622.027 670.379C622.027 670.379 622.027 670.379 620.038 670.178C618.048 669.978 618.048 669.978 618.048 669.978C618.048 669.978 618.048 669.978 618.048 669.978C618.048 669.978 618.048 669.978 618.048 669.978C618.048 669.978 618.048 669.978 618.048 669.978C618.048 669.978 618.048 669.978 618.048 669.978C618.048 669.978 618.048 669.979 618.048 669.979C618.047 669.979 618.047 669.979 618.048 669.979C618.048 669.978 618.048 669.977 618.048 669.976C618.048 669.973 618.049 669.967 618.049 669.958C618.051 669.941 618.054 669.914 618.057 669.877L622.041 670.229ZM539.523 531.58L539.535 531.563L542.831 533.829L542.819 533.846L539.523 531.58ZM623.283 778.52C617.764 773.71 615.559 769.43 615.764 765.623L619.759 765.838C619.652 767.819 620.75 771.006 625.911 775.505L623.283 778.52ZM635.152 754.6C651.64 752.393 661.62 750.575 669.893 747.269C678.108 743.986 684.759 739.186 694.47 730.748L697.093 733.768C687.285 742.29 680.227 747.447 671.377 750.983C662.585 754.497 652.142 756.361 635.683 758.565L635.152 754.6ZM694.315 730.898C704.236 720.2 707.021 703.959 707.721 693.802L711.712 694.077C711 704.404 708.156 721.856 697.248 733.618L694.315 730.898ZM705.028 677.343C703.697 673.797 702.07 669.737 700.449 666.359L704.055 664.628C705.751 668.163 707.426 672.349 708.773 675.937L705.028 677.343ZM726.913 706.732C728.569 685.205 721.122 665.511 706.739 654.35L709.191 651.19C724.87 663.356 732.635 684.495 730.901 707.039L726.913 706.732ZM706.739 654.35C697.33 647.049 684.817 643.28 669.587 645.112L669.11 641.14C685.303 639.193 698.887 643.195 709.191 651.19L706.739 654.35ZM701.42 650.77H707.965V654.77H701.42V650.77ZM624.286 778.988C605.231 775.988 593.186 767.661 584.7 756.428C576.304 745.314 571.449 731.414 566.57 717.498L570.345 716.174C575.271 730.226 579.941 743.493 587.891 754.016C595.75 764.419 606.872 772.197 624.908 775.037L624.286 778.988ZM547.945 635.914C548.767 607.805 543.949 588.253 539.921 571.921L543.805 570.963C547.85 587.364 552.782 607.353 551.943 636.031L547.945 635.914ZM539.921 571.921C538.174 564.834 536.553 558.268 535.636 551.899L539.595 551.329C540.478 557.465 542.047 563.832 543.805 570.963L539.921 571.921ZM566.571 717.501L566.571 717.499L570.343 716.168L570.343 716.17L566.571 717.501ZM566.569 717.495C566.374 716.937 566.178 716.379 565.982 715.82L569.756 714.495C569.952 715.055 570.148 715.614 570.344 716.172L566.569 717.495ZM707.721 693.802C708.104 688.249 707.031 682.677 705.028 677.343L708.773 675.937C710.929 681.677 712.142 687.829 711.712 694.077L707.721 693.802ZM615.764 765.623C616.024 760.799 619.615 758.289 623.359 756.925C627.082 755.569 631.668 755.066 635.152 754.6L635.683 758.565C631.987 759.059 627.94 759.514 624.727 760.684C621.536 761.846 619.888 763.429 619.759 765.838L615.764 765.623ZM549.342 653.196C548.099 647.494 547.777 641.648 547.945 635.914L551.943 636.031C551.782 641.547 552.096 647.05 553.25 652.344L549.342 653.196ZM535.636 551.899C534.651 545.055 535.399 537.581 539.523 531.581L542.819 533.846C539.456 538.741 538.697 545.087 539.595 551.329L535.636 551.899ZM700.449 666.359C699.328 664.024 697.661 660.614 697.012 657.768C696.699 656.391 696.513 654.715 697.133 653.285C697.47 652.506 698.035 651.83 698.846 651.375C699.628 650.936 700.516 650.77 701.42 650.77V654.77C700.987 654.77 700.825 654.851 700.804 654.863C700.796 654.868 700.803 654.865 700.813 654.853C700.821 654.843 700.816 654.845 700.803 654.875C700.716 655.077 700.639 655.678 700.912 656.88C701.438 659.19 702.861 662.142 704.055 664.628L700.449 666.359ZM665.958 651.113C664.376 649.438 664.01 647.128 664.54 645.209C665.077 643.264 666.636 641.438 669.11 641.14L669.587 645.112C669.047 645.176 668.594 645.554 668.396 646.274C668.19 647.019 668.363 647.834 668.866 648.366L665.958 651.113Z" fill="#080808"/>
<path fill-rule="evenodd" clip-rule="evenodd" d="M559.308 688.661C559.308 688.661 559.319 688.543 559.339 688.311C559.317 688.572 559.296 688.811 559.275 689.073C559.286 688.936 559.297 688.799 559.308 688.661ZM556.739 742.563C557.018 743.617 557.36 744.618 557.772 745.578L557.773 745.581C557.778 745.593 557.784 745.606 557.789 745.618C559.457 749.482 562.604 753.006 566.358 754.769V754.769C564.45 754.051 562.748 752.858 561.416 751.314C559.85 749.497 558.663 747.645 557.789 745.618C557.784 745.606 557.778 745.593 557.773 745.581C557.361 744.62 557.018 743.618 556.739 742.563ZM579.549 746.905C580.145 743.679 580.18 740.34 579.69 737.096L579.993 739.093C580.285 741.02 580.195 742.991 579.885 744.915V744.915C579.783 745.553 579.675 746.223 579.549 746.905ZM596.27 727.105C596.269 727.103 596.267 727.101 596.266 727.099ZM596.612 753.073C596.447 747.3 600.71 742.014 606.485 742.014V742.014C607.292 744.387 607.98 746.734 608.564 749.039C614.648 773.044 591.832 800.47 567.156 802.612L567.156 799.377C567.156 794.235 570.375 789.643 575.209 787.89V787.89C576.411 787.454 577.537 786.833 578.546 786.048L589.709 777.365C592.538 774.725 597 766.684 596.612 753.073Z" fill="#EE8DBC"/>
<path d="M606.485 742.014V742.014C600.71 742.014 596.447 747.3 596.612 753.073C597 766.684 592.538 774.725 589.709 777.365L578.546 786.048C577.537 786.833 576.411 787.454 575.209 787.89V787.89C570.375 789.643 567.156 794.235 567.156 799.377L567.156 802.612C566.866 802.636 566.582 802.658 566.301 802.675V802.675C561.631 802.969 556.9 802.002 552.225 801.82C550.804 801.764 549.416 801.691 548.061 801.601C507.922 798.929 496.211 781.027 491.028 747.619C487.126 722.472 494.688 694.859 499.718 680.231V680.231C502.124 673.234 504.045 665.98 504.147 658.581V658.581C504.587 626.537 497.323 603.338 488.482 584.02C481.314 568.356 477.513 546.604 493.729 540.789C502.915 537.495 512.988 539.454 518.477 543.932C566.673 589.601 559.889 681.74 559.34 688.292L559.339 688.311C559.319 688.543 559.308 688.661 559.308 688.661L559.275 689.073C556.839 718.891 554.2 732.978 556.739 742.563C557.018 743.617 557.36 744.618 557.772 745.578L557.773 745.581C557.778 745.593 557.784 745.606 557.789 745.618C558.663 747.645 559.85 749.497 561.416 751.314C562.748 752.858 564.45 754.051 566.358 754.769V754.769C568.437 755.746 570.703 756.183 573.007 755.838L573.032 755.834C577.482 755.158 578.819 750.849 579.547 746.916L579.549 746.905C579.675 746.223 579.783 745.553 579.885 744.915V744.915C580.195 742.991 580.285 741.02 579.993 739.093L579.69 737.096L579.688 737.085C577.488 722.579 587.432 715.391 596.266 727.099L596.27 727.105C600.609 732.859 601.69 734.35 603.453 737.096C603.645 737.395 606.338 741.787 606.485 742.014Z" fill="#A559BF"/>
<path d="M518.477 543.932L519.741 542.382L519.798 542.429L519.852 542.48L518.477 543.932ZM559.308 688.661L557.315 688.499L557.316 688.487L557.317 688.474L559.308 688.661ZM491.028 747.619L493.004 747.312L493.004 747.312L491.028 747.619ZM606.485 742.014L608.165 740.929L608.299 741.136L608.379 741.37L606.485 742.014ZM589.709 777.365L591.074 778.827L591.008 778.889L590.937 778.944L589.709 777.365ZM567.156 802.612L567.329 804.604L567.329 804.604L567.156 802.612ZM559.34 688.292L561.333 688.459L561.333 688.459L559.34 688.292ZM493.729 540.789L494.404 542.672L494.404 542.672L493.729 540.789ZM488.482 584.02L490.301 583.188L490.301 583.188L488.482 584.02ZM548.061 801.601L547.928 803.597L547.928 803.597L548.061 801.601ZM608.564 749.039L610.503 748.548L610.503 748.548L608.564 749.039ZM579.688 737.085L581.665 736.785L581.665 736.785L579.688 737.085ZM579.547 746.916L581.514 747.28L581.514 747.28L579.547 746.916ZM557.772 745.578L559.61 744.79L559.61 744.791L557.772 745.578ZM556.739 742.563L558.672 742.051L558.672 742.051L556.739 742.563ZM603.453 737.096L601.77 738.177L601.77 738.177L603.453 737.096ZM557.773 745.581L555.935 746.37L555.935 746.37L557.773 745.581ZM557.789 745.618L555.952 746.41L555.952 746.409L557.789 745.618ZM570.423 802.217L570.723 804.194L570.423 802.217ZM567.156 799.377L569.156 799.377L567.156 799.377ZM552.225 801.82L552.303 799.821L552.225 801.82ZM578.546 786.048L577.318 784.469L578.546 786.048ZM561.416 751.314L559.902 752.62L561.416 751.314ZM598.611 753.016C599.011 767.022 594.437 775.688 591.074 778.827L588.345 775.903C590.638 773.763 594.99 766.347 594.612 753.13L598.611 753.016ZM590.937 778.944L579.774 787.627L577.318 784.469L588.481 775.786L590.937 778.944ZM569.156 799.377L569.156 802.612L565.156 802.612L565.156 799.377L569.156 799.377ZM557.347 688.125C557.616 684.923 559.438 660.418 555.209 631.066C550.97 601.654 540.707 567.751 517.101 545.383L519.852 542.48C544.443 565.781 554.886 600.783 559.168 630.495C563.458 660.269 561.614 685.109 561.333 688.459L557.347 688.125ZM517.212 545.481C512.324 541.494 503.003 539.588 494.404 542.672L493.053 538.907C502.828 535.402 513.652 537.415 519.741 542.382L517.212 545.481ZM494.404 542.672C490.782 543.971 488.356 546.117 486.787 548.803C485.196 551.527 484.422 554.92 484.336 558.756C484.165 566.46 486.783 575.5 490.301 583.188L486.664 584.852C483.014 576.876 480.147 567.208 480.337 558.667C480.433 554.38 481.301 550.265 483.333 546.786C485.388 543.269 488.568 540.515 493.053 538.907L494.404 542.672ZM490.301 583.188C499.238 602.716 506.591 626.21 506.147 658.609L502.147 658.554C502.582 626.865 495.408 603.96 486.664 584.852L490.301 583.188ZM506.147 658.609C506.041 666.328 504.042 673.805 501.609 680.881L497.826 679.581C500.209 672.651 502.05 665.645 502.147 658.554L506.147 658.609ZM501.609 680.881C496.601 695.446 489.181 722.67 493.004 747.312L489.051 747.925C485.072 722.274 492.775 694.272 497.826 679.581L501.609 680.881ZM493.004 747.312C495.579 763.907 499.724 776.224 507.881 784.754C515.993 793.236 528.385 798.287 548.194 799.605L547.928 803.597C527.598 802.243 514.064 797.007 504.99 787.518C495.961 778.077 491.66 764.738 489.051 747.925L493.004 747.312ZM548.194 799.605C555.952 800.122 558.925 801.135 566.176 800.679L566.427 804.671C558.871 805.146 554.972 804.066 547.928 803.597L548.194 799.605ZM566.176 800.679C566.447 800.662 566.715 800.642 566.983 800.619L567.329 804.604C567.027 804.63 566.726 804.652 566.427 804.671L566.176 800.679ZM566.983 800.619C578.666 799.605 590.068 792.567 597.828 782.782C605.588 772.994 609.472 760.764 606.626 749.531L610.503 748.548C613.74 761.32 609.258 774.805 600.962 785.267C592.665 795.731 580.322 803.476 567.329 804.604L566.983 800.619ZM606.626 749.531C606.054 747.274 605.381 744.979 604.592 742.658L608.379 741.37C609.204 743.796 609.906 746.193 610.503 748.548L606.626 749.531ZM581.514 747.28C581.142 749.287 580.577 751.643 579.405 753.618C578.182 755.678 576.264 757.366 573.332 757.812L572.731 753.857C574.25 753.626 575.226 752.822 575.966 751.576C576.757 750.243 577.224 748.478 577.581 746.553L581.514 747.28ZM559.308 688.661C557.317 688.474 557.317 688.474 557.317 688.474C557.317 688.474 557.317 688.474 557.317 688.474C557.317 688.474 557.317 688.474 557.317 688.474C557.317 688.474 557.317 688.474 557.317 688.474C557.317 688.474 557.317 688.474 557.317 688.474C557.317 688.474 557.317 688.474 557.317 688.474C557.317 688.473 557.317 688.472 557.317 688.471C557.318 688.468 557.318 688.463 557.319 688.457C557.32 688.444 557.322 688.423 557.324 688.396C557.329 688.34 557.336 688.256 557.346 688.144L561.332 688.479C561.322 688.598 561.314 688.689 561.308 688.751C561.306 688.782 561.303 688.805 561.302 688.822C561.301 688.83 561.301 688.836 561.3 688.841C561.3 688.843 561.3 688.845 561.3 688.846C561.3 688.847 561.3 688.847 561.3 688.848C561.3 688.848 561.299 688.848 561.299 688.848C561.299 688.849 561.299 688.849 561.299 688.849C561.299 688.849 561.299 688.849 561.299 688.849C561.299 688.849 561.299 688.849 561.299 688.849C561.299 688.849 561.299 688.849 559.308 688.661ZM561.332 688.479C561.309 688.749 561.289 688.975 561.268 689.236L557.281 688.91C557.303 688.646 557.325 688.396 557.346 688.144L561.332 688.479ZM557.281 688.91C557.293 688.774 557.304 688.637 557.315 688.5L561.302 688.823C561.29 688.961 561.279 689.099 561.268 689.236L557.281 688.91ZM558.672 742.051C558.928 743.016 559.239 743.924 559.61 744.79L555.934 746.367C555.481 745.311 555.108 744.218 554.805 743.075L558.672 742.051ZM573.332 757.812C573.321 757.813 573.31 757.815 573.303 757.816L572.711 753.86C572.72 753.859 572.726 753.858 572.731 753.857L573.332 757.812ZM577.582 746.542C578.136 743.542 578.171 740.427 577.712 737.395L581.667 736.797C582.19 740.253 582.153 743.816 581.516 747.268L577.582 746.542ZM581.667 736.797L581.97 738.793L578.015 739.393L577.712 737.396L581.667 736.797ZM581.86 745.232C581.758 745.867 581.647 746.56 581.516 747.268L577.583 746.542C577.704 745.887 577.808 745.239 577.911 744.598L581.86 745.232ZM594.676 728.313C594.673 728.308 594.669 728.303 594.669 728.303C594.668 728.301 594.67 728.304 594.672 728.307L597.86 725.891C597.863 725.896 597.867 725.901 597.867 725.901C597.868 725.903 597.867 725.9 597.864 725.897L594.676 728.313ZM604.805 743.099C604.716 742.961 603.985 741.772 603.282 740.63C602.924 740.048 602.566 739.465 602.284 739.008C602.144 738.78 602.023 738.584 601.932 738.437C601.886 738.363 601.848 738.302 601.819 738.256C601.805 738.233 601.793 738.214 601.784 738.2C601.78 738.193 601.776 738.187 601.774 738.183C601.771 738.178 601.77 738.176 601.77 738.177L605.136 736.016C605.246 736.187 605.985 737.389 606.689 738.534C607.047 739.116 607.404 739.695 607.679 740.143C607.817 740.367 607.934 740.557 608.022 740.698C608.065 740.768 608.101 740.825 608.127 740.868C608.157 740.916 608.167 740.932 608.165 740.929L604.805 743.099ZM561.268 689.236C560.658 696.707 560.035 703.191 559.485 708.856C558.933 714.529 558.457 719.36 558.136 723.558C557.489 732.003 557.498 737.618 558.672 742.051L554.805 743.075C553.441 737.923 553.5 731.702 554.147 723.253C554.473 719.004 554.954 714.123 555.503 708.469C556.053 702.807 556.674 696.349 557.281 688.91L561.268 689.236ZM581.665 736.785C581.666 736.789 581.667 736.793 581.667 736.797L577.712 737.395C577.712 737.392 577.711 737.389 577.711 737.385L581.665 736.785ZM581.516 747.268C581.515 747.272 581.515 747.276 581.514 747.28L577.581 746.553C577.581 746.549 577.582 746.546 577.582 746.542L581.516 747.268ZM567.062 752.897C569.641 753.868 571.452 754.047 572.713 753.86L573.301 757.816C571.14 758.137 568.612 757.755 565.653 756.641L567.062 752.897ZM577.712 737.396L577.711 737.385L581.666 736.786L581.667 736.797L577.712 737.396ZM573.303 757.816C570.55 758.228 567.887 757.697 565.508 756.579L567.208 752.959C568.988 753.795 570.856 754.138 572.711 753.86L573.303 757.816ZM597.867 725.901C602.206 731.655 603.329 733.2 605.136 736.016L601.77 738.177C600.052 735.5 599.012 734.063 594.673 728.309L597.867 725.901ZM557.346 688.144C557.346 688.138 557.347 688.132 557.347 688.125L561.333 688.459C561.333 688.465 561.332 688.472 561.332 688.479L557.346 688.144ZM570.723 804.194C569.216 804.422 567.778 804.586 566.427 804.671L566.176 800.679C567.387 800.603 568.706 800.454 570.123 800.239L570.723 804.194ZM552.147 803.818C550.708 803.762 549.302 803.688 547.928 803.597L548.194 799.605C549.53 799.694 550.899 799.766 552.303 799.821L552.147 803.818ZM594.669 728.304C592.613 725.578 590.632 724.144 588.981 723.569C587.387 723.013 586.034 723.223 584.926 723.941C582.583 725.458 580.615 729.859 581.665 736.785L577.711 737.385C576.561 729.806 578.465 723.359 582.752 720.583C584.96 719.154 587.611 718.855 590.298 719.792C592.927 720.708 595.502 722.766 597.862 725.894L594.669 728.304ZM567.326 804.604C567.023 804.63 566.723 804.653 566.427 804.671L566.176 800.679C566.44 800.662 566.71 800.642 566.985 800.619L567.326 804.604ZM561.333 688.459L561.332 688.478L557.346 688.144L557.347 688.125L561.333 688.459ZM561.302 688.824L561.268 689.235L557.281 688.911L557.315 688.499L561.302 688.824ZM559.61 744.791L559.612 744.794L555.935 746.369L555.933 746.366L559.61 744.791ZM559.611 744.792C559.616 744.804 559.621 744.815 559.625 744.826L555.952 746.409C555.946 746.396 555.941 746.383 555.935 746.37L559.611 744.792ZM559.625 744.826C560.41 746.646 561.482 748.327 562.931 750.008L559.902 752.62C558.217 750.667 556.916 748.644 555.952 746.41L559.625 744.826ZM572.71 753.86L572.734 753.857L573.329 757.812L573.304 757.816L572.71 753.86ZM577.58 746.553L577.583 746.542L581.516 747.269L581.514 747.28L577.58 746.553ZM597.863 725.896L597.868 725.902L594.673 728.308L594.668 728.302L597.863 725.896ZM555.935 746.37C555.482 745.313 555.108 744.219 554.805 743.075L558.672 742.051C558.928 743.017 559.239 743.926 559.611 744.793L555.935 746.37ZM559.625 744.825C561.127 748.305 563.955 751.43 567.208 752.959L565.508 756.579C561.253 754.581 557.787 750.66 555.953 746.41L559.625 744.825ZM606.485 744.014C602.053 744.014 598.472 748.142 598.611 753.016L594.612 753.13C594.422 746.459 599.367 740.014 606.485 740.014V744.014ZM610.503 748.548C616.993 774.156 596.461 800.293 570.723 804.194L570.123 800.239C593.914 796.633 612.442 772.482 606.626 749.531L610.503 748.548ZM577.711 737.385C576.561 729.805 578.465 723.357 582.752 720.58C584.959 719.15 587.611 718.852 590.297 719.789C592.927 720.705 595.502 722.765 597.863 725.895L594.669 728.303C592.612 725.576 590.631 724.141 588.98 723.565C587.387 723.01 586.034 723.22 584.926 723.937C582.583 725.455 580.615 729.858 581.665 736.785L577.711 737.385ZM486.664 584.852C483.014 576.877 480.148 567.209 480.338 558.667C480.434 554.38 481.302 550.265 483.334 546.786C485.388 543.269 488.568 540.515 493.053 538.907L494.404 542.672C490.782 543.971 488.357 546.117 486.788 548.803C485.197 551.528 484.422 554.92 484.337 558.756C484.166 566.461 486.783 575.501 490.301 583.188L486.664 584.852ZM497.826 679.581C500.207 672.657 502.05 665.639 502.147 658.554L506.147 658.609C506.041 666.322 504.04 673.811 501.609 680.881L497.826 679.581ZM575.891 789.77C571.848 791.236 569.156 795.077 569.156 799.377L565.156 799.377C565.156 793.393 568.902 788.05 574.528 786.01L575.891 789.77ZM566.427 804.671C563.925 804.829 561.443 804.646 559.072 804.417C556.654 804.183 554.408 803.907 552.147 803.818L552.303 799.821C554.717 799.916 557.174 800.214 559.458 800.435C561.789 800.661 564.008 800.815 566.176 800.679L566.427 804.671ZM581.97 738.793C582.301 740.977 582.193 743.164 581.86 745.232L577.911 744.598C578.197 742.819 578.268 741.063 578.015 739.393L581.97 738.793ZM579.774 787.627C578.6 788.54 577.29 789.263 575.891 789.77L574.528 786.01C575.533 785.645 576.474 785.126 577.318 784.469L579.774 787.627ZM565.653 756.641C563.43 755.804 561.45 754.416 559.902 752.62L562.931 750.008C564.045 751.301 565.469 752.298 567.062 752.897L565.653 756.641Z" fill="#080808"/>
<ellipse cx="179.164" cy="550.42" rx="3.87639" ry="2.81919" fill="#FFBFDE" fill-opacity="0.6"/>
<path d="M191.793 569.928C189.93 571.055 187.048 569.704 185.357 566.909C183.666 564.114 183.805 560.934 185.668 559.807C187.532 558.679 189.102 560.664 190.793 563.459C192.485 566.254 193.656 568.8 191.793 569.928Z" fill="#FFBFDE" fill-opacity="0.6"/>
<path d="M230.872 622.212C228.769 625.664 222.067 625.419 215.903 621.663C209.739 617.908 207.367 610.961 209.471 607.509C211.574 604.056 215.641 607.277 221.805 611.033C227.969 614.788 232.976 618.759 230.872 622.212Z" fill="#FFBFDE" fill-opacity="0.6"/>
<path d="M288.098 660.014C285.35 659.176 284.448 654.147 286.085 648.782C287.721 643.417 292.192 640.198 294.94 641.036C297.688 641.874 296.09 645.57 294.454 650.935C292.817 656.3 290.846 660.852 288.098 660.014Z" fill="#FFBFDE" fill-opacity="0.6"/>
<path d="M300.811 631.433C299.189 630.938 298.49 628.516 299.25 626.022C300.011 623.528 302.49 622.155 304.113 622.65C305.735 623.144 304.938 624.845 304.178 627.339C303.417 629.833 302.434 631.928 300.811 631.433Z" fill="#FFBFDE" fill-opacity="0.6"/>
<path d="M297.987 722.928C301.514 732.401 307.877 740.32 303.582 741.919C299.287 743.518 292.946 737.135 289.419 727.662C285.892 718.189 286.514 709.214 290.809 707.614C295.104 706.015 294.46 713.455 297.987 722.928Z" fill="#FFBFDE" fill-opacity="0.6"/>
<path d="M397.645 750.777C397.82 752.911 397.914 754.645 396.556 754.756C395.198 754.867 393.956 753.227 393.782 751.093C393.607 748.959 394.567 747.14 395.924 747.029C397.282 746.918 397.471 748.644 397.645 750.777Z" fill="#FFBFDE" fill-opacity="0.6"/>
<path d="M404.306 765.832C405.031 768.605 407.052 772.857 405.287 773.318C403.522 773.78 398.257 771.397 397.532 768.623C396.807 765.85 397.904 761.813 399.669 761.352C401.434 760.89 403.581 763.058 404.306 765.832Z" fill="#FFBFDE" fill-opacity="0.6"/>
<path d="M607.1 752.328C607.101 755.163 605.136 757.462 602.712 757.462C600.289 757.463 602.026 755.815 602.025 752.979C602.025 750.144 600.287 747.195 602.71 747.194C605.134 747.194 607.1 749.492 607.1 752.328Z" fill="#FFBFDE" fill-opacity="0.6"/>
<path d="M605.92 763.621C605.92 764.984 604.543 766.088 602.844 766.088C601.145 766.088 600.281 764.984 600.281 763.621C600.281 762.259 601.145 761.155 602.844 761.155C604.543 761.155 605.92 762.259 605.92 763.621Z" fill="#FFBFDE" fill-opacity="0.6"/>
<path d="M713.401 737.896C715.615 742.01 704.617 755.26 687.65 764.39C670.682 773.52 652.183 775.487 649.97 771.374C647.756 767.261 668.242 763.237 685.21 754.107C702.177 744.977 711.188 733.783 713.401 737.896Z" fill="#FFBFDE" fill-opacity="0.6"/>
<path d="M724.326 685.389C726.716 696.62 723.046 700.694 720.449 701.247C717.853 701.799 718.687 699.485 718.687 688.561C716.297 677.329 712.215 673.255 714.811 672.703C717.407 672.15 721.936 674.158 724.326 685.389Z" fill="#FFBFDE" fill-opacity="0.6"/>
<ellipse cx="723.974" cy="706.533" rx="1.762" ry="3.17159" transform="rotate(9.73338 723.974 706.533)" fill="#FFBFDE" fill-opacity="0.6"/>
<path d="M765.747 431.825C768.134 441.86 772.497 450.393 769.467 451.114C766.438 451.835 762.047 444.284 759.659 434.249C757.272 424.214 757.793 415.495 760.822 414.774C763.852 414.053 763.36 421.79 765.747 431.825Z" fill="#FFBFDE" fill-opacity="0.6"/>
<ellipse cx="759.213" cy="405.231" rx="1.762" ry="2.81919" fill="#FFBFDE" fill-opacity="0.6"/>
<path d="M796.215 340.39C796.215 341.169 794.164 340.39 791.634 340.39C789.104 340.39 787.053 341.169 787.053 340.39C787.053 339.612 789.104 337.219 791.634 337.219C794.164 337.219 796.215 339.612 796.215 340.39Z" fill="#FFBFDE" fill-opacity="0.6"/>
<circle cx="493.152" cy="388.317" r="194.524" fill="#F0F0F0"/>
<path d="M612.747 399.098L609.157 399.908C598.071 402.412 588.458 409.271 582.486 418.941L566.238 445.247C563.567 449.572 560.49 453.632 557.048 457.372L537.495 478.627C532.391 484.173 526.53 488.971 520.084 492.878L484.838 514.239C483.805 514.865 482.712 515.387 481.576 515.796C467.614 520.822 465.244 539.562 477.515 547.906L478.506 548.581C481.62 550.698 485.298 551.83 489.064 551.83H514.884C524.744 551.83 534.519 550.007 543.716 546.454L577.341 533.462C586.907 529.767 595.673 524.266 603.162 517.26L625.272 496.576C632.051 490.235 637.647 482.738 641.798 474.436L653.476 451.079C659.737 438.557 658.292 423.558 649.756 412.461C641.077 401.177 626.634 395.962 612.747 399.098Z" fill="#D9D9D9"/>
<path d="M459.152 218.929C417.584 229.818 358.966 264.262 331.29 345.142C325.769 361.275 338.608 377.04 355.661 377.04C358.959 377.04 362.228 376.433 365.307 375.249L397.299 362.944L493.945 320.731C510.117 313.667 521.523 298.785 524.141 281.332C526.783 263.722 520.102 246.001 506.492 234.517L502.023 230.747C489.988 220.592 474.385 214.939 459.152 218.929Z" fill="white"/>
<path d="M617.197 457.387C633.543 424.294 636.343 390.386 629.57 354.487C626.63 338.907 621.833 317.039 612.968 303.741" stroke="white" stroke-width="35" stroke-linecap="round"/>
<path d="M569.27 247.357L580.547 255.815" stroke="white" stroke-width="35" stroke-linecap="round"/>
<circle cx="492.447" cy="389.021" r="195.229" stroke="#090909" stroke-width="3"/>
<path d="M608.739 507.384C608.739 515.364 591.204 532.361 579.137 532.361C567.071 532.361 553.765 529.812 553.765 521.832C553.765 513.853 574.823 492.936 586.89 492.936C598.957 492.936 608.739 499.404 608.739 507.384Z" fill="white"/>
<ellipse cx="492.461" cy="401.708" rx="122.254" ry="122.945" fill="#84DCE2"/>
<path d="M613.216 401.708C613.216 468.788 559.144 523.153 492.461 523.153C425.778 523.153 371.707 468.788 371.707 401.708C371.707 334.628 425.778 280.263 492.461 280.263C559.144 280.263 613.216 334.628 613.216 401.708Z" stroke="black" stroke-opacity="0.8" stroke-width="3"/>
<ellipse cx="492.461" cy="402.399" rx="66.9981" ry="118.11" fill="white" fill-opacity="0.13" stroke="black" stroke-opacity="0.02"/>
<path d="M523.043 401.708C523.043 435.629 519.566 466.322 513.955 488.52C511.148 499.623 507.813 508.573 504.13 514.735C500.428 520.928 496.47 524.153 492.461 524.153C488.453 524.153 484.494 520.928 480.792 514.735C477.109 508.573 473.775 499.623 470.968 488.52C465.356 466.322 461.88 435.629 461.88 401.708C461.88 367.786 465.356 337.093 470.968 314.895C473.775 303.792 477.109 294.843 480.792 288.681C484.494 282.487 488.453 279.263 492.461 279.263C496.47 279.263 500.428 282.487 504.13 288.681C507.813 294.843 511.148 303.792 513.955 314.895C519.566 337.093 523.043 367.786 523.043 401.708Z" fill="#090909" stroke="black"/>
<path d="M493 0C220.724 0 0 217.366 0 485.5C0 566.117 19.9526 642.145 55.26 709.056C137.386 864.691 302.586 971 493 971C683.414 971 848.614 864.691 930.74 709.056C966.047 642.145 986 566.117 986 485.5C986 217.366 765.276 0 493 0Z" fill="url(#paint0_radial_26_319)"/>
<path d="M783 181C770.031 216.833 691.326 146.23 610.312 116.909C529.299 87.5877 448.031 106.833 461 71C473.969 35.1671 559.299 31.5877 640.312 60.909C721.326 90.2304 795.969 145.167 783 181Z" fill="white" fill-opacity="0.8"/>
<path d="M854 235C860.974 248.492 868.228 273.646 854 281C839.772 288.354 822.974 267.492 816 254C809.026 240.508 801.772 224.354 816 217C830.228 209.646 847.026 221.508 854 235Z" fill="white" fill-opacity="0.75"/>
<path d="M273 863C258.972 881.125 237.775 872.91 207.421 849.417C177.066 825.924 154.972 801.125 169 783C183.028 764.875 202.302 794.761 232.657 818.254C263.011 841.747 287.028 844.875 273 863Z" fill="white" fill-opacity="0.75"/>
<defs>
<radialGradient id="paint0_radial_26_319" cx="0" cy="0" r="1" gradientUnits="userSpaceOnUse" gradientTransform="translate(493 485.5) rotate(90) scale(485.5 493)">
<stop offset="0.8125" stop-color="#D4FEF9" stop-opacity="0"/>
<stop offset="1" stop-color="#D4FEF9" stop-opacity="0.3"/>
</radialGradient>
</defs>
</svg>
