<svg width="986" height="971" viewBox="0 0 986 971" fill="none" xmlns="http://www.w3.org/2000/svg">
<path d="M455.989 680.387V598.091C455.989 593.126 451.963 589.1 446.998 589.1C442.032 589.1 438.007 593.126 438.007 598.091V744.17C438.007 744.599 438.354 744.946 438.782 744.946H455.817C455.912 744.946 455.989 744.869 455.989 744.774V723.606C455.989 716.357 461.866 710.48 469.115 710.48H469.623C472.429 710.48 475.168 709.454 477.299 707.628C481.447 704.072 482.614 698.059 480.024 693.249L477.765 689.054C475.73 685.275 470.884 684.066 467.312 686.447C462.472 689.674 455.989 686.204 455.989 680.387Z" fill="#3C3C3C" stroke="black" stroke-width="3" stroke-linecap="round" stroke-linejoin="round"/>
<path d="M517.428 680.387V598.091C517.428 593.126 513.403 589.1 508.437 589.1C503.471 589.1 499.446 593.126 499.446 598.091V744.17C499.446 744.598 499.793 744.946 500.221 744.946H517.256C517.351 744.946 517.428 744.869 517.428 744.774V723.606C517.428 716.357 523.305 710.48 530.554 710.48H531.062C533.868 710.48 536.607 709.454 538.738 707.627C542.886 704.072 544.053 698.059 541.463 693.249L539.204 689.054C537.169 685.275 532.323 684.066 528.751 686.447C523.911 689.674 517.428 686.204 517.428 680.387Z" fill="#3C3C3C" stroke="black" stroke-width="3" stroke-linecap="round" stroke-linejoin="round"/>
<path d="M538.945 698.492C538.945 701.802 536.597 704.486 533.701 704.486C532.514 704.486 532.3 704.035 532.46 703.276C533.027 700.592 535.39 698.086 534.824 695.401V695.401C534.259 692.716 536.016 690.162 537.316 692.578C538.32 694.443 538.945 696.783 538.945 698.492Z" fill="white" fill-opacity="0.75"/>
<path d="M476.008 698.492C476.008 701.802 473.66 704.486 470.763 704.486C469.532 704.486 468.573 704.001 467.878 703.189C466.081 701.092 469.803 700.367 471.129 697.945C471.584 697.112 471.721 695.555 471.332 692.742C471.059 690.767 472.367 688.583 473.594 690.154C475.12 692.108 476.008 696.306 476.008 698.492Z" fill="white" fill-opacity="0.75"/>
<path d="M432.81 746.73L433.759 744.99C434.546 743.548 434.604 741.819 433.916 740.327C432.327 736.886 434.841 732.958 438.631 732.958H447.747H456.114C459.904 732.958 462.418 736.886 460.83 740.327C460.141 741.819 460.199 743.548 460.986 744.99L461.935 746.73C463.366 749.354 463.366 752.525 461.935 755.149L460.91 757.027C460.174 758.377 460.145 760.001 460.833 761.376C462.394 764.499 460.123 768.173 456.632 768.173H438.113C434.622 768.173 432.351 764.499 433.912 761.376C434.6 760.001 434.571 758.377 433.835 757.027L432.81 755.149C431.379 752.525 431.379 749.354 432.81 746.73Z" fill="#CBCBCB" stroke="black" stroke-width="2" stroke-linecap="round" stroke-linejoin="round"/>
<path d="M495.748 746.73L496.697 744.99C497.484 743.548 497.542 741.819 496.853 740.327C495.265 736.886 497.779 732.958 501.569 732.958H510.685H519.052C522.842 732.958 525.355 736.886 523.767 740.327C523.079 741.819 523.137 743.548 523.923 744.99L524.872 746.73C526.304 749.354 526.304 752.525 524.872 755.149L523.848 757.027C523.112 758.377 523.083 760.001 523.77 761.376C525.332 764.499 523.061 768.173 519.57 768.173H501.05C497.559 768.173 495.289 764.499 496.85 761.376C497.538 760.001 497.509 758.377 496.772 757.027L495.748 755.149C494.317 752.525 494.317 749.354 495.748 746.73Z" fill="#CBCBCB" stroke="black" stroke-width="2" stroke-linecap="round" stroke-linejoin="round"/>
<path d="M434.261 743.822C436.671 744.06 439.396 744.607 441.753 743.822" stroke="black" stroke-width="2" stroke-linecap="round"/>
<path d="M515.18 744.196C517.344 744.196 519.469 744.416 521.549 743.822" stroke="black" stroke-width="2" stroke-linecap="round"/>
<path d="M485.617 767.54L488.489 757.776C488.791 756.748 489.445 755.859 490.337 755.264C492.148 754.057 494.56 754.296 496.1 755.835L496.507 756.242C496.964 756.699 497.333 757.237 497.596 757.828L498.594 760.074C499.614 762.369 501.553 764.13 503.936 764.924C505.879 765.572 507.985 765.533 509.902 764.814L510.905 764.438C512.241 763.936 513.455 763.155 514.464 762.145L520.425 756.185L517.864 751.061C517.156 749.646 517.434 747.937 518.552 746.819C519.671 745.7 521.38 745.423 522.795 746.13L525.237 747.352C526.88 748.173 527.918 749.852 527.918 751.689H535.606C536.96 751.689 538.3 751.964 539.545 752.498L548.148 756.185L560.885 763.677L569.876 767.423L576.62 769.297L583.363 771.17L585.942 771.963C590.199 773.273 593.103 777.206 593.103 781.659C593.103 787.995 589.246 793.692 583.364 796.045L582.535 796.376C582.09 796.554 581.624 796.674 581.148 796.734L569.876 798.143H548.148H515.181H490.809C489.591 798.143 488.389 797.859 487.3 797.315C484.642 795.985 482.963 793.269 482.963 790.297V789.805C482.963 788.876 483.112 787.953 483.406 787.072L485.21 781.659V770.362C485.21 769.407 485.347 768.457 485.617 767.54Z" fill="#EDEDED"/>
<path d="M485.21 781.659V770.362C485.21 769.407 485.347 768.457 485.617 767.54L488.489 757.776C488.791 756.748 489.445 755.859 490.337 755.264V755.264C492.148 754.057 494.56 754.296 496.1 755.835L496.507 756.242C496.964 756.699 497.333 757.237 497.596 757.828L498.594 760.074C499.614 762.369 501.553 764.13 503.936 764.924V764.924C505.879 765.572 507.985 765.533 509.902 764.814L510.905 764.438C512.241 763.936 513.455 763.155 514.464 762.145L520.425 756.185M485.21 781.659L483.406 787.072C483.112 787.953 482.963 788.876 482.963 789.805V790.297C482.963 793.269 484.642 795.985 487.3 797.315V797.315C488.389 797.859 489.591 798.143 490.809 798.143H515.181H548.148H569.876L581.148 796.734C581.624 796.674 582.09 796.554 582.535 796.376L583.364 796.045C589.246 793.692 593.103 787.995 593.103 781.659V781.659M485.21 781.659L495.7 783.907L508.437 785.406H520.425M593.103 781.659L586.956 784.733C586.064 785.179 585.111 785.489 584.128 785.653L568.445 788.267C567.902 788.357 567.352 788.403 566.801 788.403H553.685C552.992 788.403 552.302 788.331 551.625 788.188L543.652 786.51M593.103 781.659V781.659C593.103 777.206 590.199 773.273 585.942 771.963L583.363 771.17L576.62 769.297M527.918 751.689H535.606C536.96 751.689 538.3 751.964 539.545 752.498L548.148 756.185L560.885 763.677L569.876 767.423L576.62 769.297M527.918 751.689L524.172 753.937M527.918 751.689V751.689C527.918 749.852 526.88 748.173 525.237 747.352L522.795 746.13C521.38 745.423 519.671 745.7 518.552 746.819V746.819C517.434 747.937 517.156 749.646 517.864 751.061L520.425 756.185M520.425 756.185L524.172 753.937M524.172 753.937L526.28 758.153C527.338 760.268 529.111 761.941 531.285 762.872L534.661 764.319M576.62 769.297L569.857 772.96C568.395 773.752 566.757 774.167 565.094 774.167H562.286C561.357 774.167 560.432 774.037 559.539 773.782L552.643 771.812M520.425 785.406H523.422H532.413M520.425 785.406L534.661 764.319M534.661 764.319L537.641 765.596C538.151 765.815 538.642 766.076 539.109 766.376L543.652 769.297M552.643 771.812L550.396 771.17L543.652 769.297M552.643 771.812L543.652 786.51M543.652 786.51L539.426 785.62C538.749 785.477 538.059 785.406 537.366 785.406H532.413M532.413 785.406L543.652 769.297" stroke="black" stroke-width="2" stroke-linecap="round" stroke-linejoin="round"/>
<path d="M421.18 767.54L424.052 757.776C424.355 756.748 425.009 755.859 425.901 755.264C427.712 754.057 430.124 754.296 431.664 755.835L432.07 756.242C432.528 756.699 432.897 757.237 433.16 757.828L434.158 760.074C435.178 762.369 437.117 764.13 439.5 764.924C441.443 765.572 443.549 765.533 445.466 764.814L446.468 764.438C447.805 763.936 449.019 763.155 450.028 762.145L455.989 756.185L453.428 751.061C452.72 749.646 452.997 747.937 454.116 746.819C455.235 745.7 456.944 745.423 458.359 746.13L460.801 747.352C462.444 748.173 463.482 749.852 463.482 751.689H471.17C472.524 751.689 473.864 751.964 475.109 752.498L483.712 756.185L496.449 763.677L505.44 767.423L512.183 769.297L518.927 771.17L521.506 771.963C525.763 773.273 528.667 777.206 528.667 781.659C528.667 787.995 524.81 793.692 518.928 796.045L518.098 796.376C517.654 796.554 517.188 796.674 516.712 796.734L505.44 798.143H483.712H450.744H426.373C425.155 798.143 423.953 797.859 422.864 797.315C420.205 795.985 418.526 793.269 418.526 790.297V789.805C418.526 788.876 418.676 787.953 418.97 787.072L420.774 781.659V770.362C420.774 769.407 420.911 768.457 421.18 767.54Z" fill="#EDEDED"/>
<path d="M420.774 781.659V770.362C420.774 769.407 420.911 768.457 421.18 767.54L424.052 757.776C424.355 756.748 425.009 755.859 425.901 755.264V755.264C427.712 754.057 430.124 754.296 431.664 755.835L432.07 756.242C432.528 756.699 432.897 757.237 433.16 757.828L434.158 760.074C435.178 762.369 437.117 764.13 439.5 764.924V764.924C441.443 765.572 443.549 765.533 445.466 764.814L446.468 764.438C447.805 763.936 449.019 763.155 450.028 762.145L455.989 756.185M420.774 781.659L418.97 787.072C418.676 787.953 418.526 788.876 418.526 789.805V790.297C418.526 793.269 420.205 795.985 422.864 797.315V797.315C423.953 797.859 425.155 798.143 426.373 798.143H450.744H483.712H505.44L516.712 796.734C517.188 796.674 517.654 796.554 518.098 796.376L518.928 796.045C524.81 793.692 528.667 787.995 528.667 781.659V781.659M420.774 781.659L431.264 783.907L444.001 785.406H455.989M528.667 781.659L522.52 784.733C521.628 785.179 520.675 785.489 519.691 785.653L504.009 788.267C503.465 788.357 502.916 788.403 502.365 788.403H489.248C488.556 788.403 487.866 788.331 487.188 788.188L479.216 786.51M528.667 781.659V781.659C528.667 777.206 525.763 773.273 521.506 771.963L518.927 771.17L512.183 769.297M463.482 751.689H471.17C472.524 751.689 473.864 751.964 475.109 752.498L483.712 756.185L496.449 763.677L505.44 767.423L512.183 769.297M463.482 751.689L459.736 753.937M463.482 751.689V751.689C463.482 749.852 462.444 748.173 460.801 747.352L458.359 746.13C456.944 745.423 455.235 745.7 454.116 746.819V746.819C452.997 747.937 452.72 749.646 453.428 751.061L455.989 756.185M455.989 756.185L459.736 753.937M459.736 753.937L461.844 758.153C462.901 760.268 464.675 761.941 466.849 762.872L470.225 764.319M512.183 769.297L505.421 772.96C503.958 773.752 502.321 774.167 500.658 774.167H497.85C496.92 774.167 495.996 774.037 495.102 773.782L488.207 771.812M455.989 785.406H458.986H467.977M455.989 785.406L470.225 764.319M470.225 764.319L473.205 765.596C473.715 765.815 474.206 766.076 474.673 766.376L479.216 769.297M488.207 771.812L485.959 771.17L479.216 769.297M488.207 771.812L479.216 786.51M479.216 786.51L474.99 785.62C474.313 785.477 473.622 785.406 472.93 785.406H467.977M467.977 785.406L479.216 769.297" stroke="black" stroke-width="2" stroke-linecap="round" stroke-linejoin="round"/>
<circle cx="478.467" cy="427.261" r="206.795" fill="#EDEDED"/>
<path d="M605.606 438.722L601.789 439.584C590.004 442.245 579.785 449.537 573.436 459.817L555.91 488.193C553.239 492.517 550.161 496.577 546.72 500.318L525.121 523.795C520.018 529.342 514.157 534.14 507.711 538.046L469.628 561.127C468.53 561.792 467.369 562.346 466.161 562.781C451.318 568.125 448.798 588.047 461.843 596.917L462.897 597.634C466.207 599.885 470.118 601.089 474.12 601.089H502.511C512.371 601.089 522.146 599.266 531.343 595.712L568.88 581.209C578.446 577.513 587.212 572.013 594.701 565.007L619.334 541.963C626.267 535.477 631.99 527.81 636.236 519.318L648.904 493.982C655.56 480.67 654.024 464.725 644.95 452.928C635.722 440.933 620.368 435.388 605.606 438.722Z" fill="#DFDFDF"/>
<path d="M442.322 247.189C398.132 258.764 335.817 295.381 306.394 381.362C300.525 398.514 314.175 415.273 332.303 415.273C335.809 415.273 339.285 414.627 342.557 413.369L376.568 400.287L479.309 355.412C496.503 347.902 508.628 332.082 511.411 313.528C514.219 294.806 507.117 275.968 492.648 263.76L487.898 259.751C475.103 248.956 458.516 242.947 442.322 247.189Z" fill="white"/>
<path d="M610.336 500.688C627.714 465.508 630.69 429.461 623.49 391.297C620.365 374.734 615.265 351.487 605.841 337.35" stroke="white" stroke-width="20" stroke-linecap="round"/>
<path d="M559.387 277.409L571.375 286.401" stroke="white" stroke-width="20" stroke-linecap="round"/>
<path d="M526.494 557.06C528.712 555.216 531.303 553.724 534.046 552.524C539.806 549.133 545.976 546.914 550.981 546.636C555.108 545.42 558.801 545.242 561.118 546.545C562.326 547.225 562.82 548.266 562.742 549.551C563.977 550.484 564.189 551.785 563.625 553.312C572.329 562.539 546.616 588.159 531.489 587.128C525.662 588.407 520.446 587.225 517.557 582.008C515.799 578.833 515.552 575.486 516.402 572.166C516.359 572.002 516.32 571.835 516.284 571.664C515.002 565.599 521.283 560.409 526.494 557.06Z" fill="#C4C4C4"/>
<path d="M554.895 548.023C544.131 548.426 520.836 552.693 519.466 570.187C518.864 577.874 528.047 579.938 532.831 579.545C543.015 578.708 552.273 572.513 559.562 564.523C563.683 560.005 565.661 553.555 559.138 550.157C550.185 545.494 539.555 549.484 531.346 554.18C526.864 556.743 514.535 563.389 516.284 571.664C518.23 580.877 530.675 580.862 536.509 578.724C544.347 575.851 555.604 568.567 559.703 559.844C563.715 551.307 552.852 549.953 547.965 550.65C541.014 551.641 531.071 557.506 527.74 565.097C523.786 574.106 539.189 570.171 541.671 569.12C544.176 568.058 562.344 560.174 559.703 554.262C556.945 548.086 540.959 555.862 537.286 557.545C535.097 558.549 526.721 564.957 534.104 565.097C540.975 565.228 547.102 561.414 552.632 557.135C554.989 555.311 551.565 554.025 550.086 554.262C544.225 555.2 540.123 559.816 535.801 563.948C531.547 568.015 534.385 568.863 538.63 566.985C544.915 564.206 551.264 559.366 555.885 553.605C560.688 547.616 548.134 552.832 547.187 553.359C541.857 556.323 534.155 560.733 531.276 567.232C528.558 573.365 560.314 560.712 557.865 553.605C553.695 541.502 518.844 573.404 523.638 575.441C532.393 579.159 571.334 555.76 562.674 549.5C554.32 543.462 540.892 552.869 534.246 558.284C532.388 559.797 520.095 569.17 526.75 572.814C537.257 578.567 570.439 551.786 561.118 546.545C551.489 541.131 518.103 561.292 528.518 575.194C539.379 589.694 570.989 559.019 562.037 552.784C551.597 545.513 516.188 569.325 527.245 580.448C541.015 594.301 568.898 561.746 556.875 553.605C544.357 545.129 511.171 574.802 526.467 585.455C540.361 595.133 576.467 560.801 562.037 552.045C551.808 545.839 540.594 553.349 532.831 560.993C529.604 564.171 518.047 577.355 526.113 581.761C540.967 589.876 579.332 560.235 557.582 547.859C545.406 540.93 507.693 564.196 517.557 582.008C528.067 600.987 569.365 566.56 558.855 554.59C547.072 541.17 507.77 573.071 523.638 582.5C532.867 587.984 543.655 582.004 550.652 574.62C554.216 570.859 561.087 560.061 555.036 554.918C542.386 544.167 518.289 575.864 527.74 578.396C536.898 580.849 547.9 572.232 553.975 565.179C558.556 559.862 558.408 553.009 550.51 553.112C541.345 553.232 530.756 561.607 525.477 569.941C518.836 580.425 535 574.063 537.781 572.485C539.357 571.592 556.624 559.199 546.692 563.209C540.446 565.731 534.153 569.146 529.437 574.62" stroke="white" stroke-width="3" stroke-linecap="round"/>
<circle cx="477.718" cy="428.01" r="207.544" stroke="#090909" stroke-width="3"/>
<path d="M553.393 556.133C550.957 556.133 544.644 554.924 542.237 556.3C539.901 557.635 543.664 562.888 545.234 563.459C548.627 564.693 559.666 565.375 559.387 560.629C559.231 557.976 551.688 559.13 549.646 559.13C547.452 559.13 546.767 562.067 549.23 559.13C551.329 556.627 555.034 553.136 558.554 553.136C567.151 553.136 558.858 563.368 554.225 562.044C547.43 560.103 557.689 554.715 554.558 560.629C552.226 565.033 546.839 562.584 545.9 559.297C543.783 551.888 551.119 555.251 553.06 560.296C554.019 562.789 554.507 569.62 551.145 569.62C544.839 569.62 550.578 550.287 553.393 547.142C557.032 543.075 556.39 549.525 556.39 553.136C556.39 556.133 556.987 559.779 555.391 562.46C553.555 565.544 548.897 569.08 548.897 563.293C548.897 559.312 549.94 555.889 551.894 552.47C552.8 550.885 553.393 560.612 553.393 562.21C553.393 575.966 551.255 556.555 552.227 551.804C553.187 547.111 560.843 561.733 559.303 567.122C558.782 568.946 556.39 559.132 556.39 557.632" stroke="white" stroke-width="3" stroke-linecap="round"/>
<path d="M682.265 400.574C671.043 397.64 665.927 393.866 659.988 403.297C658.399 405.819 655.189 410.997 652.548 412.453C645.755 416.198 633.588 414.025 631.147 423.716C629.311 431.004 636.015 441.245 636.015 449.24C636.015 454.181 632.897 457.4 630.228 461.637C625.393 469.316 621.582 477.424 617.829 485.703" stroke="#E49696" stroke-width="3" stroke-linecap="round" stroke-linejoin="round"/>
<path d="M635.811 451.237C636.456 457.041 636.27 464.106 639.557 469.219C640.795 471.144 641.488 472.347 641.888 474.547C642.454 477.659 644.337 480.958 642.97 484.204C640.173 490.847 634.057 501.372 634.312 508.513C634.442 512.16 638.045 519.267 634.895 522.416C630.971 526.34 624.16 525.99 620.826 530.325C611.967 541.842 605.815 555.416 596.849 566.623" stroke="#E49696" stroke-width="3" stroke-linecap="round" stroke-linejoin="round"/>
<path d="M646.3 412.275C636.483 408.276 624.969 406.015 628.318 394.293C629.771 389.208 634.154 384.695 634.312 379.308C634.801 362.68 622.338 357.237 611.835 347.839C607.365 343.841 601.074 337.35 594.602 337.35C585.99 337.35 581.181 335.426 578.534 327.193C574.3 314.019 566.573 302.058 551.894 298.388" stroke="#E49696" stroke-width="3" stroke-linecap="round" stroke-linejoin="round"/>
<path d="M322.621 290.896C325.546 317.214 330.277 305.32 348.096 304.383C356.517 303.939 366.731 310.556 373.238 304.05C378.468 298.82 384.733 283.866 393.052 283.403C405.76 282.697 415.563 276.887 426.019 269.917" stroke="#E49696" stroke-width="3" stroke-linecap="round" stroke-linejoin="round"/>
<path d="M364.58 307.38C368.55 321.361 368.432 323.008 360.084 331.356C356.959 334.481 358.785 341.386 356.338 343.344C348.767 349.401 351.656 360.763 345.099 367.32" stroke="#E49696" stroke-width="3" stroke-linecap="round" stroke-linejoin="round"/>
<path d="M403.541 283.403C412.445 284.904 418.016 286.684 425.269 282.654C428.706 280.745 431.123 280.406 435.01 280.406C444.771 280.406 449.596 282.104 458.986 277.409" stroke="#E49696" stroke-width="3" stroke-linecap="round" stroke-linejoin="round"/>
<path d="M283.66 497.067C294.831 497.183 307.054 488.298 313.63 497.067C318.125 503.061 303.89 523.736 324.786 521.072C330.373 521.072 334.168 522.206 339.521 523.736C345.381 525.41 351.799 524.327 357.503 525.9C359.851 526.548 362.971 527.215 364.996 528.564C367.385 530.157 367.861 533.541 370.657 534.558C376.307 536.613 383.04 535.835 388.473 538.305C393.474 540.578 388.14 564.415 394.55 559.976C394.55 589.197 399.795 572.714 411.034 592.194" stroke="#E49696" stroke-width="3" stroke-linecap="round" stroke-linejoin="round"/>
<path d="M325.618 521.667C345.848 536.652 333.86 557.631 373.571 562.876" stroke="#E49696" stroke-width="3" stroke-linecap="round" stroke-linejoin="round"/>
<path d="M396.049 565.029C413.642 568.504 408.839 571.603 423.675 565.112C436.49 559.505 445.724 571.28 456.892 575.268C461.21 576.81 478.661 579.506 483.295 578.182C490.784 576.043 496.33 569.634 502.36 565.112C509.351 559.868 520.382 571.836 524.921 565.029" stroke="#E49696" stroke-width="3" stroke-linecap="round" stroke-linejoin="round"/>
<ellipse cx="543.652" cy="433.255" rx="132.618" ry="133.368" fill="#4E8CD4"/>
<path d="M674.771 433.255C674.771 506.091 616.059 565.122 543.652 565.122C471.245 565.122 412.534 506.091 412.534 433.255C412.534 360.418 471.245 301.387 543.652 301.387C616.059 301.387 674.771 360.418 674.771 433.255Z" stroke="black" stroke-opacity="0.8" stroke-width="3"/>
<path fill-rule="evenodd" clip-rule="evenodd" d="M619.522 405.99C615.561 406.443 612.689 402.306 614.498 398.754L643.193 342.407C643.683 341.445 642.512 340.497 641.673 341.176L587.333 385.161C584.415 387.522 580.034 385.947 579.287 382.269L565.513 314.435C565.296 313.367 563.769 313.367 563.553 314.435L551.091 375.804C550.298 379.711 545.476 381.164 542.656 378.345L497.935 333.643C497.171 332.88 495.907 333.7 496.294 334.708L521.334 399.981C522.678 403.485 519.826 407.166 516.098 406.74L447.327 398.878C446.244 398.754 445.773 400.205 446.721 400.742L501.236 431.557C504.706 433.519 504.598 438.554 501.047 440.365L444.712 469.084C443.75 469.574 444.14 471.03 445.218 470.973L515.034 467.329C518.782 467.134 521.402 470.983 519.844 474.398L491.115 537.373C490.663 538.365 491.898 539.262 492.701 538.525L539.186 495.897C542.105 493.22 546.83 494.839 547.494 498.744L559.651 570.187C559.835 571.27 561.377 571.307 561.613 570.235L578.125 495.304C578.954 491.541 583.547 490.091 586.387 492.695L627.133 530.06C628.452 531.269 630.465 531.306 631.826 530.145V530.145C633.031 529.118 633.408 527.418 632.751 525.978L612.285 481.114C610.612 477.448 613.742 473.41 617.71 474.116L660.811 481.785C663.239 482.217 665.62 480.813 666.418 478.478L667.131 476.39C667.878 474.206 667.031 471.794 665.083 470.555L622.121 443.23C618.936 441.204 619.058 436.516 622.343 434.658L682.344 400.742C683.293 400.205 682.821 398.754 681.738 398.878L619.522 405.99Z" fill="white" fill-opacity="0.15"/>
<circle cx="563.612" cy="437.769" r="84.6661" fill="#090909"/>
<ellipse cx="345.473" cy="473.71" rx="65.56" ry="65.9304" fill="#4E8CD4"/>
<path d="M409.533 473.71C409.533 509.302 380.845 538.141 345.473 538.141C310.102 538.141 281.413 509.302 281.413 473.71C281.413 438.119 310.102 409.28 345.473 409.28C380.845 409.28 409.533 438.119 409.533 473.71Z" stroke="black" stroke-opacity="0.8" stroke-width="3"/>
<path fill-rule="evenodd" clip-rule="evenodd" d="M329.735 413.773C329.541 412.67 327.958 412.67 327.765 413.773L322.557 443.475C321.858 447.461 316.96 449.009 314.098 446.148L297.508 429.565C296.744 428.801 295.48 429.622 295.867 430.63L305.504 455.752C306.89 459.364 303.824 463.114 300.009 462.474L288.74 460.583C286.263 460.168 283.862 461.655 283.13 464.058L282.986 464.531C282.289 466.819 283.311 469.28 285.423 470.402L293.198 474.534C296.721 476.406 296.741 481.447 293.233 483.346L287.981 486.189C285.736 487.404 284.767 490.116 285.734 492.479L285.98 493.082C286.824 495.145 288.933 496.401 291.15 496.159L299.357 495.264C303.212 494.844 306.058 498.782 304.448 502.31L298.762 514.774C298.197 516.013 298.384 517.465 299.244 518.521V518.521C300.545 520.117 302.921 520.29 304.439 518.898L312.511 511.496C315.455 508.796 320.222 510.469 320.831 514.418L323.53 531.891C323.663 532.751 324.244 533.475 325.056 533.791V533.791C326.409 534.319 327.921 533.553 328.297 532.15L333.768 511.751C334.754 508.072 339.326 506.803 342.068 509.446L364.118 530.709C364.915 531.477 366.184 530.574 365.72 529.57L355.107 506.567C353.362 502.786 356.732 498.655 360.786 499.603L393.29 507.209C394.387 507.465 395.005 505.994 394.054 505.391L361.83 484.96C358.535 482.871 358.796 477.98 362.295 476.254L400.158 457.572C401.189 457.063 400.689 455.503 399.555 455.688L361.28 461.938C357.251 462.596 354.175 458.41 356.006 454.761L371.996 422.898C372.503 421.888 371.208 420.944 370.401 421.736L343.684 447.971C340.811 450.793 335.951 449.233 335.256 445.267L329.735 413.773Z" fill="white" fill-opacity="0.15"/>
<circle cx="328.294" cy="479.359" r="41.8547" fill="#090909"/>
<path d="M339.635 550.816L312.549 542.984C311.773 542.759 311.01 542.475 310.275 542.137C293.878 534.591 279.065 555.432 291.902 568.121L290.344 570.67C286.186 577.474 285.826 585.94 289.392 593.072C291.041 596.37 293.455 599.226 296.432 601.402L305.393 607.95C309.374 610.86 313.657 613.333 318.168 615.328L331.605 621.272C344.067 626.784 357.046 631.041 370.352 633.98L384.537 637.114C404.66 641.56 425.135 644.224 445.726 645.075L478.804 646.441C496.533 647.174 514.292 646.484 531.911 644.377L545.84 642.712C564.783 640.447 583.357 635.761 601.107 628.768L610.917 624.904C619.495 621.524 627.679 617.219 635.323 612.064L641.875 607.645C651.229 601.337 659.26 593.262 665.519 583.874L670.966 575.703C672 574.153 672.803 572.461 673.351 570.681L674.467 567.051C676.763 559.591 672.998 551.612 665.781 548.64L669.01 543.475C669.354 542.924 669.757 542.412 670.211 541.949C677.297 534.724 668.853 523.128 659.802 527.653L647.799 533.655C614.424 547.105 579.73 557.012 544.286 563.215L537.658 564.375L479.649 566.772C457.909 567.67 436.134 567.012 414.489 564.804L408.714 564.214C385.333 561.829 362.213 557.344 339.635 550.816Z" fill="#3C3C3C"/>
<path d="M291.902 568.121V568.121C279.065 555.432 293.878 534.591 310.275 542.137V542.137C311.01 542.475 311.773 542.759 312.549 542.984L339.635 550.816C362.213 557.344 385.333 561.829 408.714 564.214L414.489 564.804C436.134 567.012 457.909 567.67 479.649 566.772L537.658 564.375L544.286 563.215C579.73 557.012 614.424 547.105 647.799 533.655V533.655L659.802 527.653C668.853 523.128 677.297 534.724 670.211 541.949V541.949C669.757 542.412 669.354 542.924 669.01 543.475L665.781 548.64M291.902 568.121V568.121C304.848 574.096 318.424 578.601 332.374 581.552L350.344 585.354M291.902 568.121L290.344 570.67C286.186 577.474 285.826 585.94 289.392 593.072V593.072C291.041 596.37 293.455 599.226 296.432 601.402L305.393 607.95C309.374 610.86 313.657 613.333 318.168 615.328L331.605 621.272C344.067 626.784 357.046 631.041 370.352 633.98L384.537 637.114C404.66 641.56 425.135 644.224 445.726 645.075L478.804 646.442C496.533 647.174 514.292 646.484 531.911 644.377L545.84 642.712C564.783 640.447 583.357 635.761 601.107 628.768L610.917 624.904C619.495 621.524 627.679 617.219 635.323 612.064L641.875 607.645C651.229 601.337 659.26 593.262 665.519 583.874L670.966 575.703C672 574.153 672.803 572.461 673.351 570.681L674.467 567.051C676.763 559.591 672.998 551.612 665.781 548.64V548.64M665.781 548.64V548.64C648.516 561.466 628.606 570.275 607.504 574.427L593.852 577.112" stroke="black" stroke-width="3" stroke-linecap="round" stroke-linejoin="round"/>
<path d="M668.029 564.375C668.029 569.956 659.684 579.387 649.024 589.449C648.216 590.212 647.285 590.83 646.266 591.274C630.239 598.257 608.787 605.453 594.78 605.56C590.783 605.59 590.144 601.207 593.576 599.159C630.995 576.821 639.494 583.558 647.003 566.304C647.551 565.043 648.289 563.856 649.318 562.945C658.006 555.254 668.029 554.469 668.029 564.375Z" fill="white" fill-opacity="0.2"/>
<path d="M253.69 440.747H253.025C239.097 440.747 235.005 421.759 247.696 416.022C232.069 401.046 239.059 374.724 260.057 369.475L265.678 368.069L271.272 341.275C276.956 314.054 288.87 288.519 306.08 266.676C314.582 255.885 324.292 246.103 335.02 237.52L336.709 236.169C361.904 216.013 391.625 202.292 423.308 196.19L439.183 193.133C463.739 188.404 488.859 187.331 513.729 189.948L516.458 190.236C536.994 192.397 557.152 197.278 576.403 204.748L579.265 205.859C591.459 210.59 603.163 216.497 614.213 223.496L619.578 226.893C634.791 236.528 648.308 248.61 659.583 262.651C674.523 281.255 685.21 302.904 690.895 326.078L692.005 330.607L701.301 336.075C711.595 342.13 718.819 352.287 721.161 363.997L721.415 365.266C721.788 367.13 721.976 369.027 721.976 370.928V377.675C721.976 388.44 713.932 397.506 703.244 398.789L705.615 402.071C710.232 408.465 711.432 416.712 708.826 424.156C708.105 426.216 707.103 428.175 705.857 429.967C699.837 438.62 688.929 442.478 678.819 439.491L667.323 436.094C664.307 435.203 661.404 433.969 658.67 432.415L629.817 416.022L605.093 400.024C596.116 394.215 586.677 389.154 576.871 384.89C563.756 379.188 550.054 374.944 536.012 372.234L514.431 368.069L503.412 366.967C480.923 364.719 458.223 365.965 436.116 370.663C418.463 374.414 401.342 380.333 385.142 388.286L368.326 396.541L318.875 423.514L303.897 430.14C288.083 437.134 270.982 440.747 253.69 440.747Z" fill="#3C3C3C"/>
<path d="M247.696 416.022V416.022C232.069 401.046 239.059 374.724 260.057 369.475L265.678 368.069M247.696 416.022V416.022C235.005 421.759 239.097 440.747 253.025 440.747H253.69V440.747C270.982 440.747 288.083 437.134 303.897 430.14L318.875 423.514L368.326 396.541L385.142 388.286C401.342 380.333 418.463 374.414 436.116 370.663V370.663C458.223 365.965 480.923 364.719 503.412 366.967L514.431 368.069L536.012 372.234C550.054 374.944 563.756 379.188 576.871 384.89V384.89C586.677 389.154 596.116 394.215 605.093 400.024L629.817 416.022L658.67 432.415C661.404 433.969 664.307 435.203 667.323 436.094L678.819 439.491C688.929 442.478 699.837 438.62 705.857 429.967V429.967C707.103 428.175 708.105 426.216 708.826 424.156V424.156C711.432 416.712 710.232 408.465 705.615 402.071L703.244 398.789M247.696 416.022V416.022C271.447 413.548 294.495 406.497 315.565 395.26L351.093 376.311M703.244 398.789H692.648C677.317 398.789 662.07 396.538 647.394 392.107V392.107C635.716 388.582 624.49 383.704 613.944 377.573L612.65 376.82C602.642 371.002 592.064 366.225 581.082 362.564L561.634 356.081L536.16 350.837M703.244 398.789V398.789C713.932 397.506 721.976 388.44 721.976 377.675V370.928C721.976 369.027 721.788 367.13 721.415 365.266L721.161 363.997C718.819 352.287 711.595 342.13 701.301 336.075L692.005 330.607M692.005 330.607V330.607C677.217 340.465 660.365 346.802 642.745 349.129L629.817 350.837M692.005 330.607L690.895 326.078C685.21 302.904 674.523 281.255 659.583 262.651V262.651C648.308 248.61 634.791 236.528 619.578 226.893L614.213 223.496C603.163 216.497 591.459 210.59 579.265 205.859L576.403 204.748C557.152 197.278 536.994 192.397 516.458 190.236L513.729 189.948C488.859 187.331 463.739 188.404 439.183 193.133L423.308 196.19C391.625 202.292 361.904 216.013 336.709 236.169L335.02 237.52C324.292 246.103 314.582 255.885 306.08 266.676V266.676C288.87 288.519 276.956 314.054 271.272 341.275L265.678 368.069M265.678 368.069L306.138 363.574" stroke="black" stroke-width="3" stroke-linecap="round" stroke-linejoin="round"/>
<path d="M714.483 369.568C714.483 381.568 708.166 392.795 695.751 392.795C683.337 392.795 651.545 392.807 651.545 380.807C719.728 380.807 679.591 340.347 692.005 340.347C704.419 340.347 714.483 357.568 714.483 369.568Z" fill="white" fill-opacity="0.2"/>
<path d="M704.743 418.27C704.743 425.718 698.068 433.254 691.684 433.254C685.3 433.254 662.784 433.509 662.784 426.061C662.784 418.613 697.25 423.813 697.25 404.034C703.634 404.034 704.743 410.822 704.743 418.27Z" fill="white" fill-opacity="0.1"/>
<path d="M306.138 383.055C306.138 398.04 266.954 407.78 257.436 407.78C247.919 407.78 247.696 400.736 247.696 392.046C247.696 383.356 256.91 392.046 266.427 392.046C275.945 392.046 306.138 374.365 306.138 383.055Z" fill="white" fill-opacity="0.2"/>
<path d="M493 0C220.724 0 0 217.366 0 485.5C0 566.117 19.9526 642.145 55.26 709.056C137.386 864.691 302.586 971 493 971C683.414 971 848.614 864.691 930.74 709.056C966.047 642.145 986 566.117 986 485.5C986 217.366 765.276 0 493 0Z" fill="url(#paint0_radial_26_320)"/>
<path d="M321.371 881.616C308.615 900.658 286.906 893.911 255.016 872.549C223.127 851.186 199.389 827.955 212.145 808.913C224.901 789.871 246.173 818.37 278.063 839.733C309.952 861.096 334.127 862.574 321.371 881.616Z" fill="white" fill-opacity="0.75"/>
<path d="M796.056 191.41C782.417 229.093 699.646 154.844 614.449 124.009C529.251 93.1729 443.787 113.412 457.425 75.7285C471.064 38.045 560.801 34.2808 645.998 65.1165C731.196 95.9522 809.694 153.726 796.056 191.41Z" fill="white" fill-opacity="0.8"/>
<path d="M879.468 249.091C888.285 266.149 897.456 297.95 879.468 307.247C861.48 316.545 840.243 290.17 831.426 273.112C822.61 256.055 813.439 235.633 831.426 226.335C849.414 217.037 870.651 232.034 879.468 249.091Z" fill="white" fill-opacity="0.75"/>
<defs>
<radialGradient id="paint0_radial_26_320" cx="0" cy="0" r="1" gradientUnits="userSpaceOnUse" gradientTransform="translate(493 485.5) rotate(90) scale(485.5 493)">
<stop offset="0.8125" stop-color="#D4FEF9" stop-opacity="0"/>
<stop offset="1" stop-color="#D4FEF9" stop-opacity="0.3"/>
</radialGradient>
</defs>
</svg>
