<svg width="1137" height="1174" viewBox="0 0 1137 1174" fill="none" xmlns="http://www.w3.org/2000/svg">
<g filter="url(#filter0_d_1_44)">
<g filter="url(#filter1_di_1_44)">
<path d="M517.404 125.5C540.114 86.1667 596.886 86.1667 619.595 125.5L1009.74 801.25C1032.45 840.583 1004.06 889.75 958.644 889.75H178.355C132.937 889.75 104.551 840.583 127.26 801.25L517.404 125.5Z" fill="#508AE0"/>
</g>
<g filter="url(#filter2_f_1_44)">
<path d="M716 825C716 836.046 649.514 845 567.5 845C485.486 845 419 836.046 419 825C419 813.954 485.486 805 567.5 805C649.514 805 716 813.954 716 825Z" fill="#0C0C0C" fill-opacity="0.2"/>
</g>
<circle cx="568" cy="606" r="169" fill="#EDEDED"/>
<path d="M671.903 615.366L668.783 616.071C659.152 618.246 650.801 624.205 645.612 632.606L632.023 654.607C629.352 658.932 626.275 662.992 622.833 666.732L607.534 683.363C602.431 688.909 596.569 693.707 590.123 697.614L560.777 715.4C559.88 715.943 558.93 716.396 557.943 716.752C545.813 721.119 543.754 737.4 554.415 744.649L555.276 745.235C557.981 747.074 561.177 748.058 564.448 748.058H584.923C594.783 748.058 604.558 746.235 613.755 742.682L639.242 732.835C648.808 729.139 657.574 723.638 665.063 716.633L682.784 700.054C688.673 694.545 693.535 688.032 697.141 680.819L707.287 660.527C712.727 649.648 711.472 636.617 704.056 626.976C696.515 617.173 683.967 612.642 671.903 615.366Z" fill="#DFDFDF"/>
<path d="M538.461 458.839C502.348 468.299 451.422 498.223 427.376 568.49C422.58 582.507 433.735 596.203 448.549 596.203C451.415 596.203 454.255 595.675 456.93 594.647L484.725 583.957L568.689 547.283C582.739 541.145 592.649 528.216 594.923 513.053C597.218 497.754 591.414 482.358 579.59 472.381L575.707 469.105C565.251 460.283 551.695 455.372 538.461 458.839Z" fill="white"/>
<path d="M675.768 666.007C689.97 637.257 692.402 607.798 686.518 576.609C683.964 563.074 679.796 544.075 672.094 532.522" stroke="white" stroke-width="20" stroke-linecap="round"/>
<path d="M634.13 483.536L643.928 490.884" stroke="white" stroke-width="20" stroke-linecap="round"/>
<path d="M607.249 712.076C609.062 710.569 611.18 709.35 613.421 708.369C618.129 705.598 623.171 703.785 627.261 703.557C630.634 702.564 633.652 702.419 635.545 703.483C636.533 704.038 636.936 704.889 636.873 705.94C637.882 706.702 638.055 707.765 637.594 709.013C644.708 716.554 623.694 737.492 611.331 736.649C606.57 737.694 602.307 736.728 599.945 732.464C598.509 729.87 598.307 727.134 599.002 724.422C598.967 724.288 598.935 724.151 598.905 724.012C597.858 719.055 602.991 714.813 607.249 712.076Z" fill="#C4C4C4"/>
<path d="M630.46 704.691C621.663 705.02 602.625 708.508 601.506 722.804C601.014 729.086 608.519 730.773 612.428 730.452C620.751 729.768 628.317 724.705 634.274 718.175C637.642 714.483 639.258 709.212 633.927 706.435C626.611 702.624 617.923 705.885 611.215 709.722C607.552 711.818 597.476 717.249 598.905 724.012C600.496 731.541 610.666 731.529 615.434 729.781C621.84 727.433 631.039 721.481 634.389 714.351C637.668 707.375 628.79 706.268 624.796 706.838C619.116 707.647 610.99 712.441 608.267 718.645C605.036 726.007 617.624 722.791 619.652 721.932C621.7 721.064 636.548 714.621 634.389 709.789C632.135 704.743 619.071 711.097 616.069 712.473C614.28 713.293 607.435 718.53 613.469 718.645C619.084 718.752 624.091 715.635 628.61 712.137C630.536 710.647 627.738 709.596 626.53 709.789C621.739 710.556 618.388 714.329 614.856 717.705C611.379 721.029 613.698 721.722 617.167 720.188C622.304 717.916 627.492 713.961 631.269 709.253C635.194 704.358 624.934 708.621 624.16 709.051C619.804 711.474 613.51 715.078 611.157 720.389C608.936 725.401 634.888 715.061 632.887 709.253C629.479 699.362 600.997 725.433 604.916 727.098C612.071 730.136 643.895 711.014 636.817 705.898C629.989 700.964 619.016 708.652 613.584 713.077C612.066 714.313 602.02 721.973 607.458 724.951C616.045 729.653 643.163 707.766 635.545 703.483C627.676 699.059 600.392 715.535 608.903 726.896C617.78 738.746 643.612 713.677 636.297 708.582C627.765 702.64 598.827 722.1 607.863 731.19C619.116 742.511 641.903 715.906 632.078 709.253C621.848 702.326 594.727 726.576 607.227 735.282C618.582 743.191 648.089 715.134 636.297 707.978C627.937 702.906 618.773 709.044 612.428 715.29C609.791 717.887 600.346 728.662 606.938 732.263C619.077 738.894 650.431 714.671 632.656 704.557C622.705 698.895 591.884 717.908 599.945 732.464C608.535 747.975 642.285 719.84 633.696 710.058C624.066 699.09 591.948 725.161 604.916 732.867C612.458 737.349 621.274 732.461 626.992 726.427C629.905 723.353 635.52 714.529 630.575 710.326C620.237 701.54 600.544 727.444 608.267 729.513C615.752 731.518 624.743 724.475 629.708 718.712C633.452 714.366 633.331 708.766 626.876 708.85C619.386 708.948 610.732 715.792 606.418 722.603C600.991 731.171 614.201 725.972 616.474 724.682C617.761 723.952 631.872 713.824 623.756 717.102C618.651 719.163 613.508 721.953 609.654 726.427" stroke="white" stroke-width="3" stroke-linecap="round"/>
<path d="M629.232 711.319C627.242 711.319 622.083 710.331 620.115 711.455C618.206 712.546 621.281 716.839 622.564 717.306C625.337 718.314 634.359 718.871 634.13 714.993C634.003 712.825 627.839 713.768 626.17 713.768C624.377 713.768 623.817 716.168 625.83 713.768C627.546 711.723 630.574 708.87 633.45 708.87C640.476 708.87 633.698 717.231 629.912 716.149C624.359 714.563 632.743 710.16 630.184 714.993C628.279 718.592 623.876 716.591 623.109 713.904C621.379 707.85 627.374 710.598 628.96 714.721C629.744 716.759 630.142 722.341 627.395 722.341C622.242 722.341 626.932 706.541 629.232 703.971C632.206 700.647 631.681 705.919 631.681 708.87C631.681 711.319 632.169 714.298 630.865 716.49C629.365 719.01 625.558 721.9 625.558 717.17C625.558 713.916 626.411 711.12 628.007 708.325C628.747 707.03 629.232 714.979 629.232 716.285C629.232 727.527 627.485 711.664 628.279 707.781C629.064 703.946 635.321 715.895 634.062 720.3C633.637 721.79 631.681 713.77 631.681 712.544" stroke="white" stroke-width="3" stroke-linecap="round"/>
</g>
<defs>
<filter id="filter0_d_1_44" x="19.2675" y="3.05176e-05" width="1098.46" height="993.75" filterUnits="userSpaceOnUse" color-interpolation-filters="sRGB">
<feFlood flood-opacity="0" result="BackgroundImageFix"/>
<feColorMatrix in="SourceAlpha" type="matrix" values="0 0 0 0 0 0 0 0 0 0 0 0 0 0 0 0 0 0 127 0" result="hardAlpha"/>
<feOffset dy="4"/>
<feGaussianBlur stdDeviation="50"/>
<feComposite in2="hardAlpha" operator="out"/>
<feColorMatrix type="matrix" values="0 0 0 0 1 0 0 0 0 1 0 0 0 0 1 0 0 0 0.25 0"/>
<feBlend mode="normal" in2="BackgroundImageFix" result="effect1_dropShadow_1_44"/>
<feBlend mode="normal" in="SourceGraphic" in2="effect1_dropShadow_1_44" result="shape"/>
</filter>
<filter id="filter1_di_1_44" x="115.268" y="96" width="906.465" height="801.75" filterUnits="userSpaceOnUse" color-interpolation-filters="sRGB">
<feFlood flood-opacity="0" result="BackgroundImageFix"/>
<feColorMatrix in="SourceAlpha" type="matrix" values="0 0 0 0 0 0 0 0 0 0 0 0 0 0 0 0 0 0 127 0" result="hardAlpha"/>
<feOffset dy="4"/>
<feGaussianBlur stdDeviation="2"/>
<feComposite in2="hardAlpha" operator="out"/>
<feColorMatrix type="matrix" values="0 0 0 0 1 0 0 0 0 1 0 0 0 0 1 0 0 0 0.7 0"/>
<feBlend mode="normal" in2="BackgroundImageFix" result="effect1_dropShadow_1_44"/>
<feBlend mode="normal" in="SourceGraphic" in2="effect1_dropShadow_1_44" result="shape"/>
<feColorMatrix in="SourceAlpha" type="matrix" values="0 0 0 0 0 0 0 0 0 0 0 0 0 0 0 0 0 0 127 0" result="hardAlpha"/>
<feOffset dy="4"/>
<feGaussianBlur stdDeviation="125"/>
<feComposite in2="hardAlpha" operator="arithmetic" k2="-1" k3="1"/>
<feColorMatrix type="matrix" values="0 0 0 0 0 0 0 0 0 0 0 0 0 0 0 0 0 0 0.25 0"/>
<feBlend mode="normal" in2="shape" result="effect2_innerShadow_1_44"/>
</filter>
<filter id="filter2_f_1_44" x="391" y="777" width="353" height="96" filterUnits="userSpaceOnUse" color-interpolation-filters="sRGB">
<feFlood flood-opacity="0" result="BackgroundImageFix"/>
<feBlend mode="normal" in="SourceGraphic" in2="BackgroundImageFix" result="shape"/>
<feGaussianBlur stdDeviation="14" result="effect1_foregroundBlur_1_44"/>
</filter>
</defs>
</svg>
