<svg width="4274" height="1810" viewBox="0 0 4274 1810" fill="none" xmlns="http://www.w3.org/2000/svg">
<rect width="4274" height="1810" fill="#E5E5E5"/>
<path d="M4286 -16H-10V1822H4286V-16Z" fill="#292552"/>
<ellipse rx="12.5293" ry="10.1157" transform="matrix(-1 0 0 1 3095.02 440.217)" fill="#FCD23F"/>
<ellipse rx="10.0235" ry="8.0926" transform="matrix(-1 0 0 1 3824.22 956.121)" fill="#FCD23F"/>
<ellipse rx="10.0235" ry="8.0926" transform="matrix(-1 0 0 1 3217.8 968.26)" fill="#FCD23F"/>
<ellipse rx="10.0235" ry="8.0926" transform="matrix(-1 0 0 1 3553.59 1024.91)" fill="#FCD23F"/>
<ellipse rx="12.5293" ry="10.1157" transform="matrix(-1 0 0 1 4142.47 169.116)" fill="#FCD23F"/>
<ellipse rx="10.0235" ry="8.0926" transform="matrix(-1 0 0 1 3533.55 183.278)" fill="#FCD23F"/>
<ellipse rx="12.5293" ry="8.0926" transform="matrix(-1 0 0 1 3871.83 239.926)" fill="#FCD23F"/>
<circle r="2.5" transform="matrix(-1 0 0 1 3948.5 344.5)" fill="#FCD23F"/>
<circle r="2" transform="matrix(-1 0 0 1 4094 472)" fill="#FCD23F"/>
<circle r="2" transform="matrix(-1 0 0 1 3973 475)" fill="#FCD23F"/>
<circle r="2" transform="matrix(-1 0 0 1 4040 489)" fill="#FCD23F"/>
<circle r="2.5" transform="matrix(-1 0 0 1 4157.5 277.5)" fill="#FCD23F"/>
<circle r="2" transform="matrix(-1 0 0 1 4036 281)" fill="#FCD23F"/>
<ellipse rx="2.5" ry="2" transform="matrix(-1 0 0 1 4103.5 295)" fill="#FCD23F"/>
<ellipse cx="4075.38" cy="1461.14" rx="6.02096" ry="4.86111" fill="#FCD23F"/>
<ellipse cx="3724.96" cy="1709.06" rx="4.81677" ry="3.88889" fill="#FCD23F"/>
<ellipse cx="4016.37" cy="1714.89" rx="4.81677" ry="3.88889" fill="#FCD23F"/>
<ellipse cx="3855.01" cy="1742.11" rx="4.81677" ry="3.88889" fill="#FCD23F"/>
<ellipse cx="3572.02" cy="1330.86" rx="6.02096" ry="4.86111" fill="#FCD23F"/>
<ellipse cx="3864.64" cy="1337.67" rx="4.81677" ry="3.88889" fill="#FCD23F"/>
<ellipse cx="3702.08" cy="1364.89" rx="6.02096" ry="3.88889" fill="#FCD23F"/>
<ellipse cx="2028.15" cy="699.021" rx="3.60981" ry="2.91443" fill="#FCD23F"/>
<ellipse cx="1818.06" cy="847.657" rx="2.88785" ry="2.33155" fill="#FCD23F"/>
<ellipse cx="1992.78" cy="851.155" rx="2.88785" ry="2.33155" fill="#FCD23F"/>
<ellipse cx="1896.04" cy="867.475" rx="2.88785" ry="2.33155" fill="#FCD23F"/>
<ellipse cx="1726.37" cy="620.914" rx="3.60981" ry="2.91443" fill="#FCD23F"/>
<ellipse cx="1901.81" cy="624.995" rx="2.88785" ry="2.33155" fill="#FCD23F"/>
<ellipse cx="1804.35" cy="641.315" rx="3.60981" ry="2.33155" fill="#FCD23F"/>
<ellipse cx="1145.39" cy="203.021" rx="3.60981" ry="2.91443" fill="#FCD23F"/>
<ellipse cx="935.301" cy="351.657" rx="2.88785" ry="2.33155" fill="#FCD23F"/>
<ellipse cx="1110.02" cy="355.155" rx="2.88785" ry="2.33155" fill="#FCD23F"/>
<ellipse cx="1013.27" cy="371.475" rx="2.88785" ry="2.33155" fill="#FCD23F"/>
<ellipse cx="843.611" cy="124.914" rx="3.60981" ry="2.91443" fill="#FCD23F"/>
<ellipse cx="1019.05" cy="128.995" rx="2.88785" ry="2.33155" fill="#FCD23F"/>
<ellipse cx="921.583" cy="145.315" rx="3.60981" ry="2.33155" fill="#FCD23F"/>
<ellipse rx="5.33285" ry="4.30556" transform="matrix(1 0 0 -1 1442.16 1119.31)" fill="#FCD23F"/>
<ellipse rx="4.26628" ry="3.44445" transform="matrix(1 0 0 -1 1131.79 899.722)" fill="#FCD23F"/>
<ellipse rx="4.26628" ry="3.44445" transform="matrix(1 0 0 -1 1389.9 894.556)" fill="#FCD23F"/>
<ellipse rx="4.26628" ry="3.44445" transform="matrix(1 0 0 -1 1246.98 870.444)" fill="#FCD23F"/>
<ellipse rx="5.33285" ry="4.30556" transform="matrix(1 0 0 -1 996.332 1234.69)" fill="#FCD23F"/>
<ellipse rx="4.26628" ry="3.44445" transform="matrix(1 0 0 -1 1255.51 1228.67)" fill="#FCD23F"/>
<ellipse rx="5.33285" ry="3.44445" transform="matrix(1 0 0 -1 1111.52 1204.56)" fill="#FCD23F"/>
<ellipse rx="9.03145" ry="7.29167" transform="matrix(1 0 0 -1 2558.06 1520.29)" fill="#FCD23F"/>
<ellipse rx="7.22516" ry="5.83334" transform="matrix(1 0 0 -1 2032.43 1148.42)" fill="#FCD23F"/>
<ellipse rx="7.22516" ry="5.83334" transform="matrix(1 0 0 -1 2469.56 1139.67)" fill="#FCD23F"/>
<ellipse rx="7.22516" ry="5.83334" transform="matrix(1 0 0 -1 2227.51 1098.83)" fill="#FCD23F"/>
<ellipse rx="9.03145" ry="7.29167" transform="matrix(1 0 0 -1 1803.03 1715.71)" fill="#FCD23F"/>
<ellipse rx="7.22516" ry="5.83334" transform="matrix(1 0 0 -1 2241.96 1705.5)" fill="#FCD23F"/>
<ellipse rx="9.03145" ry="5.83334" transform="matrix(1 0 0 -1 1998.11 1664.67)" fill="#FCD23F"/>
<ellipse rx="4.54439" ry="3.66898" transform="matrix(1 0 0 -1 2525.46 891.002)" fill="#FCD23F"/>
<ellipse rx="3.63552" ry="2.93519" transform="matrix(1 0 0 -1 2260.97 703.884)" fill="#FCD23F"/>
<ellipse rx="3.63552" ry="2.93519" transform="matrix(1 0 0 -1 2480.92 699.482)" fill="#FCD23F"/>
<ellipse rx="3.63552" ry="2.93519" transform="matrix(1 0 0 -1 2359.13 678.935)" fill="#FCD23F"/>
<ellipse rx="4.54439" ry="3.66898" transform="matrix(1 0 0 -1 2145.55 989.331)" fill="#FCD23F"/>
<ellipse rx="3.63552" ry="2.93519" transform="matrix(1 0 0 -1 2366.4 984.194)" fill="#FCD23F"/>
<ellipse rx="4.54439" ry="2.93519" transform="matrix(1 0 0 -1 2243.71 963.648)" fill="#FCD23F"/>
<ellipse rx="2.35982" ry="1.90523" transform="matrix(1 0 0 -1 1047.64 768.647)" fill="#FCD23F"/>
<ellipse rx="1.88785" ry="1.52419" transform="matrix(1 0 0 -1 910.301 671.48)" fill="#FCD23F"/>
<ellipse rx="1.88785" ry="1.52419" transform="matrix(1 0 0 -1 1024.52 669.194)" fill="#FCD23F"/>
<ellipse rx="1.88785" ry="1.52419" transform="matrix(1 0 0 -1 961.273 658.524)" fill="#FCD23F"/>
<ellipse rx="2.35982" ry="1.90523" transform="matrix(1 0 0 -1 850.362 819.707)" fill="#FCD23F"/>
<ellipse rx="1.88785" ry="1.52419" transform="matrix(1 0 0 -1 965.048 817.04)" fill="#FCD23F"/>
<ellipse rx="2.35982" ry="1.52419" transform="matrix(1 0 0 -1 901.334 806.37)" fill="#FCD23F"/>
<ellipse rx="3.55247" ry="2.86814" transform="matrix(-1 0 0 1 925.403 1535.73)" fill="#FCD23F"/>
<ellipse rx="2.84197" ry="2.29451" transform="matrix(-1 0 0 1 1132.16 1682.01)" fill="#FCD23F"/>
<ellipse rx="2.84197" ry="2.29451" transform="matrix(-1 0 0 1 960.216 1685.45)" fill="#FCD23F"/>
<ellipse rx="2.84197" ry="2.29451" transform="matrix(-1 0 0 1 1055.42 1701.51)" fill="#FCD23F"/>
<ellipse rx="3.55247" ry="2.86814" transform="matrix(-1 0 0 1 1222.39 1458.87)" fill="#FCD23F"/>
<ellipse rx="2.84197" ry="2.29451" transform="matrix(-1 0 0 1 1049.74 1462.88)" fill="#FCD23F"/>
<ellipse rx="3.55247" ry="2.29451" transform="matrix(-1 0 0 1 1145.65 1478.95)" fill="#FCD23F"/>
<ellipse rx="7.14953" ry="5.77228" transform="matrix(-1 0 0 1 177.149 1349.99)" fill="#FCD23F"/>
<ellipse rx="5.71962" ry="4.61782" transform="matrix(-1 0 0 1 593.25 1644.38)" fill="#FCD23F"/>
<ellipse rx="5.71962" ry="4.61782" transform="matrix(-1 0 0 1 247.214 1651.31)" fill="#FCD23F"/>
<ellipse rx="5.71962" ry="4.61782" transform="matrix(-1 0 0 1 438.823 1683.63)" fill="#FCD23F"/>
<ellipse rx="7.14953" ry="5.77228" transform="matrix(-1 0 0 1 774.85 1195.3)" fill="#FCD23F"/>
<ellipse rx="5.71962" ry="4.61782" transform="matrix(-1 0 0 1 427.382 1203.38)" fill="#FCD23F"/>
<ellipse rx="7.14953" ry="4.61782" transform="matrix(-1 0 0 1 620.419 1235.7)" fill="#FCD23F"/>
<ellipse rx="2.73364" ry="2.20705" transform="matrix(-1 0 0 1 2113.73 1403.36)" fill="#FCD23F"/>
<ellipse rx="2.18692" ry="1.76564" transform="matrix(-1 0 0 1 2272.83 1515.92)" fill="#FCD23F"/>
<ellipse rx="2.18692" ry="1.76564" transform="matrix(-1 0 0 1 2140.52 1518.56)" fill="#FCD23F"/>
<ellipse rx="2.18692" ry="1.76564" transform="matrix(-1 0 0 1 2213.78 1530.92)" fill="#FCD23F"/>
<ellipse rx="2.73364" ry="2.20705" transform="matrix(-1 0 0 1 2342.27 1344.21)" fill="#FCD23F"/>
<ellipse rx="2.18692" ry="1.76564" transform="matrix(-1 0 0 1 2209.41 1347.3)" fill="#FCD23F"/>
<ellipse rx="2.73364" ry="1.76564" transform="matrix(-1 0 0 1 2283.22 1359.66)" fill="#FCD23F"/>
<ellipse rx="7.37643" ry="5.95547" transform="matrix(-0.0546257 -0.998507 -0.998507 0.0546257 433.872 355.409)" fill="#FCD23F"/>
<ellipse rx="5.90115" ry="4.76438" transform="matrix(-0.0546257 -0.998507 -0.998507 0.0546257 154.047 800.666)" fill="#FCD23F"/>
<ellipse rx="5.90115" ry="4.76438" transform="matrix(-0.0546257 -0.998507 -0.998507 0.0546257 127.409 444.571)" fill="#FCD23F"/>
<ellipse rx="5.90115" ry="4.76438" transform="matrix(-0.0546257 -0.998507 -0.998507 0.0546257 104.907 643.789)" fill="#FCD23F"/>
<ellipse rx="7.37643" ry="5.95547" transform="matrix(-0.0546257 -0.998507 -0.998507 0.0546257 626.925 962.439)" fill="#FCD23F"/>
<ellipse rx="5.90115" ry="4.76438" transform="matrix(-0.0546257 -0.998507 -0.998507 0.0546257 599.018 604.935)" fill="#FCD23F"/>
<ellipse rx="7.37643" ry="4.76438" transform="matrix(-0.0546257 -0.998507 -0.998507 0.0546257 576.596 805.622)" fill="#FCD23F"/>
<ellipse rx="3.56906" ry="2.88153" transform="matrix(0.765729 -0.643163 -0.643163 -0.765729 1914.57 1267.28)" fill="#FCD23F"/>
<ellipse rx="2.85525" ry="2.30523" transform="matrix(0.765729 -0.643163 -0.643163 -0.765729 1661 1288.35)" fill="#FCD23F"/>
<ellipse rx="2.85525" ry="2.30523" transform="matrix(0.765729 -0.643163 -0.643163 -0.765729 1791.05 1174.6)" fill="#FCD23F"/>
<ellipse rx="2.85525" ry="2.30523" transform="matrix(0.765729 -0.643163 -0.643163 -0.765729 1707.43 1223.76)" fill="#FCD23F"/>
<ellipse rx="3.56906" ry="2.88153" transform="matrix(0.765729 -0.643163 -0.643163 -0.765729 1735.77 1518.32)" fill="#FCD23F"/>
<ellipse rx="2.85525" ry="2.30523" transform="matrix(0.765729 -0.643163 -0.643163 -0.765729 1865.99 1403.67)" fill="#FCD23F"/>
<ellipse rx="3.56906" ry="2.30523" transform="matrix(0.765729 -0.643163 -0.643163 -0.765729 1781.83 1453.29)" fill="#FCD23F"/>
<circle r="7.19626" transform="matrix(-1 0 0 1 1336.9 611.299)" fill="#FCD23F"/>
<circle r="5.75701" transform="matrix(-1 0 0 1 1755.72 978.308)" fill="#FCD23F"/>
<circle r="5.75701" transform="matrix(-1 0 0 1 1407.42 986.944)" fill="#FCD23F"/>
<circle r="5.75701" transform="matrix(-1 0 0 1 1600.28 1027.24)" fill="#FCD23F"/>
<circle r="7.19626" transform="matrix(-1 0 0 1 1938.5 418.439)" fill="#FCD23F"/>
<circle r="5.75701" transform="matrix(-1 0 0 1 1588.76 428.514)" fill="#FCD23F"/>
<ellipse rx="7.19626" ry="5.75701" transform="matrix(-1 0 0 1 1783.06 468.813)" fill="#FCD23F"/>
<g filter="url(#filter0_d_0_1)">
<path d="M2471.01 256.965C2482.87 364.699 2405.14 461.647 2297.41 473.504C2214.43 482.636 2137.85 438.627 2101.62 368.694C2079.92 268.417 2173.12 52.8286 2431.43 158.655C2452.71 186.227 2466.92 219.811 2471.01 256.965Z" fill="#FFB660" fill-opacity="0.98"/>
<path d="M2080.87 299.902C2069.01 192.167 2146.74 95.2195 2254.47 83.3627C2325.05 75.5948 2391 106.276 2431.43 158.655C2173.12 52.8286 2079.92 268.417 2101.62 368.694C2090.81 347.83 2083.59 324.658 2080.87 299.902Z" fill="#FFEA9E" fill-opacity="0.99"/>
<path fill-rule="evenodd" clip-rule="evenodd" d="M1924.28 228.289C1918.29 264.659 2071.15 320.151 2265.72 352.233C2460.29 384.316 2622.87 380.84 2628.87 344.47C2632.81 320.589 2568.12 282.999 2470.09 253.116C2471.19 258.39 2471.82 269.225 2471.04 281.383C2508.94 294.249 2530.37 307.33 2528.27 319.765C2523.75 346.519 2410.46 341.054 2267.34 316.892C2124.21 292.73 2027.97 272.751 2032.49 245.997C2034.4 234.684 2054.3 227.387 2087.46 224.558C2089.93 215.495 2093.5 205.642 2099.07 196.22C2000.4 193.912 1928.06 205.387 1924.28 228.289Z" fill="url(#paint0_linear_0_1)"/>
</g>
<path d="M3986.62 1248.62C4004.29 1248.62 4018.62 1234.3 4018.62 1216.62V1210.66V1200.57H3935.57H3918.96H3794.37H3733.86H3685.22H3621.74H3559.45H3544.03H3399.28H3273.51H3201.13H3179.78H3165.54H3133.5H3101.47H3078.93H3017.23H2973.33H2747.9H2665.14C2651.87 1200.57 2641.11 1211.33 2641.11 1224.6C2641.11 1237.87 2651.87 1248.62 2665.14 1248.62H2763.32H2847.56H2953.16H3011.3H3129.94H3179.78H3426.57H3437.84H3449.11H3468.09H3913.02H3986.62Z" fill="#99599A"/>
<path fill-rule="evenodd" clip-rule="evenodd" d="M3273.51 1783.59L3412.33 1436.09V1423.63C3412.33 1420.03 3409.41 1417.11 3405.8 1417.11C3402.2 1417.11 3399.28 1414.18 3399.28 1410.58V1367.87C3399.28 1364.26 3402.2 1361.34 3405.8 1361.34C3409.41 1361.34 3412.33 1364.26 3412.33 1367.87V1374.39C3412.33 1378.32 3415.51 1381.51 3419.45 1381.51C3423.38 1381.51 3426.57 1378.32 3426.57 1374.39V1309.73C3426.57 1306.78 3428.96 1304.39 3431.9 1304.39H3432.5C3435.12 1304.39 3437.24 1306.51 3437.24 1309.14C3437.24 1311.76 3439.37 1313.88 3441.99 1313.88H3443.18C3446.45 1313.88 3449.11 1311.23 3449.11 1307.95V1248.62H3437.84L3437.32 1284.85C3437.28 1287.79 3434.88 1290.15 3431.94 1290.15C3428.97 1290.15 3426.57 1287.74 3426.57 1284.77V1248.62H3179.78V1335.24C3179.78 1339.17 3182.96 1342.36 3186.9 1342.36C3190.83 1342.36 3194.01 1339.17 3194.01 1335.24V1317.44C3194.01 1310.23 3199.86 1304.39 3207.07 1304.39C3214.27 1304.39 3220.12 1310.23 3220.12 1317.44V1417.7C3220.12 1421.96 3223.57 1425.41 3227.83 1425.41C3232.09 1425.41 3235.54 1421.96 3235.54 1417.7V1367.27C3235.54 1360.72 3240.85 1355.41 3247.41 1355.41C3253.96 1355.41 3259.27 1360.72 3259.27 1367.27V1483.55C3259.27 1487.48 3262.46 1490.67 3266.39 1490.67C3270.32 1490.67 3273.51 1487.48 3273.51 1483.55C3273.51 1479.62 3276.7 1476.43 3280.63 1476.43H3281.22C3285.48 1476.43 3288.93 1479.88 3288.93 1484.14V1568.38C3288.93 1572.64 3285.48 1576.09 3281.22 1576.09C3276.96 1576.09 3273.51 1579.55 3273.51 1583.81V1783.59ZM3284.19 1464.56C3281.57 1464.56 3279.44 1462.44 3279.44 1459.82V1405.24C3279.44 1402.62 3281.57 1400.49 3284.19 1400.49C3286.81 1400.49 3288.93 1402.62 3288.93 1405.24V1459.82C3288.93 1462.44 3286.81 1464.56 3284.19 1464.56ZM3307.32 1425.41C3303.72 1425.41 3300.8 1422.49 3300.8 1418.88V1386.85C3300.8 1383.25 3303.72 1380.32 3307.32 1380.32C3310.93 1380.32 3313.85 1383.25 3313.85 1386.85V1418.88C3313.85 1422.49 3310.93 1425.41 3307.32 1425.41ZM3395.76 1340.18C3392.26 1339.37 3389.78 1336.25 3389.78 1332.66V1286C3389.78 1281.74 3393.24 1278.29 3397.5 1278.29C3401.76 1278.29 3405.21 1281.74 3405.21 1286V1332.66C3405.21 1337.62 3400.59 1341.29 3395.76 1340.18ZM3319.78 1554.74C3316.51 1554.74 3313.85 1552.08 3313.85 1548.8V1529.82C3313.85 1526.54 3316.51 1523.89 3319.78 1523.89C3323.06 1523.89 3325.71 1526.54 3325.71 1529.82V1548.8C3325.71 1552.08 3323.06 1554.74 3319.78 1554.74ZM3376.14 1380.32C3374.5 1380.32 3373.17 1379 3373.17 1377.36V1335.83C3373.17 1334.19 3374.5 1332.86 3376.14 1332.86C3377.78 1332.86 3379.11 1334.19 3379.11 1335.83V1377.36C3379.11 1379 3377.78 1380.32 3376.14 1380.32ZM3353 1458.63C3350.38 1458.63 3348.26 1456.51 3348.26 1453.89V1415.92C3348.26 1413.3 3350.38 1411.17 3353 1411.17C3355.62 1411.17 3357.75 1413.3 3357.75 1415.92V1453.89C3357.75 1456.51 3355.62 1458.63 3353 1458.63Z" fill="#C46CC6"/>
<path fill-rule="evenodd" clip-rule="evenodd" d="M3011.3 1248.62V1309.14C3011.3 1311.76 3009.17 1313.88 3006.55 1313.88C3003.93 1313.88 3001.8 1311.76 3001.8 1309.14V1304.98C3001.8 1300.72 2998.35 1297.27 2994.09 1297.27C2989.83 1297.27 2986.38 1300.72 2986.38 1304.98V1347.52C2986.38 1351.88 2989.91 1355.41 2994.26 1355.41C2998.48 1355.41 3001.95 1358.73 3002.14 1362.94L3007.19 1476.43L3041.59 1547.43C3042.3 1548.92 3044.41 1548.94 3045.16 1547.48L3081.7 1476.43V1382.5C3081.7 1378.68 3084.8 1375.58 3088.62 1375.58C3092.44 1375.58 3095.54 1378.68 3095.54 1382.5V1393.97C3095.54 1395.61 3096.86 1396.93 3098.5 1396.93C3100.14 1396.93 3101.47 1395.61 3101.47 1393.97V1318.63C3101.47 1310.76 3107.84 1304.39 3115.71 1304.39C3123.57 1304.39 3129.94 1298.01 3129.94 1290.15V1248.62H3011.3ZM3022.57 1400.49C3019.62 1400.49 3017.23 1398.1 3017.23 1395.16V1347.7C3017.23 1344.75 3019.62 1342.36 3022.57 1342.36C3025.52 1342.36 3027.91 1344.75 3027.91 1347.7V1395.16C3027.91 1398.1 3025.52 1400.49 3022.57 1400.49Z" fill="#C46CC6"/>
<path fill-rule="evenodd" clip-rule="evenodd" d="M2820.87 1342.36L2876.83 1429.92C2877.59 1431.11 2879.31 1431.16 2880.13 1430.02L2911.04 1387.44L2916.18 1313.18C2916.29 1311.57 2917.63 1310.32 2919.24 1310.32C2920.94 1310.32 2922.31 1311.7 2922.31 1313.39V1319.22C2922.31 1322.17 2924.7 1324.56 2927.65 1324.56C2930.6 1324.56 2932.99 1322.17 2932.99 1319.22V1289.56C2932.99 1286.61 2935.38 1284.22 2938.33 1284.22C2941.28 1284.22 2943.67 1286.61 2943.67 1289.56V1299.64C2943.67 1302.26 2945.79 1304.39 2948.41 1304.39C2951.03 1304.39 2953.16 1302.26 2953.16 1299.64V1248.62H2847.56V1307.95C2847.56 1311.23 2844.91 1313.88 2841.63 1313.88C2838.35 1313.88 2835.7 1311.23 2835.7 1307.95V1297.57C2835.7 1293.47 2832.38 1290.15 2828.28 1290.15C2824.19 1290.15 2820.87 1293.47 2820.87 1297.57V1342.36ZM2884.34 1342.36C2881.07 1342.36 2878.41 1339.7 2878.41 1336.42V1290.15C2878.41 1286.88 2881.07 1284.22 2884.34 1284.22C2887.62 1284.22 2890.28 1286.88 2890.28 1290.15V1336.42C2890.28 1339.7 2887.62 1342.36 2884.34 1342.36Z" fill="#C46CC6"/>
<path fill-rule="evenodd" clip-rule="evenodd" d="M3724.37 1502.39L3780.45 1404.6C3788.43 1390.7 3805.45 1384.84 3820.29 1390.88L3824.82 1392.73C3825.73 1393.1 3826.78 1392.75 3827.29 1391.9L3913.02 1248.62H3468.09V1286.59C3468.09 1288.56 3469.69 1290.15 3471.65 1290.15C3473.62 1290.15 3475.21 1288.56 3475.21 1286.59V1281.85C3475.21 1279.88 3476.8 1278.29 3478.77 1278.29C3480.74 1278.29 3482.33 1279.88 3482.33 1281.85V1377.95C3482.33 1379.92 3483.92 1381.51 3485.89 1381.51C3487.86 1381.51 3489.45 1379.92 3489.45 1377.95V1372.02C3489.45 1370.05 3491.04 1368.46 3493.01 1368.46C3494.97 1368.46 3496.57 1370.05 3496.57 1372.02V1496.96L3543.23 1437.08C3548.49 1430.34 3557.84 1428.36 3565.38 1432.39V1398.71C3565.38 1395.77 3567.77 1393.38 3570.72 1393.38C3573.67 1393.38 3576.06 1395.77 3576.06 1398.71V1405.83C3576.06 1408.78 3578.45 1411.17 3581.4 1411.17C3584.35 1411.17 3586.74 1408.78 3586.74 1405.83V1336.42C3586.74 1334.46 3588.33 1332.86 3590.3 1332.86C3592.27 1332.86 3593.86 1334.46 3593.86 1336.42V1395.75C3593.86 1398.37 3595.98 1400.49 3598.61 1400.49C3601.23 1400.49 3603.35 1398.37 3603.35 1395.75V1386.26C3603.35 1383.64 3605.48 1381.51 3608.1 1381.51C3610.72 1381.51 3612.84 1383.64 3612.84 1386.26V1445.63L3659.12 1411.17V1385.07C3659.12 1383.1 3660.71 1381.51 3662.68 1381.51C3664.64 1381.51 3666.23 1379.92 3666.23 1377.95V1361.34C3666.23 1358.06 3668.89 1355.41 3672.17 1355.41C3675.44 1355.41 3678.1 1358.06 3678.1 1361.34V1372.02C3678.1 1376.61 3681.82 1380.32 3686.4 1380.32C3690.99 1380.32 3694.71 1376.61 3694.71 1372.02V1297.86C3694.71 1293.6 3698.16 1290.15 3702.42 1290.15C3706.68 1290.15 3710.13 1293.6 3710.13 1297.86V1338.8C3710.13 1340.76 3711.73 1342.36 3713.69 1342.36C3715.66 1342.36 3717.25 1343.95 3717.25 1345.92V1421.85C3717.25 1423.82 3718.85 1425.41 3720.81 1425.41C3722.78 1425.41 3724.37 1427 3724.37 1428.97V1502.39ZM3608.1 1368.46C3605.48 1368.46 3603.35 1366.33 3603.35 1363.71V1318.63C3603.35 1316.01 3605.48 1313.88 3608.1 1313.88C3610.72 1313.88 3612.84 1316.01 3612.84 1318.63V1363.71C3612.84 1366.33 3610.72 1368.46 3608.1 1368.46ZM3773.61 1368.46C3770.66 1368.46 3768.27 1366.07 3768.27 1363.12V1317.73C3768.27 1315.43 3769.74 1313.39 3771.92 1312.66C3775.38 1311.51 3778.95 1314.09 3778.95 1317.73V1363.12C3778.95 1366.07 3776.56 1368.46 3773.61 1368.46ZM3794.37 1348.29C3790.44 1348.29 3787.26 1345.1 3787.26 1341.17V1297.27C3787.26 1293.34 3790.44 1290.15 3794.37 1290.15C3798.31 1290.15 3801.49 1293.34 3801.49 1297.27V1341.17C3801.49 1345.1 3798.31 1348.29 3794.37 1348.29ZM3735.05 1400.49C3733.08 1400.49 3731.49 1398.9 3731.49 1396.93V1372.02C3731.49 1370.05 3733.08 1368.46 3735.05 1368.46C3737.02 1368.46 3738.61 1370.05 3738.61 1372.02V1396.93C3738.61 1398.9 3737.02 1400.49 3735.05 1400.49ZM3581.4 1304.39C3578.45 1304.39 3576.06 1302 3576.06 1299.05V1283.63C3576.06 1280.68 3578.45 1278.29 3581.4 1278.29C3584.35 1278.29 3586.74 1280.68 3586.74 1283.63V1299.05C3586.74 1302 3584.35 1304.39 3581.4 1304.39Z" fill="#C46CC6"/>
<path d="M2968.58 1304.39C2965.96 1304.39 2963.84 1306.51 2963.84 1309.14V1334.05C2963.84 1336.67 2965.96 1338.8 2968.58 1338.8C2971.2 1338.8 2973.33 1336.67 2973.33 1334.05V1309.14C2973.33 1306.51 2971.2 1304.39 2968.58 1304.39Z" fill="#C46CC6"/>
<path d="M3443.47 1332.86C3440.36 1332.86 3437.84 1335.39 3437.84 1338.5V1362.82C3437.84 1365.94 3440.36 1368.46 3443.47 1368.46C3446.59 1368.46 3449.11 1365.94 3449.11 1362.82V1338.5C3449.11 1335.39 3446.59 1332.86 3443.47 1332.86Z" fill="#C46CC6"/>
<path d="M2763.32 1248.62L2820.87 1342.36V1297.57C2820.87 1293.47 2824.19 1290.15 2828.28 1290.15C2832.38 1290.15 2835.7 1293.47 2835.7 1297.57V1307.95C2835.7 1311.23 2838.35 1313.88 2841.63 1313.88C2844.91 1313.88 2847.56 1311.23 2847.56 1307.95V1248.62H2763.32Z" fill="#7C397D"/>
<path fill-rule="evenodd" clip-rule="evenodd" d="M2911.04 1387.44L2941.68 1341.76C2942.55 1340.46 2944.51 1340.61 2945.16 1342.03L3007.19 1476.43L3002.14 1362.94C3001.95 1358.73 2998.48 1355.41 2994.26 1355.41C2989.91 1355.41 2986.38 1351.88 2986.38 1347.52V1304.98C2986.38 1300.72 2989.83 1297.27 2994.09 1297.27C2998.35 1297.27 3001.8 1300.72 3001.8 1304.98V1309.14C3001.8 1311.76 3003.93 1313.88 3006.55 1313.88C3009.17 1313.88 3011.3 1311.76 3011.3 1309.14V1248.62H2953.16V1299.64C2953.16 1302.26 2951.03 1304.39 2948.41 1304.39C2945.79 1304.39 2943.67 1302.26 2943.67 1299.64V1289.56C2943.67 1286.61 2941.28 1284.22 2938.33 1284.22C2935.38 1284.22 2932.99 1286.61 2932.99 1289.56V1319.22C2932.99 1322.17 2930.6 1324.56 2927.65 1324.56C2924.7 1324.56 2922.31 1322.17 2922.31 1319.22V1313.39C2922.31 1311.7 2920.94 1310.32 2919.24 1310.32C2917.63 1310.32 2916.29 1311.57 2916.18 1313.18L2911.04 1387.44ZM2968.58 1338.8C2965.96 1338.8 2963.84 1336.67 2963.84 1334.05V1309.14C2963.84 1306.51 2965.96 1304.39 2968.58 1304.39C2971.2 1304.39 2973.33 1306.51 2973.33 1309.14V1334.05C2973.33 1336.67 2971.2 1338.8 2968.58 1338.8Z" fill="#7C397D"/>
<path d="M3099.68 1439.74C3100.41 1438.25 3102.53 1438.24 3103.27 1439.73L3273.51 1783.59V1583.81C3273.51 1579.55 3276.96 1576.09 3281.22 1576.09C3285.48 1576.09 3288.93 1572.64 3288.93 1568.38V1484.14C3288.93 1479.88 3285.48 1476.43 3281.22 1476.43H3280.63C3276.7 1476.43 3273.51 1479.62 3273.51 1483.55C3273.51 1487.48 3270.32 1490.67 3266.39 1490.67C3262.46 1490.67 3259.27 1487.48 3259.27 1483.55V1367.27C3259.27 1360.72 3253.96 1355.41 3247.41 1355.41C3240.85 1355.41 3235.54 1360.72 3235.54 1367.27V1417.7C3235.54 1421.96 3232.09 1425.41 3227.83 1425.41C3223.57 1425.41 3220.12 1421.96 3220.12 1417.7V1317.44C3220.12 1310.23 3214.27 1304.39 3207.07 1304.39C3199.86 1304.39 3194.01 1310.23 3194.01 1317.44V1335.24C3194.01 1339.17 3190.83 1342.36 3186.9 1342.36C3182.96 1342.36 3179.78 1339.17 3179.78 1335.24V1248.62H3129.94V1290.15C3129.94 1298.01 3123.57 1304.39 3115.71 1304.39C3107.84 1304.39 3101.47 1310.76 3101.47 1318.63V1393.97C3101.47 1395.61 3100.14 1396.93 3098.5 1396.93C3096.86 1396.93 3095.54 1395.61 3095.54 1393.97V1382.5C3095.54 1378.68 3092.44 1375.58 3088.62 1375.58C3084.8 1375.58 3081.7 1378.68 3081.7 1382.5V1476.43L3099.68 1439.74Z" fill="#7C397D"/>
<path fill-rule="evenodd" clip-rule="evenodd" d="M3412.33 1436.09L3482.66 1496.55C3486.62 1499.96 3492.42 1500.13 3496.57 1496.96V1372.02C3496.57 1370.05 3494.97 1368.46 3493.01 1368.46C3491.04 1368.46 3489.45 1370.05 3489.45 1372.02V1377.95C3489.45 1379.92 3487.86 1381.51 3485.89 1381.51C3483.92 1381.51 3482.33 1379.92 3482.33 1377.95V1281.85C3482.33 1279.88 3480.74 1278.29 3478.77 1278.29C3476.8 1278.29 3475.21 1279.88 3475.21 1281.85V1286.59C3475.21 1288.56 3473.62 1290.15 3471.65 1290.15C3469.69 1290.15 3468.09 1288.56 3468.09 1286.59V1248.62H3449.11V1307.95C3449.11 1311.23 3446.45 1313.88 3443.18 1313.88H3441.99C3439.37 1313.88 3437.24 1311.76 3437.24 1309.14C3437.24 1306.51 3435.12 1304.39 3432.5 1304.39H3431.9C3428.96 1304.39 3426.57 1306.78 3426.57 1309.73V1374.39C3426.57 1378.32 3423.38 1381.51 3419.45 1381.51C3415.51 1381.51 3412.33 1378.32 3412.33 1374.39V1367.87C3412.33 1364.26 3409.41 1361.34 3405.8 1361.34C3402.2 1361.34 3399.28 1364.26 3399.28 1367.87V1410.58C3399.28 1414.18 3402.2 1417.11 3405.8 1417.11C3409.41 1417.11 3412.33 1420.03 3412.33 1423.63V1436.09ZM3443.47 1368.46C3440.36 1368.46 3437.84 1365.94 3437.84 1362.82V1338.5C3437.84 1335.39 3440.36 1332.86 3443.47 1332.86C3446.59 1332.86 3449.11 1335.39 3449.11 1338.5V1362.82C3449.11 1365.94 3446.59 1368.46 3443.47 1368.46Z" fill="#7C397D"/>
<path d="M3397.5 1278.29C3393.24 1278.29 3389.78 1281.74 3389.78 1286V1332.66C3389.78 1336.25 3392.26 1339.37 3395.76 1340.18C3400.59 1341.29 3405.21 1337.62 3405.21 1332.66V1286C3405.21 1281.74 3401.76 1278.29 3397.5 1278.29Z" fill="#7C397D"/>
<path d="M3426.57 1248.62V1284.77C3426.57 1287.74 3428.97 1290.15 3431.94 1290.15C3434.88 1290.15 3437.28 1287.79 3437.32 1284.85L3437.84 1248.62H3426.57Z" fill="#7C397D"/>
<path d="M3307.32 1380.32C3303.72 1380.32 3300.8 1383.25 3300.8 1386.85V1418.88C3300.8 1422.49 3303.72 1425.41 3307.32 1425.41C3310.93 1425.41 3313.85 1422.49 3313.85 1418.88V1386.85C3313.85 1383.25 3310.93 1380.32 3307.32 1380.32Z" fill="#7C397D"/>
<path d="M3353 1411.17C3350.38 1411.17 3348.26 1413.3 3348.26 1415.92V1453.89C3348.26 1456.51 3350.38 1458.63 3353 1458.63C3355.62 1458.63 3357.75 1456.51 3357.75 1453.89V1415.92C3357.75 1413.3 3355.62 1411.17 3353 1411.17Z" fill="#7C397D"/>
<path d="M3319.78 1523.89C3316.51 1523.89 3313.85 1526.54 3313.85 1529.82V1548.8C3313.85 1552.08 3316.51 1554.74 3319.78 1554.74C3323.06 1554.74 3325.71 1552.08 3325.71 1548.8V1529.82C3325.71 1526.54 3323.06 1523.89 3319.78 1523.89Z" fill="#7C397D"/>
<path d="M3565.38 1432.39L3602.23 1452.1C3602.91 1452.47 3603.75 1452.4 3604.37 1451.94L3612.84 1445.63V1386.26C3612.84 1383.64 3610.72 1381.51 3608.1 1381.51C3605.48 1381.51 3603.35 1383.64 3603.35 1386.26V1395.75C3603.35 1398.37 3601.23 1400.49 3598.61 1400.49C3595.98 1400.49 3593.86 1398.37 3593.86 1395.75V1336.42C3593.86 1334.46 3592.27 1332.86 3590.3 1332.86C3588.33 1332.86 3586.74 1334.46 3586.74 1336.42V1405.83C3586.74 1408.78 3584.35 1411.17 3581.4 1411.17C3578.45 1411.17 3576.06 1408.78 3576.06 1405.83V1398.71C3576.06 1395.77 3573.67 1393.38 3570.72 1393.38C3567.77 1393.38 3565.38 1395.77 3565.38 1398.71V1432.39Z" fill="#7C397D"/>
<path d="M3581.4 1278.29C3578.45 1278.29 3576.06 1280.68 3576.06 1283.63V1299.05C3576.06 1302 3578.45 1304.39 3581.4 1304.39C3584.35 1304.39 3586.74 1302 3586.74 1299.05V1283.63C3586.74 1280.68 3584.35 1278.29 3581.4 1278.29Z" fill="#7C397D"/>
<path d="M3608.1 1313.88C3605.48 1313.88 3603.35 1316.01 3603.35 1318.63V1363.71C3603.35 1366.33 3605.48 1368.46 3608.1 1368.46C3610.72 1368.46 3612.84 1366.33 3612.84 1363.71V1318.63C3612.84 1316.01 3610.72 1313.88 3608.1 1313.88Z" fill="#7C397D"/>
<path d="M3659.12 1411.17L3724.37 1502.39V1428.97C3724.37 1427 3722.78 1425.41 3720.81 1425.41C3718.85 1425.41 3717.25 1423.82 3717.25 1421.85V1345.92C3717.25 1343.95 3715.66 1342.36 3713.69 1342.36C3711.73 1342.36 3710.13 1340.76 3710.13 1338.8V1297.86C3710.13 1293.6 3706.68 1290.15 3702.42 1290.15C3698.16 1290.15 3694.71 1293.6 3694.71 1297.86V1372.02C3694.71 1376.61 3690.99 1380.32 3686.4 1380.32C3681.82 1380.32 3678.1 1376.61 3678.1 1372.02V1361.34C3678.1 1358.06 3675.44 1355.41 3672.17 1355.41C3668.89 1355.41 3666.23 1358.06 3666.23 1361.34V1377.95C3666.23 1379.92 3664.64 1381.51 3662.68 1381.51C3660.71 1381.51 3659.12 1383.1 3659.12 1385.07V1411.17Z" fill="#7C397D"/>
<path d="M3735.05 1368.46C3733.08 1368.46 3731.49 1370.05 3731.49 1372.02V1396.93C3731.49 1398.9 3733.08 1400.49 3735.05 1400.49C3737.02 1400.49 3738.61 1398.9 3738.61 1396.93V1372.02C3738.61 1370.05 3737.02 1368.46 3735.05 1368.46Z" fill="#7C397D"/>
<path d="M3771.92 1312.66C3769.74 1313.39 3768.27 1315.43 3768.27 1317.73V1363.12C3768.27 1366.07 3770.66 1368.46 3773.61 1368.46C3776.56 1368.46 3778.95 1366.07 3778.95 1363.12V1317.73C3778.95 1314.09 3775.38 1311.51 3771.92 1312.66Z" fill="#7C397D"/>
<path d="M3794.37 1290.15C3790.44 1290.15 3787.26 1293.34 3787.26 1297.27V1341.17C3787.26 1345.1 3790.44 1348.29 3794.37 1348.29C3798.31 1348.29 3801.49 1345.1 3801.49 1341.17V1297.27C3801.49 1293.34 3798.31 1290.15 3794.37 1290.15Z" fill="#7C397D"/>
<path d="M3656.14 792.12C3636.81 780.128 3627.01 752.338 3639.94 733.622L3657.93 707.589C3597.09 728.129 3460.36 780.12 3336.39 914.97C3314.89 938.357 3293.78 964.237 3273.51 992.877C3261.71 1009.54 3250.2 1027.15 3239.07 1045.74C3233.4 1055.22 3227.82 1064.96 3222.35 1074.96C3210.35 1096.9 3198.89 1120.11 3188.08 1144.67C3180.2 1162.58 3172.67 1181.2 3165.54 1200.57H3179.78C3191.02 1175.55 3205.44 1148.8 3222.35 1121.41C3227.68 1112.77 3233.26 1104.06 3239.07 1095.33C3249.82 1079.18 3261.34 1062.92 3273.51 1046.79C3293 1020.93 3314.15 995.376 3336.39 971.01C3408.23 892.325 3491.55 826.053 3567.81 802.208C3586.26 796.439 3603.35 811.361 3603.35 830.694V857.086C3731.49 892.68 3858.25 1020.82 3918.96 1200.57C3913.81 1057.91 3760.21 856.681 3656.14 792.12Z" fill="url(#paint1_linear_0_1)" fill-opacity="0.8"/>
<path d="M3935.57 1200.57C3935.23 1198.01 3934.88 1195.44 3934.51 1192.86C3934.22 1190.89 3933.93 1188.91 3933.62 1186.93C3907.17 1015.95 3797.74 794.251 3657.93 707.589L3639.94 733.622C3627.01 752.338 3636.81 780.128 3656.14 792.12C3760.21 856.681 3913.81 1057.91 3918.96 1200.57H3935.57Z" fill="url(#paint2_linear_0_1)" fill-opacity="0.8"/>
<path d="M2862.05 338H2866.13V298.253H2862.05V338Z" fill="#52A7C4"/>
<path d="M2866.13 240.97C2866.13 239.843 2865.22 238.929 2864.09 238.929C2862.96 238.929 2862.05 239.843 2862.05 240.97V289.947H2866.13V240.97Z" fill="#52A7C2"/>
<path d="M2843.41 289.947C2841.12 289.947 2839.26 291.807 2839.26 294.1C2839.26 296.394 2841.12 298.253 2843.41 298.253H2862.05V289.947H2843.41Z" fill="#4BA7C5"/>
<path d="M2866.13 289.947H2862.05V298.253H2866.13V289.947Z" fill="#4BA7C5"/>
<path d="M2884.34 298.253C2886.64 298.253 2888.5 296.394 2888.5 294.1C2888.5 291.807 2886.64 289.947 2884.34 289.947H2866.13V298.253H2884.34Z" fill="#4BA7C5"/>
<path d="M2921.72 349.865C2924.99 349.865 2927.65 347.209 2927.65 343.932C2927.65 340.656 2924.99 338 2921.72 338H2866.13V349.865H2921.72Z" fill="#4BA7C5"/>
<path d="M2862.05 338V349.865H2866.13V338H2862.05Z" fill="#4BA7C5"/>
<path d="M2807.81 338C2804.54 338 2801.88 340.656 2801.88 343.932C2801.88 347.209 2804.54 349.865 2807.81 349.865H2862.05V338H2807.81Z" fill="#4BA7C5"/>
<path d="M2862.05 389.612H2866.13V349.865H2862.05V389.612Z" fill="#4BA7C5"/>
<path d="M2866.13 400.29H2946.63C2949.58 400.29 2951.97 397.9 2951.97 394.951C2951.97 392.002 2949.58 389.612 2946.63 389.612H2866.13V400.29Z" fill="#4BA7C5"/>
<path d="M2783.49 389.612C2780.54 389.612 2778.15 392.002 2778.15 394.951C2778.15 397.9 2780.54 400.29 2783.49 400.29H2862.05V389.612H2783.49Z" fill="#4BA7C5"/>
<path d="M2866.13 389.612H2862.05V400.29H2866.13V389.612Z" fill="#4BA7C5"/>
<path d="M2862.05 435.885L2862.11 435.444C2862.45 433.158 2865.76 433.177 2866.07 435.467L2866.13 435.885V400.29H2862.05V435.885Z" fill="#4BA7C5"/>
<path d="M2948.5 1035.06L2973.33 1200.57H3017.23V1056.41C3016.86 1053.09 3020.28 1041.49 3045.86 1044.8C3048.87 1045.19 3051.64 1042.92 3051.64 1039.89C3051.64 1037.22 3049.47 1035.06 3046.81 1035.06H2948.5Z" fill="url(#paint3_linear_0_1)" fill-opacity="0.9"/>
<path fill-rule="evenodd" clip-rule="evenodd" d="M3101.47 1200.57H3078.93V698.097C3078.93 638.773 3188.08 639.96 3188.08 698.097V1144.67C3180.2 1162.58 3172.67 1181.2 3165.54 1200.57H3133.5L3130.06 760.924C3129.99 753.074 3123.61 746.743 3115.76 746.743C3107.87 746.743 3101.47 753.142 3101.47 761.036V1200.57Z" fill="url(#paint4_linear_0_1)"/>
<path d="M3222.35 766.913V1074.96C3227.82 1064.96 3233.4 1055.22 3239.07 1045.74V811.42C3239.07 801.911 3246.78 794.202 3256.29 794.202C3265.8 794.202 3273.51 801.911 3273.51 811.42V992.877C3293.78 964.237 3314.89 938.357 3336.39 914.97V766.913C3336.39 698.097 3222.35 698.097 3222.35 766.913Z" fill="url(#paint5_linear_0_1)"/>
<path fill-rule="evenodd" clip-rule="evenodd" d="M2866.07 435.467C2865.76 433.177 2862.45 433.158 2862.11 435.444L2862.05 435.885L2818.3 728.946H2844.6C2849.51 728.946 2853.49 732.93 2853.49 737.844C2853.49 742.759 2849.51 746.743 2844.6 746.743H2815.64L2812.63 766.913H2856.46C2860.72 766.913 2864.17 770.366 2864.17 774.625C2864.17 778.885 2860.72 782.337 2856.46 782.337H2810.33L2747.9 1200.57H2973.33L2948.5 1035.06L2866.13 435.885L2866.07 435.467ZM2840.44 860.645C2836.51 860.645 2833.32 863.832 2833.32 867.764C2833.32 871.696 2836.51 874.883 2840.44 874.883H2886.72C2890.65 874.883 2893.83 871.696 2893.83 867.764C2893.83 863.832 2890.65 860.645 2886.72 860.645H2840.44ZM2819.36 933.021C2814.37 933.021 2810.33 928.98 2810.33 923.995C2810.33 919.011 2814.37 914.97 2819.36 914.97H2844.47C2849.45 914.97 2853.49 919.011 2853.49 923.995C2853.49 928.98 2849.45 933.021 2844.47 933.021H2819.36ZM2841.04 963.869C2836.78 963.869 2833.32 967.322 2833.32 971.581C2833.32 975.841 2836.78 979.293 2841.04 979.293H2901.55C2905.81 979.293 2909.26 975.841 2909.26 971.581C2909.26 967.322 2905.81 963.869 2901.55 963.869H2841.04ZM2876.96 1006.58C2873.17 1006.58 2870.11 1003.51 2870.11 999.73C2870.11 995.945 2873.17 992.877 2876.96 992.877H2902.41C2906.19 992.877 2909.26 995.945 2909.26 999.73C2909.26 1003.51 2906.19 1006.58 2902.41 1006.58H2876.96ZM2797.66 1035.06C2794.42 1035.06 2791.8 1037.68 2791.8 1040.92C2791.8 1044.16 2794.42 1046.79 2797.66 1046.79H2806.08C2811.36 1046.79 2815.64 1051.07 2815.64 1056.35C2815.64 1061.63 2819.92 1065.91 2825.2 1065.91H2874.68C2880.02 1065.91 2884.34 1061.58 2884.34 1056.25C2884.34 1050.99 2880.14 1046.7 2874.88 1046.59L2838.61 1045.85C2835.67 1045.78 2833.32 1043.39 2833.32 1040.45C2833.32 1037.47 2830.91 1035.06 2827.93 1035.06H2797.66ZM2880.85 1131.29C2874.91 1131.29 2870.11 1126.48 2870.11 1120.55C2870.11 1114.62 2874.91 1109.81 2880.85 1109.81H2910.38C2916.31 1109.81 2921.12 1114.62 2921.12 1120.55C2921.12 1126.48 2916.31 1131.29 2910.38 1131.29H2880.85Z" fill="url(#paint6_linear_0_1)"/>
<path d="M2840.44 860.645C2836.51 860.645 2833.32 863.832 2833.32 867.764C2833.32 871.696 2836.51 874.883 2840.44 874.883H2886.72C2890.65 874.883 2893.83 871.696 2893.83 867.764C2893.83 863.832 2890.65 860.645 2886.72 860.645H2840.44Z" fill="#4ED2CA" fill-opacity="0.8"/>
<path d="M2819.36 914.97C2814.37 914.97 2810.33 919.011 2810.33 923.995C2810.33 928.98 2814.37 933.021 2819.36 933.021H2844.47C2849.45 933.021 2853.49 928.98 2853.49 923.995C2853.49 919.011 2849.45 914.97 2844.47 914.97H2819.36Z" fill="#4ED2CA" fill-opacity="0.8"/>
<path d="M2841.04 963.869C2836.78 963.869 2833.32 967.322 2833.32 971.581C2833.32 975.841 2836.78 979.293 2841.04 979.293H2901.55C2905.81 979.293 2909.26 975.841 2909.26 971.581C2909.26 967.322 2905.81 963.869 2901.55 963.869H2841.04Z" fill="#4ED2CA" fill-opacity="0.8"/>
<path d="M2876.96 992.877C2873.17 992.877 2870.11 995.945 2870.11 999.73C2870.11 1003.51 2873.17 1006.58 2876.96 1006.58H2902.41C2906.19 1006.58 2909.26 1003.51 2909.26 999.73C2909.26 995.945 2906.19 992.877 2902.41 992.877H2876.96Z" fill="#4ED2CA" fill-opacity="0.8"/>
<path d="M2797.66 1035.06C2794.42 1035.06 2791.8 1037.68 2791.8 1040.92C2791.8 1044.16 2794.42 1046.79 2797.66 1046.79H2806.08C2811.36 1046.79 2815.64 1051.07 2815.64 1056.35C2815.64 1061.63 2819.92 1065.91 2825.2 1065.91H2874.68C2880.02 1065.91 2884.34 1061.58 2884.34 1056.25C2884.34 1050.99 2880.14 1046.7 2874.88 1046.59L2838.61 1045.85C2835.67 1045.78 2833.32 1043.39 2833.32 1040.45C2833.32 1037.47 2830.91 1035.06 2827.93 1035.06H2797.66Z" fill="#4ED2CA" fill-opacity="0.8"/>
<path d="M2880.85 1109.81C2874.91 1109.81 2870.11 1114.62 2870.11 1120.55C2870.11 1126.48 2874.91 1131.29 2880.85 1131.29H2910.38C2916.31 1131.29 2921.12 1126.48 2921.12 1120.55C2921.12 1114.62 2916.31 1109.81 2910.38 1109.81H2880.85Z" fill="#4ED2CA" fill-opacity="0.8"/>
<path fill-rule="evenodd" clip-rule="evenodd" d="M3918.96 1200.57H3794.37C3794.37 1138.59 3748.82 1117.2 3719.25 1112.98C3700.36 1022.49 3665.35 914.721 3603.35 857.086C3731.49 892.68 3858.25 1020.82 3918.96 1200.57Z" fill="url(#paint7_linear_0_1)"/>
<path d="M3621.74 1200.57H3685.22C3685.22 1180.82 3666.23 1144.67 3640.24 1140.62C3623.8 1158.86 3617.13 1182.43 3621.74 1200.57Z" fill="#8EE7ED" fill-opacity="0.7"/>
<path d="M3733.86 1200.57H3794.37C3794.37 1138.59 3748.82 1117.2 3719.25 1112.98C3726.03 1145.44 3730.73 1175.67 3733.86 1200.57Z" fill="#8EE7ED" fill-opacity="0.7"/>
<path d="M3685.22 1200.57H3733.86C3730.73 1175.67 3726.03 1145.44 3719.25 1112.98C3715.99 1112.51 3712.92 1112.26 3710.13 1112.18C3679.22 1111.31 3655.51 1123.66 3640.24 1140.62C3666.23 1144.67 3685.22 1180.82 3685.22 1200.57Z" fill="#8EE7ED" fill-opacity="0.7"/>
<path d="M3622.33 1138.28C3593.86 1138.28 3559.45 1158.45 3559.45 1200.57H3621.74C3617.13 1182.43 3623.8 1158.86 3640.24 1140.62C3634.82 1139.12 3628.86 1138.28 3622.33 1138.28Z" fill="#8EE7ED" fill-opacity="0.5"/>
<path d="M3273.51 1200.57H3399.28C3399.28 1152.52 3373.17 1131.29 3336.39 1131.29C3299.61 1131.29 3273.51 1158.45 3273.51 1200.57Z" fill="#8EE7ED" fill-opacity="0.8"/>
<path d="M3222.35 1158.45C3214.51 1172.16 3207.41 1186.21 3201.13 1200.57H3273.51C3273.51 1158.45 3299.61 1131.29 3336.39 1131.29C3373.17 1131.29 3399.28 1152.52 3399.28 1200.57H3544.03H3559.45C3559.45 1158.45 3593.86 1138.28 3622.33 1138.28C3628.86 1138.28 3634.82 1139.12 3640.24 1140.62C3655.51 1123.66 3679.22 1111.31 3710.13 1112.18C3712.92 1112.26 3715.99 1112.51 3719.25 1112.98C3700.36 1022.49 3665.35 914.721 3603.35 857.086C3525.8 882.217 3422.61 939.071 3336.39 1018.57C3314.04 1039.18 3292.84 1061.31 3273.51 1084.8C3261.2 1099.76 3249.66 1115.27 3239.07 1131.29C3233.19 1140.19 3227.61 1149.24 3222.35 1158.45Z" fill="url(#paint8_linear_0_1)"/>
<path d="M4135.19 924.122C4132.41 924.122 4130.15 926.38 4130.15 929.164C4130.15 931.949 4132.41 934.207 4135.19 934.207H4161.89C4164.67 934.207 4166.93 931.949 4166.93 929.164C4166.93 926.38 4164.67 924.122 4161.89 924.122H4135.19Z" fill="#FDFF94"/>
<path d="M4115.91 929.158C4115.91 926.377 4113.66 924.122 4110.88 924.122H3999.64V933.91L4110.86 934.194C4113.65 934.201 4115.91 931.944 4115.91 929.158Z" fill="#FDFF94"/>
<path fill-rule="evenodd" clip-rule="evenodd" d="M4203.71 924.122C4203.71 913.31 4194.95 904.545 4184.13 904.545H4019.21C4008.4 904.545 3999.64 913.31 3999.64 924.122H4110.88C4113.66 924.122 4115.91 926.377 4115.91 929.158C4115.91 931.944 4113.65 934.201 4110.86 934.194L3999.64 933.91C3999.64 939.316 4004.02 943.699 4009.42 943.699H4147.95C4151.22 943.699 4153.88 946.355 4153.88 949.631C4153.88 952.908 4151.22 955.564 4147.95 955.564H4137.27C4133.34 955.564 4130.15 958.751 4130.15 962.683C4130.15 966.614 4133.34 969.801 4137.27 969.801H4223.88C4227.81 969.801 4231 966.614 4231 962.683C4231 958.751 4227.81 955.564 4223.88 955.564H4181.17C4177.89 955.564 4175.24 952.908 4175.24 949.631C4175.24 946.355 4177.89 943.699 4181.17 943.699H4189.47C4197.34 943.699 4203.71 937.324 4203.71 929.461V924.122ZM4135.19 934.207C4132.41 934.207 4130.15 931.949 4130.15 929.164C4130.15 926.38 4132.41 924.122 4135.19 924.122H4161.89C4164.67 924.122 4166.93 926.38 4166.93 929.164C4166.93 931.949 4164.67 934.207 4161.89 934.207H4135.19Z" fill="#717EAD"/>
<path d="M2853.49 737.844C2853.49 732.93 2849.51 728.946 2844.6 728.946H2818.3L2815.64 746.743H2844.6C2849.51 746.743 2853.49 742.759 2853.49 737.844Z" fill="#77E7EE" fill-opacity="0.9"/>
<path d="M2864.17 774.625C2864.17 770.366 2860.72 766.913 2856.46 766.913H2812.63L2810.33 782.337H2856.46C2860.72 782.337 2864.17 778.885 2864.17 774.625Z" fill="#6CD6D0"/>
<path d="M4130.41 1228.45C4140.68 1228.45 4150.32 1223.53 4156.34 1215.21L4166.93 1200.57H4018.62V1210.66H4078.22C4085.71 1210.66 4092.96 1213.28 4098.71 1218.07L4102.27 1221.04C4108.02 1225.83 4115.26 1228.45 4122.75 1228.45H4130.41Z" fill="#726694"/>
<path d="M4175.24 1193.75C4175.24 1189.98 4172.18 1186.93 4168.41 1186.93H3933.62C3933.93 1188.91 3934.22 1190.89 3934.51 1192.86L4175.24 1193.75Z" fill="#997FE4"/>
<path d="M3935.57 1200.57H4018.62H4166.93H4168.41C4172.18 1200.57 4175.24 1197.52 4175.24 1193.75L3934.51 1192.86C3934.88 1195.44 3935.23 1198.01 3935.57 1200.57Z" fill="#8A78BC"/>
<path d="M3336.39 1018.57V971.01C3314.15 995.376 3293 1020.93 3273.51 1046.79V1084.8C3292.84 1061.31 3314.04 1039.18 3336.39 1018.57Z" fill="#DD8F5A"/>
<path d="M3222.35 1121.41V1158.45C3227.61 1149.24 3233.19 1140.19 3239.07 1131.29V1095.33C3233.26 1104.06 3227.68 1112.77 3222.35 1121.41Z" fill="#E8A850"/>
<path d="M3303.17 588.941C3303.17 581.732 3309.01 575.889 3316.22 575.889H3336.39H3511.99H3561.82H3579.62C3586.83 575.889 3592.67 581.732 3592.67 588.941C3592.67 596.149 3586.83 601.992 3579.62 601.992H3535.72H3371.99H3316.22C3309.01 601.992 3303.17 596.149 3303.17 588.941Z" fill="#C46CC6"/>
<path d="M3371.99 601.992L3396.16 632.877C3405.29 644.549 3423.17 643.869 3431.39 631.537C3437.94 621.706 3451.15 618.904 3461.13 625.226L3462.5 626.093C3471.95 632.081 3484.32 630.54 3492.02 622.416L3492.8 621.596C3497.48 616.655 3503.98 613.857 3510.79 613.857H3523.86C3530.41 613.857 3535.72 608.545 3535.72 601.992H3371.99Z" fill="#99599A"/>
<path d="M3511.99 575.889H3561.82C3561.82 546.228 3544.03 454.868 3426.57 463.174C3457.41 463.367 3511.99 492.836 3511.99 575.889Z" fill="#4197B3" fill-opacity="0.5"/>
<path d="M3336.39 575.889H3511.99C3511.99 492.836 3457.41 463.367 3426.57 463.174C3386.22 469.106 3326.86 514.911 3336.39 575.889Z" fill="#CCFFFC" fill-opacity="0.6"/>
<path d="M3876.24 625.722C3879.52 625.722 3882.17 623.066 3882.17 619.789C3882.17 616.513 3879.52 613.857 3876.24 613.857H3860.82H3833.53H3746.92H3731.49C3728.21 613.857 3725.56 616.513 3725.56 619.789C3725.56 623.066 3728.21 625.722 3731.49 625.722H3761.15H3851.33H3876.24Z" fill="#C46CC6"/>
<path d="M3761.15 625.722C3761.15 634.24 3768.06 641.146 3776.58 641.146H3823.72C3834.98 641.146 3845.43 635.307 3851.33 625.722H3761.15Z" fill="#99599A"/>
<path d="M3860.82 613.857C3862.68 598.611 3855.8 566.723 3815.52 554.287C3810.22 552.649 3804.59 552.179 3799.12 553.097C3811.78 561.881 3836.38 586.331 3833.53 613.857H3860.82Z" fill="#4197B3" fill-opacity="0.5"/>
<path d="M3746.92 613.857H3833.53C3836.38 586.331 3811.78 561.881 3799.12 553.097C3776.06 556.968 3742.71 572.658 3746.92 613.857Z" fill="#CCFFFC" fill-opacity="0.4"/>
<circle cx="3406.99" cy="518.345" r="13.6445" fill="#DAFFFD" fill-opacity="0.6"/>
<circle cx="3783.4" cy="583.898" r="6.82227" fill="#DAFFFD" fill-opacity="0.6"/>
<ellipse cx="2860.61" cy="462.284" rx="207.634" ry="34.7046" fill="url(#paint9_linear_0_1)" fill-opacity="0.8"/>
<path d="M3121.64 427.087C3121.64 422.117 3125.67 418.087 3130.64 418.087H3236.03C3241 418.087 3245.03 422.117 3245.03 427.087V429.258C3245.03 434.228 3249.06 438.258 3254.03 438.258H3310.78C3315.75 438.258 3319.78 442.287 3319.78 447.258V453.58C3319.78 458.551 3315.75 462.58 3310.78 462.58H3130.64C3125.67 462.58 3121.64 458.551 3121.64 453.58V427.087Z" fill="#9B3F9C"/>
<rect x="3278.85" y="386.646" width="97.8848" height="16.0175" rx="8.00875" fill="#B265B4"/>
<path d="M3555.89 1138.28H3440.8C3440.8 1146.15 3447.18 1152.52 3455.04 1152.52H3541.65C3549.52 1152.52 3555.89 1146.15 3555.89 1138.28Z" fill="#58CED6" fill-opacity="0.7"/>
<path d="M3571.32 1130.57C3571.32 1126.31 3567.86 1122.86 3563.6 1122.86H3434.87C3430.61 1122.86 3427.16 1126.31 3427.16 1130.57C3427.16 1134.83 3430.61 1138.28 3434.87 1138.28H3440.8H3555.89H3563.6C3567.86 1138.28 3571.32 1134.83 3571.32 1130.57Z" fill="#D35EFC" fill-opacity="0.7"/>
<path d="M3432.88 1081.54H3333.89C3333.89 1088.31 3339.37 1093.79 3346.14 1093.79H3420.63C3427.39 1093.79 3432.88 1088.31 3432.88 1081.54Z" fill="#58CED6" fill-opacity="0.7"/>
<path d="M3446.14 1074.91C3446.14 1071.25 3443.17 1068.28 3439.51 1068.28H3328.79C3325.12 1068.28 3322.16 1071.25 3322.16 1074.91C3322.16 1078.58 3325.12 1081.54 3328.79 1081.54H3333.89H3432.88H3439.51C3443.17 1081.54 3446.14 1078.58 3446.14 1074.91Z" fill="#D35EFC" fill-opacity="0.7"/>
<path d="M3497.73 1030.26H3413.42C3413.42 1037.5 3419.29 1043.36 3426.52 1043.36H3484.63C3491.86 1043.36 3497.73 1037.5 3497.73 1030.26Z" fill="#58CED6" fill-opacity="0.7"/>
<path d="M3509.03 1023.17C3509.03 1019.25 3505.85 1016.07 3501.93 1016.07H3410.52C3406.61 1016.07 3403.43 1019.25 3403.43 1023.17C3403.43 1027.09 3406.61 1030.26 3410.52 1030.26H3413.42H3497.73H3501.93C3505.85 1030.26 3509.03 1027.09 3509.03 1023.17Z" fill="#D35EFC" fill-opacity="0.7"/>
<ellipse cx="3304.95" cy="1171.5" rx="7.71213" ry="7.11889" fill="#D8F7FF" fill-opacity="0.7"/>
<ellipse cx="3593.27" cy="1164.38" rx="7.71213" ry="7.11889" fill="#DEF8FF" fill-opacity="0.7"/>
<ellipse cx="3671.57" cy="1137.69" rx="7.71213" ry="7.11889" fill="#D0F5FF" fill-opacity="0.7"/>
<path fill-rule="evenodd" clip-rule="evenodd" d="M3967.41 1208.5C4018.8 1111.13 4047.84 1000.5 4047.84 883.194C4047.84 493.025 3726.57 176.731 3330.27 176.731C2933.97 176.731 2612.7 493.025 2612.7 883.194C2612.7 1000.5 2641.74 1111.13 2693.13 1208.5H3967.41Z" fill="url(#paint10_radial_0_1)"/>
<defs>
<filter id="filter0_d_0_1" x="1774.11" y="-63.8323" width="1004.93" height="692.531" filterUnits="userSpaceOnUse" color-interpolation-filters="sRGB">
<feFlood flood-opacity="0" result="BackgroundImageFix"/>
<feColorMatrix in="SourceAlpha" type="matrix" values="0 0 0 0 0 0 0 0 0 0 0 0 0 0 0 0 0 0 127 0" result="hardAlpha"/>
<feOffset dy="4"/>
<feGaussianBlur stdDeviation="75"/>
<feComposite in2="hardAlpha" operator="out"/>
<feColorMatrix type="matrix" values="0 0 0 0 1 0 0 0 0 1 0 0 0 0 1 0 0 0 0.15 0"/>
<feBlend mode="normal" in2="BackgroundImageFix" result="effect1_dropShadow_0_1"/>
<feBlend mode="normal" in="SourceGraphic" in2="effect1_dropShadow_0_1" result="shape"/>
</filter>
<linearGradient id="paint0_linear_0_1" x1="2263.82" y1="170.428" x2="2289.24" y2="401.458" gradientUnits="userSpaceOnUse">
<stop stop-color="#FFE896"/>
<stop offset="1" stop-color="#FD8653"/>
</linearGradient>
<linearGradient id="paint1_linear_0_1" x1="3681.87" y1="521.517" x2="4140.74" y2="786.78" gradientUnits="userSpaceOnUse">
<stop stop-color="#44A6BB" stop-opacity="0.9"/>
<stop offset="1" stop-color="#4C3D98" stop-opacity="0.9"/>
</linearGradient>
<linearGradient id="paint2_linear_0_1" x1="3436.06" y1="238.929" x2="3436.06" y2="1783.59" gradientUnits="userSpaceOnUse">
<stop stop-color="#62B2EC" stop-opacity="0.8"/>
<stop offset="1" stop-color="#55217E" stop-opacity="0.9"/>
</linearGradient>
<linearGradient id="paint3_linear_0_1" x1="3147.8" y1="815.559" x2="3133.4" y2="1347.23" gradientUnits="userSpaceOnUse">
<stop offset="0.307292" stop-color="#EBBA71"/>
<stop offset="0.651042" stop-color="#DC7D47"/>
</linearGradient>
<linearGradient id="paint4_linear_0_1" x1="3436.06" y1="433.512" x2="3423.21" y2="1370.89" gradientUnits="userSpaceOnUse">
<stop stop-color="#990093"/>
<stop offset="1" stop-color="#FCD23F"/>
</linearGradient>
<linearGradient id="paint5_linear_0_1" x1="3436.06" y1="238.929" x2="3436.06" y2="1256.93" gradientUnits="userSpaceOnUse">
<stop stop-color="#990093"/>
<stop offset="1" stop-color="#FCD23F"/>
</linearGradient>
<linearGradient id="paint6_linear_0_1" x1="3386.07" y1="416.901" x2="3398.41" y2="1484.78" gradientUnits="userSpaceOnUse">
<stop stop-color="#77E2F0"/>
<stop offset="1" stop-color="#1D2DBD" stop-opacity="0.9"/>
</linearGradient>
<linearGradient id="paint7_linear_0_1" x1="4432.3" y1="616.23" x2="4279.44" y2="1420.38" gradientUnits="userSpaceOnUse">
<stop stop-color="#8DFFF8"/>
<stop offset="1" stop-color="#6C36B1" stop-opacity="0.9"/>
</linearGradient>
<linearGradient id="paint8_linear_0_1" x1="3772.25" y1="499.955" x2="3501.25" y2="1523.15" gradientUnits="userSpaceOnUse">
<stop stop-color="#79F1F9" stop-opacity="0.8"/>
<stop offset="1" stop-color="#6F1DB0"/>
</linearGradient>
<linearGradient id="paint9_linear_0_1" x1="2800.1" y1="462.581" x2="2873.67" y2="561.652" gradientUnits="userSpaceOnUse">
<stop stop-color="#79E1E1"/>
<stop offset="1" stop-color="#B859C8" stop-opacity="0.9"/>
</linearGradient>
<radialGradient id="paint10_radial_0_1" cx="0" cy="0" r="1" gradientUnits="userSpaceOnUse" gradientTransform="translate(3330.27 883.194) rotate(90) scale(706.463 717.571)">
<stop offset="0.755208" stop-color="#B5FFF6" stop-opacity="0"/>
<stop offset="1" stop-color="white" stop-opacity="0.4"/>
<stop offset="1" stop-color="white" stop-opacity="0.3"/>
</radialGradient>
</defs>
</svg>
