<svg width="1831" height="802" viewBox="0 0 1831 802" fill="none" xmlns="http://www.w3.org/2000/svg">
<g filter="url(#filter0_di_1_69)">
<path d="M402.404 29.5C425.114 -9.83329 481.886 -9.83334 504.596 29.5L894.74 705.25C917.449 744.583 889.063 793.75 843.644 793.75H63.3554C17.9372 793.75 -10.4491 744.583 12.26 705.25L402.404 29.5Z" fill="#508AE0"/>
</g>
<g filter="url(#filter1_f_1_69)">
<path d="M601 729C601 740.046 534.514 749 452.5 749C370.486 749 304 740.046 304 729C304 717.954 370.486 709 452.5 709C534.514 709 601 717.954 601 729Z" fill="#0C0C0C" fill-opacity="0.2"/>
</g>
<g filter="url(#filter2_d_1_69)">
<circle cx="453" cy="510" r="169" fill="#EDEDED"/>
<path d="M556.903 519.366L553.783 520.071C544.152 522.246 535.801 528.205 530.612 536.606L517.023 558.607C514.352 562.932 511.275 566.992 507.833 570.732L492.534 587.363C487.431 592.909 481.569 597.707 475.123 601.614L445.777 619.4C444.88 619.943 443.93 620.396 442.943 620.752C430.813 625.119 428.754 641.4 439.415 648.649L440.276 649.235C442.981 651.074 446.177 652.058 449.448 652.058H469.923C479.783 652.058 489.558 650.235 498.755 646.682L524.242 636.835C533.808 633.139 542.574 627.638 550.063 620.633L567.784 604.054C573.673 598.545 578.535 592.032 582.141 584.819L592.287 564.527C597.727 553.648 596.472 540.617 589.056 530.976C581.515 521.173 568.967 516.642 556.903 519.366Z" fill="#DFDFDF"/>
<path d="M423.461 362.839C387.348 372.299 336.422 402.223 312.376 472.49C307.58 486.507 318.735 500.203 333.549 500.203C336.415 500.203 339.255 499.675 341.93 498.647L369.725 487.956L453.689 451.283C467.739 445.145 477.649 432.216 479.923 417.053C482.218 401.754 476.414 386.358 464.59 376.381L460.707 373.105C450.251 364.283 436.695 359.372 423.461 362.839Z" fill="white"/>
<path d="M560.768 570.007C574.97 541.257 577.402 511.798 571.518 480.609C568.964 467.074 564.796 448.075 557.094 436.522" stroke="white" stroke-width="20" stroke-linecap="round"/>
<path d="M519.13 387.536L528.928 394.884" stroke="white" stroke-width="20" stroke-linecap="round"/>
<path d="M492.249 616.076C494.062 614.569 496.18 613.35 498.421 612.369C503.129 609.598 508.171 607.785 512.261 607.557C515.634 606.564 518.652 606.419 520.545 607.483C521.533 608.038 521.936 608.889 521.873 609.94C522.882 610.702 523.055 611.765 522.594 613.013C529.708 620.554 508.694 641.492 496.331 640.649C491.57 641.694 487.307 640.728 484.945 636.464C483.509 633.87 483.307 631.134 484.002 628.422C483.967 628.288 483.935 628.151 483.905 628.012C482.858 623.055 487.991 618.813 492.249 616.076Z" fill="#C4C4C4"/>
<path d="M515.46 608.691C506.663 609.02 487.625 612.508 486.506 626.804C486.014 633.086 493.519 634.773 497.428 634.452C505.751 633.768 513.317 628.705 519.274 622.175C522.642 618.483 524.258 613.212 518.927 610.435C511.611 606.624 502.923 609.885 496.215 613.722C492.552 615.818 482.476 621.249 483.905 628.012C485.496 635.541 495.666 635.529 500.434 633.781C506.84 631.433 516.039 625.481 519.389 618.351C522.668 611.375 513.79 610.268 509.796 610.838C504.116 611.647 495.99 616.441 493.267 622.645C490.036 630.007 502.624 626.791 504.652 625.932C506.7 625.064 521.548 618.621 519.389 613.789C517.135 608.743 504.071 615.097 501.069 616.473C499.28 617.293 492.435 622.53 498.469 622.645C504.084 622.752 509.091 619.635 513.61 616.137C515.536 614.647 512.738 613.596 511.53 613.789C506.739 614.556 503.388 618.329 499.856 621.705C496.379 625.029 498.698 625.722 502.167 624.188C507.304 621.916 512.492 617.961 516.269 613.253C520.194 608.358 509.934 612.621 509.16 613.051C504.804 615.474 498.51 619.078 496.157 624.389C493.936 629.401 519.888 619.061 517.887 613.253C514.479 603.362 485.997 629.433 489.916 631.098C497.071 634.136 528.895 615.014 521.817 609.898C514.989 604.964 504.016 612.652 498.584 617.077C497.066 618.313 487.02 625.973 492.458 628.951C501.046 633.653 528.163 611.766 520.545 607.483C512.676 603.059 485.392 619.535 493.903 630.896C502.78 642.746 528.612 617.677 521.297 612.582C512.765 606.64 483.827 626.1 492.863 635.19C504.116 646.511 526.903 619.906 517.078 613.253C506.848 606.326 479.727 630.576 492.227 639.282C503.582 647.191 533.089 619.134 521.297 611.978C512.937 606.906 503.773 613.044 497.428 619.29C494.791 621.887 485.346 632.662 491.938 636.263C504.077 642.894 535.431 618.671 517.656 608.557C507.705 602.895 476.884 621.908 484.945 636.464C493.535 651.975 527.285 623.84 518.696 614.058C509.066 603.09 476.948 629.161 489.916 636.867C497.458 641.349 506.274 636.461 511.992 630.427C514.905 627.353 520.52 618.529 515.575 614.326C505.237 605.54 485.544 631.444 493.267 633.513C500.752 635.518 509.743 628.475 514.708 622.712C518.452 618.366 518.331 612.766 511.876 612.85C504.386 612.948 495.732 619.792 491.418 626.603C485.991 635.171 499.201 629.972 501.474 628.682C502.761 627.952 516.872 617.824 508.756 621.102C503.651 623.163 498.508 625.953 494.654 630.427" stroke="white" stroke-width="3" stroke-linecap="round"/>
<path d="M514.232 615.319C512.242 615.319 507.083 614.331 505.115 615.455C503.206 616.546 506.281 620.839 507.564 621.306C510.337 622.314 519.359 622.871 519.13 618.993C519.003 616.825 512.839 617.768 511.17 617.768C509.377 617.768 508.817 620.168 510.83 617.768C512.546 615.723 515.574 612.87 518.45 612.87C525.476 612.87 518.698 621.231 514.912 620.149C509.359 618.563 517.743 614.16 515.184 618.993C513.279 622.592 508.876 620.591 508.109 617.904C506.379 611.85 512.374 614.598 513.96 618.721C514.744 620.759 515.142 626.341 512.395 626.341C507.242 626.341 511.932 610.541 514.232 607.971C517.206 604.647 516.681 609.918 516.681 612.87C516.681 615.319 517.169 618.298 515.865 620.49C514.365 623.01 510.558 625.9 510.558 621.17C510.558 617.916 511.411 615.12 513.007 612.325C513.747 611.03 514.232 618.979 514.232 620.285C514.232 631.527 512.485 615.664 513.279 611.781C514.064 607.946 520.321 619.895 519.062 624.3C518.637 625.79 516.681 617.77 516.681 616.543" stroke="white" stroke-width="3" stroke-linecap="round"/>
</g>
<path d="M995.174 342.166C985.799 342.166 977.596 338.943 970.564 332.498C963.533 325.76 960.018 317.557 960.018 307.889V29.7148C960.018 22.3906 961.482 16.2383 964.412 11.2578C967.635 6.27734 973.348 3.78711 981.551 3.78711C989.754 3.78711 995.32 6.27734 998.25 11.2578C1001.47 16.2383 1003.08 22.3906 1003.08 29.7148V289.871C1003.08 298.367 1007.33 302.615 1015.83 302.615H1130.96C1137.7 302.615 1143.42 304.08 1148.1 307.01C1152.79 309.646 1155.13 314.773 1155.13 322.391C1155.13 329.715 1152.79 334.842 1148.1 337.771C1143.42 340.701 1137.7 342.166 1130.96 342.166H995.174ZM1197.32 348.318C1191.76 348.318 1187.21 347 1183.7 344.363C1180.18 341.727 1178.43 337.479 1178.43 331.619C1178.43 331.033 1178.43 329.861 1178.43 328.104C1178.72 326.346 1179.01 325.32 1179.3 325.027L1252.25 29.2754C1254.01 21.6582 1256.94 15.5059 1261.04 10.8184C1265.44 6.13086 1271.74 3.78711 1279.94 3.78711C1288.44 3.78711 1294.73 6.42383 1298.84 11.6973C1303.23 16.9707 1306.31 23.416 1308.06 31.0332L1380.13 325.027C1380.43 325.32 1380.57 326.346 1380.57 328.104C1380.87 329.861 1381.01 331.033 1381.01 331.619C1381.01 337.479 1379.26 341.727 1375.74 344.363C1372.52 347 1367.98 348.318 1362.12 348.318C1356.55 348.318 1352.16 346.561 1348.93 343.045C1345.71 339.529 1343.51 335.281 1342.34 330.301L1324.32 252.957H1235.55L1217.1 330.301C1215.93 335.281 1213.73 339.529 1210.51 343.045C1207.28 346.561 1202.89 348.318 1197.32 348.318ZM1243.9 216.922H1315.54L1279.94 65.75L1243.9 216.922ZM1440.34 342.166C1429.79 342.166 1421.3 339.822 1414.85 335.135C1408.41 330.447 1405.18 322.537 1405.18 311.404C1405.18 307.303 1406.06 303.201 1407.82 299.1C1409.58 294.998 1411.48 291.189 1413.53 287.674L1553.28 48.6113H1433.75C1427.3 48.6113 1421.59 47.293 1416.61 44.6562C1411.92 41.7266 1409.58 36.5996 1409.58 29.2754C1409.58 21.6582 1411.92 16.5312 1416.61 13.8945C1421.59 11.2578 1427.3 9.93945 1433.75 9.93945H1566.46C1576.72 9.93945 1585.07 12.1367 1591.51 16.5312C1597.96 20.9258 1601.18 28.6895 1601.18 39.8223C1601.18 43.6309 1600.15 47.7324 1598.1 52.127C1596.05 56.2285 1594.15 59.8906 1592.39 63.1133L1452.21 303.494H1580.53C1587.26 303.494 1592.83 304.959 1597.22 307.889C1601.91 310.525 1604.26 315.506 1604.26 322.83C1604.26 330.154 1601.91 335.281 1597.22 338.211C1592.83 340.848 1587.26 342.166 1580.53 342.166H1440.34ZM1729.06 348.318C1721.15 348.318 1715.73 345.828 1712.8 340.848C1709.87 335.867 1708.41 329.861 1708.41 322.83V201.102L1631.94 33.6699C1631.06 31.6191 1630.18 29.5684 1629.3 27.5176C1628.72 25.1738 1628.43 22.9766 1628.43 20.9258C1628.43 14.7734 1630.18 10.3789 1633.7 7.74219C1637.21 5.10547 1641.76 3.78711 1647.32 3.78711C1652.3 3.78711 1656.26 5.25195 1659.19 8.18164C1662.41 11.1113 1665.05 14.627 1667.1 18.7285L1729.5 152.322L1791.46 19.168C1793.51 15.0664 1796.15 11.5508 1799.37 8.62109C1802.6 5.39844 1806.55 3.78711 1811.24 3.78711C1817.1 3.78711 1821.79 5.10547 1825.3 7.74219C1828.82 10.3789 1830.57 14.7734 1830.57 20.9258C1830.57 22.9766 1830.13 25.0273 1829.26 27.0781C1828.67 29.1289 1827.94 31.1797 1827.06 33.2305L1750.15 201.98V322.83C1750.15 330.154 1748.54 336.307 1745.32 341.287C1742.39 345.975 1736.97 348.318 1729.06 348.318ZM994.734 792.166C985.066 792.166 976.863 788.797 970.125 782.059C963.387 775.027 960.018 766.678 960.018 757.01V495.096C960.018 485.721 963.387 477.518 970.125 470.486C977.156 463.455 985.359 459.939 994.734 459.939H1131.4C1138.14 459.939 1143.71 461.404 1148.1 464.334C1152.5 466.971 1154.7 471.951 1154.7 479.275C1154.7 486.6 1152.5 491.727 1148.1 494.656C1143.71 497.293 1138.14 498.611 1131.4 498.611H1018.9C1007.19 498.611 1001.33 504.471 1001.33 516.189V602.762H1105.92C1112.65 602.762 1118.22 604.227 1122.62 607.156C1127.3 609.793 1129.65 614.773 1129.65 622.098C1129.65 629.422 1127.3 634.549 1122.62 637.479C1118.22 640.115 1112.65 641.434 1105.92 641.434H1001.33V735.916C1001.33 747.635 1007.19 753.494 1018.9 753.494H1131.4C1138.14 753.494 1143.71 754.959 1148.1 757.889C1152.5 760.525 1154.7 765.506 1154.7 772.83C1154.7 780.154 1152.5 785.281 1148.1 788.211C1143.71 790.848 1138.14 792.166 1131.4 792.166H994.734ZM1279.06 798.318C1271.15 798.318 1265.73 795.828 1262.8 790.848C1259.87 785.867 1258.41 779.861 1258.41 772.83V651.102L1181.94 483.67C1181.06 481.619 1180.18 479.568 1179.3 477.518C1178.72 475.174 1178.43 472.977 1178.43 470.926C1178.43 464.773 1180.18 460.379 1183.7 457.742C1187.21 455.105 1191.76 453.787 1197.32 453.787C1202.3 453.787 1206.26 455.252 1209.19 458.182C1212.41 461.111 1215.05 464.627 1217.1 468.729L1279.5 602.322L1341.46 469.168C1343.51 465.066 1346.15 461.551 1349.37 458.621C1352.6 455.398 1356.55 453.787 1361.24 453.787C1367.1 453.787 1371.79 455.105 1375.3 457.742C1378.82 460.379 1380.57 464.773 1380.57 470.926C1380.57 472.977 1380.13 475.027 1379.26 477.078C1378.67 479.129 1377.94 481.18 1377.06 483.23L1300.15 651.98V772.83C1300.15 780.154 1298.54 786.307 1295.32 791.287C1292.39 795.975 1286.97 798.318 1279.06 798.318ZM1444.73 792.166C1435.07 792.166 1426.86 788.797 1420.12 782.059C1413.39 775.027 1410.02 766.678 1410.02 757.01V495.096C1410.02 485.721 1413.39 477.518 1420.12 470.486C1427.16 463.455 1435.36 459.939 1444.73 459.939H1581.4C1588.14 459.939 1593.71 461.404 1598.1 464.334C1602.5 466.971 1604.7 471.951 1604.7 479.275C1604.7 486.6 1602.5 491.727 1598.1 494.656C1593.71 497.293 1588.14 498.611 1581.4 498.611H1468.9C1457.19 498.611 1451.33 504.471 1451.33 516.189V602.762H1555.92C1562.65 602.762 1568.22 604.227 1572.62 607.156C1577.3 609.793 1579.65 614.773 1579.65 622.098C1579.65 629.422 1577.3 634.549 1572.62 637.479C1568.22 640.115 1562.65 641.434 1555.92 641.434H1451.33V735.916C1451.33 747.635 1457.19 753.494 1468.9 753.494H1581.4C1588.14 753.494 1593.71 754.959 1598.1 757.889C1602.5 760.525 1604.7 765.506 1604.7 772.83C1604.7 780.154 1602.5 785.281 1598.1 788.211C1593.71 790.848 1588.14 792.166 1581.4 792.166H1444.73ZM1732.14 798.318C1713.39 798.318 1696.54 794.656 1681.6 787.332C1666.66 779.715 1654.5 767.41 1645.12 750.418C1641.32 743.68 1638.09 736.648 1635.46 729.324C1633.11 721.707 1631.94 713.943 1631.94 706.033C1631.94 691.092 1639.27 683.621 1653.91 683.621C1660.65 683.621 1665.63 685.525 1668.86 689.334C1672.08 692.85 1674.57 697.537 1676.33 703.396C1678.08 709.256 1679.84 715.555 1681.6 722.293C1683.36 728.738 1685.99 734.891 1689.51 740.75C1693.03 746.609 1698.15 751.443 1704.89 755.252C1711.92 758.768 1721.3 760.525 1733.02 760.525C1749.13 760.525 1761.73 754.959 1770.81 743.826C1779.89 732.4 1784.43 719.07 1784.43 703.836C1784.43 691.531 1781.65 681.277 1776.08 673.074C1770.81 664.871 1763.78 657.986 1754.99 652.42C1746.2 646.561 1736.53 641.287 1725.98 636.6C1715.44 631.912 1704.74 627.078 1693.9 622.098C1683.36 616.824 1673.69 610.818 1664.9 604.08C1656.11 597.049 1648.93 588.406 1643.37 578.152C1638.09 567.605 1635.46 554.715 1635.46 539.48C1635.46 521.609 1639.41 506.375 1647.32 493.777C1655.23 480.887 1665.93 471.072 1679.4 464.334C1693.17 457.303 1708.55 453.787 1725.54 453.787C1740.78 453.787 1755.57 457.01 1769.93 463.455C1784.29 469.607 1796.15 478.689 1805.53 490.701C1815.19 502.42 1820.03 516.629 1820.03 533.328C1820.03 547.391 1813 554.422 1798.93 554.422C1791.9 554.422 1786.63 552.371 1783.11 548.27C1779.89 543.875 1777.11 538.602 1774.76 532.449C1772.71 526.004 1770.08 519.705 1766.85 513.553C1763.92 507.4 1759.24 502.273 1752.79 498.172C1746.35 493.777 1737.12 491.58 1725.11 491.58C1709.58 491.58 1697.57 495.389 1689.07 503.006C1680.87 510.623 1676.77 522.342 1676.77 538.162C1676.77 548.416 1679.4 557.059 1684.68 564.09C1690.24 570.828 1697.42 576.834 1706.21 582.107C1715.29 587.088 1725.11 591.922 1735.65 596.609C1746.49 601.004 1757.19 605.984 1767.73 611.551C1778.57 616.824 1788.39 623.416 1797.18 631.326C1806.26 638.943 1813.44 648.465 1818.71 659.891C1824.28 671.316 1827.06 685.379 1827.06 702.078C1827.06 731.375 1818.56 754.812 1801.57 772.391C1784.87 789.676 1761.73 798.318 1732.14 798.318Z" fill="#222222"/>
<path d="M987.223 312C995.226 326.694 1014.4 328.101 1007.43 331.897C1000.46 335.693 983.226 336.194 975.223 321.5C967.22 306.806 968.254 286.296 975.223 282.5C982.191 278.704 979.22 297.306 987.223 312Z" fill="white" fill-opacity="0.3"/>
<path d="M1434.5 315.032C1442.5 329.725 1465.47 328.994 1458.5 332.79C1448 335.532 1430 336.032 1419.5 321.532C1411.5 306.838 1423.03 287.327 1430 283.532C1436.97 279.736 1426.5 300.338 1434.5 315.032Z" fill="white" fill-opacity="0.3"/>
<path d="M988.649 492.442C978.172 505.487 978.687 524.469 972.5 519.5C965.925 510.865 965.663 495.775 975 480.5C985.477 467.455 1002.31 469.531 1008.5 474.5C1014.69 479.469 999.126 479.396 988.649 492.442Z" fill="white" fill-opacity="0.3"/>
<path d="M1438.67 489.944C1428.19 502.99 1428.71 521.972 1422.52 517.003C1415.95 508.367 1415.68 493.278 1425.02 478.003C1435.5 464.957 1452.33 467.034 1458.52 472.003C1464.71 476.972 1449.15 476.899 1438.67 489.944Z" fill="white" fill-opacity="0.3"/>
<defs>
<filter id="filter0_di_1_69" x="0.267517" y="3.05176e-05" width="906.465" height="801.75" filterUnits="userSpaceOnUse" color-interpolation-filters="sRGB">
<feFlood flood-opacity="0" result="BackgroundImageFix"/>
<feColorMatrix in="SourceAlpha" type="matrix" values="0 0 0 0 0 0 0 0 0 0 0 0 0 0 0 0 0 0 127 0" result="hardAlpha"/>
<feOffset dy="4"/>
<feGaussianBlur stdDeviation="2"/>
<feComposite in2="hardAlpha" operator="out"/>
<feColorMatrix type="matrix" values="0 0 0 0 1 0 0 0 0 1 0 0 0 0 1 0 0 0 0.7 0"/>
<feBlend mode="normal" in2="BackgroundImageFix" result="effect1_dropShadow_1_69"/>
<feBlend mode="normal" in="SourceGraphic" in2="effect1_dropShadow_1_69" result="shape"/>
<feColorMatrix in="SourceAlpha" type="matrix" values="0 0 0 0 0 0 0 0 0 0 0 0 0 0 0 0 0 0 127 0" result="hardAlpha"/>
<feOffset dy="4"/>
<feGaussianBlur stdDeviation="125"/>
<feComposite in2="hardAlpha" operator="arithmetic" k2="-1" k3="1"/>
<feColorMatrix type="matrix" values="0 0 0 0 0 0 0 0 0 0 0 0 0 0 0 0 0 0 0.25 0"/>
<feBlend mode="normal" in2="shape" result="effect2_innerShadow_1_69"/>
</filter>
<filter id="filter1_f_1_69" x="276" y="681" width="353" height="96" filterUnits="userSpaceOnUse" color-interpolation-filters="sRGB">
<feFlood flood-opacity="0" result="BackgroundImageFix"/>
<feBlend mode="normal" in="SourceGraphic" in2="BackgroundImageFix" result="shape"/>
<feGaussianBlur stdDeviation="14" result="effect1_foregroundBlur_1_69"/>
</filter>
<filter id="filter2_d_1_69" x="184" y="245" width="538" height="538" filterUnits="userSpaceOnUse" color-interpolation-filters="sRGB">
<feFlood flood-opacity="0" result="BackgroundImageFix"/>
<feColorMatrix in="SourceAlpha" type="matrix" values="0 0 0 0 0 0 0 0 0 0 0 0 0 0 0 0 0 0 127 0" result="hardAlpha"/>
<feOffset dy="4"/>
<feGaussianBlur stdDeviation="50"/>
<feComposite in2="hardAlpha" operator="out"/>
<feColorMatrix type="matrix" values="0 0 0 0 1 0 0 0 0 1 0 0 0 0 1 0 0 0 0.25 0"/>
<feBlend mode="normal" in2="BackgroundImageFix" result="effect1_dropShadow_1_69"/>
<feBlend mode="normal" in="SourceGraphic" in2="effect1_dropShadow_1_69" result="shape"/>
</filter>
</defs>
</svg>
