<svg width="1927" height="994" viewBox="0 0 1927 994" fill="none" xmlns="http://www.w3.org/2000/svg">
<g filter="url(#filter0_d_29_2)">
<g filter="url(#filter1_di_29_2)">
<path d="M498.404 125.5C521.114 86.1667 577.886 86.1667 600.595 125.5L990.74 801.25C1013.45 840.583 985.063 889.75 939.644 889.75H159.355C113.937 889.75 85.5509 840.583 108.26 801.25L498.404 125.5Z" fill="#508AE0"/>
</g>
<g filter="url(#filter2_f_29_2)">
<path d="M697 825C697 836.046 630.514 845 548.5 845C466.486 845 400 836.046 400 825C400 813.954 466.486 805 548.5 805C630.514 805 697 813.954 697 825Z" fill="#0C0C0C" fill-opacity="0.2"/>
</g>
<circle cx="549" cy="606" r="169" fill="#EDEDED"/>
<path d="M652.903 615.366L649.783 616.071C640.152 618.246 631.801 624.205 626.612 632.606L613.023 654.607C610.352 658.932 607.275 662.992 603.833 666.732L588.534 683.363C583.431 688.909 577.569 693.707 571.123 697.614L541.777 715.4C540.88 715.943 539.93 716.396 538.943 716.752C526.813 721.119 524.754 737.4 535.415 744.649L536.276 745.235C538.981 747.074 542.177 748.058 545.448 748.058H565.923C575.783 748.058 585.558 746.235 594.755 742.682L620.242 732.835C629.808 729.139 638.574 723.638 646.063 716.633L663.784 700.054C669.673 694.545 674.535 688.032 678.141 680.819L688.287 660.527C693.727 649.648 692.472 636.617 685.056 626.976C677.515 617.173 664.967 612.642 652.903 615.366Z" fill="#DFDFDF"/>
<path d="M519.461 458.839C483.348 468.299 432.422 498.223 408.376 568.49C403.58 582.507 414.735 596.203 429.549 596.203C432.415 596.203 435.255 595.675 437.93 594.647L465.725 583.957L549.689 547.283C563.739 541.145 573.649 528.216 575.923 513.053C578.218 497.754 572.414 482.358 560.59 472.381L556.707 469.105C546.251 460.283 532.695 455.372 519.461 458.839Z" fill="white"/>
<path d="M656.768 666.007C670.97 637.257 673.402 607.798 667.518 576.609C664.964 563.074 660.796 544.075 653.094 532.522" stroke="white" stroke-width="20" stroke-linecap="round"/>
<path d="M615.13 483.536L624.928 490.884" stroke="white" stroke-width="20" stroke-linecap="round"/>
<path d="M588.249 712.076C590.062 710.569 592.18 709.35 594.421 708.369C599.129 705.598 604.171 703.785 608.261 703.557C611.634 702.564 614.652 702.419 616.545 703.483C617.533 704.038 617.936 704.889 617.873 705.94C618.882 706.702 619.055 707.765 618.594 709.013C625.708 716.554 604.694 737.492 592.331 736.649C587.57 737.694 583.307 736.728 580.945 732.464C579.509 729.87 579.307 727.134 580.002 724.422C579.967 724.288 579.935 724.151 579.905 724.012C578.858 719.055 583.991 714.813 588.249 712.076Z" fill="#C4C4C4"/>
<path d="M611.46 704.691C602.663 705.02 583.625 708.508 582.506 722.804C582.014 729.086 589.519 730.773 593.428 730.452C601.751 729.768 609.317 724.705 615.274 718.175C618.642 714.483 620.258 709.212 614.927 706.435C607.611 702.624 598.923 705.885 592.215 709.722C588.552 711.818 578.476 717.249 579.905 724.012C581.496 731.541 591.666 731.529 596.434 729.781C602.84 727.433 612.039 721.481 615.389 714.351C618.668 707.375 609.79 706.268 605.796 706.838C600.116 707.647 591.99 712.441 589.267 718.645C586.036 726.007 598.624 722.791 600.652 721.932C602.7 721.064 617.548 714.621 615.389 709.789C613.135 704.743 600.071 711.097 597.069 712.473C595.28 713.293 588.435 718.53 594.469 718.645C600.084 718.752 605.091 715.635 609.61 712.137C611.536 710.647 608.738 709.596 607.53 709.789C602.739 710.556 599.388 714.329 595.856 717.705C592.379 721.029 594.698 721.722 598.167 720.188C603.304 717.916 608.492 713.961 612.269 709.253C616.194 704.358 605.934 708.621 605.16 709.051C600.804 711.474 594.51 715.078 592.157 720.389C589.936 725.401 615.888 715.061 613.887 709.253C610.479 699.362 581.997 725.433 585.916 727.098C593.071 730.136 624.895 711.014 617.817 705.898C610.989 700.964 600.016 708.652 594.584 713.077C593.066 714.313 583.02 721.973 588.458 724.951C597.045 729.653 624.163 707.766 616.545 703.483C608.676 699.059 581.392 715.535 589.903 726.896C598.78 738.746 624.612 713.677 617.297 708.582C608.765 702.64 579.827 722.1 588.863 731.19C600.116 742.511 622.903 715.906 613.078 709.253C602.848 702.326 575.727 726.576 588.227 735.282C599.582 743.191 629.089 715.134 617.297 707.978C608.937 702.906 599.773 709.044 593.428 715.29C590.791 717.887 581.346 728.662 587.938 732.263C600.077 738.894 631.431 714.671 613.656 704.557C603.705 698.895 572.884 717.908 580.945 732.464C589.535 747.975 623.285 719.84 614.696 710.058C605.066 699.09 572.948 725.161 585.916 732.867C593.458 737.349 602.274 732.461 607.992 726.427C610.905 723.353 616.52 714.529 611.575 710.326C601.237 701.54 581.544 727.444 589.267 729.513C596.752 731.518 605.743 724.475 610.708 718.712C614.452 714.366 614.331 708.766 607.876 708.85C600.386 708.948 591.732 715.792 587.418 722.603C581.991 731.171 595.201 725.972 597.474 724.682C598.761 723.952 612.872 713.824 604.756 717.102C599.651 719.163 594.508 721.953 590.654 726.427" stroke="white" stroke-width="3" stroke-linecap="round"/>
<path d="M610.232 711.319C608.242 711.319 603.083 710.331 601.115 711.455C599.206 712.546 602.281 716.839 603.564 717.306C606.337 718.314 615.359 718.871 615.13 714.993C615.003 712.825 608.839 713.768 607.17 713.768C605.377 713.768 604.817 716.168 606.83 713.768C608.546 711.723 611.574 708.87 614.45 708.87C621.476 708.87 614.698 717.231 610.912 716.149C605.359 714.563 613.743 710.16 611.184 714.993C609.279 718.592 604.876 716.591 604.109 713.904C602.379 707.85 608.374 710.598 609.96 714.721C610.744 716.759 611.142 722.341 608.395 722.341C603.242 722.341 607.932 706.541 610.232 703.971C613.206 700.647 612.681 705.919 612.681 708.87C612.681 711.319 613.169 714.298 611.865 716.49C610.365 719.01 606.558 721.9 606.558 717.17C606.558 713.916 607.411 711.12 609.007 708.325C609.747 707.03 610.232 714.979 610.232 716.285C610.232 727.527 608.485 711.664 609.279 707.781C610.064 703.946 616.321 715.895 615.062 720.3C614.637 721.79 612.681 713.77 612.681 712.544" stroke="white" stroke-width="3" stroke-linecap="round"/>
</g>
<path d="M1091.17 438.166C1081.8 438.166 1073.6 434.943 1066.56 428.498C1059.53 421.76 1056.02 413.557 1056.02 403.889V125.715C1056.02 118.391 1057.48 112.238 1060.41 107.258C1063.63 102.277 1069.35 99.7871 1077.55 99.7871C1085.75 99.7871 1091.32 102.277 1094.25 107.258C1097.47 112.238 1099.08 118.391 1099.08 125.715V385.871C1099.08 394.367 1103.33 398.615 1111.83 398.615H1226.96C1233.7 398.615 1239.42 400.08 1244.1 403.01C1248.79 405.646 1251.13 410.773 1251.13 418.391C1251.13 425.715 1248.79 430.842 1244.1 433.771C1239.42 436.701 1233.7 438.166 1226.96 438.166H1091.17ZM1293.32 444.318C1287.76 444.318 1283.21 443 1279.7 440.363C1276.18 437.727 1274.43 433.479 1274.43 427.619C1274.43 427.033 1274.43 425.861 1274.43 424.104C1274.72 422.346 1275.01 421.32 1275.3 421.027L1348.25 125.275C1350.01 117.658 1352.94 111.506 1357.04 106.818C1361.44 102.131 1367.74 99.7871 1375.94 99.7871C1384.44 99.7871 1390.73 102.424 1394.84 107.697C1399.23 112.971 1402.31 119.416 1404.06 127.033L1476.13 421.027C1476.43 421.32 1476.57 422.346 1476.57 424.104C1476.87 425.861 1477.01 427.033 1477.01 427.619C1477.01 433.479 1475.26 437.727 1471.74 440.363C1468.52 443 1463.98 444.318 1458.12 444.318C1452.55 444.318 1448.16 442.561 1444.93 439.045C1441.71 435.529 1439.51 431.281 1438.34 426.301L1420.32 348.957H1331.55L1313.1 426.301C1311.93 431.281 1309.73 435.529 1306.51 439.045C1303.28 442.561 1298.89 444.318 1293.32 444.318ZM1339.9 312.922H1411.54L1375.94 161.75L1339.9 312.922ZM1536.34 438.166C1525.79 438.166 1517.3 435.822 1510.85 431.135C1504.41 426.447 1501.18 418.537 1501.18 407.404C1501.18 403.303 1502.06 399.201 1503.82 395.1C1505.58 390.998 1507.48 387.189 1509.53 383.674L1649.28 144.611H1529.75C1523.3 144.611 1517.59 143.293 1512.61 140.656C1507.92 137.727 1505.58 132.6 1505.58 125.275C1505.58 117.658 1507.92 112.531 1512.61 109.895C1517.59 107.258 1523.3 105.939 1529.75 105.939H1662.46C1672.72 105.939 1681.07 108.137 1687.51 112.531C1693.96 116.926 1697.18 124.689 1697.18 135.822C1697.18 139.631 1696.15 143.732 1694.1 148.127C1692.05 152.229 1690.15 155.891 1688.39 159.113L1548.21 399.494H1676.53C1683.26 399.494 1688.83 400.959 1693.22 403.889C1697.91 406.525 1700.26 411.506 1700.26 418.83C1700.26 426.154 1697.91 431.281 1693.22 434.211C1688.83 436.848 1683.26 438.166 1676.53 438.166H1536.34ZM1825.06 444.318C1817.15 444.318 1811.73 441.828 1808.8 436.848C1805.87 431.867 1804.41 425.861 1804.41 418.83V297.102L1727.94 129.67C1727.06 127.619 1726.18 125.568 1725.3 123.518C1724.72 121.174 1724.43 118.977 1724.43 116.926C1724.43 110.773 1726.18 106.379 1729.7 103.742C1733.21 101.105 1737.76 99.7871 1743.32 99.7871C1748.3 99.7871 1752.26 101.252 1755.19 104.182C1758.41 107.111 1761.05 110.627 1763.1 114.729L1825.5 248.322L1887.46 115.168C1889.51 111.066 1892.15 107.551 1895.37 104.621C1898.6 101.398 1902.55 99.7871 1907.24 99.7871C1913.1 99.7871 1917.79 101.105 1921.3 103.742C1924.82 106.379 1926.57 110.773 1926.57 116.926C1926.57 118.977 1926.13 121.027 1925.26 123.078C1924.67 125.129 1923.94 127.18 1923.06 129.23L1846.15 297.98V418.83C1846.15 426.154 1844.54 432.307 1841.32 437.287C1838.39 441.975 1832.97 444.318 1825.06 444.318ZM1090.73 888.166C1081.07 888.166 1072.86 884.797 1066.12 878.059C1059.39 871.027 1056.02 862.678 1056.02 853.01V591.096C1056.02 581.721 1059.39 573.518 1066.12 566.486C1073.16 559.455 1081.36 555.939 1090.73 555.939H1227.4C1234.14 555.939 1239.71 557.404 1244.1 560.334C1248.5 562.971 1250.7 567.951 1250.7 575.275C1250.7 582.6 1248.5 587.727 1244.1 590.656C1239.71 593.293 1234.14 594.611 1227.4 594.611H1114.9C1103.19 594.611 1097.33 600.471 1097.33 612.189V698.762H1201.92C1208.65 698.762 1214.22 700.227 1218.62 703.156C1223.3 705.793 1225.65 710.773 1225.65 718.098C1225.65 725.422 1223.3 730.549 1218.62 733.479C1214.22 736.115 1208.65 737.434 1201.92 737.434H1097.33V831.916C1097.33 843.635 1103.19 849.494 1114.9 849.494H1227.4C1234.14 849.494 1239.71 850.959 1244.1 853.889C1248.5 856.525 1250.7 861.506 1250.7 868.83C1250.7 876.154 1248.5 881.281 1244.1 884.211C1239.71 886.848 1234.14 888.166 1227.4 888.166H1090.73ZM1375.06 894.318C1367.15 894.318 1361.73 891.828 1358.8 886.848C1355.87 881.867 1354.41 875.861 1354.41 868.83V747.102L1277.94 579.67C1277.06 577.619 1276.18 575.568 1275.3 573.518C1274.72 571.174 1274.43 568.977 1274.43 566.926C1274.43 560.773 1276.18 556.379 1279.7 553.742C1283.21 551.105 1287.76 549.787 1293.32 549.787C1298.3 549.787 1302.26 551.252 1305.19 554.182C1308.41 557.111 1311.05 560.627 1313.1 564.729L1375.5 698.322L1437.46 565.168C1439.51 561.066 1442.15 557.551 1445.37 554.621C1448.6 551.398 1452.55 549.787 1457.24 549.787C1463.1 549.787 1467.79 551.105 1471.3 553.742C1474.82 556.379 1476.57 560.773 1476.57 566.926C1476.57 568.977 1476.13 571.027 1475.26 573.078C1474.67 575.129 1473.94 577.18 1473.06 579.23L1396.15 747.98V868.83C1396.15 876.154 1394.54 882.307 1391.32 887.287C1388.39 891.975 1382.97 894.318 1375.06 894.318ZM1540.73 888.166C1531.07 888.166 1522.86 884.797 1516.12 878.059C1509.39 871.027 1506.02 862.678 1506.02 853.01V591.096C1506.02 581.721 1509.39 573.518 1516.12 566.486C1523.16 559.455 1531.36 555.939 1540.73 555.939H1677.4C1684.14 555.939 1689.71 557.404 1694.1 560.334C1698.5 562.971 1700.7 567.951 1700.7 575.275C1700.7 582.6 1698.5 587.727 1694.1 590.656C1689.71 593.293 1684.14 594.611 1677.4 594.611H1564.9C1553.19 594.611 1547.33 600.471 1547.33 612.189V698.762H1651.92C1658.65 698.762 1664.22 700.227 1668.62 703.156C1673.3 705.793 1675.65 710.773 1675.65 718.098C1675.65 725.422 1673.3 730.549 1668.62 733.479C1664.22 736.115 1658.65 737.434 1651.92 737.434H1547.33V831.916C1547.33 843.635 1553.19 849.494 1564.9 849.494H1677.4C1684.14 849.494 1689.71 850.959 1694.1 853.889C1698.5 856.525 1700.7 861.506 1700.7 868.83C1700.7 876.154 1698.5 881.281 1694.1 884.211C1689.71 886.848 1684.14 888.166 1677.4 888.166H1540.73ZM1828.14 894.318C1809.39 894.318 1792.54 890.656 1777.6 883.332C1762.66 875.715 1750.5 863.41 1741.12 846.418C1737.32 839.68 1734.09 832.648 1731.46 825.324C1729.11 817.707 1727.94 809.943 1727.94 802.033C1727.94 787.092 1735.27 779.621 1749.91 779.621C1756.65 779.621 1761.63 781.525 1764.86 785.334C1768.08 788.85 1770.57 793.537 1772.33 799.396C1774.08 805.256 1775.84 811.555 1777.6 818.293C1779.36 824.738 1781.99 830.891 1785.51 836.75C1789.03 842.609 1794.15 847.443 1800.89 851.252C1807.92 854.768 1817.3 856.525 1829.02 856.525C1845.13 856.525 1857.73 850.959 1866.81 839.826C1875.89 828.4 1880.43 815.07 1880.43 799.836C1880.43 787.531 1877.65 777.277 1872.08 769.074C1866.81 760.871 1859.78 753.986 1850.99 748.42C1842.2 742.561 1832.53 737.287 1821.98 732.6C1811.44 727.912 1800.74 723.078 1789.9 718.098C1779.36 712.824 1769.69 706.818 1760.9 700.08C1752.11 693.049 1744.93 684.406 1739.37 674.152C1734.09 663.605 1731.46 650.715 1731.46 635.48C1731.46 617.609 1735.41 602.375 1743.32 589.777C1751.23 576.887 1761.93 567.072 1775.4 560.334C1789.17 553.303 1804.55 549.787 1821.54 549.787C1836.78 549.787 1851.57 553.01 1865.93 559.455C1880.29 565.607 1892.15 574.689 1901.53 586.701C1911.19 598.42 1916.03 612.629 1916.03 629.328C1916.03 643.391 1909 650.422 1894.93 650.422C1887.9 650.422 1882.63 648.371 1879.11 644.27C1875.89 639.875 1873.11 634.602 1870.76 628.449C1868.71 622.004 1866.08 615.705 1862.85 609.553C1859.92 603.4 1855.24 598.273 1848.79 594.172C1842.35 589.777 1833.12 587.58 1821.11 587.58C1805.58 587.58 1793.57 591.389 1785.07 599.006C1776.87 606.623 1772.77 618.342 1772.77 634.162C1772.77 644.416 1775.4 653.059 1780.68 660.09C1786.24 666.828 1793.42 672.834 1802.21 678.107C1811.29 683.088 1821.11 687.922 1831.65 692.609C1842.49 697.004 1853.19 701.984 1863.73 707.551C1874.57 712.824 1884.39 719.416 1893.18 727.326C1902.26 734.943 1909.44 744.465 1914.71 755.891C1920.28 767.316 1923.06 781.379 1923.06 798.078C1923.06 827.375 1914.56 850.812 1897.57 868.391C1880.87 885.676 1857.73 894.318 1828.14 894.318Z" fill="#DFDFDF"/>
<path d="M1083.22 408C1091.23 422.694 1110.4 424.101 1103.43 427.897C1096.46 431.693 1079.23 432.194 1071.22 417.5C1063.22 402.806 1064.25 382.296 1071.22 378.5C1078.19 374.704 1075.22 393.306 1083.22 408Z" fill="white"/>
<path d="M1530.5 411.032C1538.5 425.725 1561.47 424.994 1554.5 428.79C1544 431.532 1526 432.032 1515.5 417.532C1507.5 402.838 1519.03 383.327 1526 379.532C1532.97 375.736 1522.5 396.338 1530.5 411.032Z" fill="white"/>
<path d="M1084.65 588.442C1074.17 601.487 1074.69 620.469 1068.5 615.5C1061.92 606.865 1061.66 591.775 1071 576.5C1081.48 563.455 1098.31 565.531 1104.5 570.5C1110.69 575.469 1095.13 575.396 1084.65 588.442Z" fill="white"/>
<path d="M1534.67 585.944C1524.19 598.99 1524.71 617.972 1518.52 613.003C1511.95 604.367 1511.68 589.278 1521.02 574.003C1531.5 560.957 1548.33 563.034 1554.52 568.003C1560.71 572.972 1545.15 572.899 1534.67 585.944Z" fill="white"/>
<defs>
<filter id="filter0_d_29_2" x="0.267517" y="3.05176e-05" width="1098.46" height="993.75" filterUnits="userSpaceOnUse" color-interpolation-filters="sRGB">
<feFlood flood-opacity="0" result="BackgroundImageFix"/>
<feColorMatrix in="SourceAlpha" type="matrix" values="0 0 0 0 0 0 0 0 0 0 0 0 0 0 0 0 0 0 127 0" result="hardAlpha"/>
<feOffset dy="4"/>
<feGaussianBlur stdDeviation="50"/>
<feComposite in2="hardAlpha" operator="out"/>
<feColorMatrix type="matrix" values="0 0 0 0 1 0 0 0 0 1 0 0 0 0 1 0 0 0 0.25 0"/>
<feBlend mode="normal" in2="BackgroundImageFix" result="effect1_dropShadow_29_2"/>
<feBlend mode="normal" in="SourceGraphic" in2="effect1_dropShadow_29_2" result="shape"/>
</filter>
<filter id="filter1_di_29_2" x="96.2675" y="96" width="906.465" height="801.75" filterUnits="userSpaceOnUse" color-interpolation-filters="sRGB">
<feFlood flood-opacity="0" result="BackgroundImageFix"/>
<feColorMatrix in="SourceAlpha" type="matrix" values="0 0 0 0 0 0 0 0 0 0 0 0 0 0 0 0 0 0 127 0" result="hardAlpha"/>
<feOffset dy="4"/>
<feGaussianBlur stdDeviation="2"/>
<feComposite in2="hardAlpha" operator="out"/>
<feColorMatrix type="matrix" values="0 0 0 0 1 0 0 0 0 1 0 0 0 0 1 0 0 0 0.7 0"/>
<feBlend mode="normal" in2="BackgroundImageFix" result="effect1_dropShadow_29_2"/>
<feBlend mode="normal" in="SourceGraphic" in2="effect1_dropShadow_29_2" result="shape"/>
<feColorMatrix in="SourceAlpha" type="matrix" values="0 0 0 0 0 0 0 0 0 0 0 0 0 0 0 0 0 0 127 0" result="hardAlpha"/>
<feOffset dy="4"/>
<feGaussianBlur stdDeviation="125"/>
<feComposite in2="hardAlpha" operator="arithmetic" k2="-1" k3="1"/>
<feColorMatrix type="matrix" values="0 0 0 0 0 0 0 0 0 0 0 0 0 0 0 0 0 0 0.25 0"/>
<feBlend mode="normal" in2="shape" result="effect2_innerShadow_29_2"/>
</filter>
<filter id="filter2_f_29_2" x="372" y="777" width="353" height="96" filterUnits="userSpaceOnUse" color-interpolation-filters="sRGB">
<feFlood flood-opacity="0" result="BackgroundImageFix"/>
<feBlend mode="normal" in="SourceGraphic" in2="BackgroundImageFix" result="shape"/>
<feGaussianBlur stdDeviation="14" result="effect1_foregroundBlur_29_2"/>
</filter>
</defs>
</svg>
