<svg width="8192" height="2512" viewBox="0 0 8192 2512" fill="none" xmlns="http://www.w3.org/2000/svg">
<rect width="8192" height="2512" fill="#E5E5E5"/>
<rect y="-55" width="8232" height="2614" fill="#292552"/>
<path d="M7185.16 855.555C7208 855.628 7232.07 853.934 7256.39 849.651C7340.37 997.835 7307.32 1267.3 7278.97 1498.43L7278.97 1498.43L7278.97 1498.43C7269.69 1574.08 7260.91 1645.63 7256.91 1707.47L7181.19 1706.1L7183.13 1250.03C7336.77 1236.7 7320.05 1036.46 7179.4 1029.44L7185.16 855.555Z" fill="#D8E8E5"/>
<path d="M7302.13 1708.28L7293.74 1708.13C7296.6 1680.86 7301.95 1643.4 7308.28 1599.08L7308.28 1599.08C7339.33 1381.68 7393.97 999.08 7294 843.013C7297.15 842.108 7300.34 841.431 7303.54 840.754C7308.17 839.774 7312.81 838.793 7317.32 837.112C7411.82 1041.19 7371.77 1318.28 7340.31 1515.63C7339.14 1521.78 7337.96 1527.88 7336.78 1533.9C7334.49 1545.55 7332.2 1556.95 7329.92 1568.08C7327.17 1581.57 7324.45 1594.66 7321.81 1607.33C7315.31 1638.61 7309.34 1667.28 7304.76 1692.93C7303.83 1698.17 7302.95 1703.29 7302.13 1708.28Z" fill="#D8E8E5"/>
<path d="M7185.16 855.555L7179.4 1029.44C7065.17 1032.22 7008.98 1223.54 7183.13 1250.03L7181.19 1706.1L7093.17 1705.73C7006.53 1201.72 7043.82 922.328 7073.29 845.632C7099.79 851.576 7147.87 855.437 7185.16 855.555Z" fill="#AACECC"/>
<path d="M7063.98 1703.99L7056.64 1703.18C7056.01 1700.1 7055.37 1697.03 7054.74 1693.96C7045.97 1651.26 7038.03 1609.5 7030.99 1568.68C7029.18 1558.17 7027.43 1547.72 7025.74 1537.33C7024.54 1529.94 7023.37 1522.57 7022.23 1515.24C6980.52 1246.87 6975.39 1008.89 7054.07 838.088C7057.76 839.431 7059.21 840.367 7060.52 841.211C7062.55 842.514 7064.23 843.6 7073.29 845.632C7043.82 922.328 7006.53 1201.72 7093.17 1705.73L7063.98 1703.99Z" fill="#84A7AE"/>
<path fill-rule="evenodd" clip-rule="evenodd" d="M7179.4 1029.44C7320.05 1036.46 7336.77 1236.7 7183.13 1250.03C7008.98 1223.54 7065.17 1032.22 7179.4 1029.44ZM7179.3 1221.81C7240.44 1221.21 7273.49 1165.58 7262.08 1119.2C7260.54 1112.91 7258.25 1106.61 7254.89 1100.67C7251.88 1095.34 7248.41 1089.93 7243.84 1085.09C7239.03 1080.01 7233.77 1074.85 7227.13 1070.53C7217.4 1064.22 7207.95 1062.3 7191.89 1059.03L7191.87 1059.03C7191.08 1058.87 7190.26 1058.7 7189.43 1058.53C7184.47 1058.43 7179.69 1058.68 7175.1 1059.23C7133.58 1064.23 7107.63 1094.67 7101.93 1128.06C7098.89 1145.89 7101.62 1164.55 7110.83 1180.65C7114.05 1186.28 7118.09 1191.58 7122.99 1196.4C7127.38 1200.72 7132.45 1204.65 7138.25 1208.11C7143.69 1211.35 7149.76 1214.16 7156.5 1216.46C7163.4 1218.81 7170.99 1220.63 7179.3 1221.81Z" fill="#5D7599"/>
<path d="M7293.74 1708.13L7256.91 1707.47C7260.91 1645.63 7269.69 1574.08 7278.97 1498.43L7278.97 1498.43L7278.97 1498.43C7307.32 1267.3 7340.37 997.835 7256.39 849.651C7260.25 848.971 7264.33 848.392 7268.48 847.801L7268.49 847.801C7277.09 846.579 7286.02 845.311 7294 843.013C7393.97 999.08 7339.33 1381.68 7308.28 1599.08L7308.28 1599.08C7301.95 1643.4 7296.6 1680.86 7293.74 1708.13Z" fill="white"/>
<path d="M7462.41 1993.14L7439.65 1992.51C7457.33 1930.17 7473.93 1878.52 7487.84 1835.23C7553.56 1630.75 7559.43 1612.49 7336.78 1533.9C7337.96 1527.88 7339.14 1521.78 7340.31 1515.63C7375.98 1528.2 7407.02 1537.14 7433.55 1544.78C7586.39 1588.8 7589.1 1589.58 7462.41 1993.14Z" fill="#E878A0"/>
<path d="M7022.23 1515.24C7023.37 1522.57 7024.54 1529.94 7025.74 1537.33C6809.27 1616.59 6812.11 1626.28 6874.76 1840.21C6874.76 1840.21 6874.76 1840.22 6874.77 1840.23C6874.77 1840.24 6874.77 1840.24 6874.77 1840.25C6874.77 1840.26 6874.78 1840.26 6874.78 1840.27C6886.98 1881.93 6901.45 1931.35 6917.01 1990.53L6898.9 1991.03C6775.82 1582.23 6779.45 1581.25 6961.41 1532.12L6961.42 1532.12C6979.84 1527.15 7000.09 1521.68 7022.23 1515.24Z" fill="#E878A0"/>
<path d="M7439.65 1992.51L7427.05 1992.17C7426.82 1987.37 7426.55 1982.64 7426.25 1977.97C7495.06 1778.57 7366.14 1595.69 7329.92 1568.08C7332.2 1556.95 7334.49 1545.55 7336.78 1533.9C7559.43 1612.49 7553.56 1630.75 7487.84 1835.23C7473.93 1878.52 7457.33 1930.17 7439.65 1992.51Z" fill="#E24360"/>
<path d="M7426.25 1977.97C7412.87 1770.63 7329.06 1694.29 7304.76 1692.93C7309.34 1667.28 7315.31 1638.61 7321.81 1607.33C7324.45 1594.66 7327.17 1581.57 7329.92 1568.08C7366.14 1595.69 7495.06 1778.57 7426.25 1977.97Z" fill="#B5334B"/>
<path d="M7054.74 1693.96C7026.98 1704.46 6965.87 1774.91 6937.54 1972.22C6878.22 1765.69 6984.32 1616.86 7030.99 1568.68C7038.03 1609.5 7045.97 1651.26 7054.74 1693.96Z" fill="#B5334B"/>
<path d="M6935.11 1990.03L6917.01 1990.53C6901.45 1931.35 6886.98 1881.93 6874.78 1840.27L6874.77 1840.25L6874.77 1840.23L6874.76 1840.21C6812.11 1626.28 6809.27 1616.59 7025.74 1537.33C7027.43 1547.72 7029.18 1558.17 7030.99 1568.68C6984.32 1616.86 6878.22 1765.69 6937.54 1972.22C6936.7 1978.05 6935.89 1983.98 6935.11 1990.03Z" fill="#E24360"/>
<path d="M7289.53 1723.83L7289.1 1763.76L7264 1763.77L7266.45 1733.27L7236.94 1729.99L7233.86 1763.29L7172.48 1762.79L7172.33 1722.12L7289.53 1723.83Z" fill="#627E9E"/>
<path d="M7111.09 1762.3L7111.62 1721.24L7172.33 1722.12L7172.48 1762.79L7111.09 1762.3Z" fill="#445972"/>
<path d="M7264 1763.77L7250.82 1763.42L7233.86 1763.29L7236.94 1729.99L7266.45 1733.27L7264 1763.77Z" fill="#8A9CB1"/>
<path d="M7065.43 1719.87L7063.98 1703.99L7093.17 1705.73L7181.19 1706.1L7256.91 1707.47L7293.74 1708.13L7293.74 1723.89L7289.53 1723.83L7172.33 1722.12L7111.62 1721.24L7077.74 1720.75L7065.43 1719.87Z" fill="#3C5067"/>
<path d="M7077.3 1762.02L7077.74 1720.75L7111.62 1721.24L7111.09 1762.3L7077.3 1762.02Z" fill="#3C5067"/>
<path d="M7111.28 1845.73L7111.09 1762.3L7172.48 1762.79L7233.86 1763.29L7250.82 1763.42L7249.82 1786.42L7171.44 1786.19L7139.61 1786.1L7143.87 1846.18L7127.57 1845.96L7111.28 1845.73Z" fill="#3C5067"/>
<path d="M7143.87 1846.18L7139.61 1786.1L7171.44 1786.19L7170.72 1846.54L7161.51 1846.42L7143.87 1846.18Z" fill="#445972"/>
<path d="M7249.82 1786.42L7247.15 1847.58L7238.66 1847.46L7236.82 1792.15L7219.21 1792.54L7216.82 1847.17L7209.54 1847.07L7199.23 1846.93L7170.72 1846.54L7171.44 1786.19L7249.82 1786.42Z" fill="#627E9E"/>
<path d="M7236.82 1792.15L7238.66 1847.46L7216.82 1847.17L7219.21 1792.54L7236.82 1792.15Z" fill="#8A9CB1"/>
<path d="M7162 640.529C7174.94 617.114 7174.69 508.64 7173.85 458.301C7135.69 438.336 7137.44 403.163 7157.79 386.238C7155.77 398.359 7158.41 430.353 7183.57 449.347L7183.27 645.409C7182.73 647.434 7182.13 649.591 7181.5 651.868C7181.36 652.391 7181.21 652.92 7181.06 653.455L7181.06 653.464C7181.05 653.48 7181.05 653.496 7181.04 653.512L7181.04 653.523C7166.14 707.167 7134.12 822.453 7294 843.013C7286.02 845.311 7277.09 846.579 7268.49 847.801L7268.48 847.801C7264.33 848.392 7260.25 848.971 7256.39 849.651C7232.07 853.934 7208 855.628 7185.16 855.555C7147.87 855.437 7099.79 851.576 7073.29 845.632C7064.23 843.6 7062.55 842.514 7060.52 841.211C7059.21 840.367 7057.76 839.431 7054.07 838.088C7080.32 767.156 7114.64 700.048 7162 640.529Z" fill="#B5334B"/>
<path fill-rule="evenodd" clip-rule="evenodd" d="M7185.99 375.238C7245.07 386.709 7230.07 448.452 7200.05 458.131C7188.54 568.409 7206.37 633.207 7211.6 647.557C7252.36 702.862 7289.88 767.493 7317.32 837.112C7312.81 838.793 7308.17 839.774 7303.54 840.754C7300.34 841.431 7297.15 842.108 7294 843.013C7134.12 822.453 7166.14 707.167 7181.04 653.523L7181.04 653.512L7181.06 653.464L7181.06 653.455L7181.5 651.868C7182.13 649.591 7182.73 647.434 7183.27 645.409L7183.57 449.347C7158.41 430.353 7155.77 398.359 7157.79 386.238C7165.51 379.813 7176.33 375.152 7185.99 375.238ZM7291.69 816.722C7292.49 816.285 7292.81 815.351 7292.51 814.497C7277.1 770.592 7231.34 696.84 7208.12 664.102C7207.11 662.678 7204.92 663.221 7204.63 664.942C7187.54 764.868 7262.08 833.017 7291.69 816.722ZM7192.03 410.407C7188.45 416.496 7184.35 430.421 7196.53 437.408C7199.9 438.897 7209.23 439.489 7219.6 429.937C7223.63 420.437 7222.46 398.189 7185.58 385.198C7187.93 388.621 7192.52 398.455 7192.03 410.407Z" fill="#E24360"/>
<path d="M7291.69 816.722C7292.49 816.285 7292.81 815.351 7292.51 814.497C7277.1 770.592 7231.34 696.84 7208.12 664.102C7207.11 662.678 7204.92 663.221 7204.63 664.942C7187.54 764.868 7262.08 833.017 7291.69 816.722Z" fill="#E878A0"/>
<path d="M7170.72 1846.54L7199.23 1846.93C7223.99 1864.18 7230.77 2038.5 7210.06 2103.52C7206.29 2115.37 7192.88 2114.73 7187.58 2103.48C7145.11 2013.18 7149.65 1861.15 7161.51 1846.42L7170.72 1846.54Z" fill="#E24922"/>
<path d="M7209.54 1847.07C7256.48 1887.56 7253.24 2153.18 7202.37 2218.71C7196.48 2226.3 7185.68 2224.59 7180.92 2216.24C7132.69 2131.58 7116.19 1864.26 7143.87 1846.18L7161.51 1846.42C7149.65 1861.15 7145.11 2013.18 7187.58 2103.48C7192.88 2114.73 7206.29 2115.37 7210.06 2103.52C7230.77 2038.5 7223.99 1864.18 7199.23 1846.93L7209.54 1847.07Z" fill="#EB7A17"/>
<path d="M7216.82 1847.17L7238.66 1847.46C7295.36 1930.75 7272.21 2241.71 7206.49 2295.87C7203.33 2299.75 7197.57 2299.6 7194.41 2295.72C7106.98 2218.09 7078.13 1900.22 7127.57 1845.96L7143.87 1846.18C7116.19 1864.26 7132.69 2131.58 7180.92 2216.24C7185.68 2224.59 7196.48 2226.3 7202.37 2218.71C7253.24 2153.18 7256.48 1887.56 7209.54 1847.07L7216.82 1847.17Z" fill="#FEBF39"/>
<path d="M7262.08 1119.2C7273.49 1165.58 7240.44 1221.21 7179.3 1221.81C7170.99 1220.63 7163.4 1218.81 7156.5 1216.46L7256.29 1124.54L7262.08 1119.2Z" fill="#B8E5F8"/>
<path d="M7227.13 1070.53L7219.88 1077.21L7110.83 1180.65C7101.62 1164.55 7098.89 1145.89 7101.93 1128.06L7106.75 1123.54L7161.62 1071.91L7163.87 1069.8L7175.1 1059.23C7179.69 1058.68 7184.47 1058.43 7189.43 1058.53C7190.26 1058.7 7191.08 1058.87 7191.87 1059.03L7191.89 1059.03C7207.95 1062.3 7217.4 1064.22 7227.13 1070.53Z" fill="#B3E6FB"/>
<path d="M7101.93 1128.06C7107.63 1094.67 7133.58 1064.23 7175.1 1059.23L7163.87 1069.8C7151.47 1073.68 7122.69 1089.86 7106.75 1123.54L7101.93 1128.06Z" fill="#426A78"/>
<path fill-rule="evenodd" clip-rule="evenodd" d="M7192.03 410.407C7188.45 416.496 7184.35 430.421 7196.53 437.408C7199.9 438.897 7209.23 439.489 7219.6 429.937C7223.63 420.437 7222.46 398.189 7185.58 385.198C7187.93 388.621 7192.52 398.455 7192.03 410.407Z" fill="#E878A0"/>
<path d="M7161.62 1071.91L7106.75 1123.54C7122.69 1089.86 7151.47 1073.68 7163.87 1069.8L7161.62 1071.91Z" fill="#71BFDB"/>
<path d="M7254.89 1100.67C7258.25 1106.61 7260.54 1112.91 7262.08 1119.2L7256.29 1124.54C7254.95 1120.7 7251.8 1114.75 7247.1 1107.85L7254.89 1100.67Z" fill="#426A78"/>
<path d="M7227.13 1070.53C7233.77 1074.85 7239.03 1080.01 7243.84 1085.09L7235.45 1092.82C7230.87 1087.58 7225.66 1082.25 7219.88 1077.21L7227.13 1070.53Z" fill="#426A78"/>
<path d="M7138.25 1208.11C7132.45 1204.65 7127.38 1200.72 7122.99 1196.4L7235.45 1092.82L7243.84 1085.09C7248.41 1089.93 7251.88 1095.34 7254.89 1100.67L7247.1 1107.85L7138.25 1208.11Z" fill="#B3E6FB"/>
<path d="M7156.5 1216.46C7149.76 1214.16 7143.69 1211.35 7138.25 1208.11L7247.1 1107.85C7251.8 1114.75 7254.95 1120.7 7256.29 1124.54L7156.5 1216.46Z" fill="#71BFDB"/>
<path d="M7122.99 1196.4C7118.09 1191.58 7114.05 1186.28 7110.83 1180.65L7219.88 1077.21C7225.66 1082.25 7230.87 1087.58 7235.45 1092.82L7122.99 1196.4Z" fill="#71BFDB"/>
</svg>
