<svg width="3548" height="1820" viewBox="0 0 3548 1820" fill="none" xmlns="http://www.w3.org/2000/svg">
<rect width="3548" height="1820" fill="#E5E5E5"/>
<path d="M-7 -10H3556V1828H-7V-10Z" fill="#292552"/>
<path d="M4 1816V8H3532V1816H4Z" stroke="black"/>
<g filter="url(#filter0_d_0_1)">
<circle cx="1061.98" cy="955.998" r="3" fill="#FCD23F"/>
<circle cx="1205.98" cy="959.998" r="3" fill="#FCD23F"/>
<circle cx="1125.98" cy="975.998" r="3" fill="#FCD23F"/>
<circle cx="953.481" cy="1126.5" r="2.5" fill="#FCD23F"/>
<circle cx="1097.48" cy="1130.5" r="2.5" fill="#FCD23F"/>
<circle cx="1017.48" cy="1146.5" r="2.5" fill="#FCD23F"/>
<circle cx="878.481" cy="896.498" r="2.5" fill="#FCD23F"/>
<circle cx="1022.48" cy="900.498" r="2.5" fill="#FCD23F"/>
<circle cx="942.481" cy="916.498" r="2.5" fill="#FCD23F"/>
<circle cx="1038.48" cy="793.498" r="2.5" fill="#FCD23F"/>
<circle cx="1182.48" cy="797.498" r="2.5" fill="#FCD23F"/>
<circle cx="1102.48" cy="813.498" r="2.5" fill="#FCD23F"/>
<circle cx="68.2995" cy="802.007" r="2.29475" transform="rotate(-0.118501 68.2995 802.007)" fill="#FCD23F"/>
<circle cx="212.299" cy="806.007" r="2.29475" transform="rotate(-0.118501 212.299 806.007)" fill="#FCD23F"/>
<circle cx="132.299" cy="822.007" r="2.29475" transform="rotate(-0.118501 132.299 822.007)" fill="#FCD23F"/>
<circle cx="553.192" cy="584.914" r="1.9123" transform="rotate(-0.118501 553.192 584.914)" fill="#FCD23F"/>
<circle cx="697.192" cy="588.914" r="1.9123" transform="rotate(-0.118501 697.192 588.914)" fill="#FCD23F"/>
<circle cx="617.192" cy="604.914" r="1.9123" transform="rotate(-0.118501 617.192 604.914)" fill="#FCD23F"/>
<circle cx="557.453" cy="796.023" r="1.9123" transform="rotate(-0.118501 557.453 796.023)" fill="#FCD23F"/>
<circle cx="701.453" cy="800.023" r="1.9123" transform="rotate(-0.118501 701.453 800.023)" fill="#FCD23F"/>
<circle cx="621.453" cy="816.023" r="1.9123" transform="rotate(-0.118501 621.453 816.023)" fill="#FCD23F"/>
<circle cx="1891.48" cy="994.498" r="2.5" fill="#FCD23F"/>
<circle cx="2035.48" cy="998.498" r="2.5" fill="#FCD23F"/>
<circle cx="1955.48" cy="1014.5" r="2.5" fill="#FCD23F"/>
<circle cx="85.869" cy="1392.36" r="1.93677" transform="rotate(88.8789 85.869 1392.36)" fill="#FCD23F"/>
<circle cx="229.869" cy="1396.36" r="1.93677" transform="rotate(88.8789 229.869 1396.36)" fill="#FCD23F"/>
<circle cx="149.869" cy="1412.36" r="1.93677" transform="rotate(88.8789 149.869 1412.36)" fill="#FCD23F"/>
<circle cx="262.881" cy="1330.78" r="1.93677" transform="rotate(88.8789 262.881 1330.78)" fill="#FCD23F"/>
<circle cx="406.881" cy="1334.78" r="1.93677" transform="rotate(88.8789 406.881 1334.78)" fill="#FCD23F"/>
<circle cx="326.881" cy="1350.78" r="1.93677" transform="rotate(88.8789 326.881 1350.78)" fill="#FCD23F"/>
<path d="M248.487 1195.85L241.602 1198.2L238.62 1204.65L234.098 1199L226.806 1198.16L230.897 1192.32L229.371 1185.36L236.422 1187.4L242.771 1183.93L243.038 1191.03L248.487 1195.85Z" fill="#FCD23F"/>
<path d="M2140.73 495.408L2133.85 497.758L2130.87 504.207L2126.34 498.56L2119.05 497.724L2123.14 491.884L2121.62 484.919L2128.67 486.957L2135.02 483.488L2135.29 490.587L2140.73 495.408Z" fill="#FCD23F"/>
<circle cx="323.79" cy="701.813" r="1.77777" transform="rotate(88.7604 323.79 701.813)" fill="#FCD23F"/>
<circle cx="467.79" cy="705.813" r="1.77777" transform="rotate(88.7604 467.79 705.813)" fill="#FCD23F"/>
<circle cx="387.79" cy="721.813" r="1.77777" transform="rotate(88.7604 387.79 721.813)" fill="#FCD23F"/>
<circle cx="335.839" cy="1080.6" r="1.48147" transform="rotate(88.7604 335.839 1080.6)" fill="#FCD23F"/>
<circle cx="479.839" cy="1084.6" r="1.48147" transform="rotate(88.7604 479.839 1084.6)" fill="#FCD23F"/>
<circle cx="399.839" cy="1100.6" r="1.48147" transform="rotate(88.7604 399.839 1100.6)" fill="#FCD23F"/>
<ellipse rx="1.46019" ry="1.3688" transform="matrix(0.709953 0.70425 0.706045 -0.708167 2938.97 968.428)" fill="#FCD23F"/>
<ellipse rx="1.46019" ry="1.3688" transform="matrix(0.709953 0.70425 0.706045 -0.708167 3082.97 972.428)" fill="#FCD23F"/>
<ellipse rx="1.46019" ry="1.3688" transform="matrix(0.709953 0.70425 0.706045 -0.708167 3002.97 988.428)" fill="#FCD23F"/>
<ellipse rx="1.46019" ry="1.3688" transform="matrix(0.709953 0.70425 0.706045 -0.708167 2818.96 1026.76)" fill="#FCD23F"/>
<ellipse rx="1.46019" ry="1.3688" transform="matrix(0.709953 0.70425 0.706045 -0.708167 2962.96 1030.76)" fill="#FCD23F"/>
<ellipse rx="1.46019" ry="1.3688" transform="matrix(0.709953 0.70425 0.706045 -0.708167 2882.96 1046.76)" fill="#FCD23F"/>
<ellipse rx="1.46019" ry="1.3688" transform="matrix(0.709953 0.70425 0.706045 -0.708167 3071.95 1449.7)" fill="#FCD23F"/>
<ellipse rx="1.46019" ry="1.3688" transform="matrix(0.709953 0.70425 0.706045 -0.708167 3215.95 1453.7)" fill="#FCD23F"/>
<ellipse rx="1.46019" ry="1.3688" transform="matrix(0.709953 0.70425 0.706045 -0.708167 3135.95 1469.7)" fill="#FCD23F"/>
<ellipse rx="1.46019" ry="1.3688" transform="matrix(0.709953 0.70425 0.706045 -0.708167 3180.72 1344.74)" fill="#FCD23F"/>
<ellipse rx="1.46019" ry="1.3688" transform="matrix(0.709953 0.70425 0.706045 -0.708167 3324.72 1348.74)" fill="#FCD23F"/>
<ellipse rx="1.46019" ry="1.3688" transform="matrix(0.709953 0.70425 0.706045 -0.708167 3244.72 1364.74)" fill="#FCD23F"/>
<ellipse rx="1.34031" ry="1.25643" transform="matrix(0.708586 0.705625 0.707606 -0.706607 2445.82 703.831)" fill="#FCD23F"/>
<ellipse rx="1.34031" ry="1.25643" transform="matrix(0.708586 0.705625 0.707606 -0.706607 2589.82 707.831)" fill="#FCD23F"/>
<ellipse rx="1.34031" ry="1.25643" transform="matrix(0.708586 0.705625 0.707606 -0.706607 2509.82 723.831)" fill="#FCD23F"/>
<ellipse rx="1.11692" ry="1.04702" transform="matrix(0.708586 0.705625 0.707606 -0.706607 2647 933.665)" fill="#FCD23F"/>
<ellipse rx="1.11692" ry="1.04702" transform="matrix(0.708586 0.705625 0.707606 -0.706607 2791 937.665)" fill="#FCD23F"/>
<ellipse rx="1.11692" ry="1.04702" transform="matrix(0.708586 0.705625 0.707606 -0.706607 2711 953.665)" fill="#FCD23F"/>
<ellipse rx="1.46019" ry="1.3688" transform="matrix(0.709953 0.70425 0.706045 -0.708167 3276.9 1405.44)" fill="#FCD23F"/>
<ellipse rx="1.46019" ry="1.3688" transform="matrix(0.709953 0.70425 0.706045 -0.708167 3420.9 1409.44)" fill="#FCD23F"/>
<ellipse rx="1.46019" ry="1.3688" transform="matrix(0.709953 0.70425 0.706045 -0.708167 3340.9 1425.44)" fill="#FCD23F"/>
<circle cx="1718.48" cy="1084.5" r="2.5" fill="#FCD23F"/>
<circle cx="1862.48" cy="1088.5" r="2.5" fill="#FCD23F"/>
<circle cx="1782.48" cy="1104.5" r="2.5" fill="#FCD23F"/>
<circle cx="2366.2" cy="859.785" r="2.5" transform="rotate(92.5368 2366.2 859.785)" fill="#FCD23F"/>
<circle cx="2510.2" cy="863.785" r="2.5" transform="rotate(92.5368 2510.2 863.785)" fill="#FCD23F"/>
<circle cx="2430.2" cy="879.785" r="2.5" transform="rotate(92.5368 2430.2 879.785)" fill="#FCD23F"/>
<circle cx="2599.29" cy="795.038" r="2.5" transform="rotate(92.5368 2599.29 795.038)" fill="#FCD23F"/>
<circle cx="2743.29" cy="799.038" r="2.5" transform="rotate(92.5368 2743.29 799.038)" fill="#FCD23F"/>
<circle cx="2663.29" cy="815.038" r="2.5" transform="rotate(92.5368 2663.29 815.038)" fill="#FCD23F"/>
<circle cx="2695.11" cy="959.44" r="2.5" transform="rotate(92.5368 2695.11 959.44)" fill="#FCD23F"/>
<circle cx="2839.11" cy="963.44" r="2.5" transform="rotate(92.5368 2839.11 963.44)" fill="#FCD23F"/>
<circle cx="2759.11" cy="979.44" r="2.5" transform="rotate(92.5368 2759.11 979.44)" fill="#FCD23F"/>
<circle cx="2509.91" cy="1614.89" r="2.5" transform="rotate(92.5368 2509.91 1614.89)" fill="#FCD23F"/>
<circle cx="2653.91" cy="1618.89" r="2.5" transform="rotate(92.5368 2653.91 1618.89)" fill="#FCD23F"/>
<circle cx="2573.91" cy="1634.89" r="2.5" transform="rotate(92.5368 2573.91 1634.89)" fill="#FCD23F"/>
<circle cx="2456.55" cy="1802.71" r="2.5" transform="rotate(92.5368 2456.55 1802.71)" fill="#FCD23F"/>
<circle cx="2600.55" cy="1806.71" r="2.5" transform="rotate(92.5368 2600.55 1806.71)" fill="#FCD23F"/>
<circle cx="2374.29" cy="1625.89" r="2.5" transform="rotate(92.5368 2374.29 1625.89)" fill="#FCD23F"/>
<circle cx="2518.29" cy="1629.89" r="2.5" transform="rotate(92.5368 2518.29 1629.89)" fill="#FCD23F"/>
<circle cx="2438.29" cy="1645.89" r="2.5" transform="rotate(92.5368 2438.29 1645.89)" fill="#FCD23F"/>
<circle cx="2001.48" cy="1457.5" r="2.5" fill="#FCD23F"/>
<circle cx="2145.48" cy="1461.5" r="2.5" fill="#FCD23F"/>
<circle cx="2065.48" cy="1477.5" r="2.5" fill="#FCD23F"/>
<ellipse rx="1.46019" ry="1.3688" transform="matrix(0.709953 0.70425 0.706045 -0.708167 2898.97 496.428)" fill="#FCD23F"/>
<ellipse rx="1.46019" ry="1.3688" transform="matrix(0.709953 0.70425 0.706045 -0.708167 3042.97 500.428)" fill="#FCD23F"/>
<ellipse rx="1.46019" ry="1.3688" transform="matrix(0.709953 0.70425 0.706045 -0.708167 2962.97 516.428)" fill="#FCD23F"/>
<ellipse rx="1.46019" ry="1.3688" transform="matrix(0.709953 0.70425 0.706045 -0.708167 2778.96 554.757)" fill="#FCD23F"/>
<ellipse rx="1.46019" ry="1.3688" transform="matrix(0.709953 0.70425 0.706045 -0.708167 2922.96 558.757)" fill="#FCD23F"/>
<ellipse rx="1.46019" ry="1.3688" transform="matrix(0.709953 0.70425 0.706045 -0.708167 2842.96 574.757)" fill="#FCD23F"/>
<ellipse rx="1.46019" ry="1.3688" transform="matrix(0.709953 0.70425 0.706045 -0.708167 3031.95 977.696)" fill="#FCD23F"/>
<ellipse rx="1.46019" ry="1.3688" transform="matrix(0.709953 0.70425 0.706045 -0.708167 3175.95 981.696)" fill="#FCD23F"/>
<ellipse rx="1.46019" ry="1.3688" transform="matrix(0.709953 0.70425 0.706045 -0.708167 3095.95 997.696)" fill="#FCD23F"/>
<ellipse rx="1.46019" ry="1.3688" transform="matrix(0.709953 0.70425 0.706045 -0.708167 3140.72 872.737)" fill="#FCD23F"/>
<ellipse rx="1.46019" ry="1.3688" transform="matrix(0.709953 0.70425 0.706045 -0.708167 3284.72 876.737)" fill="#FCD23F"/>
<ellipse rx="1.46019" ry="1.3688" transform="matrix(0.709953 0.70425 0.706045 -0.708167 3204.72 892.737)" fill="#FCD23F"/>
<ellipse rx="1.34031" ry="1.25643" transform="matrix(0.708586 0.705625 0.707606 -0.706607 2405.82 231.831)" fill="#FCD23F"/>
<ellipse rx="1.34031" ry="1.25643" transform="matrix(0.708586 0.705625 0.707606 -0.706607 2549.82 235.831)" fill="#FCD23F"/>
<ellipse rx="1.34031" ry="1.25643" transform="matrix(0.708586 0.705625 0.707606 -0.706607 2469.82 251.831)" fill="#FCD23F"/>
<ellipse rx="1.11692" ry="1.04702" transform="matrix(0.708586 0.705625 0.707606 -0.706607 2607 461.664)" fill="#FCD23F"/>
<ellipse rx="1.11692" ry="1.04702" transform="matrix(0.708586 0.705625 0.707606 -0.706607 2751 465.664)" fill="#FCD23F"/>
<ellipse rx="1.11692" ry="1.04702" transform="matrix(0.708586 0.705625 0.707606 -0.706607 2671 481.664)" fill="#FCD23F"/>
<ellipse rx="1.46019" ry="1.3688" transform="matrix(0.709953 0.70425 0.706045 -0.708167 3236.9 933.443)" fill="#FCD23F"/>
<ellipse rx="1.46019" ry="1.3688" transform="matrix(0.709953 0.70425 0.706045 -0.708167 3380.9 937.443)" fill="#FCD23F"/>
<ellipse rx="1.46019" ry="1.3688" transform="matrix(0.709953 0.70425 0.706045 -0.708167 3300.9 953.443)" fill="#FCD23F"/>
<circle cx="1678.48" cy="612.498" r="2.5" fill="#FCD23F"/>
<circle cx="1822.48" cy="616.498" r="2.5" fill="#FCD23F"/>
<circle cx="1742.48" cy="632.498" r="2.5" fill="#FCD23F"/>
<circle cx="2326.2" cy="387.785" r="2.5" transform="rotate(92.5368 2326.2 387.785)" fill="#FCD23F"/>
<circle cx="2470.2" cy="391.785" r="2.5" transform="rotate(92.5368 2470.2 391.785)" fill="#FCD23F"/>
<circle cx="2390.2" cy="407.785" r="2.5" transform="rotate(92.5368 2390.2 407.785)" fill="#FCD23F"/>
<circle cx="2559.29" cy="323.038" r="2.5" transform="rotate(92.5368 2559.29 323.038)" fill="#FCD23F"/>
<circle cx="2703.29" cy="327.038" r="2.5" transform="rotate(92.5368 2703.29 327.038)" fill="#FCD23F"/>
<circle cx="2623.29" cy="343.038" r="2.5" transform="rotate(92.5368 2623.29 343.038)" fill="#FCD23F"/>
<circle cx="2655.11" cy="487.44" r="2.5" transform="rotate(92.5368 2655.11 487.44)" fill="#FCD23F"/>
<circle cx="2799.11" cy="491.44" r="2.5" transform="rotate(92.5368 2799.11 491.44)" fill="#FCD23F"/>
<circle cx="2719.11" cy="507.44" r="2.5" transform="rotate(92.5368 2719.11 507.44)" fill="#FCD23F"/>
<circle cx="2469.91" cy="1142.89" r="2.5" transform="rotate(92.5368 2469.91 1142.89)" fill="#FCD23F"/>
<circle cx="2613.91" cy="1146.89" r="2.5" transform="rotate(92.5368 2613.91 1146.89)" fill="#FCD23F"/>
<circle cx="2533.91" cy="1162.89" r="2.5" transform="rotate(92.5368 2533.91 1162.89)" fill="#FCD23F"/>
<circle cx="2416.55" cy="1330.71" r="2.5" transform="rotate(92.5368 2416.55 1330.71)" fill="#FCD23F"/>
<circle cx="2560.55" cy="1334.71" r="2.5" transform="rotate(92.5368 2560.55 1334.71)" fill="#FCD23F"/>
<circle cx="2480.55" cy="1350.71" r="2.5" transform="rotate(92.5368 2480.55 1350.71)" fill="#FCD23F"/>
<circle cx="2334.29" cy="1153.89" r="2.5" transform="rotate(92.5368 2334.29 1153.89)" fill="#FCD23F"/>
<circle cx="2478.29" cy="1157.89" r="2.5" transform="rotate(92.5368 2478.29 1157.89)" fill="#FCD23F"/>
<circle cx="2398.29" cy="1173.89" r="2.5" transform="rotate(92.5368 2398.29 1173.89)" fill="#FCD23F"/>
<circle cx="1961.48" cy="985.498" r="2.5" fill="#FCD23F"/>
<circle cx="2105.48" cy="989.498" r="2.5" fill="#FCD23F"/>
<circle cx="2025.48" cy="1005.5" r="2.5" fill="#FCD23F"/>
<ellipse rx="1.46019" ry="1.3688" transform="matrix(0.709953 0.70425 0.706045 -0.708167 563.972 281.447)" fill="#FCD23F"/>
<ellipse rx="1.46019" ry="1.3688" transform="matrix(0.709953 0.70425 0.706045 -0.708167 707.972 285.447)" fill="#FCD23F"/>
<ellipse rx="1.46019" ry="1.3688" transform="matrix(0.709953 0.70425 0.706045 -0.708167 627.972 301.447)" fill="#FCD23F"/>
<ellipse rx="1.46019" ry="1.3688" transform="matrix(0.709953 0.70425 0.706045 -0.708167 443.961 339.776)" fill="#FCD23F"/>
<ellipse rx="1.46019" ry="1.3688" transform="matrix(0.709953 0.70425 0.706045 -0.708167 587.961 343.776)" fill="#FCD23F"/>
<ellipse rx="1.46019" ry="1.3688" transform="matrix(0.709953 0.70425 0.706045 -0.708167 507.961 359.776)" fill="#FCD23F"/>
</g>
<g filter="url(#filter1_d_0_1)">
<circle cx="2883.41" cy="1369.17" r="6.18935" transform="rotate(-180 2883.41 1369.17)" fill="#FCD23F"/>
</g>
<g filter="url(#filter2_d_0_1)">
<circle cx="2690.19" cy="916.19" r="6.18935" transform="rotate(-180 2690.19 916.19)" fill="#FCD23F"/>
</g>
<g filter="url(#filter3_d_0_1)">
<circle cx="2724.97" cy="1319.65" r="6.18935" transform="rotate(-180 2724.97 1319.65)" fill="#FCD23F"/>
</g>
<g filter="url(#filter4_d_0_1)">
<ellipse rx="3.61506" ry="3.38879" transform="matrix(-0.709953 -0.70425 -0.706045 0.708167 290.094 1433.71)" fill="#FCD23F"/>
</g>
<g filter="url(#filter5_d_0_1)">
<ellipse rx="3.61506" ry="3.38879" transform="matrix(-0.709953 -0.70425 -0.706045 0.708167 -66.4133 1423.81)" fill="#FCD23F"/>
</g>
<g filter="url(#filter6_d_0_1)">
<ellipse rx="3.61506" ry="3.38879" transform="matrix(-0.709953 -0.70425 -0.706045 0.708167 131.646 1384.19)" fill="#FCD23F"/>
</g>
<g filter="url(#filter7_d_0_1)">
<ellipse rx="3.61506" ry="3.38879" transform="matrix(-0.709953 -0.70425 -0.706045 0.708167 587.211 1289.3)" fill="#FCD23F"/>
</g>
<g filter="url(#filter8_d_0_1)">
<ellipse rx="3.61506" ry="3.38879" transform="matrix(-0.709953 -0.70425 -0.706045 0.708167 230.705 1279.4)" fill="#FCD23F"/>
</g>
<g filter="url(#filter9_d_0_1)">
<ellipse rx="3.61506" ry="3.38879" transform="matrix(-0.709953 -0.70425 -0.706045 0.708167 428.764 1239.79)" fill="#FCD23F"/>
</g>
<g filter="url(#filter10_d_0_1)">
<ellipse rx="3.61506" ry="3.38879" transform="matrix(-0.709953 -0.70425 -0.706045 0.708167 -39.1305 242.216)" fill="#FCD23F"/>
</g>
<g filter="url(#filter11_d_0_1)">
<ellipse rx="3.61506" ry="3.38879" transform="matrix(-0.709953 -0.70425 -0.706045 0.708167 -197.578 192.701)" fill="#FCD23F"/>
</g>
<g filter="url(#filter12_d_0_1)">
<ellipse rx="3.31825" ry="3.11059" transform="matrix(-0.708586 -0.705625 -0.707606 0.706607 1352.56 2039.27)" fill="#FCD23F"/>
</g>
<g filter="url(#filter13_d_0_1)">
<ellipse rx="2.76521" ry="2.59216" transform="matrix(-0.708586 -0.705625 -0.707606 0.706607 1012.94 1519.77)" fill="#FCD23F"/>
</g>
<g filter="url(#filter14_d_0_1)">
<ellipse rx="2.76521" ry="2.59216" transform="matrix(-0.708586 -0.705625 -0.707606 0.706607 656.434 1509.87)" fill="#FCD23F"/>
</g>
<g filter="url(#filter15_d_0_1)">
<ellipse rx="2.76521" ry="2.59216" transform="matrix(-0.708586 -0.705625 -0.707606 0.706607 854.494 1470.26)" fill="#FCD23F"/>
</g>
<g filter="url(#filter16_d_0_1)">
<circle cx="3311.71" cy="1146.35" r="6.18935" transform="rotate(-180 3311.71 1146.35)" fill="#FCD23F"/>
</g>
<g filter="url(#filter17_d_0_1)">
<circle cx="2955.21" cy="1136.45" r="6.18935" transform="rotate(-180 2955.21 1136.45)" fill="#FCD23F"/>
</g>
<g style="mix-blend-mode:lighten" filter="url(#filter18_df_0_1)">
<path d="M2129 1104.36C2129 1096.27 3267.91 240 3276 240C3284.09 240 2158.31 1096.27 2158.31 1104.36C2158.31 1112.44 2151.75 1119 2143.65 1119C2135.56 1119 2129 1112.44 2129 1104.36Z" fill="url(#paint0_linear_0_1)" fill-opacity="0.8" shape-rendering="crispEdges"/>
</g>
<g filter="url(#filter19_d_0_1)">
<circle cx="1708.14" cy="1702.68" r="6.18935" transform="rotate(-87.4632 1708.14 1702.68)" fill="#FCD23F"/>
</g>
<g filter="url(#filter20_d_0_1)">
<circle cx="1351.64" cy="1692.78" r="6.18935" transform="rotate(-87.4632 1351.64 1692.78)" fill="#FCD23F"/>
</g>
<g filter="url(#filter21_d_0_1)">
<circle cx="1549.69" cy="1653.17" r="6.18935" transform="rotate(-87.4632 1549.69 1653.17)" fill="#FCD23F"/>
</g>
<g filter="url(#filter22_d_0_1)">
<circle cx="1131.06" cy="1862.98" r="6.18935" transform="rotate(-87.4632 1131.06 1862.98)" fill="#FCD23F"/>
</g>
<g filter="url(#filter23_d_0_1)">
<circle cx="774.554" cy="1853.08" r="6.18935" transform="rotate(-87.4632 774.554 1853.08)" fill="#FCD23F"/>
</g>
<g filter="url(#filter24_d_0_1)">
<circle cx="972.613" cy="1813.46" r="6.18935" transform="rotate(-87.4632 972.613 1813.46)" fill="#FCD23F"/>
</g>
<g filter="url(#filter25_d_0_1)">
<circle cx="893.842" cy="1455.96" r="6.18935" transform="rotate(-87.4632 893.842 1455.96)" fill="#FCD23F"/>
</g>
<g filter="url(#filter26_d_0_1)">
<circle cx="537.335" cy="1446.06" r="6.18935" transform="rotate(-87.4632 537.335 1446.06)" fill="#FCD23F"/>
</g>
<g filter="url(#filter27_d_0_1)">
<circle cx="735.394" cy="1406.45" r="6.18935" transform="rotate(-87.4632 735.394 1406.45)" fill="#FCD23F"/>
</g>
<g filter="url(#filter28_d_0_1)">
<circle cx="1352.33" cy="-166.752" r="6.18935" transform="rotate(-87.4632 1352.33 -166.752)" fill="#FCD23F"/>
</g>
<g filter="url(#filter29_d_0_1)">
<circle cx="995.823" cy="-176.655" r="6.18935" transform="rotate(-87.4632 995.823 -176.655)" fill="#FCD23F"/>
</g>
<g filter="url(#filter30_d_0_1)">
<circle cx="1193.88" cy="-216.267" r="6.18935" transform="rotate(-87.4632 1193.88 -216.267)" fill="#FCD23F"/>
</g>
<g filter="url(#filter31_d_0_1)">
<circle cx="1688.09" cy="-194.005" r="6.18935" transform="rotate(-87.4632 1688.09 -194.005)" fill="#FCD23F"/>
</g>
<g filter="url(#filter32_d_0_1)">
<circle cx="1331.58" cy="-203.908" r="6.18935" transform="rotate(-87.4632 1331.58 -203.908)" fill="#FCD23F"/>
</g>
<g filter="url(#filter33_d_0_1)">
<circle cx="1529.64" cy="-243.52" r="6.18935" transform="rotate(-87.4632 1529.64 -243.52)" fill="#FCD23F"/>
</g>
<g filter="url(#filter34_d_0_1)">
<ellipse rx="3.61506" ry="3.38879" transform="matrix(-0.709953 -0.70425 -0.706045 0.708167 59.8988 1410.77)" fill="#FCD23F"/>
</g>
<g filter="url(#filter35_d_0_1)">
<ellipse rx="3.61506" ry="3.38879" transform="matrix(-0.709953 -0.70425 -0.706045 0.708167 -98.549 1361.25)" fill="#FCD23F"/>
</g>
<g filter="url(#filter36_d_0_1)">
<ellipse rx="3.61506" ry="3.38879" transform="matrix(-0.709953 -0.70425 -0.706045 0.708167 -209.383 1670.62)" fill="#FCD23F"/>
</g>
<g filter="url(#filter37_d_0_1)">
<circle cx="1451.36" cy="1001.8" r="6.18935" transform="rotate(-87.4632 1451.36 1001.8)" fill="#FCD23F"/>
</g>
<g filter="url(#filter38_d_0_1)">
<circle cx="1094.85" cy="991.894" r="6.18935" transform="rotate(-87.4632 1094.85 991.894)" fill="#FCD23F"/>
</g>
<g filter="url(#filter39_d_0_1)">
<circle cx="1292.91" cy="952.283" r="6.18935" transform="rotate(-87.4632 1292.91 952.283)" fill="#FCD23F"/>
</g>
<g filter="url(#filter40_d_0_1)">
<circle cx="1583.48" cy="536.8" r="6.18935" transform="rotate(-87.4632 1583.48 536.8)" fill="#FCD23F"/>
</g>
<g filter="url(#filter41_d_0_1)">
<circle cx="1226.97" cy="526.898" r="6.18935" transform="rotate(-87.4632 1226.97 526.898)" fill="#FCD23F"/>
</g>
<g filter="url(#filter42_d_0_1)">
<circle cx="1425.03" cy="487.286" r="6.18935" transform="rotate(-87.4632 1425.03 487.286)" fill="#FCD23F"/>
</g>
<g filter="url(#filter43_d_0_1)">
<circle cx="1787.12" cy="974.544" r="6.18935" transform="rotate(-87.4632 1787.12 974.544)" fill="#FCD23F"/>
</g>
<g filter="url(#filter44_d_0_1)">
<circle cx="1430.61" cy="964.641" r="6.18935" transform="rotate(-87.4632 1430.61 964.641)" fill="#FCD23F"/>
</g>
<g filter="url(#filter45_d_0_1)">
<circle cx="1628.67" cy="925.029" r="6.18935" transform="rotate(-87.4632 1628.67 925.029)" fill="#FCD23F"/>
</g>
<g filter="url(#filter46_d_0_1)">
<circle cx="1829.19" cy="1229.19" r="6.18935" transform="rotate(-180 1829.19 1229.19)" fill="#FCD23F"/>
</g>
<g filter="url(#filter47_d_0_1)">
<circle cx="2181.19" cy="1773.19" r="6.18935" transform="rotate(-180 2181.19 1773.19)" fill="#FCD23F"/>
</g>
<g style="mix-blend-mode:lighten" filter="url(#filter48_df_0_1)">
<path d="M2628.75 607.511C2629.17 601.451 2964.81 351.615 2970.88 352.032C2976.95 352.448 2651.15 602.959 2650.73 609.02C2650.31 615.08 2645.06 619.656 2638.99 619.239C2632.92 618.823 2628.34 613.572 2628.75 607.511Z" fill="#FCD23F" fill-opacity="0.5" shape-rendering="crispEdges"/>
</g>
<g filter="url(#filter49_d_0_1)">
<path d="M70.4947 1663.14C46.9437 1659.06 14.3125 1657.02 -7.43569 1667.18C-7.7838 1667.34 -8 1667.69 -8 1668.08V1828.8C-8 1829.35 -7.55229 1829.8 -7 1829.8H1725H1866.1C1867.34 1829.8 1867.48 1828 1866.26 1827.81L1745.66 1808.99C1740.56 1808.2 1735.41 1807.8 1730.25 1807.8H1592L1523.1 1798.96C1517.05 1798.19 1510.84 1798.4 1504.88 1797.06C1503.06 1796.65 1501.21 1796.07 1499.34 1795.28C1478.4 1786.41 1463.23 1766.55 1440.69 1763.54C1416.54 1760.32 1385.11 1758.63 1358.41 1761.55C1322.31 1765.49 1283.48 1783.8 1247.16 1783.8H1149.42C1124.09 1783.8 1099.7 1774.18 1081.18 1756.9L1074.07 1750.26C1058.43 1735.67 1038.58 1726.28 1017.29 1724.36C975.473 1720.57 916.559 1718.03 844.043 1727.01C795.244 1733.05 733.951 1767.92 684.876 1771C676.757 1771.52 667.822 1771.8 658 1771.8H647.971C633.496 1771.8 619.194 1768.65 606.052 1762.59L410.705 1672.39C403.593 1669.11 396.149 1666.63 388.425 1665.32C351.386 1659.08 285.947 1652.69 229.65 1660.87C208.837 1663.9 191.668 1677.71 173.51 1688.32C165.088 1693.25 155.293 1697.04 144.792 1697.82C132.271 1698.75 120.935 1691.81 111.07 1684.04L105.704 1679.81C95.3372 1671.65 83.4961 1665.4 70.4947 1663.14Z" fill="#8A8A97"/>
<path d="M78 1673.5C78 1678.19 58.9721 1682 35.5 1682C12.0279 1682 -7 1678.19 -7 1673.5C-7 1668.81 12.0279 1668 35.5 1668C58.9721 1668 78 1668.81 78 1673.5Z" fill="#797989"/>
<path d="M386 1688.46C386 1695.92 346.496 1706.96 299 1706.96C251.504 1706.96 214 1695.92 214 1688.46C214 1681 246.504 1678.96 294 1678.96C341.496 1678.96 386 1681 386 1688.46Z" fill="#797989"/>
<path d="M636 1816C636 1832.84 540 1833 425 1791.73C339 1770 242 1738.59 242 1721.75C242 1704.9 339 1735.75 416 1688.75C516 1729 605 1754 636 1816Z" fill="#7C7C88" fill-opacity="0.7"/>
<path d="M1047 1758.5C1047 1771.48 987.625 1783 915 1783C842.375 1783 784 1771.48 784 1758.5C784 1745.52 863.375 1741 936 1741C1008.63 1741 1047 1745.52 1047 1758.5Z" fill="#797989"/>
<ellipse cx="1395" cy="1773" rx="60" ry="3" fill="#797989"/>
<path d="M400 1674.08C400 1677.42 357 1674.08 309.048 1674.08C216.19 1669.86 216 1684.55 200 1684.55C206.667 1662 256.186 1662 309.048 1662C361.909 1662 400 1670.75 400 1674.08Z" fill="#BFBAC7" fill-opacity="0.6"/>
<path opacity="0.5" d="M764 1756.5C764 1760.09 767.622 1780 732 1780C696.378 1780 619.5 1783.5 627.5 1780C620 1773.5 661.5 1777 691.5 1774.5C727.122 1774.5 764 1752.91 764 1756.5Z" fill="#C4C4C4" fill-opacity="0.7"/>
<path d="M588 1761.26C588 1765.12 575.464 1768.26 560 1768.26C544.536 1768.26 532 1765.12 532 1761.26C532 1757.39 537.036 1750.76 552.5 1750.76C567.964 1750.76 588 1757.39 588 1761.26Z" fill="#C4C4C4" fill-opacity="0.2"/>
<path d="M704 1809C704 1811.76 686.763 1814 665.5 1814C644.237 1814 617.5 1816.76 617.5 1814C617.5 1811.24 644.237 1804 665.5 1804C686.763 1804 704 1806.24 704 1809Z" fill="#C4C4C4" fill-opacity="0.3"/>
<path d="M317.261 1785.98C286.933 1784.75 290.944 1743.69 316.945 1728.03C344.303 1711.55 370.737 1701.56 389.534 1696.35C400.962 1693.18 413.057 1693.33 424.322 1697.03C460.612 1708.98 490.702 1733.45 505.617 1756.8C511.471 1765.97 513.816 1777.37 509.804 1787.48C507.756 1792.64 504.83 1797.24 501.336 1800.3C495.271 1805.62 486.037 1805.65 478.592 1808.75C470.411 1812.16 461.356 1812.87 452.744 1810.78L381 1793.35L322.699 1786.55C319.569 1786.18 320.41 1786.11 317.261 1785.98Z" fill="#656574" fill-opacity="0.5"/>
<path d="M177.348 1714.28C166.235 1713.86 163.425 1698.65 173.652 1694.28C176.415 1693.1 179.588 1693.13 182.188 1694.64C188.763 1698.45 192.489 1702.46 194.452 1705.99C197.15 1710.86 192.179 1714.85 186.622 1714.64L177.348 1714.28Z" fill="#656574" fill-opacity="0.5"/>
<path d="M244.845 1773.22C127.567 1755.88 112.52 1740.01 120.432 1734L122.92 1731.7C124.424 1728.8 126.53 1721.7 122.92 1716.5C122.502 1715.32 120.835 1712.52 116.932 1709.02C114.376 1706.72 110.861 1704.12 106.111 1701.49C103.712 1700.16 100.997 1698.82 97.9321 1697.5C90.2655 1696.13 70.4321 1698.56 48.9321 1708.5C23.3298 1717.83 3.78905 1746.39 23.6884 1765.01C29.0474 1770.02 34.4129 1773.77 38.4321 1776C113.993 1813.43 199.015 1816.53 245.74 1812.35C253.468 1811.66 255.343 1799.5 256.713 1790.45L256.718 1790.42C256.713 1780 252.678 1774.38 244.845 1773.22Z" fill="#727280" fill-opacity="0.5"/>
<ellipse cx="729" cy="1792.5" rx="32" ry="7.5" fill="#757581" fill-opacity="0.6"/>
<path d="M765.562 1776.48C756.549 1786.04 726.019 1804.65 676 1802.63C680.788 1804.88 698.813 1814.1 732.61 1833H779.08C780.77 1821.19 794.12 1797.57 834 1797.57C819.355 1787.73 785.164 1769.73 765.562 1776.48Z" fill="#6D6D77" fill-opacity="0.2"/>
<path d="M1053 1743C1042.5 1748 992.829 1735.67 916.75 1735.67C802.454 1731.96 782.99 1757.32 777.5 1755C777.5 1751.41 792 1727.5 916.75 1725C992.813 1723.48 1043.5 1722 1053 1743Z" fill="#D6D6D6" fill-opacity="0.5"/>
<path d="M1057.5 1769.5C1057.5 1771.33 1041.52 1785.67 1016.45 1795.28C1003.41 1800.28 987.896 1804 970.897 1804C921.248 1804 881 1801.74 881 1798.96C881 1793.91 921.248 1793.91 970.897 1793.91C991.349 1793.91 1009.65 1789.3 1024.09 1784.06C1044.72 1776.59 1057.5 1767.86 1057.5 1769.5Z" fill="#696975" fill-opacity="0.6"/>
<path d="M1057.5 1769.5C1057.5 1771.33 1041.52 1785.67 1016.45 1795.28C1013.59 1800.43 1011.33 1806.01 1010 1812C1025.83 1817.5 1067.6 1827.1 1108 1821.5C1103.17 1807.17 1090 1769.5 1057.5 1757.5C1049.2 1761.39 1035.04 1770.58 1024.09 1784.06C1044.72 1776.59 1057.5 1767.86 1057.5 1769.5Z" fill="#71717D" fill-opacity="0.4"/>
<path d="M1342.5 1787.5L1348 1805.5L1387.5 1801L1449.5 1814L1504 1805.5L1475 1778.5C1442.6 1785.7 1373.17 1787.5 1342.5 1787.5Z" fill="#737382" fill-opacity="0.4"/>
<path d="M1583 1824.5C1583 1828.09 1569.25 1821.5 1556 1821.5C1542.75 1821.5 1535 1821.59 1535 1818C1535 1814.41 1545.75 1811.5 1559 1811.5C1572.25 1811.5 1583 1820.91 1583 1824.5Z" fill="#C4C4C4" fill-opacity="0.6"/>
<path d="M1627.5 1818L1708.51 1814.92C1715.61 1814.65 1722.57 1816.9 1728.16 1821.28L1732.58 1824.75C1734.16 1825.99 1733.14 1828.52 1731.15 1828.32L1627.5 1818Z" fill="#C4C4C4" fill-opacity="0.6"/>
<path d="M1202 1799L1308.24 1802.85C1309.94 1802.91 1310.74 1804.87 1309.46 1805.97C1300.68 1813.51 1287.56 1817.37 1278.99 1818.87C1276.59 1819.29 1274.5 1817.39 1274.5 1814.96C1274.5 1812.96 1273.06 1811.25 1271.09 1810.91L1202 1799Z" fill="#B1B1B6" fill-opacity="0.1"/>
<path d="M86.5 1677C86.5 1680 74.2482 1690.5 50.5 1690.5C26.7518 1690.5 2 1689.16 2 1687.5C2 1685.84 20.7518 1685 44.5 1685C68.2482 1685 86.5 1674 86.5 1677Z" fill="#4D4B50" fill-opacity="0.3"/>
<path d="M1011 1769C1011 1774.52 978 1779 932 1779C872 1784 819 1774.52 819 1769C819 1763.48 888.37 1759 932 1759C975.63 1759 1011 1763.48 1011 1769Z" fill="#656576" fill-opacity="0.2"/>
<ellipse cx="298.5" cy="1698.5" rx="56.5" ry="8.5" fill="#656574" fill-opacity="0.2"/>
</g>
<g filter="url(#filter50_df_0_1)">
<path d="M182.649 548.699C151.838 575.232 95.5172 615.328 44.7519 628.923C20.2098 635.496 -4 655.891 -4 681.298V852C-4 874.091 13.8897 892.024 35.9767 891.583C118.385 889.938 232 883.035 232 864V799.557C232 774.725 254.553 755.741 279.379 755.194C308.046 754.562 340.919 749.238 364.747 733.396C369.705 730.1 374.91 727.181 380.757 726.055C449.957 712.734 622.353 723.064 829.419 862.259C831.119 863.402 832.929 864.419 834.75 865.357C881.592 889.488 920.018 962.144 716 1072C677.333 1092 570.4 1100.8 452 976C425.99 948.689 367.76 928.99 338.184 1061.66C336.687 1068.37 333.747 1074.77 328.935 1079.68C279.713 1129.97 160.137 1192.3 -0.934689 1124.34C-29.6192 1112.23 -64 1131.71 -64 1162.84V1608C-64 1630.09 -46.0914 1648 -24 1648H-9.42212C11.6364 1648 28.9492 1631.65 32.0499 1610.82C40.4885 1554.13 61.0485 1485.87 100.703 1493.76C105.628 1494.74 110.554 1496.05 115.575 1496.07C205.696 1496.5 372 1481.32 372 1416C378.583 1351.49 424.426 1227.96 554.97 1243.34C558.267 1243.73 561.456 1244.62 564.563 1245.8C637.81 1273.41 864.705 1304.56 1228 1220C1279.56 1204.14 1370.44 1125.35 1325.19 936.862C1324.43 933.682 1323.87 930.339 1324.42 927.115C1329.79 895.479 1388.4 850.725 1591.03 890.216C1596.86 891.351 1602.43 893.787 1607.1 897.446C1708.03 976.48 1856.91 1163.36 1698.66 1325.31C1696.94 1327.07 1695.32 1329.01 1693.9 1331.02C1663.37 1374.1 1603.24 1429.16 1577.3 1348.76C1573.2 1336.05 1564.66 1324.8 1551.82 1321.17C1501.64 1306.96 1401.31 1294.92 1280 1328C1220.97 1341.12 1113.16 1406.63 1146.25 1564.16C1147.33 1569.29 1149.63 1574.12 1152.37 1578.59C1172.03 1610.65 1187.16 1670.03 1153.05 1734.71C1135.05 1768.85 1154.95 1824 1193.55 1824H1330.59C1362.27 1824 1381.38 1788.93 1364.2 1762.31L1326.44 1703.78C1324.82 1701.27 1323.42 1698.61 1322.68 1695.72C1315.12 1666.44 1329.01 1609.76 1434.91 1577.74C1447.93 1573.8 1457.9 1563.44 1466.96 1553.31C1489.87 1527.7 1543.34 1517.95 1640 1612C1667.18 1632.62 1700.03 1679.99 1679.35 1740.77C1667.59 1775.36 1686.71 1824 1723.24 1824H3173.88C3185.4 1824 3196.47 1819.14 3203.39 1809.94C3257.53 1737.95 3317.75 1582.17 3200.79 1427.23C3195.26 1419.91 3191.92 1411.03 3192.31 1401.86C3197.34 1284.14 3265.63 1089.97 3503.68 1112.78C3528.81 1115.19 3552 1096.45 3552 1071.21V36C3552 13.9086 3534.09 -4 3512 -4H3305.79C3272.5 -4 3253.1 34.7383 3271.8 62.2716C3333.13 152.545 3415.06 291.957 3452 420C3466.67 461.333 3475.2 585.6 3392 752C3375.53 779.88 3326.05 829.924 3255.24 818.327C3247.85 817.117 3241.3 813.101 3235.85 807.968C3194.92 769.419 3110.87 714.566 3042.61 750.574C3040.87 751.491 3039.13 752.329 3037.3 753.055C2967.3 780.883 2838.73 866.482 2864 996C2885.24 1065.03 2914.94 1255.11 2864.67 1465.21C2864.23 1467.06 2863.68 1468.83 2862.94 1470.58C2837.13 1531.66 2736.22 1658.99 2528 1700C2452.85 1717.14 2263.48 1730.89 2101.46 1650.74C2097.84 1648.95 2094.54 1646.6 2091.71 1643.72C2033.15 1584.13 1950.7 1452.32 2060 1368C2165.33 1306.67 2388 1125.6 2436 892C2469.12 776.729 2456.96 522.421 2145.94 421.888C2142.08 420.642 2138.05 419.995 2134 420.015C1991.49 420.712 1694.65 446.195 1600 544C1552.22 589.121 1400.63 693.418 1175.18 751.188C1173.08 751.728 1170.95 752.099 1168.78 752.248C1120.84 755.544 1013.36 745.907 938.356 682.034C936.782 680.694 935.395 679.268 934.05 677.698C884.247 619.55 733.211 491.041 508.119 421.268C505.399 420.424 502.634 419.877 499.793 419.676C419.55 414.003 254.123 430.153 191.484 537.719C189.101 541.812 186.237 545.609 182.649 548.699Z" fill="#80B9CB" fill-opacity="0.05" shape-rendering="crispEdges"/>
</g>
<path d="M1158.12 1070.1C1120.52 977.748 1164.91 872.397 1257.27 834.796L1321.44 808.67C1413.86 771.042 1519.29 815.463 1556.92 907.887C1591.08 991.813 1557.8 1088.07 1479.1 1132.97L1452.47 1148.15C1436.98 1156.99 1420.39 1163.76 1403.13 1168.28L1371.14 1176.67C1283.45 1199.67 1192.3 1154.07 1158.12 1070.1Z" fill="#EDEDED"/>
<path fill-rule="evenodd" clip-rule="evenodd" d="M1172.01 1166.23L1226.35 1120.23C1253.42 1097.31 1256.79 1056.77 1233.87 1029.7C1210.95 1002.62 1170.41 999.252 1143.34 1022.17L1101.4 1057.67C1116.51 1069.62 1151.78 1108.05 1172.01 1166.23ZM1076.8 1078.5L1059.47 1093.17C1032.39 1116.1 1029.03 1156.63 1051.95 1183.71C1074.87 1210.78 1115.41 1214.15 1142.48 1191.23L1149.2 1185.54C1121.84 1130.41 1089.54 1091.21 1076.8 1078.5Z" fill="#E4E4E4"/>
<path d="M1172.01 1166.23C1151.78 1108.05 1116.51 1069.62 1101.4 1057.67L1076.8 1078.5C1089.54 1091.21 1121.84 1130.41 1149.2 1185.54L1172.01 1166.23Z" fill="#39568D"/>
<path d="M1080.69 1147.96C1088.94 1171.08 1107.54 1186.78 1100.27 1189.37C1093 1191.97 1065.44 1186.35 1057.19 1163.23C1048.94 1140.11 1064.91 1106.07 1072.18 1103.48C1079.45 1100.88 1072.45 1124.84 1080.69 1147.96Z" fill="#F7F7F7"/>
<path fill-rule="evenodd" clip-rule="evenodd" d="M1626.36 990.47L1550.11 995.096C1514.7 997.244 1484.25 970.278 1482.1 934.866C1479.95 899.454 1506.92 869.006 1542.33 866.857L1601.74 863.254C1598.93 882.334 1599.92 934.489 1626.36 990.47ZM1635.15 861.227L1661.15 859.65C1696.56 857.502 1727.01 884.467 1729.16 919.879C1731.31 955.291 1704.34 985.74 1668.93 987.888L1657.34 988.591C1638.44 929.871 1634.67 879.215 1635.15 861.227Z" fill="#E4E4E4"/>
<path d="M1626.36 990.47C1599.92 934.489 1598.93 882.334 1601.74 863.254L1635.15 861.227C1634.67 879.215 1638.44 929.871 1657.34 988.591L1626.36 990.47Z" fill="#39568D"/>
<path d="M1683.68 913.911C1693.7 936.321 1691.11 960.523 1698.16 957.372C1705.2 954.222 1721.24 931.111 1711.22 908.701C1701.2 886.291 1666.13 872.731 1659.08 875.881C1652.04 879.032 1673.66 891.501 1683.68 913.911Z" fill="#F7F7F7"/>
<circle cx="1270.05" cy="776.112" r="211.589" transform="rotate(-22.1526 1270.05 776.112)" fill="#EDEDED"/>
<path d="M1394.96 737.921L1391.67 740.21C1381.53 747.279 1374.66 758.132 1372.61 770.323L1366.92 804.15C1366.07 809.163 1364.76 814.083 1362.98 818.846L1351.41 849.84C1348.78 856.901 1345.16 863.555 1340.66 869.604L1313.32 906.381C1312.54 907.435 1311.65 908.408 1310.67 909.286C1298.67 920.077 1303.97 939.928 1319.75 943.302L1321.03 943.574C1325.03 944.43 1329.2 944.062 1333 942.518L1360.22 931.434C1369.35 927.716 1377.72 922.342 1384.9 915.583L1415.39 886.872C1422.85 879.842 1428.9 871.442 1433.19 862.13L1447.94 830.159C1451.91 821.538 1454.32 812.278 1455.05 802.813L1457.31 773.583C1458.48 758.4 1450.87 743.882 1437.72 736.204C1424.35 728.396 1407.66 729.066 1394.96 737.921Z" fill="#DFDFDF"/>
<path d="M1166.32 619.411C1128.91 647.43 1083.98 706.172 1089.28 799.005C1090.33 817.523 1109.73 828.138 1126.91 821.144C1130.23 819.791 1133.28 817.839 1135.89 815.383L1163.08 789.865L1243.13 707.699C1256.52 693.949 1261.91 674.279 1257.39 655.622C1252.83 636.797 1238.83 621.685 1220.41 615.698L1214.36 613.732C1198.07 608.438 1180.03 609.143 1166.32 619.411Z" fill="white"/>
<path d="M1423.35 794.819C1426.24 754.775 1415.15 719.466 1393.61 686.078C1384.25 671.589 1370.45 651.525 1356.07 641.765" stroke="white" stroke-width="40" stroke-linecap="round"/>
<path d="M1288.92 602.885L1303.75 606.78" stroke="white" stroke-width="20" stroke-linecap="round"/>
<path d="M1424.03 831.337C1431.08 839.827 1427.72 880.239 1411.27 893.914C1394.81 907.589 1375.75 911.792 1368.7 903.303C1361.64 894.814 1373.59 882.049 1390.04 868.374C1406.5 854.7 1416.98 822.848 1424.03 831.337Z" fill="white"/>
<circle cx="1269.63" cy="777.111" r="212.356" transform="rotate(-22.1526 1269.63 777.111)" stroke="#090909" stroke-width="3"/>
<ellipse cx="1269.34" cy="776.401" rx="135.693" ry="136.46" transform="rotate(-22.1526 1269.34 776.401)" fill="#5162FF"/>
<path d="M1393.63 725.8C1421.74 794.842 1388.86 873.455 1320.23 901.398C1251.59 929.341 1173.16 896.043 1145.05 827.002C1116.94 757.96 1149.81 679.347 1218.45 651.404C1287.08 623.461 1365.52 656.759 1393.63 725.8Z" stroke="black" stroke-opacity="0.8" stroke-width="3"/>
<path fill-rule="evenodd" clip-rule="evenodd" d="M1225.52 663.664C1224.91 662.757 1223.5 663.333 1223.7 664.404L1235.63 727.692C1236.37 731.61 1232.45 734.774 1228.78 733.227L1168.85 707.992C1167.85 707.573 1166.99 708.81 1167.73 709.598L1216.85 762.012C1219.42 764.751 1218.16 769.235 1214.55 770.246L1146.05 789.411C1145 789.704 1145.11 791.227 1146.19 791.366L1210.07 799.578C1214.02 800.086 1215.82 804.79 1213.21 807.806L1170.7 857.002C1169.99 857.819 1170.9 859.02 1171.88 858.561L1236.91 828.045C1240.3 826.45 1244.18 829.028 1244.03 832.778L1241.09 903.846C1241.04 904.935 1242.52 905.3 1242.99 904.315L1270.54 846.101C1272.24 842.498 1277.27 842.242 1279.34 845.653L1312.98 901.292C1313.54 902.215 1314.97 901.721 1314.83 900.65L1305.9 829.375C1305.44 825.651 1309.09 822.76 1312.61 824.066L1379.29 848.824C1380.31 849.203 1381.11 847.907 1380.32 847.159L1333.47 802.969C1330.57 800.234 1331.88 795.371 1335.76 794.463L1399.08 779.654C1400.13 779.408 1400.1 777.901 1399.04 777.698L1328.49 764.165C1324.81 763.458 1323.18 759.093 1325.51 756.151L1369.66 700.384C1370.34 699.529 1369.36 698.363 1368.4 698.886L1311.9 729.789C1308.4 731.701 1304.18 728.952 1304.51 724.98L1310 660.188C1310.09 659.113 1308.64 658.676 1308.12 659.621L1273.45 722.532C1271.64 725.819 1266.99 726.013 1264.91 722.888L1225.52 663.664Z" fill="white" fill-opacity="0.15"/>
<circle cx="1271.36" cy="781.371" r="86.6289" transform="rotate(-22.1526 1271.36 781.371)" fill="#090909"/>
<path fill-rule="evenodd" clip-rule="evenodd" d="M1256.31 1263.73C1232.01 1217.02 1212.52 1167.61 1222.54 1146.02C1252.17 1136.17 1330.2 1123.44 1405.28 1151.3C1411.72 1156.51 1423.02 1172.73 1433.07 1203.72C1411.38 1220.96 1345.67 1257.1 1256.31 1263.73ZM1278.57 1303.8C1281.87 1309.4 1285.12 1314.8 1288.28 1319.92C1296.86 1333.85 1312.12 1342.57 1328.42 1341.18C1381.42 1336.66 1417.6 1314.81 1437.09 1296.16C1445.76 1287.86 1448.58 1275.55 1446.77 1263.68C1445.33 1254.22 1443.71 1245.43 1441.97 1237.28C1385.73 1282.49 1309.6 1300.47 1278.57 1303.8Z" fill="#D8D8D8"/>
<path d="M1433.07 1203.72C1411.38 1220.96 1345.67 1257.1 1256.31 1263.73C1263.52 1277.59 1271.16 1291.22 1278.57 1303.8C1309.6 1300.47 1385.73 1282.49 1441.97 1237.28C1439.25 1224.57 1436.22 1213.42 1433.07 1203.72Z" fill="#3258A2"/>
<path fill-rule="evenodd" clip-rule="evenodd" d="M1256.31 1263.73C1232.01 1217.02 1212.52 1167.61 1222.54 1146.02C1252.17 1136.17 1330.2 1123.44 1405.28 1151.3C1411.72 1156.51 1423.02 1172.73 1433.07 1203.72C1411.38 1220.96 1345.67 1257.1 1256.31 1263.73ZM1278.57 1303.8C1283.76 1312.62 1288.84 1320.93 1293.6 1328.45C1298.97 1336.96 1308.32 1342.23 1318.37 1341.81C1382 1339.16 1423.18 1311.7 1442.1 1291.04C1447.09 1285.6 1448.81 1278.08 1447.8 1270.77C1446.12 1258.57 1444.14 1247.43 1441.97 1237.28C1385.73 1282.49 1309.6 1300.47 1278.57 1303.8Z" fill="#D8D8D8"/>
<path fill-rule="evenodd" clip-rule="evenodd" d="M1620.04 1114.32C1604.8 1063.92 1584.24 1014.95 1561.99 1006.5C1533.9 1020.14 1469.17 1065.53 1434.89 1137.91C1433.92 1146.14 1437.18 1165.64 1451.62 1194.84C1479.19 1192.03 1551.46 1171.99 1620.04 1114.32ZM1632.1 1158.55C1633.65 1164.86 1635.09 1170.99 1636.41 1176.86C1640 1192.82 1635.16 1209.72 1622.52 1220.11C1581.44 1253.89 1540.29 1263.53 1513.31 1263.8C1501.31 1263.92 1490.69 1257.07 1483.7 1247.32C1478.12 1239.54 1473.14 1232.12 1468.7 1225.07C1540.52 1218.14 1607.56 1177.83 1632.1 1158.55Z" fill="#D8D8D8"/>
<path d="M1451.62 1194.84C1479.19 1192.03 1551.46 1171.99 1620.04 1114.32C1624.56 1129.28 1628.61 1144.36 1632.1 1158.55C1607.56 1177.83 1540.52 1218.14 1468.7 1225.07C1461.77 1214.08 1456.15 1203.98 1451.62 1194.84Z" fill="#3258A2"/>
<path fill-rule="evenodd" clip-rule="evenodd" d="M1620.04 1114.32C1604.8 1063.92 1584.24 1014.95 1561.99 1006.5C1533.9 1020.14 1469.17 1065.53 1434.89 1137.91C1433.92 1146.14 1437.18 1165.64 1451.62 1194.84C1479.19 1192.03 1551.46 1171.99 1620.04 1114.32ZM1632.1 1158.55C1634.54 1168.48 1636.7 1177.98 1638.56 1186.68C1640.66 1196.52 1637.65 1206.82 1630.16 1213.55C1582.77 1256.09 1534.12 1265.2 1506.15 1263.64C1498.78 1263.23 1492.3 1259.05 1487.91 1253.11C1480.6 1243.21 1474.23 1233.85 1468.7 1225.07C1540.52 1218.14 1607.56 1177.83 1632.1 1158.55Z" fill="#D8D8D8"/>
<path fill-rule="evenodd" clip-rule="evenodd" d="M1163.28 515.491C1043.17 564.392 974.951 686.598 989.26 809.427C959.833 821.407 963.256 858.08 976.862 879.541L999.586 935.357C1017.64 958.816 1035.2 950.515 1041.72 943.432C1116.34 1045.76 1253.56 1088.24 1376.14 1038.34C1498.72 988.43 1567.25 862.18 1549.18 736.834C1550.37 736.347 1551.66 736.016 1553 735.673C1560.26 733.807 1569.05 731.545 1573.69 701.624L1556.76 660.047L1537.52 612.774C1536.12 611.873 1534.7 610.926 1533.26 609.968C1520.86 601.711 1507.2 592.608 1493.12 604.291C1417.57 506.397 1283.39 466.589 1163.28 515.491ZM1349.35 970.898C1456.93 927.1 1508.63 804.387 1464.83 696.81C1421.04 589.232 1298.32 537.529 1190.75 581.326C1083.17 625.124 1031.47 747.837 1075.26 855.414C1119.06 962.992 1241.77 1014.7 1349.35 970.898Z" fill="#D1D1D1"/>
<path fill-rule="evenodd" clip-rule="evenodd" d="M1361.07 1001.32C1485.32 950.731 1545.04 809.001 1494.45 684.752C1443.87 560.504 1302.14 500.788 1177.89 551.372C1053.64 601.957 993.923 743.688 1044.51 867.936C1095.09 992.184 1236.82 1051.9 1361.07 1001.32ZM1351.47 978.541C1463.54 932.915 1517.41 805.076 1471.78 693.006C1426.15 580.935 1298.32 527.072 1186.25 572.699C1074.17 618.326 1020.31 746.165 1065.94 858.235C1111.57 970.305 1239.4 1024.17 1351.47 978.541Z" fill="#20345A"/>
<path d="M1181.55 525.314C1186.91 529.754 1117.39 567.126 1076.85 616.008C1036.3 664.89 1009.96 744.21 1004.61 739.769C999.258 735.329 1016.91 648.811 1057.46 599.929C1098.01 551.047 1176.2 520.873 1181.55 525.314Z" fill="white" fill-opacity="0.5"/>
<path fill-rule="evenodd" clip-rule="evenodd" d="M1328.27 1071.77C1319.03 1075.53 1314.58 1086.08 1318.35 1095.33L1321.38 1102.79C1326.83 1116.16 1342.08 1122.59 1355.44 1117.14L1458.98 1074.99L1328.27 1071.77Z" fill="#11122F" fill-opacity="0.5"/>
<path d="M1458.98 1074.99C1467.7 1071.44 1471.89 1061.5 1468.34 1052.78L1464.91 1044.36C1459.47 1030.99 1444.22 1024.56 1430.85 1030.01L1328.27 1071.77L1458.98 1074.99Z" fill="#11122F" fill-opacity="0.5"/>
<path fill-rule="evenodd" clip-rule="evenodd" d="M1326.92 1074.97C1317.67 1078.74 1313.23 1089.29 1316.99 1098.54L1320.03 1106C1325.47 1119.37 1340.72 1125.79 1354.09 1120.35L1457.63 1078.2L1326.92 1074.97Z" fill="#E2E2E2"/>
<path d="M1457.63 1078.2C1466.34 1074.65 1470.54 1064.7 1466.99 1055.98L1463.56 1047.56C1458.12 1034.2 1442.87 1027.77 1429.5 1033.21L1326.92 1074.97L1457.63 1078.2Z" fill="#EDEDED"/>
<path d="M1404.18 1178.97C1414.62 1204.6 1369.72 1224.2 1336.69 1237.65C1303.66 1251.1 1261.41 1249.04 1242.25 1181.82C1231.81 1156.18 1294.06 1208.53 1327.09 1195.08C1360.12 1181.64 1393.75 1153.33 1404.18 1178.97Z" fill="#EDEDED"/>
<g opacity="0.4" filter="url(#filter51_f_0_1)">
<path d="M509.893 1846.3C488.594 1844.95 472.998 1825.68 476.111 1804.57C479.051 1784.64 497.591 1770.86 517.523 1773.8L721.416 1803.87C732.6 1805.52 742.054 1813.01 746.214 1823.52L749.349 1831.45C752.976 1840.62 749.742 1851.08 741.571 1856.6C737.719 1859.2 733.112 1860.45 728.472 1860.16L509.893 1846.3Z" fill="#060606"/>
<path fill-rule="evenodd" clip-rule="evenodd" d="M705.343 1806.51L680.834 1809.89C669.473 1811.46 645.982 1810.64 628.364 1808.06C610.747 1805.47 605.676 1802.11 617.037 1800.54L636.137 1797.91C644.241 1799.46 669.427 1803.35 705.343 1806.51ZM646.866 1796.43L655.238 1795.27C666.599 1793.71 690.09 1794.53 707.708 1797.11C725.325 1799.69 730.396 1803.06 719.035 1804.62L715.291 1805.14C680.712 1801.47 655.267 1797.8 646.866 1796.43Z" fill="#060606"/>
<path d="M705.343 1806.51C669.427 1803.35 644.241 1799.46 636.137 1797.91L646.866 1796.43C655.267 1797.8 680.712 1801.47 715.291 1805.14L705.343 1806.51Z" fill="#060606"/>
<ellipse cx="440.099" cy="1784.75" rx="42.0229" ry="162.808" transform="rotate(-81.6116 440.099 1784.75)" fill="#060606"/>
<path d="M477.791 1753.6L459.617 1754.5C455.009 1754.73 452.375 1759.86 454.874 1763.74C455.632 1764.92 456.78 1765.79 458.116 1766.21L494.798 1777.74L516.643 1786.45C520.843 1788.13 524.894 1790.16 528.751 1792.52L542.933 1801.19C544.195 1801.96 545.368 1802.87 546.432 1803.9L547.479 1804.91C551.693 1808.99 557.666 1810.68 563.39 1809.42L569.647 1808.04C572.976 1807.31 575.506 1804.6 576.004 1801.23C576.403 1798.51 575.423 1795.78 573.39 1793.94L562.902 1784.46C560.156 1781.97 557.03 1779.94 553.643 1778.45L526.287 1766.38L483.089 1754.2C481.367 1753.71 479.578 1753.51 477.791 1753.6Z" fill="#060606"/>
<path d="M315.815 1784.78C333.632 1795.03 365.667 1807.33 419.987 1818.72C422.892 1819.32 425.751 1817.36 426.184 1814.43C426.436 1812.72 425.821 1811 424.544 1809.84L416.07 1802.14L391.301 1782.11C380.985 1773.76 368.755 1768.11 355.713 1765.67L334.272 1761.66C330.891 1761.02 327.428 1760.96 324.027 1761.48C308.299 1763.86 302.027 1776.85 315.815 1784.78Z" fill="#060606"/>
<path d="M501.199 1766.68C474.314 1759.14 446.326 1754.4 416.388 1751.47C403.395 1750.2 385.137 1748.55 373.847 1748.82" stroke="white" stroke-width="40" stroke-linecap="round"/>
<path d="M325.784 1751.28L333.142 1749.9" stroke="white" stroke-width="20" stroke-linecap="round"/>
<path d="M526.762 1773.08C534.869 1773.61 561.864 1781.28 566.191 1786.01C570.517 1790.74 567.453 1794.15 559.347 1793.62C551.24 1793.1 546.129 1789.16 541.802 1784.42C537.476 1779.69 518.655 1772.56 526.762 1773.08Z" fill="#060606"/>
<ellipse cx="440.661" cy="1784.99" rx="42.1751" ry="163.398" transform="rotate(-81.6116 440.661 1784.99)" fill="#060606" stroke="#090909" stroke-width="3"/>
<ellipse cx="440.077" cy="1784.91" rx="26.9494" ry="104.999" transform="rotate(-81.6116 440.077 1784.91)" fill="#060606"/>
<path d="M443.79 1759.73C472.387 1763.95 497.788 1770.73 515.728 1778.27C524.709 1782.04 531.739 1785.97 536.364 1789.8C541.068 1793.69 542.89 1797.15 542.469 1800C542.049 1802.86 539.307 1805.64 533.677 1808.01C528.144 1810.35 520.279 1812.08 510.592 1813.1C491.24 1815.13 464.962 1814.3 436.365 1810.08C407.767 1805.87 382.367 1799.08 364.427 1791.54C355.446 1787.77 348.415 1783.84 343.791 1780.01C339.086 1776.12 337.265 1772.66 337.685 1769.81C338.106 1766.96 340.848 1764.17 346.478 1761.8C352.011 1759.46 359.875 1757.73 369.563 1756.71C388.914 1754.68 415.193 1755.51 443.79 1759.73Z" stroke="black" stroke-opacity="0.8" stroke-width="3"/>
<path fill-rule="evenodd" clip-rule="evenodd" d="M383.132 1764.54C388.126 1766.98 386 1774.53 380.465 1774.01L344.369 1770.6L370.693 1775.91C376.301 1777.04 375.924 1785.17 370.236 1785.78L364.317 1786.41C363.322 1786.52 364.746 1787.34 366.03 1787.4L410.986 1789.55C414.813 1789.73 417.021 1793.97 414.975 1797.21L411.25 1803.11C410.759 1803.89 411.49 1804.86 412.374 1804.6L438.971 1796.9C440.432 1796.48 442.006 1796.74 443.248 1797.62L464.05 1812.32C464.763 1812.82 466.512 1813.08 466.491 1812.68L466.021 1803.86C465.841 1800.46 469.032 1797.88 472.317 1798.76L510.76 1809.14C511.95 1809.46 512.554 1807.76 511.429 1807.26C506.511 1805.06 508.503 1797.66 513.861 1798.23L537.294 1800.71C538.642 1800.85 538.152 1800.14 536.68 1799.82L510.487 1794.08C505.007 1792.88 505.354 1784.96 510.918 1784.24L514.899 1783.73C516.121 1783.57 516.033 1781.77 514.801 1781.74L482.385 1780.79C478.212 1780.67 476.018 1775.79 478.695 1772.58L482.261 1768.32C482.56 1767.96 480.629 1767.27 479.846 1767.46L448.608 1774.83C447.282 1775.14 445.885 1774.9 444.742 1774.16L419.294 1757.68C418.521 1757.18 417.541 1757.9 417.786 1758.78L419.238 1764.02C420.28 1767.78 416.805 1771.23 413.052 1770.16L373.706 1758.97C372.386 1758.6 371.621 1758.91 372.638 1759.4L383.132 1764.54Z" fill="#060606"/>
<ellipse cx="444.163" cy="1785.51" rx="17.205" ry="66.6568" transform="rotate(-81.6116 444.163 1785.51)" fill="#060606"/>
<path fill-rule="evenodd" clip-rule="evenodd" d="M774.196 1873.85C734.156 1868.82 693.746 1862.76 681.849 1857.89C684.213 1852.67 699.62 1841.17 742.337 1836.92C747.963 1837.03 759.045 1836.04 783.717 1840.11C788.961 1845.63 797.367 1862.03 774.196 1873.85ZM805.267 1875.6C814.566 1876.66 831.563 1868.49 843.745 1864.39C850.717 1862.04 858.559 1861.47 864.713 1857.44C875.135 1850.62 871.008 1843.17 864.402 1838.04C860.865 1835.29 856.436 1833.79 851.993 1834.36C838.521 1836.07 818.302 1846.35 809.818 1844.74C823.763 1859.16 812.594 1871.32 805.267 1875.6Z" fill="#060606"/>
<path d="M783.717 1840.11C788.961 1845.63 797.367 1862.03 774.196 1873.85C786.074 1875.34 794.208 1874.35 805.267 1875.6C812.594 1871.32 823.763 1859.16 809.818 1844.74C800.135 1842.91 791.442 1841.38 783.717 1840.11Z" fill="#060606"/>
<path fill-rule="evenodd" clip-rule="evenodd" d="M774.196 1873.85C734.156 1868.82 693.746 1862.76 681.849 1857.89C684.213 1852.67 699.62 1841.17 742.337 1836.92C747.963 1837.03 759.045 1836.04 783.717 1840.11C788.961 1845.63 797.367 1862.03 774.196 1873.85ZM805.267 1875.6C813.009 1876.48 829.659 1872.54 836.371 1873.25C843.957 1874.05 856.686 1861.51 859.521 1860.23C877.462 1852.17 871.172 1842.57 862.693 1836.8C860.459 1835.28 855.767 1833.79 850.37 1832.67C841.364 1830.8 817.549 1846.21 809.818 1844.74C823.763 1859.16 812.594 1871.32 805.267 1875.6Z" fill="#060606"/>
<path fill-rule="evenodd" clip-rule="evenodd" d="M783.403 1804.93C743.615 1798.19 703.175 1792.33 690.38 1793.56C691.136 1799.24 702.567 1814.7 742.238 1831.1C747.658 1832.61 762.227 1835.54 787.022 1838.77C793.637 1834.99 802.175 1822.94 783.403 1804.93ZM816.207 1805.64C825.42 1807.32 843.467 1803.5 856.163 1802.04C863.471 1801.2 870.857 1803.58 875.586 1809.22C883.594 1818.76 877.494 1824.7 869.687 1827.71C865.508 1829.32 860.915 1829.26 856.46 1829.72C842.647 1831.14 821.667 1837.71 813.051 1836.8C830.563 1827.02 821.987 1811.86 816.207 1805.64Z" fill="#060606"/>
<path d="M787.022 1838.77C793.637 1834.99 802.175 1822.94 783.403 1804.93C795.206 1806.93 805.258 1803.65 816.207 1805.64C821.987 1811.86 830.563 1827.02 813.051 1836.8C803.251 1835.76 794.785 1839.78 787.022 1838.77Z" fill="#060606"/>
<path fill-rule="evenodd" clip-rule="evenodd" d="M783.403 1804.93C743.615 1798.19 703.175 1792.33 690.38 1793.56C691.136 1799.24 702.567 1814.7 742.238 1831.1C747.658 1832.61 762.227 1835.54 787.022 1838.77C793.637 1834.99 802.175 1822.94 783.403 1804.93ZM816.207 1805.64C823.873 1807.04 848.722 1798.22 855.354 1799.48C862.848 1800.9 869.074 1803.01 871.42 1805.05C886.269 1817.95 877.478 1825.32 867.693 1828.4C865.115 1829.22 860.194 1829.28 854.703 1828.8C845.541 1827.99 820.877 1837.63 813.051 1836.8C830.563 1827.02 821.987 1811.86 816.207 1805.64Z" fill="#060606"/>
<path fill-rule="evenodd" clip-rule="evenodd" d="M278.508 1816.66C301.734 1819.31 331.293 1822.69 365.631 1830.06C365.016 1834.22 395.202 1836.2 418.87 1837.74C427.433 1838.3 435.144 1838.8 440.233 1839.34L499.774 1858.09C518.867 1859.66 514.018 1856.7 510.536 1854.58L510.536 1854.58C510.019 1854.27 509.532 1853.97 509.159 1853.71C603.523 1862.05 641.748 1845.28 645.235 1821.63C648.015 1802.78 623.983 1796.53 567.086 1785.01C554.84 1779.43 539.577 1774 522.099 1769.03C527.313 1762.27 532.962 1751.61 517.296 1747L483 1739L449.297 1732.87C446.399 1732.92 439.244 1732.6 430.571 1732.22L430.571 1732.22C408.63 1731.26 376.975 1729.88 379.962 1732.87C288.386 1725.4 225.502 1772.49 222.085 1795.66C219.975 1809.97 240.97 1812.37 278.508 1816.66ZM522.099 1769.03C499.469 1762.6 473.127 1756.96 444.814 1752.78C356.397 1739.74 282.241 1746 279.181 1766.75C276.121 1787.5 345.317 1814.89 433.733 1827.92C522.15 1840.96 596.306 1834.71 599.366 1813.96C600.689 1804.99 588.499 1794.77 567.086 1785.01C562.584 1784.1 557.875 1783.16 552.958 1782.17C542.1 1779.99 530.223 1777.61 517.296 1774.92C517.331 1774.68 517.955 1773.97 518.879 1772.9C519.763 1771.89 520.92 1770.56 522.099 1769.03Z" fill="#060606"/>
</g>
<defs>
<filter id="filter0_d_0_1" x="-183.995" y="-15.4661" width="3856.31" height="2408.3" filterUnits="userSpaceOnUse" color-interpolation-filters="sRGB">
<feFlood flood-opacity="0" result="BackgroundImageFix"/>
<feColorMatrix in="SourceAlpha" type="matrix" values="0 0 0 0 0 0 0 0 0 0 0 0 0 0 0 0 0 0 127 0" result="hardAlpha"/>
<feOffset dy="4"/>
<feGaussianBlur stdDeviation="125"/>
<feComposite in2="hardAlpha" operator="out"/>
<feColorMatrix type="matrix" values="0 0 0 0 1 0 0 0 0 0.916 0 0 0 0 0.475 0 0 0 0.5 0"/>
<feBlend mode="normal" in2="BackgroundImageFix" result="effect1_dropShadow_0_1"/>
<feBlend mode="normal" in="SourceGraphic" in2="effect1_dropShadow_0_1" result="shape"/>
</filter>
<filter id="filter1_d_0_1" x="2627.22" y="1116.98" width="512.379" height="512.379" filterUnits="userSpaceOnUse" color-interpolation-filters="sRGB">
<feFlood flood-opacity="0" result="BackgroundImageFix"/>
<feColorMatrix in="SourceAlpha" type="matrix" values="0 0 0 0 0 0 0 0 0 0 0 0 0 0 0 0 0 0 127 0" result="hardAlpha"/>
<feOffset dy="4"/>
<feGaussianBlur stdDeviation="125"/>
<feComposite in2="hardAlpha" operator="out"/>
<feColorMatrix type="matrix" values="0 0 0 0 1 0 0 0 0 0.916 0 0 0 0 0.475 0 0 0 0.5 0"/>
<feBlend mode="normal" in2="BackgroundImageFix" result="effect1_dropShadow_0_1"/>
<feBlend mode="normal" in="SourceGraphic" in2="effect1_dropShadow_0_1" result="shape"/>
</filter>
<filter id="filter2_d_0_1" x="2434" y="664" width="512.379" height="512.379" filterUnits="userSpaceOnUse" color-interpolation-filters="sRGB">
<feFlood flood-opacity="0" result="BackgroundImageFix"/>
<feColorMatrix in="SourceAlpha" type="matrix" values="0 0 0 0 0 0 0 0 0 0 0 0 0 0 0 0 0 0 127 0" result="hardAlpha"/>
<feOffset dy="4"/>
<feGaussianBlur stdDeviation="125"/>
<feComposite in2="hardAlpha" operator="out"/>
<feColorMatrix type="matrix" values="0 0 0 0 1 0 0 0 0 0.916 0 0 0 0 0.475 0 0 0 0.5 0"/>
<feBlend mode="normal" in2="BackgroundImageFix" result="effect1_dropShadow_0_1"/>
<feBlend mode="normal" in="SourceGraphic" in2="effect1_dropShadow_0_1" result="shape"/>
</filter>
<filter id="filter3_d_0_1" x="2468.78" y="1067.46" width="512.379" height="512.379" filterUnits="userSpaceOnUse" color-interpolation-filters="sRGB">
<feFlood flood-opacity="0" result="BackgroundImageFix"/>
<feColorMatrix in="SourceAlpha" type="matrix" values="0 0 0 0 0 0 0 0 0 0 0 0 0 0 0 0 0 0 127 0" result="hardAlpha"/>
<feOffset dy="4"/>
<feGaussianBlur stdDeviation="125"/>
<feComposite in2="hardAlpha" operator="out"/>
<feColorMatrix type="matrix" values="0 0 0 0 1 0 0 0 0 0.916 0 0 0 0 0.475 0 0 0 0.5 0"/>
<feBlend mode="normal" in2="BackgroundImageFix" result="effect1_dropShadow_0_1"/>
<feBlend mode="normal" in="SourceGraphic" in2="effect1_dropShadow_0_1" result="shape"/>
</filter>
<filter id="filter4_d_0_1" x="36.5848" y="1184.21" width="507.018" height="506.997" filterUnits="userSpaceOnUse" color-interpolation-filters="sRGB">
<feFlood flood-opacity="0" result="BackgroundImageFix"/>
<feColorMatrix in="SourceAlpha" type="matrix" values="0 0 0 0 0 0 0 0 0 0 0 0 0 0 0 0 0 0 127 0" result="hardAlpha"/>
<feOffset dy="4"/>
<feGaussianBlur stdDeviation="125"/>
<feComposite in2="hardAlpha" operator="out"/>
<feColorMatrix type="matrix" values="0 0 0 0 1 0 0 0 0 0.916 0 0 0 0 0.475 0 0 0 0.5 0"/>
<feBlend mode="normal" in2="BackgroundImageFix" result="effect1_dropShadow_0_1"/>
<feBlend mode="normal" in="SourceGraphic" in2="effect1_dropShadow_0_1" result="shape"/>
</filter>
<filter id="filter5_d_0_1" x="-319.922" y="1174.31" width="507.018" height="506.997" filterUnits="userSpaceOnUse" color-interpolation-filters="sRGB">
<feFlood flood-opacity="0" result="BackgroundImageFix"/>
<feColorMatrix in="SourceAlpha" type="matrix" values="0 0 0 0 0 0 0 0 0 0 0 0 0 0 0 0 0 0 127 0" result="hardAlpha"/>
<feOffset dy="4"/>
<feGaussianBlur stdDeviation="125"/>
<feComposite in2="hardAlpha" operator="out"/>
<feColorMatrix type="matrix" values="0 0 0 0 1 0 0 0 0 0.916 0 0 0 0 0.475 0 0 0 0.5 0"/>
<feBlend mode="normal" in2="BackgroundImageFix" result="effect1_dropShadow_0_1"/>
<feBlend mode="normal" in="SourceGraphic" in2="effect1_dropShadow_0_1" result="shape"/>
</filter>
<filter id="filter6_d_0_1" x="-121.862" y="1134.7" width="507.018" height="506.997" filterUnits="userSpaceOnUse" color-interpolation-filters="sRGB">
<feFlood flood-opacity="0" result="BackgroundImageFix"/>
<feColorMatrix in="SourceAlpha" type="matrix" values="0 0 0 0 0 0 0 0 0 0 0 0 0 0 0 0 0 0 127 0" result="hardAlpha"/>
<feOffset dy="4"/>
<feGaussianBlur stdDeviation="125"/>
<feComposite in2="hardAlpha" operator="out"/>
<feColorMatrix type="matrix" values="0 0 0 0 1 0 0 0 0 0.916 0 0 0 0 0.475 0 0 0 0.5 0"/>
<feBlend mode="normal" in2="BackgroundImageFix" result="effect1_dropShadow_0_1"/>
<feBlend mode="normal" in="SourceGraphic" in2="effect1_dropShadow_0_1" result="shape"/>
</filter>
<filter id="filter7_d_0_1" x="333.702" y="1039.8" width="507.018" height="506.997" filterUnits="userSpaceOnUse" color-interpolation-filters="sRGB">
<feFlood flood-opacity="0" result="BackgroundImageFix"/>
<feColorMatrix in="SourceAlpha" type="matrix" values="0 0 0 0 0 0 0 0 0 0 0 0 0 0 0 0 0 0 127 0" result="hardAlpha"/>
<feOffset dy="4"/>
<feGaussianBlur stdDeviation="125"/>
<feComposite in2="hardAlpha" operator="out"/>
<feColorMatrix type="matrix" values="0 0 0 0 1 0 0 0 0 0.916 0 0 0 0 0.475 0 0 0 0.5 0"/>
<feBlend mode="normal" in2="BackgroundImageFix" result="effect1_dropShadow_0_1"/>
<feBlend mode="normal" in="SourceGraphic" in2="effect1_dropShadow_0_1" result="shape"/>
</filter>
<filter id="filter8_d_0_1" x="-22.8039" y="1029.9" width="507.018" height="506.997" filterUnits="userSpaceOnUse" color-interpolation-filters="sRGB">
<feFlood flood-opacity="0" result="BackgroundImageFix"/>
<feColorMatrix in="SourceAlpha" type="matrix" values="0 0 0 0 0 0 0 0 0 0 0 0 0 0 0 0 0 0 127 0" result="hardAlpha"/>
<feOffset dy="4"/>
<feGaussianBlur stdDeviation="125"/>
<feComposite in2="hardAlpha" operator="out"/>
<feColorMatrix type="matrix" values="0 0 0 0 1 0 0 0 0 0.916 0 0 0 0 0.475 0 0 0 0.5 0"/>
<feBlend mode="normal" in2="BackgroundImageFix" result="effect1_dropShadow_0_1"/>
<feBlend mode="normal" in="SourceGraphic" in2="effect1_dropShadow_0_1" result="shape"/>
</filter>
<filter id="filter9_d_0_1" x="175.255" y="990.289" width="507.018" height="506.997" filterUnits="userSpaceOnUse" color-interpolation-filters="sRGB">
<feFlood flood-opacity="0" result="BackgroundImageFix"/>
<feColorMatrix in="SourceAlpha" type="matrix" values="0 0 0 0 0 0 0 0 0 0 0 0 0 0 0 0 0 0 127 0" result="hardAlpha"/>
<feOffset dy="4"/>
<feGaussianBlur stdDeviation="125"/>
<feComposite in2="hardAlpha" operator="out"/>
<feColorMatrix type="matrix" values="0 0 0 0 1 0 0 0 0 0.916 0 0 0 0 0.475 0 0 0 0.5 0"/>
<feBlend mode="normal" in2="BackgroundImageFix" result="effect1_dropShadow_0_1"/>
<feBlend mode="normal" in="SourceGraphic" in2="effect1_dropShadow_0_1" result="shape"/>
</filter>
<filter id="filter10_d_0_1" x="-292.639" y="-7.28296" width="507.018" height="506.997" filterUnits="userSpaceOnUse" color-interpolation-filters="sRGB">
<feFlood flood-opacity="0" result="BackgroundImageFix"/>
<feColorMatrix in="SourceAlpha" type="matrix" values="0 0 0 0 0 0 0 0 0 0 0 0 0 0 0 0 0 0 127 0" result="hardAlpha"/>
<feOffset dy="4"/>
<feGaussianBlur stdDeviation="125"/>
<feComposite in2="hardAlpha" operator="out"/>
<feColorMatrix type="matrix" values="0 0 0 0 1 0 0 0 0 0.916 0 0 0 0 0.475 0 0 0 0.5 0"/>
<feBlend mode="normal" in2="BackgroundImageFix" result="effect1_dropShadow_0_1"/>
<feBlend mode="normal" in="SourceGraphic" in2="effect1_dropShadow_0_1" result="shape"/>
</filter>
<filter id="filter11_d_0_1" x="-451.087" y="-56.7979" width="507.018" height="506.997" filterUnits="userSpaceOnUse" color-interpolation-filters="sRGB">
<feFlood flood-opacity="0" result="BackgroundImageFix"/>
<feColorMatrix in="SourceAlpha" type="matrix" values="0 0 0 0 0 0 0 0 0 0 0 0 0 0 0 0 0 0 127 0" result="hardAlpha"/>
<feOffset dy="4"/>
<feGaussianBlur stdDeviation="125"/>
<feComposite in2="hardAlpha" operator="out"/>
<feColorMatrix type="matrix" values="0 0 0 0 1 0 0 0 0 0.916 0 0 0 0 0.475 0 0 0 0.5 0"/>
<feBlend mode="normal" in2="BackgroundImageFix" result="effect1_dropShadow_0_1"/>
<feBlend mode="normal" in="SourceGraphic" in2="effect1_dropShadow_0_1" result="shape"/>
</filter>
<filter id="filter12_d_0_1" x="1099.34" y="1790.06" width="506.442" height="506.423" filterUnits="userSpaceOnUse" color-interpolation-filters="sRGB">
<feFlood flood-opacity="0" result="BackgroundImageFix"/>
<feColorMatrix in="SourceAlpha" type="matrix" values="0 0 0 0 0 0 0 0 0 0 0 0 0 0 0 0 0 0 127 0" result="hardAlpha"/>
<feOffset dy="4"/>
<feGaussianBlur stdDeviation="125"/>
<feComposite in2="hardAlpha" operator="out"/>
<feColorMatrix type="matrix" values="0 0 0 0 1 0 0 0 0 0.916 0 0 0 0 0.475 0 0 0 0.5 0"/>
<feBlend mode="normal" in2="BackgroundImageFix" result="effect1_dropShadow_0_1"/>
<feBlend mode="normal" in="SourceGraphic" in2="effect1_dropShadow_0_1" result="shape"/>
</filter>
<filter id="filter13_d_0_1" x="760.257" y="1271.1" width="505.368" height="505.353" filterUnits="userSpaceOnUse" color-interpolation-filters="sRGB">
<feFlood flood-opacity="0" result="BackgroundImageFix"/>
<feColorMatrix in="SourceAlpha" type="matrix" values="0 0 0 0 0 0 0 0 0 0 0 0 0 0 0 0 0 0 127 0" result="hardAlpha"/>
<feOffset dy="4"/>
<feGaussianBlur stdDeviation="125"/>
<feComposite in2="hardAlpha" operator="out"/>
<feColorMatrix type="matrix" values="0 0 0 0 1 0 0 0 0 0.916 0 0 0 0 0.475 0 0 0 0.5 0"/>
<feBlend mode="normal" in2="BackgroundImageFix" result="effect1_dropShadow_0_1"/>
<feBlend mode="normal" in="SourceGraphic" in2="effect1_dropShadow_0_1" result="shape"/>
</filter>
<filter id="filter14_d_0_1" x="403.75" y="1261.2" width="505.368" height="505.353" filterUnits="userSpaceOnUse" color-interpolation-filters="sRGB">
<feFlood flood-opacity="0" result="BackgroundImageFix"/>
<feColorMatrix in="SourceAlpha" type="matrix" values="0 0 0 0 0 0 0 0 0 0 0 0 0 0 0 0 0 0 127 0" result="hardAlpha"/>
<feOffset dy="4"/>
<feGaussianBlur stdDeviation="125"/>
<feComposite in2="hardAlpha" operator="out"/>
<feColorMatrix type="matrix" values="0 0 0 0 1 0 0 0 0 0.916 0 0 0 0 0.475 0 0 0 0.5 0"/>
<feBlend mode="normal" in2="BackgroundImageFix" result="effect1_dropShadow_0_1"/>
<feBlend mode="normal" in="SourceGraphic" in2="effect1_dropShadow_0_1" result="shape"/>
</filter>
<filter id="filter15_d_0_1" x="601.81" y="1221.58" width="505.368" height="505.353" filterUnits="userSpaceOnUse" color-interpolation-filters="sRGB">
<feFlood flood-opacity="0" result="BackgroundImageFix"/>
<feColorMatrix in="SourceAlpha" type="matrix" values="0 0 0 0 0 0 0 0 0 0 0 0 0 0 0 0 0 0 127 0" result="hardAlpha"/>
<feOffset dy="4"/>
<feGaussianBlur stdDeviation="125"/>
<feComposite in2="hardAlpha" operator="out"/>
<feColorMatrix type="matrix" values="0 0 0 0 1 0 0 0 0 0.916 0 0 0 0 0.475 0 0 0 0.5 0"/>
<feBlend mode="normal" in2="BackgroundImageFix" result="effect1_dropShadow_0_1"/>
<feBlend mode="normal" in="SourceGraphic" in2="effect1_dropShadow_0_1" result="shape"/>
</filter>
<filter id="filter16_d_0_1" x="3055.53" y="894.162" width="512.379" height="512.379" filterUnits="userSpaceOnUse" color-interpolation-filters="sRGB">
<feFlood flood-opacity="0" result="BackgroundImageFix"/>
<feColorMatrix in="SourceAlpha" type="matrix" values="0 0 0 0 0 0 0 0 0 0 0 0 0 0 0 0 0 0 127 0" result="hardAlpha"/>
<feOffset dy="4"/>
<feGaussianBlur stdDeviation="125"/>
<feComposite in2="hardAlpha" operator="out"/>
<feColorMatrix type="matrix" values="0 0 0 0 1 0 0 0 0 0.916 0 0 0 0 0.475 0 0 0 0.5 0"/>
<feBlend mode="normal" in2="BackgroundImageFix" result="effect1_dropShadow_0_1"/>
<feBlend mode="normal" in="SourceGraphic" in2="effect1_dropShadow_0_1" result="shape"/>
</filter>
<filter id="filter17_d_0_1" x="2699.02" y="884.259" width="512.379" height="512.379" filterUnits="userSpaceOnUse" color-interpolation-filters="sRGB">
<feFlood flood-opacity="0" result="BackgroundImageFix"/>
<feColorMatrix in="SourceAlpha" type="matrix" values="0 0 0 0 0 0 0 0 0 0 0 0 0 0 0 0 0 0 127 0" result="hardAlpha"/>
<feOffset dy="4"/>
<feGaussianBlur stdDeviation="125"/>
<feComposite in2="hardAlpha" operator="out"/>
<feColorMatrix type="matrix" values="0 0 0 0 1 0 0 0 0 0.916 0 0 0 0 0.475 0 0 0 0.5 0"/>
<feBlend mode="normal" in2="BackgroundImageFix" result="effect1_dropShadow_0_1"/>
<feBlend mode="normal" in="SourceGraphic" in2="effect1_dropShadow_0_1" result="shape"/>
</filter>
<filter id="filter18_df_0_1" x="2125" y="238" width="1155.04" height="889" filterUnits="userSpaceOnUse" color-interpolation-filters="sRGB">
<feFlood flood-opacity="0" result="BackgroundImageFix"/>
<feColorMatrix in="SourceAlpha" type="matrix" values="0 0 0 0 0 0 0 0 0 0 0 0 0 0 0 0 0 0 127 0" result="hardAlpha"/>
<feOffset dy="4"/>
<feGaussianBlur stdDeviation="2"/>
<feComposite in2="hardAlpha" operator="out"/>
<feColorMatrix type="matrix" values="0 0 0 0 0 0 0 0 0 0 0 0 0 0 0 0 0 0 0.25 0"/>
<feBlend mode="normal" in2="BackgroundImageFix" result="effect1_dropShadow_0_1"/>
<feBlend mode="normal" in="SourceGraphic" in2="effect1_dropShadow_0_1" result="shape"/>
<feGaussianBlur stdDeviation="1" result="effect2_foregroundBlur_0_1"/>
</filter>
<filter id="filter19_d_0_1" x="1451.95" y="1450.49" width="512.379" height="512.379" filterUnits="userSpaceOnUse" color-interpolation-filters="sRGB">
<feFlood flood-opacity="0" result="BackgroundImageFix"/>
<feColorMatrix in="SourceAlpha" type="matrix" values="0 0 0 0 0 0 0 0 0 0 0 0 0 0 0 0 0 0 127 0" result="hardAlpha"/>
<feOffset dy="4"/>
<feGaussianBlur stdDeviation="125"/>
<feComposite in2="hardAlpha" operator="out"/>
<feColorMatrix type="matrix" values="0 0 0 0 1 0 0 0 0 0.916 0 0 0 0 0.475 0 0 0 0.5 0"/>
<feBlend mode="normal" in2="BackgroundImageFix" result="effect1_dropShadow_0_1"/>
<feBlend mode="normal" in="SourceGraphic" in2="effect1_dropShadow_0_1" result="shape"/>
</filter>
<filter id="filter20_d_0_1" x="1095.45" y="1440.59" width="512.379" height="512.379" filterUnits="userSpaceOnUse" color-interpolation-filters="sRGB">
<feFlood flood-opacity="0" result="BackgroundImageFix"/>
<feColorMatrix in="SourceAlpha" type="matrix" values="0 0 0 0 0 0 0 0 0 0 0 0 0 0 0 0 0 0 127 0" result="hardAlpha"/>
<feOffset dy="4"/>
<feGaussianBlur stdDeviation="125"/>
<feComposite in2="hardAlpha" operator="out"/>
<feColorMatrix type="matrix" values="0 0 0 0 1 0 0 0 0 0.916 0 0 0 0 0.475 0 0 0 0.5 0"/>
<feBlend mode="normal" in2="BackgroundImageFix" result="effect1_dropShadow_0_1"/>
<feBlend mode="normal" in="SourceGraphic" in2="effect1_dropShadow_0_1" result="shape"/>
</filter>
<filter id="filter21_d_0_1" x="1293.51" y="1400.98" width="512.379" height="512.379" filterUnits="userSpaceOnUse" color-interpolation-filters="sRGB">
<feFlood flood-opacity="0" result="BackgroundImageFix"/>
<feColorMatrix in="SourceAlpha" type="matrix" values="0 0 0 0 0 0 0 0 0 0 0 0 0 0 0 0 0 0 127 0" result="hardAlpha"/>
<feOffset dy="4"/>
<feGaussianBlur stdDeviation="125"/>
<feComposite in2="hardAlpha" operator="out"/>
<feColorMatrix type="matrix" values="0 0 0 0 1 0 0 0 0 0.916 0 0 0 0 0.475 0 0 0 0.5 0"/>
<feBlend mode="normal" in2="BackgroundImageFix" result="effect1_dropShadow_0_1"/>
<feBlend mode="normal" in="SourceGraphic" in2="effect1_dropShadow_0_1" result="shape"/>
</filter>
<filter id="filter22_d_0_1" x="874.871" y="1610.79" width="512.379" height="512.379" filterUnits="userSpaceOnUse" color-interpolation-filters="sRGB">
<feFlood flood-opacity="0" result="BackgroundImageFix"/>
<feColorMatrix in="SourceAlpha" type="matrix" values="0 0 0 0 0 0 0 0 0 0 0 0 0 0 0 0 0 0 127 0" result="hardAlpha"/>
<feOffset dy="4"/>
<feGaussianBlur stdDeviation="125"/>
<feComposite in2="hardAlpha" operator="out"/>
<feColorMatrix type="matrix" values="0 0 0 0 1 0 0 0 0 0.916 0 0 0 0 0.475 0 0 0 0.5 0"/>
<feBlend mode="normal" in2="BackgroundImageFix" result="effect1_dropShadow_0_1"/>
<feBlend mode="normal" in="SourceGraphic" in2="effect1_dropShadow_0_1" result="shape"/>
</filter>
<filter id="filter23_d_0_1" x="518.364" y="1600.89" width="512.379" height="512.379" filterUnits="userSpaceOnUse" color-interpolation-filters="sRGB">
<feFlood flood-opacity="0" result="BackgroundImageFix"/>
<feColorMatrix in="SourceAlpha" type="matrix" values="0 0 0 0 0 0 0 0 0 0 0 0 0 0 0 0 0 0 127 0" result="hardAlpha"/>
<feOffset dy="4"/>
<feGaussianBlur stdDeviation="125"/>
<feComposite in2="hardAlpha" operator="out"/>
<feColorMatrix type="matrix" values="0 0 0 0 1 0 0 0 0 0.916 0 0 0 0 0.475 0 0 0 0.5 0"/>
<feBlend mode="normal" in2="BackgroundImageFix" result="effect1_dropShadow_0_1"/>
<feBlend mode="normal" in="SourceGraphic" in2="effect1_dropShadow_0_1" result="shape"/>
</filter>
<filter id="filter24_d_0_1" x="716.424" y="1561.27" width="512.379" height="512.379" filterUnits="userSpaceOnUse" color-interpolation-filters="sRGB">
<feFlood flood-opacity="0" result="BackgroundImageFix"/>
<feColorMatrix in="SourceAlpha" type="matrix" values="0 0 0 0 0 0 0 0 0 0 0 0 0 0 0 0 0 0 127 0" result="hardAlpha"/>
<feOffset dy="4"/>
<feGaussianBlur stdDeviation="125"/>
<feComposite in2="hardAlpha" operator="out"/>
<feColorMatrix type="matrix" values="0 0 0 0 1 0 0 0 0 0.916 0 0 0 0 0.475 0 0 0 0.5 0"/>
<feBlend mode="normal" in2="BackgroundImageFix" result="effect1_dropShadow_0_1"/>
<feBlend mode="normal" in="SourceGraphic" in2="effect1_dropShadow_0_1" result="shape"/>
</filter>
<filter id="filter25_d_0_1" x="637.653" y="1203.77" width="512.379" height="512.379" filterUnits="userSpaceOnUse" color-interpolation-filters="sRGB">
<feFlood flood-opacity="0" result="BackgroundImageFix"/>
<feColorMatrix in="SourceAlpha" type="matrix" values="0 0 0 0 0 0 0 0 0 0 0 0 0 0 0 0 0 0 127 0" result="hardAlpha"/>
<feOffset dy="4"/>
<feGaussianBlur stdDeviation="125"/>
<feComposite in2="hardAlpha" operator="out"/>
<feColorMatrix type="matrix" values="0 0 0 0 1 0 0 0 0 0.916 0 0 0 0 0.475 0 0 0 0.5 0"/>
<feBlend mode="normal" in2="BackgroundImageFix" result="effect1_dropShadow_0_1"/>
<feBlend mode="normal" in="SourceGraphic" in2="effect1_dropShadow_0_1" result="shape"/>
</filter>
<filter id="filter26_d_0_1" x="281.146" y="1193.87" width="512.379" height="512.379" filterUnits="userSpaceOnUse" color-interpolation-filters="sRGB">
<feFlood flood-opacity="0" result="BackgroundImageFix"/>
<feColorMatrix in="SourceAlpha" type="matrix" values="0 0 0 0 0 0 0 0 0 0 0 0 0 0 0 0 0 0 127 0" result="hardAlpha"/>
<feOffset dy="4"/>
<feGaussianBlur stdDeviation="125"/>
<feComposite in2="hardAlpha" operator="out"/>
<feColorMatrix type="matrix" values="0 0 0 0 1 0 0 0 0 0.916 0 0 0 0 0.475 0 0 0 0.5 0"/>
<feBlend mode="normal" in2="BackgroundImageFix" result="effect1_dropShadow_0_1"/>
<feBlend mode="normal" in="SourceGraphic" in2="effect1_dropShadow_0_1" result="shape"/>
</filter>
<filter id="filter27_d_0_1" x="479.205" y="1154.26" width="512.379" height="512.379" filterUnits="userSpaceOnUse" color-interpolation-filters="sRGB">
<feFlood flood-opacity="0" result="BackgroundImageFix"/>
<feColorMatrix in="SourceAlpha" type="matrix" values="0 0 0 0 0 0 0 0 0 0 0 0 0 0 0 0 0 0 127 0" result="hardAlpha"/>
<feOffset dy="4"/>
<feGaussianBlur stdDeviation="125"/>
<feComposite in2="hardAlpha" operator="out"/>
<feColorMatrix type="matrix" values="0 0 0 0 1 0 0 0 0 0.916 0 0 0 0 0.475 0 0 0 0.5 0"/>
<feBlend mode="normal" in2="BackgroundImageFix" result="effect1_dropShadow_0_1"/>
<feBlend mode="normal" in="SourceGraphic" in2="effect1_dropShadow_0_1" result="shape"/>
</filter>
<filter id="filter28_d_0_1" x="1096.14" y="-418.941" width="512.379" height="512.379" filterUnits="userSpaceOnUse" color-interpolation-filters="sRGB">
<feFlood flood-opacity="0" result="BackgroundImageFix"/>
<feColorMatrix in="SourceAlpha" type="matrix" values="0 0 0 0 0 0 0 0 0 0 0 0 0 0 0 0 0 0 127 0" result="hardAlpha"/>
<feOffset dy="4"/>
<feGaussianBlur stdDeviation="125"/>
<feComposite in2="hardAlpha" operator="out"/>
<feColorMatrix type="matrix" values="0 0 0 0 1 0 0 0 0 0.916 0 0 0 0 0.475 0 0 0 0.5 0"/>
<feBlend mode="normal" in2="BackgroundImageFix" result="effect1_dropShadow_0_1"/>
<feBlend mode="normal" in="SourceGraphic" in2="effect1_dropShadow_0_1" result="shape"/>
</filter>
<filter id="filter29_d_0_1" x="739.634" y="-428.844" width="512.379" height="512.379" filterUnits="userSpaceOnUse" color-interpolation-filters="sRGB">
<feFlood flood-opacity="0" result="BackgroundImageFix"/>
<feColorMatrix in="SourceAlpha" type="matrix" values="0 0 0 0 0 0 0 0 0 0 0 0 0 0 0 0 0 0 127 0" result="hardAlpha"/>
<feOffset dy="4"/>
<feGaussianBlur stdDeviation="125"/>
<feComposite in2="hardAlpha" operator="out"/>
<feColorMatrix type="matrix" values="0 0 0 0 1 0 0 0 0 0.916 0 0 0 0 0.475 0 0 0 0.5 0"/>
<feBlend mode="normal" in2="BackgroundImageFix" result="effect1_dropShadow_0_1"/>
<feBlend mode="normal" in="SourceGraphic" in2="effect1_dropShadow_0_1" result="shape"/>
</filter>
<filter id="filter30_d_0_1" x="937.693" y="-468.456" width="512.379" height="512.379" filterUnits="userSpaceOnUse" color-interpolation-filters="sRGB">
<feFlood flood-opacity="0" result="BackgroundImageFix"/>
<feColorMatrix in="SourceAlpha" type="matrix" values="0 0 0 0 0 0 0 0 0 0 0 0 0 0 0 0 0 0 127 0" result="hardAlpha"/>
<feOffset dy="4"/>
<feGaussianBlur stdDeviation="125"/>
<feComposite in2="hardAlpha" operator="out"/>
<feColorMatrix type="matrix" values="0 0 0 0 1 0 0 0 0 0.916 0 0 0 0 0.475 0 0 0 0.5 0"/>
<feBlend mode="normal" in2="BackgroundImageFix" result="effect1_dropShadow_0_1"/>
<feBlend mode="normal" in="SourceGraphic" in2="effect1_dropShadow_0_1" result="shape"/>
</filter>
<filter id="filter31_d_0_1" x="1431.9" y="-446.194" width="512.379" height="512.379" filterUnits="userSpaceOnUse" color-interpolation-filters="sRGB">
<feFlood flood-opacity="0" result="BackgroundImageFix"/>
<feColorMatrix in="SourceAlpha" type="matrix" values="0 0 0 0 0 0 0 0 0 0 0 0 0 0 0 0 0 0 127 0" result="hardAlpha"/>
<feOffset dy="4"/>
<feGaussianBlur stdDeviation="125"/>
<feComposite in2="hardAlpha" operator="out"/>
<feColorMatrix type="matrix" values="0 0 0 0 1 0 0 0 0 0.916 0 0 0 0 0.475 0 0 0 0.5 0"/>
<feBlend mode="normal" in2="BackgroundImageFix" result="effect1_dropShadow_0_1"/>
<feBlend mode="normal" in="SourceGraphic" in2="effect1_dropShadow_0_1" result="shape"/>
</filter>
<filter id="filter32_d_0_1" x="1075.39" y="-456.097" width="512.379" height="512.379" filterUnits="userSpaceOnUse" color-interpolation-filters="sRGB">
<feFlood flood-opacity="0" result="BackgroundImageFix"/>
<feColorMatrix in="SourceAlpha" type="matrix" values="0 0 0 0 0 0 0 0 0 0 0 0 0 0 0 0 0 0 127 0" result="hardAlpha"/>
<feOffset dy="4"/>
<feGaussianBlur stdDeviation="125"/>
<feComposite in2="hardAlpha" operator="out"/>
<feColorMatrix type="matrix" values="0 0 0 0 1 0 0 0 0 0.916 0 0 0 0 0.475 0 0 0 0.5 0"/>
<feBlend mode="normal" in2="BackgroundImageFix" result="effect1_dropShadow_0_1"/>
<feBlend mode="normal" in="SourceGraphic" in2="effect1_dropShadow_0_1" result="shape"/>
</filter>
<filter id="filter33_d_0_1" x="1273.45" y="-495.709" width="512.379" height="512.379" filterUnits="userSpaceOnUse" color-interpolation-filters="sRGB">
<feFlood flood-opacity="0" result="BackgroundImageFix"/>
<feColorMatrix in="SourceAlpha" type="matrix" values="0 0 0 0 0 0 0 0 0 0 0 0 0 0 0 0 0 0 127 0" result="hardAlpha"/>
<feOffset dy="4"/>
<feGaussianBlur stdDeviation="125"/>
<feComposite in2="hardAlpha" operator="out"/>
<feColorMatrix type="matrix" values="0 0 0 0 1 0 0 0 0 0.916 0 0 0 0 0.475 0 0 0 0.5 0"/>
<feBlend mode="normal" in2="BackgroundImageFix" result="effect1_dropShadow_0_1"/>
<feBlend mode="normal" in="SourceGraphic" in2="effect1_dropShadow_0_1" result="shape"/>
</filter>
<filter id="filter34_d_0_1" x="-193.61" y="1161.27" width="507.018" height="506.997" filterUnits="userSpaceOnUse" color-interpolation-filters="sRGB">
<feFlood flood-opacity="0" result="BackgroundImageFix"/>
<feColorMatrix in="SourceAlpha" type="matrix" values="0 0 0 0 0 0 0 0 0 0 0 0 0 0 0 0 0 0 127 0" result="hardAlpha"/>
<feOffset dy="4"/>
<feGaussianBlur stdDeviation="125"/>
<feComposite in2="hardAlpha" operator="out"/>
<feColorMatrix type="matrix" values="0 0 0 0 1 0 0 0 0 0.916 0 0 0 0 0.475 0 0 0 0.5 0"/>
<feBlend mode="normal" in2="BackgroundImageFix" result="effect1_dropShadow_0_1"/>
<feBlend mode="normal" in="SourceGraphic" in2="effect1_dropShadow_0_1" result="shape"/>
</filter>
<filter id="filter35_d_0_1" x="-352.058" y="1111.75" width="507.018" height="506.997" filterUnits="userSpaceOnUse" color-interpolation-filters="sRGB">
<feFlood flood-opacity="0" result="BackgroundImageFix"/>
<feColorMatrix in="SourceAlpha" type="matrix" values="0 0 0 0 0 0 0 0 0 0 0 0 0 0 0 0 0 0 127 0" result="hardAlpha"/>
<feOffset dy="4"/>
<feGaussianBlur stdDeviation="125"/>
<feComposite in2="hardAlpha" operator="out"/>
<feColorMatrix type="matrix" values="0 0 0 0 1 0 0 0 0 0.916 0 0 0 0 0.475 0 0 0 0.5 0"/>
<feBlend mode="normal" in2="BackgroundImageFix" result="effect1_dropShadow_0_1"/>
<feBlend mode="normal" in="SourceGraphic" in2="effect1_dropShadow_0_1" result="shape"/>
</filter>
<filter id="filter36_d_0_1" x="-462.892" y="1421.12" width="507.018" height="506.997" filterUnits="userSpaceOnUse" color-interpolation-filters="sRGB">
<feFlood flood-opacity="0" result="BackgroundImageFix"/>
<feColorMatrix in="SourceAlpha" type="matrix" values="0 0 0 0 0 0 0 0 0 0 0 0 0 0 0 0 0 0 127 0" result="hardAlpha"/>
<feOffset dy="4"/>
<feGaussianBlur stdDeviation="125"/>
<feComposite in2="hardAlpha" operator="out"/>
<feColorMatrix type="matrix" values="0 0 0 0 1 0 0 0 0 0.916 0 0 0 0 0.475 0 0 0 0.5 0"/>
<feBlend mode="normal" in2="BackgroundImageFix" result="effect1_dropShadow_0_1"/>
<feBlend mode="normal" in="SourceGraphic" in2="effect1_dropShadow_0_1" result="shape"/>
</filter>
<filter id="filter37_d_0_1" x="1195.17" y="749.608" width="512.379" height="512.379" filterUnits="userSpaceOnUse" color-interpolation-filters="sRGB">
<feFlood flood-opacity="0" result="BackgroundImageFix"/>
<feColorMatrix in="SourceAlpha" type="matrix" values="0 0 0 0 0 0 0 0 0 0 0 0 0 0 0 0 0 0 127 0" result="hardAlpha"/>
<feOffset dy="4"/>
<feGaussianBlur stdDeviation="125"/>
<feComposite in2="hardAlpha" operator="out"/>
<feColorMatrix type="matrix" values="0 0 0 0 1 0 0 0 0 0.916 0 0 0 0 0.475 0 0 0 0.5 0"/>
<feBlend mode="normal" in2="BackgroundImageFix" result="effect1_dropShadow_0_1"/>
<feBlend mode="normal" in="SourceGraphic" in2="effect1_dropShadow_0_1" result="shape"/>
</filter>
<filter id="filter38_d_0_1" x="838.662" y="739.705" width="512.379" height="512.379" filterUnits="userSpaceOnUse" color-interpolation-filters="sRGB">
<feFlood flood-opacity="0" result="BackgroundImageFix"/>
<feColorMatrix in="SourceAlpha" type="matrix" values="0 0 0 0 0 0 0 0 0 0 0 0 0 0 0 0 0 0 127 0" result="hardAlpha"/>
<feOffset dy="4"/>
<feGaussianBlur stdDeviation="125"/>
<feComposite in2="hardAlpha" operator="out"/>
<feColorMatrix type="matrix" values="0 0 0 0 1 0 0 0 0 0.916 0 0 0 0 0.475 0 0 0 0.5 0"/>
<feBlend mode="normal" in2="BackgroundImageFix" result="effect1_dropShadow_0_1"/>
<feBlend mode="normal" in="SourceGraphic" in2="effect1_dropShadow_0_1" result="shape"/>
</filter>
<filter id="filter39_d_0_1" x="1036.72" y="700.093" width="512.379" height="512.379" filterUnits="userSpaceOnUse" color-interpolation-filters="sRGB">
<feFlood flood-opacity="0" result="BackgroundImageFix"/>
<feColorMatrix in="SourceAlpha" type="matrix" values="0 0 0 0 0 0 0 0 0 0 0 0 0 0 0 0 0 0 127 0" result="hardAlpha"/>
<feOffset dy="4"/>
<feGaussianBlur stdDeviation="125"/>
<feComposite in2="hardAlpha" operator="out"/>
<feColorMatrix type="matrix" values="0 0 0 0 1 0 0 0 0 0.916 0 0 0 0 0.475 0 0 0 0.5 0"/>
<feBlend mode="normal" in2="BackgroundImageFix" result="effect1_dropShadow_0_1"/>
<feBlend mode="normal" in="SourceGraphic" in2="effect1_dropShadow_0_1" result="shape"/>
</filter>
<filter id="filter40_d_0_1" x="1327.29" y="284.611" width="512.379" height="512.379" filterUnits="userSpaceOnUse" color-interpolation-filters="sRGB">
<feFlood flood-opacity="0" result="BackgroundImageFix"/>
<feColorMatrix in="SourceAlpha" type="matrix" values="0 0 0 0 0 0 0 0 0 0 0 0 0 0 0 0 0 0 127 0" result="hardAlpha"/>
<feOffset dy="4"/>
<feGaussianBlur stdDeviation="125"/>
<feComposite in2="hardAlpha" operator="out"/>
<feColorMatrix type="matrix" values="0 0 0 0 1 0 0 0 0 0.916 0 0 0 0 0.475 0 0 0 0.5 0"/>
<feBlend mode="normal" in2="BackgroundImageFix" result="effect1_dropShadow_0_1"/>
<feBlend mode="normal" in="SourceGraphic" in2="effect1_dropShadow_0_1" result="shape"/>
</filter>
<filter id="filter41_d_0_1" x="970.782" y="274.708" width="512.379" height="512.379" filterUnits="userSpaceOnUse" color-interpolation-filters="sRGB">
<feFlood flood-opacity="0" result="BackgroundImageFix"/>
<feColorMatrix in="SourceAlpha" type="matrix" values="0 0 0 0 0 0 0 0 0 0 0 0 0 0 0 0 0 0 127 0" result="hardAlpha"/>
<feOffset dy="4"/>
<feGaussianBlur stdDeviation="125"/>
<feComposite in2="hardAlpha" operator="out"/>
<feColorMatrix type="matrix" values="0 0 0 0 1 0 0 0 0 0.916 0 0 0 0 0.475 0 0 0 0.5 0"/>
<feBlend mode="normal" in2="BackgroundImageFix" result="effect1_dropShadow_0_1"/>
<feBlend mode="normal" in="SourceGraphic" in2="effect1_dropShadow_0_1" result="shape"/>
</filter>
<filter id="filter42_d_0_1" x="1168.84" y="235.096" width="512.379" height="512.379" filterUnits="userSpaceOnUse" color-interpolation-filters="sRGB">
<feFlood flood-opacity="0" result="BackgroundImageFix"/>
<feColorMatrix in="SourceAlpha" type="matrix" values="0 0 0 0 0 0 0 0 0 0 0 0 0 0 0 0 0 0 127 0" result="hardAlpha"/>
<feOffset dy="4"/>
<feGaussianBlur stdDeviation="125"/>
<feComposite in2="hardAlpha" operator="out"/>
<feColorMatrix type="matrix" values="0 0 0 0 1 0 0 0 0 0.916 0 0 0 0 0.475 0 0 0 0.5 0"/>
<feBlend mode="normal" in2="BackgroundImageFix" result="effect1_dropShadow_0_1"/>
<feBlend mode="normal" in="SourceGraphic" in2="effect1_dropShadow_0_1" result="shape"/>
</filter>
<filter id="filter43_d_0_1" x="1530.93" y="722.355" width="512.379" height="512.379" filterUnits="userSpaceOnUse" color-interpolation-filters="sRGB">
<feFlood flood-opacity="0" result="BackgroundImageFix"/>
<feColorMatrix in="SourceAlpha" type="matrix" values="0 0 0 0 0 0 0 0 0 0 0 0 0 0 0 0 0 0 127 0" result="hardAlpha"/>
<feOffset dy="4"/>
<feGaussianBlur stdDeviation="125"/>
<feComposite in2="hardAlpha" operator="out"/>
<feColorMatrix type="matrix" values="0 0 0 0 1 0 0 0 0 0.916 0 0 0 0 0.475 0 0 0 0.5 0"/>
<feBlend mode="normal" in2="BackgroundImageFix" result="effect1_dropShadow_0_1"/>
<feBlend mode="normal" in="SourceGraphic" in2="effect1_dropShadow_0_1" result="shape"/>
</filter>
<filter id="filter44_d_0_1" x="1174.42" y="712.452" width="512.379" height="512.379" filterUnits="userSpaceOnUse" color-interpolation-filters="sRGB">
<feFlood flood-opacity="0" result="BackgroundImageFix"/>
<feColorMatrix in="SourceAlpha" type="matrix" values="0 0 0 0 0 0 0 0 0 0 0 0 0 0 0 0 0 0 127 0" result="hardAlpha"/>
<feOffset dy="4"/>
<feGaussianBlur stdDeviation="125"/>
<feComposite in2="hardAlpha" operator="out"/>
<feColorMatrix type="matrix" values="0 0 0 0 1 0 0 0 0 0.916 0 0 0 0 0.475 0 0 0 0.5 0"/>
<feBlend mode="normal" in2="BackgroundImageFix" result="effect1_dropShadow_0_1"/>
<feBlend mode="normal" in="SourceGraphic" in2="effect1_dropShadow_0_1" result="shape"/>
</filter>
<filter id="filter45_d_0_1" x="1372.48" y="672.84" width="512.379" height="512.379" filterUnits="userSpaceOnUse" color-interpolation-filters="sRGB">
<feFlood flood-opacity="0" result="BackgroundImageFix"/>
<feColorMatrix in="SourceAlpha" type="matrix" values="0 0 0 0 0 0 0 0 0 0 0 0 0 0 0 0 0 0 127 0" result="hardAlpha"/>
<feOffset dy="4"/>
<feGaussianBlur stdDeviation="125"/>
<feComposite in2="hardAlpha" operator="out"/>
<feColorMatrix type="matrix" values="0 0 0 0 1 0 0 0 0 0.916 0 0 0 0 0.475 0 0 0 0.5 0"/>
<feBlend mode="normal" in2="BackgroundImageFix" result="effect1_dropShadow_0_1"/>
<feBlend mode="normal" in="SourceGraphic" in2="effect1_dropShadow_0_1" result="shape"/>
</filter>
<filter id="filter46_d_0_1" x="1573" y="977" width="512.379" height="512.379" filterUnits="userSpaceOnUse" color-interpolation-filters="sRGB">
<feFlood flood-opacity="0" result="BackgroundImageFix"/>
<feColorMatrix in="SourceAlpha" type="matrix" values="0 0 0 0 0 0 0 0 0 0 0 0 0 0 0 0 0 0 127 0" result="hardAlpha"/>
<feOffset dy="4"/>
<feGaussianBlur stdDeviation="125"/>
<feComposite in2="hardAlpha" operator="out"/>
<feColorMatrix type="matrix" values="0 0 0 0 1 0 0 0 0 0.916 0 0 0 0 0.475 0 0 0 0.5 0"/>
<feBlend mode="normal" in2="BackgroundImageFix" result="effect1_dropShadow_0_1"/>
<feBlend mode="normal" in="SourceGraphic" in2="effect1_dropShadow_0_1" result="shape"/>
</filter>
<filter id="filter47_d_0_1" x="1925" y="1521" width="512.379" height="512.379" filterUnits="userSpaceOnUse" color-interpolation-filters="sRGB">
<feFlood flood-opacity="0" result="BackgroundImageFix"/>
<feColorMatrix in="SourceAlpha" type="matrix" values="0 0 0 0 0 0 0 0 0 0 0 0 0 0 0 0 0 0 127 0" result="hardAlpha"/>
<feOffset dy="4"/>
<feGaussianBlur stdDeviation="125"/>
<feComposite in2="hardAlpha" operator="out"/>
<feColorMatrix type="matrix" values="0 0 0 0 1 0 0 0 0 0.916 0 0 0 0 0.475 0 0 0 0.5 0"/>
<feBlend mode="normal" in2="BackgroundImageFix" result="effect1_dropShadow_0_1"/>
<feBlend mode="normal" in="SourceGraphic" in2="effect1_dropShadow_0_1" result="shape"/>
</filter>
<filter id="filter48_df_0_1" x="2623.73" y="347.031" width="352.234" height="280.234" filterUnits="userSpaceOnUse" color-interpolation-filters="sRGB">
<feFlood flood-opacity="0" result="BackgroundImageFix"/>
<feColorMatrix in="SourceAlpha" type="matrix" values="0 0 0 0 0 0 0 0 0 0 0 0 0 0 0 0 0 0 127 0" result="hardAlpha"/>
<feOffset dy="4"/>
<feGaussianBlur stdDeviation="2"/>
<feComposite in2="hardAlpha" operator="out"/>
<feColorMatrix type="matrix" values="0 0 0 0 0 0 0 0 0 0 0 0 0 0 0 0 0 0 0.25 0"/>
<feBlend mode="normal" in2="BackgroundImageFix" result="effect1_dropShadow_0_1"/>
<feBlend mode="normal" in="SourceGraphic" in2="effect1_dropShadow_0_1" result="shape"/>
<feGaussianBlur stdDeviation="2.5" result="effect2_foregroundBlur_0_1"/>
</filter>
<filter id="filter49_d_0_1" x="-258" y="1411" width="2375.1" height="676" filterUnits="userSpaceOnUse" color-interpolation-filters="sRGB">
<feFlood flood-opacity="0" result="BackgroundImageFix"/>
<feColorMatrix in="SourceAlpha" type="matrix" values="0 0 0 0 0 0 0 0 0 0 0 0 0 0 0 0 0 0 127 0" result="hardAlpha"/>
<feOffset dy="4"/>
<feGaussianBlur stdDeviation="125"/>
<feComposite in2="hardAlpha" operator="out"/>
<feColorMatrix type="matrix" values="0 0 0 0 0.8075 0 0 0 0 0.95 0 0 0 0 0.94145 0 0 0 0.4 0"/>
<feBlend mode="normal" in2="BackgroundImageFix" result="effect1_dropShadow_0_1"/>
<feBlend mode="normal" in="SourceGraphic" in2="effect1_dropShadow_0_1" result="shape"/>
</filter>
<filter id="filter50_df_0_1" x="-314" y="-250" width="4116" height="2328" filterUnits="userSpaceOnUse" color-interpolation-filters="sRGB">
<feFlood flood-opacity="0" result="BackgroundImageFix"/>
<feColorMatrix in="SourceAlpha" type="matrix" values="0 0 0 0 0 0 0 0 0 0 0 0 0 0 0 0 0 0 127 0" result="hardAlpha"/>
<feOffset dy="4"/>
<feGaussianBlur stdDeviation="125"/>
<feComposite in2="hardAlpha" operator="out"/>
<feColorMatrix type="matrix" values="0 0 0 0 0.285243 0 0 0 0 0.290637 0 0 0 0 0.441667 0 0 0 0.2 0"/>
<feBlend mode="normal" in2="BackgroundImageFix" result="effect1_dropShadow_0_1"/>
<feBlend mode="normal" in="SourceGraphic" in2="effect1_dropShadow_0_1" result="shape"/>
<feGaussianBlur stdDeviation="1.5" result="effect2_foregroundBlur_0_1"/>
</filter>
<filter id="filter51_f_0_1" x="215.94" y="1722.79" width="669.411" height="173.063" filterUnits="userSpaceOnUse" color-interpolation-filters="sRGB">
<feFlood flood-opacity="0" result="BackgroundImageFix"/>
<feBlend mode="normal" in="SourceGraphic" in2="BackgroundImageFix" result="shape"/>
<feGaussianBlur stdDeviation="3" result="effect1_foregroundBlur_0_1"/>
</filter>
<linearGradient id="paint0_linear_0_1" x1="3095.53" y1="1119" x2="3095.53" y2="-355.044" gradientUnits="userSpaceOnUse">
<stop stop-color="#FCC73F"/>
<stop offset="1" stop-color="#FCD23F" stop-opacity="0"/>
</linearGradient>
</defs>
</svg>
