<svg width="6080" height="2544" viewBox="0 0 6080 2544" fill="none" xmlns="http://www.w3.org/2000/svg">
<rect width="6080" height="2544" fill="#E5E5E5"/>
<rect x="-24" y="-34" width="6124" height="2614" fill="#292552"/>
<ellipse rx="6.57638" ry="5.30953" transform="matrix(1 0 0 -1 3808 818.254)" fill="#FCD23F"/>
<path d="M3438.57 321.809C3438.57 319.463 3436.21 317.561 3433.31 317.561C3430.4 317.561 3428.05 319.463 3428.05 321.809C3428.05 324.155 3430.4 326.057 3433.31 326.057C3436.21 326.057 3438.57 324.155 3438.57 321.809Z" fill="#FCD23F"/>
<ellipse rx="5.2611" ry="4.24763" transform="matrix(1 0 0 -1 3577.83 953.115)" fill="#FCD23F"/>
<ellipse rx="6.57638" ry="4.24763" transform="matrix(1 0 0 -1 3400.27 923.382)" fill="#FCD23F"/>
<ellipse rx="8.21295" ry="6.63084" transform="matrix(1 0 0 -1 2833.1 596.446)" fill="#FCD23F"/>
<ellipse rx="6.57036" ry="5.30468" transform="matrix(1 0 0 -1 2355.11 258.273)" fill="#FCD23F"/>
<ellipse rx="6.57036" ry="5.30468" transform="matrix(1 0 0 -1 2752.62 250.316)" fill="#FCD23F"/>
<ellipse rx="6.57036" ry="5.30468" transform="matrix(1 0 0 -1 2532.51 213.183)" fill="#FCD23F"/>
<ellipse rx="8.21295" ry="6.63084" transform="matrix(1 0 0 -1 2146.5 774.152)" fill="#FCD23F"/>
<ellipse rx="6.57036" ry="5.30468" transform="matrix(1 0 0 -1 2545.65 764.87)" fill="#FCD23F"/>
<ellipse rx="8.21295" ry="5.30468" transform="matrix(1 0 0 -1 2323.9 727.737)" fill="#FCD23F"/>
<ellipse rx="10.3464" ry="8.3533" transform="matrix(-1 0 0 1 576.183 1493.05)" fill="#FCD23F"/>
<ellipse rx="8.2771" ry="6.68264" transform="matrix(-1 0 0 1 1178.34 1919.07)" fill="#FCD23F"/>
<ellipse rx="8.2771" ry="6.68264" transform="matrix(-1 0 0 1 3005.53 2039.53)" fill="#FCD23F"/>
<ellipse rx="8.2771" ry="6.68264" transform="matrix(-1 0 0 1 2799.38 2434.65)" fill="#FCD23F"/>
<ellipse rx="8.2771" ry="6.68264" transform="matrix(-1 0 0 1 2536.4 2182.24)" fill="#FCD23F"/>
<ellipse rx="8.2771" ry="6.68264" transform="matrix(-1 0 0 1 1775.23 2169.03)" fill="#FCD23F"/>
<ellipse rx="8.2771" ry="6.68264" transform="matrix(-1 0 0 1 677.576 1929.09)" fill="#FCD23F"/>
<ellipse rx="5.14092" ry="4.15059" transform="matrix(0.0135155 0.999909 0.999909 -0.0135155 5387.77 1271.11)" fill="#FCD23F"/>
<ellipse rx="4.11273" ry="3.32048" transform="matrix(0.0135155 0.999909 0.999909 -0.0135155 5595.39 969.075)" fill="#FCD23F"/>
<ellipse rx="4.11273" ry="3.32048" transform="matrix(0.0135155 0.999909 0.999909 -0.0135155 5603.73 1217.8)" fill="#FCD23F"/>
<ellipse rx="4.11273" ry="3.32048" transform="matrix(0.0135155 0.999909 0.999909 -0.0135155 5279.93 1092.62)" fill="#FCD23F"/>
<ellipse rx="10.3464" ry="8.3533" transform="matrix(0.0135155 0.999909 0.999909 -0.0135155 5199.19 2354.24)" fill="#FCD23F"/>
<ellipse rx="8.2771" ry="6.68264" transform="matrix(0.0135155 0.999909 0.999909 -0.0135155 5617.03 1746.38)" fill="#FCD23F"/>
<ellipse rx="8.2771" ry="6.68264" transform="matrix(0.0135155 0.999909 0.999909 -0.0135155 5633.82 2246.96)" fill="#FCD23F"/>
<ellipse rx="10.3464" ry="6.68264" transform="matrix(0.0135155 0.999909 0.999909 -0.0135155 5315.34 1925.67)" fill="#FCD23F"/>
<ellipse rx="5.14092" ry="4.15059" transform="matrix(0.999997 0.00226386 0.00226386 -0.999997 4587.41 339.762)" fill="#FCD23F"/>
<ellipse rx="4.11273" ry="3.32048" transform="matrix(0.999997 0.00226386 0.00226386 -0.999997 4288.69 127.405)" fill="#FCD23F"/>
<ellipse rx="4.11273" ry="3.32048" transform="matrix(0.999997 0.00226386 0.00226386 -0.999997 4537.52 122.987)" fill="#FCD23F"/>
<ellipse rx="5.14092" ry="4.15059" transform="matrix(0.999997 0.00226386 0.00226386 -0.999997 4157.37 450.024)" fill="#FCD23F"/>
<ellipse rx="5.14092" ry="3.32048" transform="matrix(0.999997 0.00226386 0.00226386 -0.999997 4268.48 421.222)" fill="#FCD23F"/>
<ellipse rx="10.3464" ry="8.3533" transform="matrix(0.999997 0.00226386 0.00226386 -0.999997 5578.92 594.459)" fill="#FCD23F"/>
<ellipse rx="8.2771" ry="6.68264" transform="matrix(0.999997 0.00226386 0.00226386 -0.999997 4977.73 167.079)" fill="#FCD23F"/>
<ellipse rx="8.2771" ry="6.68264" transform="matrix(0.999997 0.00226386 0.00226386 -0.999997 5478.52 158.188)" fill="#FCD23F"/>
<ellipse rx="8.2771" ry="6.68264" transform="matrix(0.999997 0.00226386 0.00226386 -0.999997 5201.34 110.782)" fill="#FCD23F"/>
<ellipse rx="8.2771" ry="6.68264" transform="matrix(0.999997 0.00226386 0.00226386 -0.999997 5216.32 805.812)" fill="#FCD23F"/>
<ellipse rx="10.3464" ry="6.68264" transform="matrix(0.999997 0.00226386 0.00226386 -0.999997 4937.08 758.401)" fill="#FCD23F"/>
<ellipse rx="10.6747" ry="8.6184" transform="matrix(-0.0546257 -0.998507 -0.998507 0.0546257 947.696 53.7466)" fill="#FCD23F"/>
<ellipse rx="8.53979" ry="6.89472" transform="matrix(-0.0546257 -0.998507 -0.998507 0.0546257 542.75 698.096)" fill="#FCD23F"/>
<ellipse rx="8.53979" ry="6.89472" transform="matrix(-0.0546257 -0.998507 -0.998507 0.0546257 504.202 182.777)" fill="#FCD23F"/>
<ellipse rx="8.53979" ry="6.89472" transform="matrix(-0.0546257 -0.998507 -0.998507 0.0546257 471.638 471.072)" fill="#FCD23F"/>
<ellipse rx="10.6747" ry="8.6184" transform="matrix(-0.0546257 -0.998507 -0.998507 0.0546257 1227.07 932.204)" fill="#FCD23F"/>
<ellipse rx="8.53979" ry="6.89472" transform="matrix(-0.0546257 -0.998507 -0.998507 0.0546257 1186.69 414.845)" fill="#FCD23F"/>
<ellipse rx="10.6747" ry="6.89472" transform="matrix(-0.0546257 -0.998507 -0.998507 0.0546257 1154.24 705.267)" fill="#FCD23F"/>
<ellipse rx="5.16493" ry="4.16998" transform="matrix(0.765729 -0.643163 -0.643163 -0.765729 3359.76 1292.39)" fill="#FCD23F"/>
<ellipse rx="5.16493" ry="4.16998" transform="matrix(0.765729 -0.643163 -0.643163 -0.765729 3101 1655.67)" fill="#FCD23F"/>
<ellipse rx="4.13195" ry="3.33599" transform="matrix(0.765729 -0.643163 -0.643163 -0.765729 3367.55 1372.78)" fill="#FCD23F"/>
<circle r="5.94358" transform="matrix(-0.011335 0.999936 0.999936 0.011335 3894.64 2441.04)" fill="#FCD23F"/>
<circle r="4.75487" transform="matrix(-0.011335 0.999936 0.999936 0.011335 4201.66 2098.58)" fill="#FCD23F"/>
<circle r="4.75487" transform="matrix(-0.011335 0.999936 0.999936 0.011335 4205.53 2386.32)" fill="#FCD23F"/>
<circle r="4.75487" transform="matrix(-0.011335 0.999936 0.999936 0.011335 4240.62 2227.41)" fill="#FCD23F"/>
<circle r="5.94358" transform="matrix(-0.011335 0.999936 0.999936 0.011335 3740.99 1942.39)" fill="#FCD23F"/>
<circle r="4.75487" transform="matrix(-0.011335 0.999936 0.999936 0.011335 3746.04 2231.32)" fill="#FCD23F"/>
<circle r="17.0668" transform="matrix(0.339559 0.940585 0.940585 -0.339559 665.792 2494.29)" fill="#FCD23F"/>
<circle r="13.6535" transform="matrix(0.339559 0.940585 0.940585 -0.339559 1381.54 1571.79)" fill="#FCD23F"/>
<path d="M414.152 433.959L488.201 458.362C486.628 439.47 482.085 406.684 488.201 375.776L405.689 352.675C399.891 381.449 401.771 413.324 414.152 433.959Z" fill="#B782B1"/>
<path d="M533.689 294.985L460.697 271.578C430.013 281.907 416.796 314.421 405.689 352.675L488.201 375.776C499.309 344.042 511.499 314.774 533.689 294.985Z" fill="#E7CEE4"/>
<path d="M570.713 290.091C560.958 297.015 558.896 293.353 551.672 301.245C533.938 314.238 524.996 336.362 516.588 357.167L516.234 358.042L712.465 422.323C733.588 377.893 751.819 357.555 764.62 352.675L746.317 346.768L712.465 335.842L570.713 290.091Z" fill="#E1C9DE"/>
<path d="M712.465 422.323L516.234 358.042C509.264 375.285 504.709 393.53 503.072 411.744L697.656 467.81L697.674 467.73C701.117 452.46 703.804 440.541 712.465 422.323Z" fill="#D5B0D0"/>
<path d="M507.242 464.636C508.215 471.698 512.716 472.744 515.169 476.6L541.094 458.362L570.713 467.81L544.234 487.494L691.308 532.543C689.257 522.697 691.344 495.803 697.656 467.81L503.072 411.744C501.454 429.739 502.683 447.702 507.242 464.636Z" fill="#B482AD"/>
<path d="M697.656 467.81C691.344 495.803 689.257 522.697 691.308 532.543L719.73 541.86C715.963 528.794 716.008 512.791 715.905 499.546C715.788 484.563 717.609 469.851 720.814 455.724C730.198 414.365 751.444 378.024 770.647 354.62L764.62 352.675C751.819 357.555 733.588 377.893 712.465 422.323C703.804 440.541 701.117 452.46 697.674 467.73L697.656 467.81Z" fill="#8C6387"/>
<path d="M876.432 368.371C855.678 392.425 833.564 418.619 820.895 455.724C807.44 495.131 807.503 547.482 809.788 586.29C823.54 655.578 866.383 720.107 893.553 741.793C755.038 542.083 918.132 318.15 1020.8 293.04C962.999 301.197 906.19 333.883 876.432 368.371Z" fill="#8C6387"/>
<path d="M906.052 754.488C817.793 619.082 942.019 225.562 1180.04 363.767C1144.96 310.178 1095.46 290.555 1045.69 291.111C1037.42 291.204 1029.1 291.869 1020.8 293.04C918.132 318.15 755.038 542.083 893.553 741.793C901.159 749.976 906.052 754.488 906.052 754.488Z" fill="#C299BD"/>
<path d="M1203.31 602.791C1239.9 455.917 1180.04 363.767 1180.04 363.767C942.019 225.562 817.793 619.082 906.052 754.488C986.711 817.068 1070.94 790.109 1132.3 725.925L994.912 563.016C994.912 563.016 981.16 532.543 1008.66 520.702L1203.31 602.791Z" fill="#E1C9DE"/>
<path d="M789.688 344.042C781.226 346.768 770.647 354.62 770.647 354.62C751.444 378.024 730.198 414.365 720.814 455.724L796.036 473.099C803.441 403.281 846.39 367.881 863.738 365.727L789.688 344.042Z" fill="#91BFE1"/>
<path d="M820.895 455.724C833.564 418.619 855.678 392.425 876.432 368.371L863.738 365.727C846.39 367.881 803.441 403.281 796.036 473.099C790.219 488.742 793.509 502.471 789.689 514.355L715.905 499.546C716.008 512.791 715.963 528.794 719.73 541.86C721.217 547.018 723.298 551.719 726.217 555.612L809.788 586.29C807.503 547.482 807.44 495.131 820.895 455.724Z" fill="#224259"/>
<path d="M708.317 255.056C706.966 255.986 707.246 258.056 708.794 258.593L781.226 283.743L819.396 257.297C817.956 242.487 819.396 196.999 888.428 158.692L863.738 148.11L708.317 255.056Z" fill="#224259"/>
<path d="M1035.01 31.2489C1034.41 31.0402 1033.74 31.13 1033.22 31.4906L898.647 124.089L966.35 158.917L988.565 143.235L991.738 140.995C980.102 119.247 996.181 82.6457 1058.38 48.3713L1065.79 51.0423L1101.11 63.7844L1110.22 57.3578L1071.08 43.7702L1035.01 31.2489Z" fill="#224259"/>
<path d="M815.077 295.38L909.844 328.888C910.452 329.103 911.126 329.012 911.655 328.643L1052.04 230.746L1045.69 227.854L929.325 307.016C904.994 291.111 913.457 240.371 988.565 201.831L966.35 191.71L815.077 295.38Z" fill="#224259"/>
<path fill-rule="evenodd" clip-rule="evenodd" d="M1234.98 104.035C1236.33 103.103 1236.04 101.038 1234.5 100.502L1147.24 70.211L999.143 172.669L1082.71 209.498L1234.98 104.035ZM1098.58 191.71C1078.48 181.132 1067.37 137.231 1158.88 79.578L1221.29 101.793L1098.58 191.71Z" fill="#224259"/>
<path d="M464.928 504.692L375.011 473.099L232.201 574.179L240.135 577.765L359.143 500.074C369.722 510.897 372.472 546.895 298.846 604.302L310.482 609.561L464.928 504.692Z" fill="#224259"/>
<path d="M420.499 651.918L570.713 541.86L507.242 519.559L464.928 548.38C475.507 586.29 434.251 623.313 405.689 645.459L420.499 651.918Z" fill="#224259"/>
<path d="M172.962 748.658L250.185 776.702L387.705 675.944L318.945 645.528L294.614 662.716C302.725 674.265 298.846 717.462 226.912 754.488L214.218 751.802L182.679 741.793L172.962 748.658Z" fill="#224259"/>
<path fill-rule="evenodd" clip-rule="evenodd" d="M202.581 595.143L49.193 703.71L136.995 735.596L286.152 631.776L202.581 595.143ZM61.8872 703.71L191.451 614.851C203.271 625.076 206.284 661.29 123.771 724.338L61.8872 703.71Z" fill="#224259"/>
<path d="M1057.32 579.711L1149.82 705.826C1170.72 679.571 1186.2 649.086 1198.31 616.754L1198.35 616.666L1057.32 579.711Z" fill="#E1C9DE"/>
<path fill-rule="evenodd" clip-rule="evenodd" d="M1149.82 705.826C1144.22 712.857 1138.37 719.573 1132.3 725.925L1149.82 705.826Z" fill="#C4C4C4"/>
<path d="M1008.66 520.702C981.16 532.543 994.912 563.016 994.912 563.016L1057.32 579.711L1198.35 616.666C1200.07 612.076 1201.72 607.449 1203.31 602.791L1008.66 520.702Z" fill="#8C6387"/>
<path d="M1251.97 623.314L1251.97 630.719C1240.33 680.438 1303.45 680.438 1312.27 653.991C1331.31 596.867 1263.61 595.809 1251.97 623.314Z" fill="#8C6387"/>
<path d="M1251.97 623.314L1203.31 602.791C1201.72 607.449 1200.07 612.076 1198.35 616.666L1251.97 630.719L1251.97 623.314Z" fill="#8C6387"/>
<path d="M551.672 301.245L533.689 294.985C511.499 314.774 499.309 344.042 488.201 375.776C482.085 406.684 486.628 439.47 488.201 458.362L507.242 464.636C502.683 447.702 501.454 429.739 503.072 411.744C504.709 393.53 509.264 375.285 516.234 358.042L516.588 357.167C524.996 336.362 533.938 314.238 551.672 301.245Z" fill="#8C6387"/>
<path d="M715.905 499.546L789.689 514.355C793.509 502.471 790.219 488.742 796.036 473.099L720.814 455.724C717.609 469.851 715.788 484.563 715.905 499.546Z" fill="#59809C"/>
<path d="M570.713 467.81L541.094 458.362L515.169 476.6C515.596 477.272 515.961 478.029 516.234 478.917L544.234 487.494L570.713 467.81Z" fill="#B1BBC2"/>
<path d="M471.804 507.108L503.072 518.094L544.234 487.494L516.234 478.917C515.961 478.029 515.596 477.272 515.169 476.6L471.804 507.108Z" fill="#B1BBC2"/>
<path d="M781.226 283.743L712.465 335.842L746.317 346.768L815.077 295.38L781.226 283.743Z" fill="#B1BBC2"/>
<path d="M781.226 283.743L815.077 295.38L966.35 191.71L988.565 201.831L1045.69 227.854L1052.04 230.746L1082.71 209.498L999.143 172.669L1147.24 70.211L1110.22 57.3578L1101.11 63.7844L1092.01 70.211L1034.05 111.124L1008.66 129.047L991.738 140.995L988.565 143.235L966.35 158.917L898.647 124.089L865.854 146.655L863.738 148.11L888.428 158.692L934.614 178.487L922.978 185.529L835.176 246.363L819.396 257.297L781.226 283.743Z" fill="#B1BBC2"/>
<path d="M202.581 595.143L286.152 631.776L136.995 735.596L172.962 748.658L182.679 741.793L191.451 735.596L250.185 694.104L275.89 675.944L294.614 662.716L318.945 645.528L387.705 675.944L420.499 651.918L405.689 645.459L354.912 623.313L464.928 548.38L507.242 519.559L503.072 518.094L471.804 507.108L464.928 504.692L310.482 609.561L298.846 604.302L240.135 577.765L232.201 574.179L202.581 595.143Z" fill="#B1BBC2"/>
<path d="M994.912 563.016L1132.3 725.925L1149.82 705.826L1057.32 579.711L994.912 563.016Z" fill="#D0AEBE"/>
<path fill-rule="evenodd" clip-rule="evenodd" d="M191.451 614.851L61.8872 703.71L123.771 724.338C206.284 661.29 203.271 625.076 191.451 614.851ZM78.2839 701.065L182.679 628.603C184.376 643.412 174.443 681.918 121.127 717.462L78.2839 701.065Z" fill="#4C6D78"/>
<path d="M226.912 754.488C298.846 717.462 302.725 674.265 294.614 662.716L275.89 675.944C274.79 707.904 239.606 741.793 214.218 751.802L226.912 754.488Z" fill="#4C6D78"/>
<path fill-rule="evenodd" clip-rule="evenodd" d="M464.928 548.38L354.912 623.313L405.689 645.459C434.251 623.313 475.507 586.29 464.928 548.38ZM404.631 637.065L368.664 623.313L454.35 559.842C457.876 568.658 452.869 596.445 404.631 637.065Z" fill="#4C6D78"/>
<path fill-rule="evenodd" clip-rule="evenodd" d="M298.846 604.302C372.472 546.895 369.722 510.897 359.143 500.074L240.135 577.765L298.846 604.302ZM290.912 595.28L256.532 577.765L352.796 508.537C353.501 521.008 342.112 555.817 290.912 595.28Z" fill="#4C6D78"/>
<path d="M991.738 140.995L1008.66 129.047C1008.66 107.244 1041.46 63.7844 1065.79 51.0423L1058.38 48.3713C996.181 82.6457 980.102 119.247 991.738 140.995Z" fill="#4C6D78"/>
<path fill-rule="evenodd" clip-rule="evenodd" d="M1158.88 79.578C1067.37 137.231 1078.48 181.132 1098.58 191.71L1221.29 101.793L1158.88 79.578ZM1104.93 174.785C1105.27 161.738 1110.22 120.305 1165.23 88.0408L1206.48 101.793L1104.93 174.785Z" fill="#4C6D78"/>
<path d="M819.396 257.297L835.176 246.363C836.869 202.641 871.383 174.785 888.428 166.322L922.978 185.529L934.614 178.487L888.428 158.692C819.396 196.999 817.956 242.487 819.396 257.297Z" fill="#4C6D78"/>
<path fill-rule="evenodd" clip-rule="evenodd" d="M988.565 201.831C913.457 240.371 904.994 291.111 929.325 307.016L1045.69 227.854L988.565 201.831ZM934.614 295.38C934.614 278.454 944.135 239.313 991.738 209.498L1028.76 226.619L934.614 295.38Z" fill="#4C6D78"/>
<path fill-rule="evenodd" clip-rule="evenodd" d="M991.738 209.498C944.135 239.313 934.614 278.454 934.614 295.38L1028.76 226.619L991.738 209.498ZM958.945 265.76C963.529 254.089 977.986 228.228 999.143 218.156L1017.13 227.854L958.945 265.76Z" fill="#5E828E"/>
<path fill-rule="evenodd" clip-rule="evenodd" d="M888.428 166.322C871.383 174.785 836.869 202.641 835.176 246.363L922.978 185.529L888.428 166.322ZM858.449 218.156C860.917 209.341 870.369 186.95 888.428 178.487L904.994 185.529L858.449 218.156Z" fill="#5E828E"/>
<path d="M1008.66 129.047L1034.05 111.124C1034.05 96.8889 1058.74 72.8783 1071.08 62.6524L1092.01 70.211L1101.11 63.7844L1065.79 51.0423C1041.46 63.7844 1008.66 107.244 1008.66 129.047Z" fill="#5E828E"/>
<path fill-rule="evenodd" clip-rule="evenodd" d="M1165.23 88.0408C1110.22 120.305 1105.27 161.738 1104.93 174.785L1206.48 101.793L1165.23 88.0408ZM1132.43 143.235C1135 132.531 1150.42 108.479 1168.4 99.1482L1187.44 106.024L1132.43 143.235Z" fill="#5E828E"/>
<path fill-rule="evenodd" clip-rule="evenodd" d="M256.532 577.765L290.912 595.28C342.112 555.817 353.501 521.008 352.796 508.537L256.532 577.765ZM286.152 584.173L270.813 577.765L326.35 536.57C316.195 562.381 295.32 579.06 286.152 584.173Z" fill="#5E828E"/>
<path fill-rule="evenodd" clip-rule="evenodd" d="M368.664 623.313L404.631 637.065C452.869 596.445 457.876 568.658 454.35 559.842L368.664 623.313ZM394.581 628.603L379.771 623.313L428.961 587.875C427.551 596.514 418.7 616.755 394.581 628.603Z" fill="#5E828E"/>
<path fill-rule="evenodd" clip-rule="evenodd" d="M182.679 628.603L78.2839 701.065L121.127 717.462C174.443 681.918 184.376 643.412 182.679 628.603ZM98.912 697.363L156.565 657.165C154.978 666.156 144.929 688.054 117.424 703.71L98.912 697.363Z" fill="#5E828E"/>
<path d="M182.679 741.793L214.218 751.802C239.606 741.793 274.79 707.904 275.89 675.944L250.185 694.104C250.185 700.127 242.991 718.097 214.218 741.793L191.451 735.596L182.679 741.793Z" fill="#5E828E"/>
<path d="M191.451 735.596L214.218 741.793C242.991 718.097 250.185 700.127 250.185 694.104L191.451 735.596Z" fill="#8BACB7"/>
<path d="M156.565 657.165L98.912 697.363L117.424 703.71C144.929 688.054 154.978 666.156 156.565 657.165Z" fill="#8BACB7"/>
<path d="M270.813 577.765L286.152 584.173C295.32 579.06 316.195 562.381 326.35 536.57L270.813 577.765Z" fill="#8BACB7"/>
<path d="M379.771 623.313L394.581 628.603C418.7 616.755 427.551 596.514 428.961 587.875L379.771 623.313Z" fill="#8BACB7"/>
<path d="M888.428 178.487C870.369 186.95 860.917 209.341 858.449 218.156L904.994 185.529L888.428 178.487Z" fill="#8BACB7"/>
<path d="M1071.08 62.6524C1058.74 72.8783 1034.05 96.8889 1034.05 111.124L1092.01 70.211L1071.08 62.6524Z" fill="#8BACB7"/>
<path d="M1168.4 99.1482C1150.42 108.479 1135 132.531 1132.43 143.235L1187.44 106.024L1168.4 99.1482Z" fill="#8BACB7"/>
<path d="M999.143 218.156C977.986 228.228 963.529 254.089 958.945 265.76L1017.13 227.854L999.143 218.156Z" fill="#8BACB7"/>
</svg>
